<svg xmlns="http://www.w3.org/2000/svg" width="94" height="94" viewBox="0 0 94 94">
  <g id="Grupo_57767" data-name="Grupo 57767" transform="translate(-753 -2076.413)">
    <circle id="Elipse_4470" data-name="Elipse 4470" cx="47" cy="47" r="47" transform="translate(753 2076.413)" fill="#8f2b58"/>
    <g id="Grupo_57315" data-name="Grupo 57315" transform="translate(859.982 2483.432)">
      <g id="Grupo_57314" data-name="Grupo 57314" transform="translate(-89.982 -388.019)">
        <path id="Trazado_102588" data-name="Trazado 102588" d="M-34.9-388.019H-85.629a4.358,4.358,0,0,0-4.353,4.353v38.307a4.358,4.358,0,0,0,4.353,4.353h18.58l-1.048,3.667a4.024,4.024,0,0,1-3.6,2.717h-6.559a.871.871,0,0,0-.871.871.871.871,0,0,0,.871.871h35.985a.871.871,0,0,0,.871-.871.871.871,0,0,0-.871-.871h-6.559a4.024,4.024,0,0,1-3.6-2.717l-1.048-3.667H-34.9a4.358,4.358,0,0,0,4.353-4.353v-38.307A4.358,4.358,0,0,0-34.9-388.019Zm-50.728,1.741H-34.9a2.615,2.615,0,0,1,2.612,2.612v30.471H-88.241v-30.471A2.615,2.615,0,0,1-85.629-386.278Zm31.522,49.418a5.307,5.307,0,0,0,1.336,2.238H-67.76a5.315,5.315,0,0,0,1.337-2.238l1.184-4.146h9.947Zm19.206-5.887H-85.629a2.615,2.615,0,0,1-2.611-2.612v-6.094H-32.29v6.094A2.615,2.615,0,0,1-34.9-342.747Z" transform="translate(89.982 388.019)" fill="#fff"/>
        <path id="Trazado_102589" data-name="Trazado 102589" d="M-80.972-350.278h50.728a.871.871,0,0,0,.871-.871v-27.86a.871.871,0,0,0-.871-.871H-80.972a.871.871,0,0,0-.871.871v12.189a.871.871,0,0,0,.871.871.871.871,0,0,0,.871-.871v-11.318h48.986v26.118H-80.1v-11.318a.871.871,0,0,0-.871-.871.871.871,0,0,0-.871.871v12.189A.871.871,0,0,0-80.972-350.278Z" transform="translate(85.325 383.362)" fill="#fff"/>
        <path id="Trazado_102590" data-name="Trazado 102590" d="M-24.016-298.482a2.615,2.615,0,0,0-2.612,2.612,2.615,2.615,0,0,0,2.612,2.612A2.615,2.615,0,0,0-21.4-295.87,2.615,2.615,0,0,0-24.016-298.482Zm0,3.483a.871.871,0,0,1-.871-.871.871.871,0,0,1,.871-.871.872.872,0,0,1,.871.871A.872.872,0,0,1-24.016-295Z" transform="translate(53.733 336.789)" fill="#fff"/>
      </g>
      <path id="Trazado_102591" data-name="Trazado 102591" d="M-46.315-344.762a.771.771,0,0,1-.762-.664.77.77,0,0,1,.656-.87c21.271-2.976,23.62-5.985,23.643-7.141.06-3.1-13.629-6.955-23.369-8.706a.771.771,0,0,1-.622-.9.77.77,0,0,1,.9-.622c.061.011,6.133,1.11,12.115,2.827,11.29,3.241,12.554,5.79,12.522,7.426-.043,2.214-2.678,5.519-24.97,8.638A.767.767,0,0,1-46.315-344.762Z" transform="translate(-24.544 -13.93)" fill="#fff"/>
      <path id="Trazado_102592" data-name="Trazado 102592" d="M-54.894-363.743a.771.771,0,0,1-.646-.349.771.771,0,0,1,.222-1.067l7.71-5.049a.77.77,0,0,1,1.067.223.771.771,0,0,1-.222,1.067l-7.71,5.049A.768.768,0,0,1-54.894-363.743Z" transform="translate(-19.635 -10.119)" fill="#fff"/>
    </g>
  </g>
</svg>
