<svg xmlns="http://www.w3.org/2000/svg" width="85" height="89.924" viewBox="0 0 85 89.924">
  <g id="Grupo_57257" data-name="Grupo 57257" transform="translate(-495 -3065.076)">
    <rect id="Rectángulo_6417" data-name="Rectángulo 6417" width="85" height="81" transform="translate(495 3074)" fill="none"/>
    <g id="Grupo_57256" data-name="Grupo 57256" transform="translate(495.933 3065.076)">
      <path id="Trazado_102462" data-name="Trazado 102462" d="M2366.466-625.33v65.865a5.946,5.946,0,0,0,5.946,5.946H2428.9a5.946,5.946,0,0,0,5.946-5.946V-625.33Z" transform="translate(-2351.596 642.707)" fill="#fff"/>
      <path id="Trazado_102463" data-name="Trazado 102463" d="M2707.12-625.33v65.865a5.946,5.946,0,0,1-5.946,5.946h4.127a5.946,5.946,0,0,0,5.946-5.946V-625.33Z" transform="translate(-2628 642.707)" fill="#e8e8e8"/>
      <g id="Grupo_57244" data-name="Grupo 57244" transform="translate(0 41.617)">
        <path id="Trazado_102464" data-name="Trazado 102464" d="M2338.68-437.013l-23.2-23.2-8.409,8.409,23.2,23.2a1.434,1.434,0,0,0,.514.33c.159.059.332-.082.5-.082l1.278.172,6.532-6.533-.583-1.169c0-.381.432-.858.162-1.128Z" transform="translate(-2302.546 464.739)" fill="#8eb9e5"/>
        <path id="Trazado_102465" data-name="Trazado 102465" d="M2368.78-437.013l-23.2-23.2-2.06,2.06,24.012,24.012a1.432,1.432,0,0,1,.388.713l1.284-1.284-.212-1.255c0-.174.181-.371.121-.531A1.436,1.436,0,0,0,2368.78-437.013Z" transform="translate(-2332.645 464.739)" fill="#7ca1d5"/>
        <g id="Grupo_57243" data-name="Grupo 57243" transform="translate(32.507 32.507)">
          <g id="Grupo_57242" data-name="Grupo 57242">
            <path id="Trazado_102466" data-name="Trazado 102466" d="M2473.869-292.071a1.341,1.341,0,0,1-.952-.394l-4.8-4.8a1.346,1.346,0,0,1,0-1.9,1.347,1.347,0,0,1,1.9,0l4.8,4.8a1.346,1.346,0,0,1,0,1.9A1.343,1.343,0,0,1,2473.869-292.071Z" transform="translate(-2467.718 299.568)" fill="#707ca0"/>
          </g>
        </g>
        <path id="Trazado_102467" data-name="Trazado 102467" d="M2328.872-436.481l1.9-1.9,23.068,23.068-1.9,1.9Z" transform="translate(-2320.551 446.71)" fill="#7ca1d5"/>
        <path id="Trazado_102468" data-name="Trazado 102468" d="M2451.533-317.188v-6.378a1.434,1.434,0,0,0-.092-.5l-8.224,8.224a1.433,1.433,0,0,0,.5.093h6.378A1.435,1.435,0,0,0,2451.533-317.188Z" transform="translate(-2414.978 352.308)" fill="#f9e4d8"/>
        <path id="Trazado_102469" data-name="Trazado 102469" d="M2286.181-485.308l-4.2,4.2a2.973,2.973,0,0,0,0,4.2l4.2,4.2,8.409-8.409-4.2-4.2a2.973,2.973,0,0,0-4.2,0Z" transform="translate(-2281.106 486.179)" fill="#e778ac"/>
        <path id="Trazado_102470" data-name="Trazado 102470" d="M2310.486-485.342c.014.013.029.025.043.039l6.264,6.264,2.059-2.06-4.2-4.2a2.972,2.972,0,0,0-4.162-.039Z" transform="translate(-2305.368 486.174)" fill="#e467a0"/>
      </g>
      <g id="Grupo_57246" data-name="Grupo 57246" transform="translate(23.929 28.384)">
        <g id="Grupo_57245" data-name="Grupo 57245" transform="translate(0 0)">
          <path id="Trazado_102471" data-name="Trazado 102471" d="M2467.386-559.454h-47.567a1.347,1.347,0,0,1-1.346-1.346,1.346,1.346,0,0,1,1.346-1.346h47.567a1.346,1.346,0,0,1,1.345,1.346A1.346,1.346,0,0,1,2467.386-559.454Z" transform="translate(-2418.472 562.146)" fill="#707ca0"/>
        </g>
      </g>
      <g id="Grupo_57248" data-name="Grupo 57248" transform="translate(23.929 37.302)">
        <g id="Grupo_57247" data-name="Grupo 57247" transform="translate(0 0)">
          <path id="Trazado_102472" data-name="Trazado 102472" d="M2467.386-508.254h-47.567a1.347,1.347,0,0,1-1.346-1.346,1.346,1.346,0,0,1,1.346-1.346h47.567a1.346,1.346,0,0,1,1.345,1.346A1.346,1.346,0,0,1,2467.386-508.254Z" transform="translate(-2418.472 510.946)" fill="#707ca0"/>
        </g>
      </g>
      <g id="Grupo_57250" data-name="Grupo 57250" transform="translate(23.929 46.221)">
        <g id="Grupo_57249" data-name="Grupo 57249" transform="translate(0 0)">
          <path id="Trazado_102473" data-name="Trazado 102473" d="M2467.386-457.054h-47.567a1.346,1.346,0,0,1-1.346-1.346,1.346,1.346,0,0,1,1.346-1.346h47.567a1.346,1.346,0,0,1,1.345,1.346A1.346,1.346,0,0,1,2467.386-457.054Z" transform="translate(-2418.472 459.746)" fill="#707ca0"/>
        </g>
      </g>
      <g id="Grupo_57252" data-name="Grupo 57252" transform="translate(23.929 55.14)">
        <g id="Grupo_57251" data-name="Grupo 57251" transform="translate(0)">
          <path id="Trazado_102474" data-name="Trazado 102474" d="M2467.386-405.854h-47.567a1.347,1.347,0,0,1-1.346-1.346,1.346,1.346,0,0,1,1.346-1.346h47.567a1.346,1.346,0,0,1,1.345,1.346A1.346,1.346,0,0,1,2467.386-405.854Z" transform="translate(-2418.472 408.546)" fill="#707ca0"/>
        </g>
      </g>
      <g id="Grupo_57254" data-name="Grupo 57254" transform="translate(40.28 64.059)">
        <g id="Grupo_57253" data-name="Grupo 57253" transform="translate(0 0)">
          <path id="Trazado_102475" data-name="Trazado 102475" d="M2544.9-354.654h-31.216A1.346,1.346,0,0,1,2512.34-356a1.346,1.346,0,0,1,1.346-1.346H2544.9a1.346,1.346,0,0,1,1.346,1.346A1.346,1.346,0,0,1,2544.9-354.654Z" transform="translate(-2512.34 357.346)" fill="#707ca0"/>
        </g>
      </g>
      <path id="Trazado_102476" data-name="Trazado 102476" d="M2428.9-690.953h-56.486a5.946,5.946,0,0,0-5.946,5.946v8.919h68.378v-8.919A5.946,5.946,0,0,0,2428.9-690.953Z" transform="translate(-2351.596 696.899)" fill="#ffc253"/>
      <path id="Trazado_102477" data-name="Trazado 102477" d="M2705.3-690.953h-4.127a5.946,5.946,0,0,1,5.946,5.946v8.919h4.127v-8.919A5.946,5.946,0,0,0,2705.3-690.953Z" transform="translate(-2628 696.899)" fill="#fdab4c"/>
      <g id="Grupo_57255" data-name="Grupo 57255" transform="translate(23.788)">
        <path id="Trazado_102478" data-name="Trazado 102478" d="M2417.667-716.168a2.973,2.973,0,0,0,2.973,2.973,2.973,2.973,0,0,0,2.973-2.973v-5.946a2.973,2.973,0,0,0-2.973-2.973,2.973,2.973,0,0,0-2.973,2.973Z" transform="translate(-2417.667 725.087)" fill="#aec9d4"/>
        <path id="Trazado_102479" data-name="Trazado 102479" d="M2673.667-716.168a2.973,2.973,0,0,0,2.973,2.973,2.973,2.973,0,0,0,2.973-2.973v-5.946a2.973,2.973,0,0,0-2.973-2.973,2.973,2.973,0,0,0-2.973,2.973Z" transform="translate(-2629.073 725.087)" fill="#aec9d4"/>
        <path id="Trazado_102480" data-name="Trazado 102480" d="M2503-716.168a2.973,2.973,0,0,0,2.973,2.973,2.973,2.973,0,0,0,2.973-2.973v-5.946a2.973,2.973,0,0,0-2.973-2.973,2.973,2.973,0,0,0-2.973,2.973Z" transform="translate(-2488.135 725.087)" fill="#aec9d4"/>
        <path id="Trazado_102481" data-name="Trazado 102481" d="M2588.333-716.168a2.973,2.973,0,0,0,2.973,2.973,2.973,2.973,0,0,0,2.973-2.973v-5.946a2.973,2.973,0,0,0-2.973-2.973,2.973,2.973,0,0,0-2.973,2.973Z" transform="translate(-2558.604 725.087)" fill="#aec9d4"/>
      </g>
      <path id="Trazado_102482" data-name="Trazado 102482" d="M2680.951-725.087a2.962,2.962,0,0,0-2.064.836,2.962,2.962,0,0,1,.909,2.137v5.946a2.962,2.962,0,0,1-.909,2.137,2.961,2.961,0,0,0,2.064.836,2.973,2.973,0,0,0,2.972-2.973v-5.946A2.973,2.973,0,0,0,2680.951-725.087Z" transform="translate(-2609.595 725.087)" fill="#99b8cc"/>
      <path id="Trazado_102483" data-name="Trazado 102483" d="M2595.617-725.087a2.96,2.96,0,0,0-2.063.836,2.964,2.964,0,0,1,.909,2.137v5.946a2.964,2.964,0,0,1-.909,2.137,2.96,2.96,0,0,0,2.063.836,2.973,2.973,0,0,0,2.973-2.973v-5.946A2.973,2.973,0,0,0,2595.617-725.087Z" transform="translate(-2539.127 725.087)" fill="#99b8cc"/>
      <path id="Trazado_102484" data-name="Trazado 102484" d="M2510.283-725.087a2.961,2.961,0,0,0-2.063.836,2.963,2.963,0,0,1,.909,2.137v5.946a2.963,2.963,0,0,1-.909,2.137,2.961,2.961,0,0,0,2.063.836,2.973,2.973,0,0,0,2.973-2.973v-5.946a2.973,2.973,0,0,0-2.973-2.973Z" transform="translate(-2468.657 725.087)" fill="#99b8cc"/>
      <path id="Trazado_102485" data-name="Trazado 102485" d="M2424.95-725.087a2.961,2.961,0,0,0-2.063.836,2.963,2.963,0,0,1,.909,2.137v5.946a2.963,2.963,0,0,1-.909,2.137,2.961,2.961,0,0,0,2.063.836,2.973,2.973,0,0,0,2.973-2.973v-5.946A2.973,2.973,0,0,0,2424.95-725.087Z" transform="translate(-2398.189 725.087)" fill="#99b8cc"/>
    </g>
  </g>
</svg>
