<svg xmlns="http://www.w3.org/2000/svg" width="55.843" height="50.049" viewBox="0 0 55.843 50.049">
  <g id="Grupo_53939" data-name="Grupo 53939" transform="translate(0 0)">
    <g id="Grupo_53937" data-name="Grupo 53937">
      <path id="Trazado_100930" data-name="Trazado 100930" d="M430.96,1916.235h-43.1a6.362,6.362,0,0,1-5.51-9.543l21.55-37.325a6.3,6.3,0,0,1,5.509-3.181h0a6.3,6.3,0,0,1,5.509,3.181l21.55,37.325a6.362,6.362,0,0,1-5.509,9.543Zm-24.2-45.219-21.55,37.325a3.063,3.063,0,0,0,2.653,4.594h43.1a3.063,3.063,0,0,0,2.652-4.594l-21.55-37.325a3.064,3.064,0,0,0-5.305,0Z" transform="translate(-381.488 -1866.187)" fill="#fff"/>
    </g>
    <g id="Grupo_53938" data-name="Grupo 53938" transform="translate(23.949 13.51)">
      <path id="Trazado_100931" data-name="Trazado 100931" d="M409.8,1879.91h0a3.984,3.984,0,0,1,3.956,4.456L412,1899a2.232,2.232,0,0,1-2.217,1.968h0A2.234,2.234,0,0,1,407.57,1899l-1.727-14.637A3.984,3.984,0,0,1,409.8,1879.91Z" transform="translate(-405.816 -1879.91)" fill="#fff"/>
      <path id="Trazado_100932" data-name="Trazado 100932" d="M407.555,1908.436a3.226,3.226,0,1,1,2.257.921A3.068,3.068,0,0,1,407.555,1908.436Z" transform="translate(-405.828 -1880.269)" fill="#fff"/>
    </g>
  </g>
</svg>
