<svg xmlns="http://www.w3.org/2000/svg" xmlns:xlink="http://www.w3.org/1999/xlink" width="820.001" height="222" viewBox="0 0 820.001 222">
  <defs>
    <linearGradient id="linear-gradient" x1="0.5" x2="0.5" y2="1" gradientUnits="objectBoundingBox">
      <stop offset="0" stop-color="#d6ebfb"/>
      <stop offset="1" stop-color="#fff"/>
    </linearGradient>
  </defs>
  <g id="Grupo_57760" data-name="Grupo 57760" transform="translate(-390 -4654)">
    <path id="Trazado_102335" data-name="Trazado 102335" d="M-3958-7132.967h315" transform="translate(4348 11838)" fill="none" stroke="#707070" stroke-width="3"/>
    <path id="Trazado_102338" data-name="Trazado 102338" d="M-3958-7132.967h315" transform="translate(4853 11838)" fill="none" stroke="#707070" stroke-width="3"/>
    <g id="Grupo_57759" data-name="Grupo 57759">
      <rect id="Rect치ngulo_6409" data-name="Rect치ngulo 6409" width="820" height="171" transform="translate(390 4705)" fill="url(#linear-gradient)"/>
      <g id="Grupo_57099" data-name="Grupo 57099" transform="translate(-52 137)">
        <path id="Trazado_102336" data-name="Trazado 102336" d="M-3633.439-7165.717c1.138-1.423-9.561-16.5-9.561-16.5l-20,49.8h29.561S-3634.577-7164.294-3633.439-7165.717Z" transform="translate(4400 11699.222)" fill="#8f2b58"/>
        <path id="Trazado_102337" data-name="Trazado 102337" d="M-3662.915-7165.717c-1.138-1.423,9.561-16.5,9.561-16.5l20,49.8h-29.561S-3661.777-7164.294-3662.915-7165.717Z" transform="translate(4600.354 11699.222)" fill="#8f2b58"/>
        <rect id="Rect치ngulo_6397" data-name="Rect치ngulo 6397" width="190" height="83" transform="translate(757 4517)" fill="#bf3976"/>
        <g id="Grupo_57098" data-name="Grupo 57098" transform="translate(40.843)">
          <text id="ZOOM" transform="translate(810 4566)" fill="#fff" font-size="20" font-family="Roboto-Bold, Roboto" font-weight="700"><tspan x="0" y="0">ZOOM</tspan></text>
          <path id="Trazado_102339" data-name="Trazado 102339" d="M-246.8-10.551A11.2,11.2,0,0,0-257.646-19,11.193,11.193,0,0,0-268.827-7.819a4.619,4.619,0,0,1-4.614,4.614H-277V.108h3.56a7.936,7.936,0,0,0,7.927-7.928,7.876,7.876,0,0,1,7.867-7.867,7.88,7.88,0,0,1,7.408,5.221A15.989,15.989,0,0,0-264.088,5.36V21.586a15.984,15.984,0,0,0,15.965,15.965,15.984,15.984,0,0,0,15.965-15.965V5.36A15.987,15.987,0,0,0-246.8-10.551ZM-235.47,5.36v.989h-7.91a4.993,4.993,0,0,0-3.085-3.194V-7.184a12.671,12.671,0,0,1,11,12.543Zm-11,2.48v4.749a1.659,1.659,0,0,1-1.657,1.657,1.659,1.659,0,0,1-1.657-1.657V7.84a1.659,1.659,0,0,1,1.657-1.657A1.659,1.659,0,0,1-246.465,7.84Zm-3.314-15.023V3.154a5,5,0,0,0-2.988,2.918h-8.007V5.36a12.671,12.671,0,0,1,11-12.543Zm1.657,41.421a12.666,12.666,0,0,1-12.652-12.652V9.386h7.682v3.2a4.976,4.976,0,0,0,4.97,4.97,4.976,4.976,0,0,0,4.97-4.97V9.662h7.682V21.586A12.666,12.666,0,0,1-248.122,34.238Z" transform="translate(1032.156 4549.225)" fill="#fff"/>
        </g>
      </g>
    </g>
  </g>
</svg>
