<svg xmlns="http://www.w3.org/2000/svg" width="94" height="94" viewBox="0 0 94 94">
  <g id="Grupo_57766" data-name="Grupo 57766" transform="translate(-20 4027)">
    <circle id="Elipse_4460" data-name="Elipse 4460" cx="47" cy="47" r="47" transform="translate(20 -4027)" fill="#8f2b58"/>
    <g id="surface1" transform="translate(36.597 -4008.25)">
      <path id="Trazado_102563" data-name="Trazado 102563" d="M4.054,48.9H6.081V46.868H4.054a2.027,2.027,0,0,1-2.027-2.027V4.3A2.027,2.027,0,0,1,4.054,2.277H48.645A2.027,2.027,0,0,1,50.672,4.3V6.331H52.7V4.3A4.054,4.054,0,0,0,48.645.25H4.054A4.054,4.054,0,0,0,0,4.3V44.842A4.054,4.054,0,0,0,4.054,48.9Zm0,0" fill="#fff"/>
      <path id="Trazado_102564" data-name="Trazado 102564" d="M62.5,62.75h2.027v2.027H62.5Zm0,0" transform="translate(-58.446 -58.446)" fill="#fff"/>
      <path id="Trazado_102565" data-name="Trazado 102565" d="M125,62.75h2.027v2.027H125Zm0,0" transform="translate(-116.892 -58.446)" fill="#fff"/>
      <path id="Trazado_102566" data-name="Trazado 102566" d="M187.5,62.75h2.027v2.027H187.5Zm0,0" transform="translate(-175.339 -58.446)" fill="#fff"/>
      <path id="Trazado_102567" data-name="Trazado 102567" d="M125,169.842a4.054,4.054,0,0,0,4.054,4.054h44.592a4.054,4.054,0,0,0,4.054-4.054V129.3a4.054,4.054,0,0,0-4.054-4.054H129.054A4.054,4.054,0,0,0,125,129.3Zm2.027-40.538a2.027,2.027,0,0,1,2.027-2.027h44.592a2.027,2.027,0,0,1,2.027,2.027v40.538a2.027,2.027,0,0,1-2.027,2.027H129.054a2.027,2.027,0,0,1-2.027-2.027Zm0,0" transform="translate(-116.892 -116.892)" fill="#fff"/>
      <path id="Trazado_102568" data-name="Trazado 102568" d="M187.5,187.75h2.027v2.027H187.5Zm0,0" transform="translate(-175.339 -175.339)" fill="#fff"/>
      <path id="Trazado_102569" data-name="Trazado 102569" d="M250,187.75h2.027v2.027H250Zm0,0" transform="translate(-233.785 -175.339)" fill="#fff"/>
      <path id="Trazado_102570" data-name="Trazado 102570" d="M312.5,187.75h2.027v2.027H312.5Zm0,0" transform="translate(-292.231 -175.339)" fill="#fff"/>
      <path id="Trazado_102571" data-name="Trazado 102571" d="M187.5,250.25h44.592v2.027H187.5Zm0,0" transform="translate(-175.339 -233.785)" fill="#fff"/>
      <path id="Trazado_102572" data-name="Trazado 102572" d="M187.5,328.375h8.108V330.4H187.5Zm0,0" transform="translate(-175.339 -306.843)" fill="#fff"/>
      <path id="Trazado_102573" data-name="Trazado 102573" d="M187.5,390.875h6.081V392.9H187.5Zm0,0" transform="translate(-175.339 -365.289)" fill="#fff"/>
      <path id="Trazado_102574" data-name="Trazado 102574" d="M428.969,453.375a7.094,7.094,0,1,0,7.094,7.094A7.094,7.094,0,0,0,428.969,453.375Zm0,12.161a5.067,5.067,0,1,1,5.067-5.067A5.067,5.067,0,0,1,428.969,465.536Zm0,0" transform="translate(-394.512 -423.735)" fill="#fff"/>
      <path id="Trazado_102575" data-name="Trazado 102575" d="M313.68,325.925a1.013,1.013,0,0,0-1.013-1.013h-2.679a12.883,12.883,0,0,0-.8-1.936l1.894-1.893a1.014,1.014,0,0,0,0-1.433l-4.3-4.3a1.014,1.014,0,0,0-1.433,0l-1.893,1.893a13.112,13.112,0,0,0-1.936-.8v-2.679a1.013,1.013,0,0,0-1.013-1.013h-6.081a1.013,1.013,0,0,0-1.013,1.013v2.679a13.11,13.11,0,0,0-1.936.8l-1.893-1.893a1.014,1.014,0,0,0-1.433,0l-4.3,4.3a1.014,1.014,0,0,0,0,1.433l1.893,1.893c-.085.166-.166.332-.243.5a13.109,13.109,0,0,0-.557,1.435h-2.679a1.013,1.013,0,0,0-1.013,1.013v6.081a1.013,1.013,0,0,0,1.013,1.013h2.679a12.882,12.882,0,0,0,.8,1.936l-1.894,1.893a1.014,1.014,0,0,0,0,1.433l4.3,4.3a1.014,1.014,0,0,0,1.433,0l1.893-1.893a13.11,13.11,0,0,0,1.936.8v2.679a1.013,1.013,0,0,0,1.013,1.013h6.081a1.013,1.013,0,0,0,1.013-1.013v-2.679a13.112,13.112,0,0,0,1.936-.8l1.893,1.893a1.014,1.014,0,0,0,1.433,0l4.3-4.3a1.014,1.014,0,0,0,0-1.433l-1.894-1.893a12.882,12.882,0,0,0,.8-1.936h2.679a1.013,1.013,0,0,0,1.013-1.013Zm-2.027,5.067h-2.426a1.013,1.013,0,0,0-.981.76,11.081,11.081,0,0,1-1.186,2.866,1.014,1.014,0,0,0,.156,1.231l1.713,1.714-2.866,2.867-1.714-1.715a1.014,1.014,0,0,0-1.232-.156,11.071,11.071,0,0,1-2.865,1.186,1.013,1.013,0,0,0-.76.981v2.426h-4.054v-2.426a1.013,1.013,0,0,0-.76-.981,11.071,11.071,0,0,1-2.865-1.186,1.014,1.014,0,0,0-1.232.156l-1.714,1.715L286,337.564l1.713-1.714a1.014,1.014,0,0,0,.156-1.231,11.079,11.079,0,0,1-1.186-2.866,1.013,1.013,0,0,0-.981-.76h-2.426v-4.054H285.7a1.013,1.013,0,0,0,.981-.76,11.008,11.008,0,0,1,.659-1.857,11.179,11.179,0,0,1,.527-1.013,1.014,1.014,0,0,0-.156-1.231L286,320.362l2.866-2.867,1.714,1.715a1.013,1.013,0,0,0,1.232.155,11.086,11.086,0,0,1,2.865-1.186,1.013,1.013,0,0,0,.76-.98v-2.422h4.054V317.2a1.013,1.013,0,0,0,.76.981,11.068,11.068,0,0,1,2.865,1.186,1.014,1.014,0,0,0,1.232-.156l1.714-1.715,2.866,2.867-1.713,1.714a1.014,1.014,0,0,0-.156,1.231,11.081,11.081,0,0,1,1.186,2.866,1.013,1.013,0,0,0,.981.76h2.426Zm0,0" transform="translate(-263.008 -292.231)" fill="#fff"/>
      <path id="Trazado_102576" data-name="Trazado 102576" d="M781.25,781.5h6.081v2.027H781.25Zm0,0" transform="translate(-730.578 -730.578)" fill="#fff"/>
    </g>
  </g>
</svg>
