<svg xmlns="http://www.w3.org/2000/svg" width="64.236" height="58.943" viewBox="0 0 64.236 58.943">
  <g id="Grupo_57771" data-name="Grupo 57771" transform="translate(-663 -603)">
    <g id="Grupo_57134" data-name="Grupo 57134" transform="translate(-1811.041 545.801)">
      <rect id="Rectángulo_6483" data-name="Rectángulo 6483" width="64.236" height="58.943" transform="translate(2474.041 57.199)" fill="none"/>
      <g id="Grupo_57641" data-name="Grupo 57641" transform="translate(2476.042 57.498)">
        <g id="Grupo_57601" data-name="Grupo 57601" transform="translate(0 0)">
          <g id="Grupo_57600" data-name="Grupo 57600">
            <path id="Trazado_120708" data-name="Trazado 120708" d="M540.639-2106.1H488.174a4.042,4.042,0,0,0-4.037,4.037v33.3a1.009,1.009,0,0,0,1.009,1.009h58.521a1.009,1.009,0,0,0,1.009-1.009v-33.3A4.042,4.042,0,0,0,540.639-2106.1Zm2.019,36.323h-56.5v-32.286a2.021,2.021,0,0,1,2.019-2.019h52.465a2.021,2.021,0,0,1,2.019,2.019Z" transform="translate(-484.137 2106.102)" fill="#0ac4bf"/>
          </g>
        </g>
        <g id="Grupo_57603" data-name="Grupo 57603" transform="translate(0 36.323)">
          <g id="Grupo_57602" data-name="Grupo 57602">
            <path id="Trazado_120709" data-name="Trazado 120709" d="M543.667-1798.9H485.146a1.009,1.009,0,0,0-1.009,1.009v5.044a4.042,4.042,0,0,0,4.037,4.037h52.465a4.042,4.042,0,0,0,4.037-4.037v-5.044A1.009,1.009,0,0,0,543.667-1798.9Zm-1.009,6.053a2.021,2.021,0,0,1-2.019,2.019H488.174a2.021,2.021,0,0,1-2.019-2.019v-4.035h56.5v4.035Z" transform="translate(-484.137 1798.902)" fill="#0ac4bf"/>
          </g>
        </g>
        <g id="Grupo_57605" data-name="Grupo 57605" transform="translate(26.234 40.359)">
          <g id="Grupo_57604" data-name="Grupo 57604">
            <path id="Trazado_120710" data-name="Trazado 120710" d="M713.067-1764.768h-6.054a1.009,1.009,0,0,0-1.009,1.009,1.009,1.009,0,0,0,1.009,1.009h6.054a1.009,1.009,0,0,0,1.009-1.009A1.009,1.009,0,0,0,713.067-1764.768Z" transform="translate(-706.004 1764.768)" fill="#0ac4bf"/>
          </g>
        </g>
        <g id="Grupo_57607" data-name="Grupo 57607" transform="translate(4.036 4.036)">
          <g id="Grupo_57606" data-name="Grupo 57606">
            <path id="Trazado_120711" data-name="Trazado 120711" d="M569.729-2071.968H519.28a1.009,1.009,0,0,0-1.009,1.009v32.287a1.009,1.009,0,0,0,1.009,1.009h50.449a1.009,1.009,0,0,0,1.009-1.009v-32.287A1.009,1.009,0,0,0,569.729-2071.968Zm-1.009,32.287H520.289v-30.27H568.72v30.27Z" transform="translate(-518.271 2071.968)" fill="#0ac4bf"/>
          </g>
        </g>
        <g id="Grupo_57609" data-name="Grupo 57609" transform="translate(14.126 52.467)">
          <g id="Grupo_57608" data-name="Grupo 57608">
            <path id="Trazado_120712" data-name="Trazado 120712" d="M632.864-1662.368H606.631a3.031,3.031,0,0,0-3.027,3.027,3.031,3.031,0,0,0,3.027,3.027h26.234a3.031,3.031,0,0,0,3.027-3.027A3.031,3.031,0,0,0,632.864-1662.368Zm0,4.036H606.631a1.01,1.01,0,0,1-1.009-1.009,1.01,1.01,0,0,1,1.009-1.009h26.234a1.01,1.01,0,0,1,1.009,1.009A1.01,1.01,0,0,1,632.864-1658.332Z" transform="translate(-603.604 1662.368)" fill="#0ac4bf"/>
          </g>
        </g>
        <g id="Grupo_57611" data-name="Grupo 57611" transform="translate(18.162 44.395)">
          <g id="Grupo_57610" data-name="Grupo 57610">
            <path id="Trazado_120713" data-name="Trazado 120713" d="M660.945-1722.562c-3.348,0-5.045-2.376-5.045-7.063a1.009,1.009,0,0,0-1.009-1.009H644.8a1.009,1.009,0,0,0-1.009,1.009c0,4.687-1.7,7.063-5.045,7.063a1.009,1.009,0,0,0-1.009,1.009,1.009,1.009,0,0,0,1.009,1.009h22.2a1.009,1.009,0,0,0,1.009-1.009A1.009,1.009,0,0,0,660.945-1722.562Zm-17.283,0a9.667,9.667,0,0,0,2.121-6.054h8.127a9.656,9.656,0,0,0,2.121,6.054Z" transform="translate(-637.738 1730.634)" fill="#0ac4bf"/>
          </g>
        </g>
        <g id="Grupo_57613" data-name="Grupo 57613" transform="translate(35.321 21.188)">
          <g id="Grupo_57612" data-name="Grupo 57612">
            <path id="Trazado_120714" data-name="Trazado 120714" d="M795.753-1918.364l-2.436-2.436,1.355-1.355a1.01,1.01,0,0,0,.265-.961,1.01,1.01,0,0,0-.688-.719l-10.09-3.027a1.007,1.007,0,0,0-1,.253,1.006,1.006,0,0,0-.253,1l3.027,10.09a1.008,1.008,0,0,0,.719.689,1.016,1.016,0,0,0,.961-.265l1.427-1.428,2.436,2.437a1.006,1.006,0,0,0,.713.3,1.006,1.006,0,0,0,.713-.3l2.853-2.854A1.008,1.008,0,0,0,795.753-1918.364Zm-3.567,2.141-2.218-2.219a1.313,1.313,0,0,0-.931-.385,1.316,1.316,0,0,0-.931.384l-.729.729-2-6.677,6.676,2-.781.781a1.136,1.136,0,0,0-.333.807,1.131,1.131,0,0,0,.335.808l2.341,2.341Z" transform="translate(-782.86 1926.904)" fill="#0ac4bf"/>
          </g>
        </g>
        <g id="Grupo_57615" data-name="Grupo 57615" transform="translate(13.117 8.071)">
          <g id="Grupo_57614" data-name="Grupo 57614">
            <path id="Trazado_120715" data-name="Trazado 120715" d="M624.331-2037.835H596.08a1.009,1.009,0,0,0-1.009,1.009v5.045a1.009,1.009,0,0,0,1.009,1.009h28.252a1.009,1.009,0,0,0,1.009-1.009v-5.045A1.009,1.009,0,0,0,624.331-2037.835Zm-1.009,5.045H597.089v-3.027h26.234Z" transform="translate(-595.071 2037.835)" fill="#0ac4bf"/>
          </g>
        </g>
        <g id="Grupo_57617" data-name="Grupo 57617" transform="translate(17.153 19.17)">
          <g id="Grupo_57616" data-name="Grupo 57616">
            <path id="Trazado_120716" data-name="Trazado 120716" d="M638.285-1943.968h-8.072a1.009,1.009,0,0,0-1.009,1.009v4.036a1.009,1.009,0,0,0,1.009,1.009h8.072a1.009,1.009,0,0,0,1.009-1.009v-4.036A1.009,1.009,0,0,0,638.285-1943.968Zm-1.009,4.036h-6.054v-2.018h6.054Z" transform="translate(-629.204 1943.968)" fill="#0ac4bf"/>
          </g>
        </g>
        <g id="Grupo_57619" data-name="Grupo 57619" transform="translate(13.117 8.071)">
          <g id="Grupo_57618" data-name="Grupo 57618">
            <path id="Trazado_120717" data-name="Trazado 120717" d="M624.331-2037.835H596.08a1.009,1.009,0,0,0-1.009,1.009v19.171a1.009,1.009,0,0,0,1.009,1.009H620.1a1,1,0,0,0,.809-.407,1.009,1.009,0,0,0,.157-.893l-1.277-4.259,4.253,1.276a1.006,1.006,0,0,0,.892-.157,1.007,1.007,0,0,0,.407-.809v-14.931A1.01,1.01,0,0,0,624.331-2037.835Zm-1.009,14.584-4.749-1.425a1.007,1.007,0,0,0-1,.253,1.008,1.008,0,0,0-.253,1l1.427,4.754H597.089v-17.153h26.234Z" transform="translate(-595.071 2037.835)" fill="#0ac4bf"/>
          </g>
        </g>
      </g>
    </g>
  </g>
</svg>
