<svg xmlns="http://www.w3.org/2000/svg" width="64.236" height="58.943" viewBox="0 0 64.236 58.943">
  <g id="Grupo_57135" data-name="Grupo 57135" transform="translate(-2554.792 -57.199)">
    <rect id="Rectángulo_6484" data-name="Rectángulo 6484" width="64.236" height="58.943" transform="translate(2554.792 57.199)" fill="none"/>
    <g id="Grupo_57621" data-name="Grupo 57621" transform="translate(2557.792 57.44)">
      <g id="Grupo_57622" data-name="Grupo 57622" transform="translate(0 0)">
        <g id="Grupo_57621-2" data-name="Grupo 57621">
          <path id="Trazado_120718" data-name="Trazado 120718" d="M47.409-2106.1H-2.334a4.394,4.394,0,0,0-4.389,4.389v49.743a4.394,4.394,0,0,0,4.389,4.389H47.409a4.394,4.394,0,0,0,4.389-4.389v-49.743A4.394,4.394,0,0,0,47.409-2106.1Zm2.438,54.132a2.441,2.441,0,0,1-2.438,2.438H-2.334a2.441,2.441,0,0,1-2.438-2.438v-49.743a2.441,2.441,0,0,1,2.438-2.438H47.409a2.441,2.441,0,0,1,2.438,2.438Z" transform="translate(6.723 2106.102)" fill="#0ac4bf"/>
        </g>
      </g>
      <g id="Grupo_57624" data-name="Grupo 57624" transform="translate(3.902 3.901)">
        <g id="Grupo_57623" data-name="Grupo 57623" transform="translate(0)">
          <path id="Trazado_120719" data-name="Trazado 120719" d="M31.15-2073.107h-3.9a.975.975,0,0,0-.975.975v3.9a.975.975,0,0,0,.975.975h3.9a.975.975,0,0,0,.975-.975v-3.9A.975.975,0,0,0,31.15-2073.107Zm-.975,3.9H28.224v-1.951h1.951Z" transform="translate(-26.273 2073.107)" fill="#0ac4bf"/>
        </g>
      </g>
      <g id="Grupo_57626" data-name="Grupo 57626" transform="translate(11.705 3.901)">
        <g id="Grupo_57625" data-name="Grupo 57625">
          <path id="Trazado_120720" data-name="Trazado 120720" d="M97.142-2073.107h-3.9a.975.975,0,0,0-.975.975v3.9a.975.975,0,0,0,.975.975h3.9a.975.975,0,0,0,.975-.975v-3.9A.975.975,0,0,0,97.142-2073.107Zm-.975,3.9H94.215v-1.951h1.951Z" transform="translate(-92.265 2073.107)" fill="#0ac4bf"/>
        </g>
      </g>
      <g id="Grupo_57628" data-name="Grupo 57628" transform="translate(19.507 3.901)">
        <g id="Grupo_57627" data-name="Grupo 57627">
          <path id="Trazado_120721" data-name="Trazado 120721" d="M163.132-2073.107h-3.9a.975.975,0,0,0-.975.975v3.9a.975.975,0,0,0,.975.975h3.9a.975.975,0,0,0,.975-.975v-3.9A.975.975,0,0,0,163.132-2073.107Zm-.975,3.9h-1.951v-1.951h1.951Z" transform="translate(-158.255 2073.107)" fill="#0ac4bf"/>
        </g>
      </g>
      <g id="Grupo_57630" data-name="Grupo 57630" transform="translate(0 0)">
        <g id="Grupo_57629" data-name="Grupo 57629">
          <path id="Trazado_120722" data-name="Trazado 120722" d="M47.409-2106.1H-2.334a4.394,4.394,0,0,0-4.389,4.389v8.291a.975.975,0,0,0,.975.975h56.57a.975.975,0,0,0,.975-.975v-8.291A4.394,4.394,0,0,0,47.409-2106.1Zm2.438,11.7H-4.772v-7.315a2.441,2.441,0,0,1,2.438-2.438H47.409a2.441,2.441,0,0,1,2.438,2.438Z" transform="translate(6.723 2106.102)" fill="#0ac4bf"/>
        </g>
      </g>
      <g id="Grupo_57632" data-name="Grupo 57632" transform="translate(3.902 15.605)">
        <g id="Grupo_57631" data-name="Grupo 57631" transform="translate(0)">
          <path id="Trazado_120723" data-name="Trazado 120723" d="M76.016-1974.12H27.248a.975.975,0,0,0-.975.975v37.064a.975.975,0,0,0,.975.975H76.016a.975.975,0,0,0,.975-.975v-37.063A.975.975,0,0,0,76.016-1974.12Zm-.975,37.064H28.224v-35.113H75.041v35.113Z" transform="translate(-26.273 1974.12)" fill="#0ac4bf"/>
        </g>
      </g>
      <g id="Grupo_57634" data-name="Grupo 57634" transform="translate(13.655 19.507)">
        <g id="Grupo_57633" data-name="Grupo 57633">
          <path id="Trazado_120724" data-name="Trazado 120724" d="M139-1928.443h-1.765a.821.821,0,0,1-.8-.563,13.085,13.085,0,0,0-1.015-2.52.826.826,0,0,1,.163-.97l1.249-1.249a.971.971,0,0,0,.286-.69.973.973,0,0,0-.286-.69l-2.854-2.854a1,1,0,0,0-1.379,0l-1.249,1.249a.829.829,0,0,1-.971.163,13,13,0,0,0-2.519-1.015.822.822,0,0,1-.564-.8v-1.766a.975.975,0,0,0-.975-.975h-3.9a.975.975,0,0,0-.975.975v1.766a.822.822,0,0,1-.563.8,13.076,13.076,0,0,0-2.521,1.016.823.823,0,0,1-.97-.163l-1.249-1.249a.974.974,0,0,0-.69-.286.975.975,0,0,0-.69.286l-2.854,2.854a.971.971,0,0,0-.286.69.973.973,0,0,0,.286.69l1.249,1.249a.826.826,0,0,1,.163.969,13.086,13.086,0,0,0-1.015,2.52.821.821,0,0,1-.8.563h-1.765a.975.975,0,0,0-.975.975v3.9a.975.975,0,0,0,.975.975H111.5a.821.821,0,0,1,.8.563,13.082,13.082,0,0,0,1.015,2.52.826.826,0,0,1-.163.969l-1.249,1.25a.971.971,0,0,0-.286.69.973.973,0,0,0,.286.69l2.854,2.854a1.006,1.006,0,0,0,1.379,0l1.249-1.249a.828.828,0,0,1,.971-.163,13.658,13.658,0,0,0,2.641,1.015.822.822,0,0,1,.564.8v1.766a.975.975,0,0,0,.975.975H126.2a.975.975,0,0,0,.975-.975v-1.766a.823.823,0,0,1,.563-.8,13.725,13.725,0,0,0,2.643-1.016.825.825,0,0,1,.97.163l1.249,1.249a.974.974,0,0,0,.69.286.975.975,0,0,0,.69-.286l2.854-2.854a.971.971,0,0,0,.286-.69.973.973,0,0,0-.286-.69l-1.249-1.249a.826.826,0,0,1-.163-.969,13.086,13.086,0,0,0,1.015-2.52.821.821,0,0,1,.8-.563H139a.975.975,0,0,0,.975-.975v-3.9A.975.975,0,0,0,139-1928.443Zm-.975,3.9h-.79a2.782,2.782,0,0,0-2.672,1.963,11.114,11.114,0,0,1-.857,2.137,2.787,2.787,0,0,0,.5,3.282l.56.56-1.475,1.475-.56-.56a2.787,2.787,0,0,0-3.282-.5,12.161,12.161,0,0,1-2.26.857,2.782,2.782,0,0,0-1.962,2.67v.791h-1.706v-.791a2.787,2.787,0,0,0-1.964-2.672,12.071,12.071,0,0,1-2.258-.856,2.784,2.784,0,0,0-3.283.5l-.56.56-1.475-1.475.56-.56a2.785,2.785,0,0,0,.5-3.282,11.047,11.047,0,0,1-.857-2.137,2.782,2.782,0,0,0-2.672-1.963h-.79v-1.951h.79a2.782,2.782,0,0,0,2.672-1.963,11.119,11.119,0,0,1,.857-2.137,2.787,2.787,0,0,0-.5-3.282l-.56-.56,1.475-1.475.56.56a2.783,2.783,0,0,0,3.282.5,11.084,11.084,0,0,1,2.138-.857,2.782,2.782,0,0,0,1.962-2.671v-.791h1.951v.791a2.786,2.786,0,0,0,1.963,2.672,11.026,11.026,0,0,1,2.136.856,2.788,2.788,0,0,0,3.283-.5l.56-.56,1.475,1.475-.56.56a2.785,2.785,0,0,0-.5,3.282,11.053,11.053,0,0,1,.857,2.137,2.782,2.782,0,0,0,2.672,1.963h.79v1.951Z" transform="translate(-108.762 1941.123)" fill="#0ac4bf"/>
        </g>
      </g>
      <g id="Grupo_57636" data-name="Grupo 57636" transform="translate(22.433 28.285)">
        <g id="Grupo_57635" data-name="Grupo 57635">
          <path id="Trazado_120725" data-name="Trazado 120725" d="M189.829-1866.883a6.835,6.835,0,0,0-6.827,6.827,6.836,6.836,0,0,0,6.827,6.828,6.836,6.836,0,0,0,6.827-6.828A6.835,6.835,0,0,0,189.829-1866.883Zm0,11.7a4.882,4.882,0,0,1-4.877-4.877,4.882,4.882,0,0,1,4.877-4.877,4.882,4.882,0,0,1,4.877,4.877A4.882,4.882,0,0,1,189.829-1855.179Z" transform="translate(-183.002 1866.883)" fill="#0ac4bf"/>
        </g>
      </g>
      <g id="Grupo_57638" data-name="Grupo 57638" transform="translate(7.803 19.507)">
        <g id="Grupo_57637" data-name="Grupo 57637">
          <path id="Trazado_120726" data-name="Trazado 120726" d="M64.146-1941.123h-3.9a.975.975,0,0,0-.975.975v3.9a.975.975,0,0,0,.975.975.975.975,0,0,0,.975-.975v-2.926h2.926a.975.975,0,0,0,.975-.975A.975.975,0,0,0,64.146-1941.123Z" transform="translate(-59.269 1941.123)" fill="#0ac4bf"/>
        </g>
      </g>
      <g id="Grupo_57640" data-name="Grupo 57640" transform="translate(44.867 44.866)">
        <g id="Grupo_57639" data-name="Grupo 57639">
          <path id="Trazado_120727" data-name="Trazado 120727" d="M377.6-1726.653a.975.975,0,0,0-.975.975v2.926H373.7a.975.975,0,0,0-.975.975.975.975,0,0,0,.975.975h3.9a.975.975,0,0,0,.975-.975v-3.9A.975.975,0,0,0,377.6-1726.653Z" transform="translate(-372.727 1726.653)" fill="#0ac4bf"/>
        </g>
      </g>
    </g>
  </g>
</svg>
