<svg xmlns="http://www.w3.org/2000/svg" width="85" height="85" viewBox="0 0 85 85">
  <g id="Grupo_57599" data-name="Grupo 57599" transform="translate(-390 -3261)">
    <circle id="Elipse_4475" data-name="Elipse 4475" cx="42.5" cy="42.5" r="42.5" transform="translate(390 3261)" fill="#bf3976"/>
    <g id="Grupo_57563" data-name="Grupo 57563" transform="translate(409.832 3273.75)">
      <path id="Trazado_120602" data-name="Trazado 120602" d="M201.138,140.467,178.7,119.387a2.043,2.043,0,0,0-3.441,1.574l.876,21.053a.73.73,0,1,0,1.459-.061l-.876-21.053a.583.583,0,0,1,.981-.449l22.434,21.08a.631.631,0,0,1-.305,1.077l-8.077,1.657a.73.73,0,0,0-.517,1.019l1.365,2.983a.73.73,0,0,0,1.328-.607l-.983-2.149,7.178-1.473a2.091,2.091,0,0,0,1.012-3.572Z" transform="translate(-157.348 -98.543)" fill="#fff" stroke="#fff" stroke-width="1"/>
      <path id="Trazado_120603" data-name="Trazado 120603" d="M204.637,389.111a.73.73,0,0,0-1.328.607l.891,1.948a.4.4,0,0,1-.2.533l-3.846,1.759a.4.4,0,0,1-.532-.2L196.073,386a.73.73,0,0,0-1.109-.275l-6.535,5.028a.63.63,0,0,1-1.014-.474l-.274-6.592a.73.73,0,0,0-1.459.061l.274,6.592a2.091,2.091,0,0,0,3.364,1.57l5.808-4.468,3.169,6.927a1.859,1.859,0,0,0,2.468.919l3.846-1.759a1.862,1.862,0,0,0,.919-2.468Z" transform="translate(-166.759 -337.163)" fill="#fff" stroke="#fff" stroke-width="1"/>
      <path id="Trazado_120604" data-name="Trazado 120604" d="M137.327,66.588A6.55,6.55,0,0,1,141.59,72.8a.941.941,0,0,0,1.882.022,8.43,8.43,0,1,0-14.25,6.006.941.941,0,0,0,1.3-1.362,6.548,6.548,0,0,1,6.805-10.873Z" transform="translate(-118.591 -56.282)" fill="#fff"/>
      <path id="Trazado_120605" data-name="Trazado 120605" d="M301.267,97.45a14.632,14.632,0,0,1-.9,9.245.941.941,0,1,0,1.718.769A16.524,16.524,0,0,0,303.1,97.023a.941.941,0,1,0-1.833.427Z" transform="translate(-270.63 -84.299)" fill="#fff"/>
      <path id="Trazado_120606" data-name="Trazado 120606" d="M74.176,30.293A14.56,14.56,0,1,1,91.526,9.612a.941.941,0,0,0,1.663-.881A16.442,16.442,0,1,0,73.6,32.084a.941.941,0,1,0,.581-1.79Z" transform="translate(-62.216 0)" fill="#fff"/>
    </g>
  </g>
</svg>
