<svg xmlns="http://www.w3.org/2000/svg" width="190" height="326.506" viewBox="0 0 190 326.506">
  <g id="Grupo_57770" data-name="Grupo 57770" transform="translate(-1125 -1224.336)">
    <g id="Grupo_57471" data-name="Grupo 57471" transform="translate(957.971 1042.223)">
      <path id="Trazado_120263" data-name="Trazado 120263" d="M231.028,192.764l127.1.217L357.7,330.692l-125.8-.433Z" transform="translate(-4.325 -5.098)" fill="#f7faff"/>
      <g id="Grupo_57470" data-name="Grupo 57470" transform="translate(221.994 182.114)">
        <g id="Grupo_57469" data-name="Grupo 57469">
          <path id="Trazado_120268" data-name="Trazado 120268" d="M358.58,328.128V195.821H240.162v.974H357.931V328.128Z" transform="translate(-230.691 -188.675)" fill="#919191" opacity="0.29" style="mix-blend-mode: multiply;isolation: isolate"/>
          <path id="Trazado_120269" data-name="Trazado 120269" d="M224.319,328.888l0-146.4-2.328,3.41.217,145.723,134.03-2.111.139-.617Z" transform="translate(-221.994 -182.291)" fill="#919191" opacity="0.36"/>
          <g id="Grupo_57467" data-name="Grupo 57467" transform="translate(19.489 3.427)">
            <g id="Grupo_57464" data-name="Grupo 57464" transform="translate(9.273)" opacity="0.08" style="mix-blend-mode: screen;isolation: isolate">
              <path id="Trazado_120270" data-name="Trazado 120270" d="M279.988,330.763l-2.821-.114,27.8-141.411,3.23-.551Z" transform="translate(-277.168 -188.687)" fill="#f7faff"/>
            </g>
            <g id="Grupo_57465" data-name="Grupo 57465" transform="translate(0 0.61)" opacity="0.12" style="mix-blend-mode: screen;isolation: isolate">
              <path id="Trazado_120271" data-name="Trazado 120271" d="M262.843,328.65l-3.464-.433,29.015-138.361,3.351.534Z" transform="translate(-259.379 -189.856)" fill="#f7faff"/>
            </g>
            <g id="Grupo_57466" data-name="Grupo 57466" transform="translate(61.429 0.027)" opacity="0.17" style="mix-blend-mode: screen;isolation: isolate">
              <path id="Trazado_120272" data-name="Trazado 120272" d="M380.693,328.261l-3.476-.325,24.692-139.2,3.366.429Z" transform="translate(-377.217 -188.739)" fill="#f7faff"/>
            </g>
          </g>
          <g id="Grupo_57468" data-name="Grupo 57468" transform="translate(2.324)">
            <path id="Trazado_120273" data-name="Trazado 120273" d="M233.6,189.732l-7.145-7.493V328.548l7.145-6.938Z" transform="translate(-226.453 -182.174)" fill="#7c576f"/>
            <path id="Trazado_120274" data-name="Trazado 120274" d="M352.016,449.546H233.6c0-.017-7.145,6.922-7.145,6.922v.224H359.12l-7.1-7.232Z" transform="translate(-226.453 -310.094)" fill="#a4a4a4"/>
            <path id="Trazado_120275" data-name="Trazado 120275" d="M474.47,182.114v146.6h-.042l-7.1-7.233V189.285l7-7.171Z" transform="translate(-341.759 -182.114)" fill="#7c576f"/>
            <path id="Trazado_120276" data-name="Trazado 120276" d="M233.6,189.261H352.016c0,.026,7-7.145,7-7.145H226.453v.064l7.145,7.493Z" transform="translate(-226.453 -182.115)" fill="#a4a4a4"/>
            <path id="Trazado_120277" data-name="Trazado 120277" d="M358.062,183.09l.951-.974H226.453v.064l1.519,1.7Z" transform="translate(-226.453 -182.115)" fill="#b8b8b8"/>
          </g>
        </g>
      </g>
    </g>
    <g id="Grupo_57461" data-name="Grupo 57461" transform="translate(-5183.558 348.458)">
      <g id="Grupo_57459" data-name="Grupo 57459" transform="translate(6308.557 910.699)">
        <path id="Trazado_120244" data-name="Trazado 120244" d="M6515.89,1081.477a109.06,109.06,0,0,1-8.351,8.982c-5.557,5.341-13.016,11.3-19.562,12.406a10.46,10.46,0,0,1-5.036-.248,30.078,30.078,0,0,1-9.775-5.951c-8.993-7.672-16.462-19.273-16.462-19.273l4.678-5.3s10.467,7.773,17.015,11.947c2.6,1.651,4.588,2.737,5.053,2.538,1.626-.7,29.779-19.68,29.779-19.68Z" transform="translate(-6406.54 -1014.006)" fill="#fdab74"/>
        <path id="Trazado_120245" data-name="Trazado 120245" d="M6548.007,1081.477a109.124,109.124,0,0,1-8.352,8.982,211.989,211.989,0,0,1-19.561,12.406,11.654,11.654,0,0,1-3.815,1.566c-3.458-.2-10.881-4.881-10.881-4.881a16.474,16.474,0,0,1-.114-2.884c.333-7.119,5.077-12.456,5.231-12.626,2.6,1.651,4.588,2.737,5.052,2.538,1.627-.7,29.779-19.68,29.779-19.68Z" transform="translate(-6438.657 -1014.006)" fill="#8f2b58"/>
        <g id="Grupo_57458" data-name="Grupo 57458" transform="translate(0 25.945)">
          <path id="Trazado_120246" data-name="Trazado 120246" d="M6367.891,1097.025c.962,5.893,1.62,10.18,1.62,10.18-7.233,3.154-15.507,4.444-23.574,4.7-2.692.088-5.365.057-7.97-.059-4.057-.179-7.947-.566-11.494-1.044a133.842,133.842,0,0,1-17.916-3.594,64,64,0,0,1,6.229-27.068c3.74-8.246,8-14.529,9.165-19.63,1.462-6.391-1.651-21.288-3.9-30.581-1.145-4.708-2.066-7.975-2.066-7.975-7.856-11.52-4.085-18.276-4.085-18.276s3.66-1.525,8.239-2.921c.022-.006.047-.016.069-.022,1.573-.478,3.249-.94,4.919-1.321a39.008,39.008,0,0,1,5.076-.84c4.475-.39,4.71-10.551,4.71-10.551s1.821-.815,6.2-.686a33.023,33.023,0,0,1,5.428.686s0,8.035,3.761,9.708c1.935.862,5.615,2.434,9.218,3.959v0l.362.151,1.189.5c.522.22,1.038.44,1.541.65l.743.315,1.192.5c2.691,1.135,4.645,1.953,4.645,1.953,1.676,4.34-4.192,14.089-4.192,14.089a9.955,9.955,0,0,1,.409,2.192c.009.119.018.242.028.364.211,3.17-.4,7.53-1.3,12.281-1.6,8.387-4.128,18-4.73,24.467a15.482,15.482,0,0,0,.2,5.456,1.679,1.679,0,0,0,.051.173c.248.748.525,1.764.821,2.987C6364.127,1074.57,6366.385,1087.772,6367.891,1097.025Z" transform="translate(-6308.557 -987.32)" fill="#3a608d"/>
          <path id="Trazado_120247" data-name="Trazado 120247" d="M6376.468,1442.232l-27.81-18.079a6.608,6.608,0,0,1-3.006-5.619l1.679-140.009c0-1.216-2.781-2.464-4-2.464s-4.835.512-4.835,1.728l3.24,141.664a4.566,4.566,0,0,1-2.076,3.932l-28.993,18.847a.977.977,0,0,0,.533,1.8h0l29.584-12.971a6.931,6.931,0,0,1,5.567,0l29.584,12.971A.977.977,0,0,0,6376.468,1442.232Z" transform="translate(-6309.658 -1178.288)" fill="#303876"/>
        </g>
        <path id="Trazado_120248" data-name="Trazado 120248" d="M6643.864,1017.629s-7.844,9.307-17.834,5.413c0,0-2.149-5.2-2.179-9.029,0-.472-.01-.929-.017-1.363-.054-4.315-.2-6.735-.2-6.735l.01,0c.454-.19,15.272-6.273,15.259-5.767C6638.649,1011.814,6643.864,1017.629,6643.864,1017.629Z" transform="translate(-6516.944 -969.837)" fill="#fdab74"/>
        <path id="Trazado_120249" data-name="Trazado 120249" d="M6637.416,1008.207c-1.429,2.648-6.331,7.83-13.582,9.723-.054-4.315-.2-6.735-.2-6.735l.01,0C6624.055,1011.082,6637.842,1007.426,6637.416,1008.207Z" transform="translate(-6516.944 -975.117)" fill="#f68e4f"/>
        <path id="Trazado_120250" data-name="Trazado 120250" d="M6380.061,1120.642a94.147,94.147,0,0,1-21.774-.11,67.032,67.032,0,0,1-8.53-1.656c-8.815-2.351-17.353-6.85-22.8-15.123,3.738-8.245,8-14.53,9.164-19.631,1.46-6.39-1.651-21.286-3.905-30.581l2.091-29.17v0l.069-.02,4.918-1.318s-1.668,18.666,24.776,19.765c8.323.346,13,1.481,15.5,2.872.952,10.617-8.079,35.743-5.747,42.74C6375.456,1093.3,6378.283,1109.724,6380.061,1120.642Z" transform="translate(-6320.727 -984.992)" fill="#92ebfb"/>
        <path id="Trazado_120251" data-name="Trazado 120251" d="M6609.409,962.277s16.663,3.917,18.943-6.5,5.966-16.923-4.576-19.864-13.487.578-15.093,3.87S6605.133,960.989,6609.409,962.277Z" transform="translate(-6505.821 -926.648)" fill="#fdab74"/>
        <path id="Trazado_120252" data-name="Trazado 120252" d="M6616.892,942.668c.227.146,3.813,1.247,10.6-12.28a11.783,11.783,0,0,0-.692-10.776c-2.485-4.059-11.3-7.25-18.615-8.639s-9.076,2.73-10.8,6.869c-1.81,4.345-7.036,7.923-7.036,7.923,6.312,3.526,13.915-1.517,16.549-.688s3.564,4.98,3.761,6.311.5,2.436,3.813,1.248,1.5,4.693.967,5.818C6615.442,938.455,6614.993,941.452,6616.892,942.668Z" transform="translate(-6494.931 -910.699)" fill="#300b39"/>
        <path id="Trazado_120253" data-name="Trazado 120253" d="M6794.873,1723.424h10.09c2.115,0,4.465-2.118,5.054-5.995s4.936-6,5.878-9.17-3.881-7.642-3.881-7.642l-.806-1.036-.838-1.08-7.993,1.88s-.2,1.9-.32,4.327c-.085,1.75-.132,3.774-.032,5.548.236,4.233-1.186,8.79-4.944,9.613S6794.873,1723.424,6794.873,1723.424Z" transform="translate(-6629.987 -1431.739)" fill="#283968"/>
        <path id="Trazado_120254" data-name="Trazado 120254" d="M6588.061,1743.659h26.746a2.413,2.413,0,0,0,.567-.165c1.785-.894,1.227-7.73,1.012-9.843-.041-.391-.071-.621-.071-.621s-9.4-7.522-10.7-1.762c-.041.18-.088.356-.138.53v0c-1.633,5.389-8.931,7.837-13.146,8.519C6589.111,1740.844,6588.276,1742.721,6588.061,1743.659Z" transform="translate(-6493.417 -1451.974)" fill="#283968"/>
        <path id="Trazado_120255" data-name="Trazado 120255" d="M6603.981,1311.8s1.428,17.82,3.106,39.241c2.282,29.1,5.025,64.84,5.3,71.612.469,11.758,2.352,30.565,2.352,30.565s4.465,4.468,13.4,2.585c0,0,7.963-26.848,10.238-55.255.035-.466.071-.935.106-1.4,2.116-28.919,5.406-89.813,5.406-89.813Z" transform="translate(-6503.946 -1174.348)" fill="#afafaf"/>
        <path id="Trazado_120256" data-name="Trazado 120256" d="M6603.981,1311.8s1.428,17.82,3.106,39.241l31.289,49.507c.035-.466.071-.935.106-1.4,2.116-28.919,5.406-89.813,5.406-89.813Z" transform="translate(-6503.946 -1174.348)" fill="#636363"/>
        <path id="Trazado_120257" data-name="Trazado 120257" d="M6623.244,1300.142s25.744,64.537,42.673,94.866,22.217,38.793,22.217,38.793,9.7-3.88,10.58-6.524c0,0-6.474-58.552-17.81-72.825-6.405-8.066-13.93-32.269-14.282-40.733s-2.293-25.215-2.293-25.215Z" transform="translate(-6516.686 -1160.573)" fill="#afafaf"/>
        <path id="Trazado_120258" data-name="Trazado 120258" d="M6640.084,1132.081c-7.049,4.165-13.7,7.253-21.425,8.884-9.152,1.989-20.334,1.139-24.081,1.611a1.592,1.592,0,0,1-1.1-.28c-.272-.171-1.749-11.464-3.152-25.753-.061-.549-.131-1.156-.143-1.708l-.025-.2c-.15-1.489-.3-3-.439-4.527-.19-2.148-.37-4.324-.541-6.516q-.2-2.551-.378-5.117c-.024-.374-.053-.749-.077-1.119-.435-6.3-.756-12.508-.854-18.024-.016-.915-.025-1.81-.029-2.689v-.118c-.021-3.649.077-6.923.317-9.625.062-.691.131-1.338.216-1.953,1.094-8.282,5.1-14.111,8.868-18.488l3.658-4.575c3.535.309,6.617.833,10.066-1.38,3.738-2.4,5.4-5.627,6.156-5.2,5.785,3.384,12.8,12.684,15.943,23.984a128.014,128.014,0,0,1,3.731,20.143q.451,4.149.691,8.433a277.7,277.7,0,0,0,4.6,35.979c.4,2.184.716,3.926.887,5.129C6643.151,1130.064,6641.021,1131.528,6640.084,1132.081Z" transform="translate(-6493.271 -993.084)" fill="#bf3976"/>
        <path id="Trazado_120259" data-name="Trazado 120259" d="M6613.511,1109.953s-3.254,27.676-24.324,43.036q-.2-2.551-.378-5.117c-.024-.374-.054-.748-.077-1.119-.436-6.3-.757-12.508-.854-18.024-.017-.915-.024-1.81-.029-2.689v-.118c.021-3.259.122-6.208.317-8.721C6594.617,1113.248,6602.979,1110.482,6613.511,1109.953Z" transform="translate(-6493.275 -1042.482)" fill="#8f2b58"/>
        <path id="Trazado_120260" data-name="Trazado 120260" d="M6394.529,1029.75s-.592,37.688-22.744,51.426-6.419,94.854-12.862,124.768,57.827,5.508,61.081-28.254-28.066-85.8-27.8-92.253,8.183-47.722,7.346-53.563Z" transform="translate(-6341.569 -989.437)" fill="#19bdde"/>
        <path id="Trazado_120261" data-name="Trazado 120261" d="M6449.327,1173.71a46.016,46.016,0,0,1-6.509,3.547c-3.545,1.292-9.248,2-15.412,2.35-13.515.785-29.235-.091-29.235-.091-2.373,1.7-6.55,1.41-10.077-.577s-2.759-1.128-5.291-2.486a1.578,1.578,0,0,1-.706-2.425,3.584,3.584,0,0,1,2.248-1.693c4.711-1.223,6.76-.865,8.792-.25a2.219,2.219,0,0,1-.549-1.583c.138-.51,3.566,1.528,5.081,2.458,5.088.721,17.073-2.823,26.014-5.845,5.386-1.817,9.668-3.444,10.674-3.835.819-.317,3.412-2.933,6.624-6.42C6442.943,1162.674,6445.69,1169.036,6449.327,1173.71Z" transform="translate(-6356.994 -1073.506)" fill="#fdab74"/>
        <path id="Trazado_120262" data-name="Trazado 120262" d="M6560.987,1095.445c-10.561,7.447-30.2,21.39-35.327,24.23-3.3,1.829-7.576,5.395-13.831,6.8-8.949-6.084-6.778-17.174-6.778-17.174,5.386-1.817,9.668-3.444,10.673-3.835,2.686-1.036,24.535-26.893,24.535-26.893s8.327-10.7,15.817-8.933c6.51,1.535,9.325,6.356,10.482,11.047A14.007,14.007,0,0,1,6560.987,1095.445Z" transform="translate(-6438.362 -1015.688)" fill="#bf3976"/>
      </g>
    </g>
  </g>
</svg>
