<svg xmlns="http://www.w3.org/2000/svg" width="381.538" height="324.644" viewBox="0 0 381.538 324.644">
  <g id="Grupo_53927" data-name="Grupo 53927" transform="translate(-330.396 426.593)">
    <g id="Grupo_53925" data-name="Grupo 53925">
      <g id="Grupo_53755" data-name="Grupo 53755">
        <path id="Trazado_100598" data-name="Trazado 100598" d="M553.4-417.9c53.613.472,175.628,241.182,129.41,295.531S334.8-130.888,347.969-208.529,499.788-418.372,553.4-417.9Z" fill="#fff" opacity="0.2" style="isolation: isolate"/>
        <path id="Trazado_100599" data-name="Trazado 100599" d="M588.247-425.184S725.585-310.1,709.64-131.238" fill="none" stroke="#fff" stroke-linecap="round" stroke-linejoin="round" stroke-width="2" stroke-dasharray="12"/>
      </g>
    </g>
    <g id="Grupo_53930" data-name="Grupo 53930">
      <g id="Grupo_53927-2" data-name="Grupo 53927">
        <path id="Trazado_100870" data-name="Trazado 100870" d="M381.479-220.971a18.208,18.208,0,0,0-1.568-6.423c-1.244-2.39-3.428-4.115-5.337-6.016a33.382,33.382,0,0,1-7.958-12.684c-1.273-3.68-1.908-7.6-3.663-11.076-1.072-2.122-2.534-4.019-3.751-6.061-2.877-4.826-4.443-10.529-8.345-14.568a17.512,17.512,0,0,0,3.955,13.852,23.332,23.332,0,0,1,2.808,3.414c1.329,2.328,1.208,5.169,1.363,7.847a34.46,34.46,0,0,0,4.121,14.421c2.56,4.7,6.255,8.887,7.623,14.063,1.026,3.879.721,8.231,2.908,11.593a2.958,2.958,0,0,1,.566,1.161,2.52,2.52,0,0,1-.043.729l-.147.937c-.5,3.175-1.011,7.214,1.717,9.591,1.891,1.646,4.324,1.683,5.682-.5,1.368-2.2,1.246-5.426,1.145-7.9C382.386-212.728,381.944-216.867,381.479-220.971Z" fill="#357e69"/>
        <path id="Trazado_100871" data-name="Trazado 100871" d="M386.393-223.524c-1.061-3.676-2.709-7.176-3.534-10.911a51.443,51.443,0,0,1-.81-11.081q0-6.1-.009-12.2a45.819,45.819,0,0,0-.423-7.574c-.9-5.372-3.692-10.34-4.165-15.766-.2-2.347.033-4.718-.225-7.06A11.1,11.1,0,0,0,376.118-292a1.732,1.732,0,0,0-3.109.087,15.805,15.805,0,0,0-1.669,9.262,37.9,37.9,0,0,0,1.758,5.467c2.719,8.089,1.275,17.045,3.38,25.316.635,2.5,1.6,4.946,1.707,7.52.267,6.161-4.334,11.789-3.912,17.942.346,5.044,3.972,9.219,5.495,14.04.852,2.7,1.034,5.579,1.947,8.258.71,2.081,2.359,4.608,4.921,3.976,2.433-.6,1.7-2.585,1.589-4.481C387.857-211.032,388.2-217.257,386.393-223.524Z" fill="#2d6e58"/>
        <path id="Trazado_100872" data-name="Trazado 100872" d="M391.961-220.157a29.333,29.333,0,0,1-.163-5.723,33.552,33.552,0,0,1,1.317-4.657,41.914,41.914,0,0,0,1.27-8.972l1.125-16.468a215.019,215.019,0,0,1,2.764-25.493c.443-2.333.941-4.861-.108-6.99-.221-.449-.656-.926-1.132-.776-.34.106-.507.48-.63.815-3.487,9.478-4.806,19.682-8.7,29a37.318,37.318,0,0,0-2.5,6.8c-.58,2.847-.262,5.788-.187,8.692a41,41,0,0,1-1.448,12.369,51.213,51.213,0,0,0-1.738,6.3,33.165,33.165,0,0,0,.191,8.131,124.824,124.824,0,0,1,.5,15.662c-.094,3.072,2.5,2.991,4.216,1.1,1.2-1.32,1.19-2.768,1.6-4.411C389.694-210.168,392.289-214.309,391.961-220.157Z" fill="#357e69"/>
        <path id="Trazado_100873" data-name="Trazado 100873" d="M375.762-211.828c-2.292-3.684-6.86-5.778-8.325-9.864-.373-1.039-.519-2.157-.974-3.163-1.012-2.235-3.312-3.5-5.574-4.526a.478.478,0,0,0-.675.431h0a1.633,1.633,0,0,0,.708,1.38,9.167,9.167,0,0,1,3.655,4.985c.7,2.4.4,5.02,1.264,7.357.729,1.963,2.229,3.568,2.934,5.539.645,1.8.577,3.772.88,5.662s1.142,3.9,2.878,4.695C378.813-196.438,377.243-209.448,375.762-211.828Z" fill="#2d6e58"/>
        <path id="Trazado_100874" data-name="Trazado 100874" d="M401.882-213.044c-.1,1.781.174,3.648-.522,5.29a16.01,16.01,0,0,1-1.907,2.83c-2.311,3.27-3.15,7.9-6.7,9.744A1.206,1.206,0,0,1,392-195a1.155,1.155,0,0,1-.749-.759c-.871-2.029.106-4.315.685-6.446a1.581,1.581,0,0,0,.008-1.131c-.2-.378-.641-.541-.945-.837a2.758,2.758,0,0,1-.429-2.406,54.459,54.459,0,0,1,1.267-6.221,10.88,10.88,0,0,1,1.331-3.327,14.735,14.735,0,0,1,2.806-2.777,33.257,33.257,0,0,0,9.708-14.33,9.409,9.409,0,0,1,1.624-3.4,2.709,2.709,0,0,1,3.393-.691c.735.517-2.275,5.358-2.626,5.939-1,1.658-1.016,3.1-1.583,4.945C405.1-221.921,402.148-217.881,401.882-213.044Z" fill="#357e69"/>
        <path id="Trazado_100875" data-name="Trazado 100875" d="M398.381-210.984a21.888,21.888,0,0,0,1.536-5.229c.241-2.012-.078-4.068.265-6.064.442-2.566,1.938-4.824,2.679-7.319a48.524,48.524,0,0,0,.987-5.55c.919-5.3,3.41-10.475,2.7-15.8-.156-1.159-.679-2.511-1.83-2.708a2.22,2.22,0,0,0-2.26,1.8,9.686,9.686,0,0,0,.006,3.16,13.045,13.045,0,0,1-2.336,8.364c-1.637,2.315-4.011,4.058-5.483,6.482-1.806,2.972-2.052,6.6-2.974,9.956-1.832,6.672-6.429,12.493-7.267,19.362-.334,2.733.308,6.056,2.831,7.148C394.526-194.232,396.728-206.71,398.381-210.984Z" fill="#2d6e58"/>
        <path id="Trazado_100876" data-name="Trazado 100876" d="M385.626-202.516H368.882a1.776,1.776,0,0,0-1.725,2.187l6.1,25.739a1.774,1.774,0,0,0,1.725,1.366H395.1a1.774,1.774,0,0,0,1.725-1.366l6.1-25.739a1.775,1.775,0,0,0-1.724-2.187Z" fill="#e54637"/>
      </g>
      <g id="Grupo_53928" data-name="Grupo 53928">
        <path id="Trazado_100877" data-name="Trazado 100877" d="M441.461-154.473h3.8a3.715,3.715,0,0,0-2.247-.752H347.778a8.935,8.935,0,0,0-9.022,8.845v5.618a8.935,8.935,0,0,0,9.022,8.845l94.173-.031Z" fill="#8cc8b8"/>
        <path id="Trazado_100878" data-name="Trazado 100878" d="M387.392-155.2a8.545,8.545,0,0,0-8.628,8.459v6.349a8.544,8.544,0,0,0,8.628,8.458H446.68v-1.42h-.245l-15.072-1.4-3.046-11.717s5.879-6.474,6.263-6.641,11.855-.674,11.855-.674l.245,0V-155.2Z" fill="#4eae92"/>
        <path id="Trazado_100879" data-name="Trazado 100879" d="M442.835-143.613c0-6.85,3.611-10.171,3.611-10.171h-57.84a7.848,7.848,0,0,0-7.924,7.77v4.887a7.848,7.848,0,0,0,7.924,7.769h57.84S442.835-134.987,442.835-143.613Z" fill="#fdd8a1"/>
        <path id="Trazado_100880" data-name="Trazado 100880" d="M380.682-146.014v4.887a7.637,7.637,0,0,0,.231,1.863A16.945,16.945,0,0,1,393.719-149.9c16.617-3.383,52.727-3.885,52.727-3.885h-57.84A7.848,7.848,0,0,0,380.682-146.014Z" fill="#d1ebf6" style="mix-blend-mode: multiply;isolation: isolate"/>
        <path id="Trazado_100881" data-name="Trazado 100881" d="M335.617-173.122h-3.8a4.38,4.38,0,0,1,2.247-.6h95.275c4.985,0,9.026,3.142,9.026,7.018v4.458c0,3.876-4.041,7.018-9.026,7.018l-94.209-.024Z" fill="#113744"/>
        <path id="Trazado_100882" data-name="Trazado 100882" d="M389.707-173.7c4.767,0,8.631,3,8.631,6.711v5.038c0,3.707-3.864,6.712-8.631,6.712H330.4v-1.127h.245l15.078-1.11,3.047-9.3s-5.882-5.137-6.265-5.27-11.86-.534-11.86-.534l-.245,0V-173.7Z" fill="#042a48"/>
        <path id="Trazado_100883" data-name="Trazado 100883" d="M334.242-164.505a10.244,10.244,0,0,0-3.612-8.07h57.862c4.379,0,7.928,2.76,7.928,6.164v3.878c0,3.4-3.549,6.165-7.928,6.165H330.63S334.242-157.661,334.242-164.505Z" fill="#fdd8a1"/>
        <path id="Trazado_100884" data-name="Trazado 100884" d="M396.42-166.411v3.878a4.887,4.887,0,0,1-.231,1.479c-1.951-3.713-5.692-7.289-12.812-8.439-16.623-2.684-52.747-3.082-52.747-3.082h57.862C392.871-172.575,396.42-169.815,396.42-166.411Z" fill="#d1ebf6" style="mix-blend-mode: multiply;isolation: isolate"/>
      </g>
      <path id="Trazado_100885" data-name="Trazado 100885" d="M525.249-149.735,493.6-135.148v3.231H606.307v-3.231l-31.933-14.587Z" fill="#ffe7cf"/>
      <path id="Trazado_100928" data-name="Trazado 100928" d="M0,0H49.146V62.549H0Z" transform="translate(525.249 -212.258)" fill="#f38746"/>
      <path id="Trazado_100886" data-name="Trazado 100886" d="M698.535-200.131v-146.24a6.94,6.94,0,0,0-6.941-6.941H407.729a6.941,6.941,0,0,0-6.941,6.941v146.24Z" fill="#ffe7cf"/>
      <rect id="Rectángulo_5383" data-name="Rectángulo 5383" width="112.706" height="3.231" transform="translate(493.602 -135.148)" fill="#113744" opacity="0.3" style="mix-blend-mode: multiply;isolation: isolate"/>
      <rect id="Rectángulo_5384" data-name="Rectángulo 5384" width="49.126" height="7.34" transform="translate(525.249 -157.075)" fill="#f8a575"/>
      <rect id="Rectángulo_5385" data-name="Rectángulo 5385" width="285.62" height="13.084" transform="translate(406.213 -347.249)" fill="#e54637"/>
      <rect id="Rectángulo_5386" data-name="Rectángulo 5386" width="285.608" height="128.76" transform="translate(406.213 -334.167)" fill="#fff"/>
      <path id="Trazado_100887" data-name="Trazado 100887" d="M400.788-200.131v24.578c0,5.112,3.108,9.257,6.941,9.257H691.594c3.834,0,6.941-4.145,6.941-9.257v-24.578Z" transform="translate(0 -2.719)" fill="#ffe7cf"/>
      <path id="Trazado_100888" data-name="Trazado 100888" d="M414.9-340.561a2.274,2.274,0,0,1-2.274,2.274,2.274,2.274,0,0,1-2.274-2.274,2.274,2.274,0,0,1,2.274-2.273A2.274,2.274,0,0,1,414.9-340.561Z" fill="#fff"/>
      <path id="Trazado_100889" data-name="Trazado 100889" d="M422.941-340.561a2.274,2.274,0,0,1-2.274,2.274,2.274,2.274,0,0,1-2.273-2.274,2.273,2.273,0,0,1,2.273-2.273A2.274,2.274,0,0,1,422.941-340.561Z" fill="#fff"/>
      <path id="Trazado_100890" data-name="Trazado 100890" d="M430.981-340.561a2.274,2.274,0,0,1-2.274,2.274,2.274,2.274,0,0,1-2.274-2.274,2.274,2.274,0,0,1,2.274-2.273A2.274,2.274,0,0,1,430.981-340.561Z" fill="#fff"/>
      <g id="Grupo_53929" data-name="Grupo 53929">
        <path id="Trazado_100891" data-name="Trazado 100891" d="M412.474-181.443l.325,0,18.183-.2a3.418,3.418,0,0,1,3.451,3.606l-2.387,43.367a3.413,3.413,0,0,1-2.441,3.09c-3.175.935-9.394,1.331-16.484,1.409s-13.158-.184-16.352-1.048a3.413,3.413,0,0,1-2.509-3.036l-3.34-43.3a3.419,3.419,0,0,1,3.371-3.682Z" fill="#fabf68"/>
        <path id="Trazado_100892" data-name="Trazado 100892" d="M389.785-186.985c.456-1.75,1.656-2.918,3.011-2.933l19.582-.216.326,0,19.582-.215c1.355-.015,2.58,1.127,3.075,2.866l1.649,5.795a2.562,2.562,0,0,1-2.437,3.264l-21.738.239-.326,0-21.737.239a2.564,2.564,0,0,1-2.509-3.21Z" fill="#042a48"/>
        <path id="Trazado_100893" data-name="Trazado 100893" d="M392.79-193.069a1.465,1.465,0,0,1,1.45-1.482l18.087-.2.326,0,18.087-.2a1.467,1.467,0,0,1,1.483,1.451l.048,4.4-19.73-1.022-19.7,1.456Z" fill="#042a48"/>
        <path id="Trazado_100894" data-name="Trazado 100894" d="M435.484-170.118,434.047-150.4a.8.8,0,0,1-.577.711,82.814,82.814,0,0,1-20.453,2.9,82.885,82.885,0,0,1-20.511-2.448.8.8,0,0,1-.592-.7l-1.871-19.68a.8.8,0,0,1,.948-.861c9.686,1.931,33.885,1.665,43.527-.478A.8.8,0,0,1,435.484-170.118Z" fill="#4eae92"/>
        <path id="Trazado_100895" data-name="Trazado 100895" d="M406.79-159.795a7.841,7.841,0,0,0,6.3,9.125,7.841,7.841,0,0,0,9.124-6.3,7.841,7.841,0,0,0-6.3-9.125A7.841,7.841,0,0,0,406.79-159.795Z" fill="#f0f9fd"/>
      </g>
      <circle id="Elipse_4109" data-name="Elipse 4109" cx="11" cy="11" r="11" transform="translate(539.261 -200.184)" fill="#f38746"/>
    </g>
    <g id="Grupo_53931" data-name="Grupo 53931">
      <path id="Trazado_100896" data-name="Trazado 100896" d="M572.978-133.913s-2.812,3.949-6.6,5.538-10.635,3.809-8.068,4.7,9.517.456,12.766,0,4.349,1.612,6.06.517,1.345-8.186,1.345-8.186Z" fill="#45445b"/>
      <path id="Trazado_100897" data-name="Trazado 100897" d="M622.457-129.946a7.7,7.7,0,0,1-1.955,7.035c-3.057,3.3-8.069,5.013-3.424,5.746s10.391-1.834,11.492-3.423a25.346,25.346,0,0,1,2.445-2.9c.855-1.009,0-8.222,0-8.222Z" fill="#45445b"/>
      <path id="Trazado_100898" data-name="Trazado 100898" d="M588.4-316.085c-7.837,4.908-8.318,17.318-2.86,21.783s19.4,5.6,25.92,3.3c6.6-2.326,12.844-4.1,16.378-1.071,5.238,4.494,8.68,6.224,12.959,5.227,7.626-1.776,9.535-.489,10.879,4.034s3.546.687,7.213,4.317.489,7.759-.733,8.689,7.946,3.987,8.19-6.649-9.78-4.156-10.88-7.09,1.589-11.125-2.934-11.369-8.19,1.356-8.8-2.562-8.438-5.995-11.98-3.428-5.864-2.393-7.371-5.379c-1.728-3.423-6.565-1.834-10.477-3.3s-2.033-7.308-10.926-10.274C598.575-321.324,593.24-319.118,588.4-316.085Z" fill="#45445b"/>
      <path id="Trazado_100899" data-name="Trazado 100899" d="M600.278-304.93s4,10.869,10.3,14.682,12.776,3.774,12.013,9.61-.749,37.9-.749,37.9-13.27,6.679-16.7,6.572-18.588-28.785-17.444-33.512,11.507-17.9,10.9-21.144-4.419-8.71-4.419-8.71Z" fill="#ffcbac"/>
      <path id="Trazado_100900" data-name="Trazado 100900" d="M598.57-290.019a2.3,2.3,0,0,0,.025-.8c-.6-3.241-4.419-8.71-4.419-8.71l6.1-5.4a46.254,46.254,0,0,0,2.7,5.744A41.248,41.248,0,0,1,598.57-290.019Z" fill="#eaac86"/>
      <path id="Trazado_100901" data-name="Trazado 100901" d="M585.2-300.721c.9,4.842,3.259,9.318,7.279,8.567s8.184-6.446,7.279-11.287-4.9-8.157-8.917-7.4S584.293-305.562,585.2-300.721Z" fill="#ffcbac"/>
      <path id="Trazado_100902" data-name="Trazado 100902" d="M605.639-243.456s-1.677,32.322-18.008,77.309a207.205,207.205,0,0,1-16.56,34.434s8.377,7.552,9.235,5.835,33.511-35.419,42.987-77.188c5.7-25.117-9.39-45.884-9.39-45.884Z" fill="#7f7f7f"/>
      <path id="Trazado_100903" data-name="Trazado 100903" d="M605.589-243.334a184.015,184.015,0,0,1-2.4,19.036c8.917,23.323,1.99,54.524-5.221,75.769,9.594-13.931,20.445-33.123,25.276-54.415,5.7-25.117-9.39-45.884-9.39-45.884Z" fill="#6f6f6f"/>
      <path id="Trazado_100904" data-name="Trazado 100904" d="M619.709-246.411s20.879-.181,21.165,22.058-2.575,56.345-5.721,76.08-3.221,22.395-3.221,22.395-8.215-.286-10.3-1.144c0-5.729-1.016-31.793-3.473-48.422s-8.75-64.209-8.75-64.209Z" fill="#aaa9a9"/>
      <path id="Trazado_100905" data-name="Trazado 100905" d="M596.554-285.587c-19.844,4.032-30.984,9.343-33.858,11.81-4.083,3.5-2.135,11.859-.668,12.174,6.215,1.332,35.264-2.356,35.264-2.356Z" fill="#d8a637"/>
      <path id="Trazado_100906" data-name="Trazado 100906" d="M610.575-290.248c5.14,2.5,11.823,3.58,13.157,5.89s-3.051,31.1,0,34.726a19.4,19.4,0,0,0,6.968,5.149s-6.29,14.873-17.784,16.208S601-231.34,601-231.34s-14.259-27.8-13.3-38.336c.393-4.35,8.958-15.911,8.958-15.911s-1.3,4.59,1.924,5.4S610.575-290.248,610.575-290.248Z" fill="#fac244"/>
      <path id="Trazado_100907" data-name="Trazado 100907" d="M623.932-279.747c-.4,8.862-2.6,27.267-.2,30.115a19.4,19.4,0,0,0,6.968,5.149,37.565,37.565,0,0,1-3.529,6.172,16.761,16.761,0,0,1-4.522-1.58c-7.642-4.783-10.835-11.154-13.476-17.559s2.737-14.873,8.989-27.645Z" fill="#d8a637"/>
      <path id="Trazado_100908" data-name="Trazado 100908" d="M594.176-289.079a16.7,16.7,0,0,0,12.616,3.127c3.645-.588,3.974,0,3.974,0s8.322,17.367,11.883,27.511,4.9,9.381,3.562,10.144-12.687,4.589-12.687,4.589l-5.995-26.1s-3.567,2.029-3.568,12.927c0,9.169,13.331,23.253,16.541,24.27,1.2.381,2.607,5.461-13.285,9.862-14.079,3.9-30.584-3.9-30.584-3.9s7.437-39.1,9.725-43.632-10.3,22.584-10.3,22.584-6.253.477-.763-11.446,9.067-22.627,10.919-25.96C588.51-289.222,587.475-291.1,594.176-289.079Z" fill="#339ce9"/>
      <path id="Trazado_100909" data-name="Trazado 100909" d="M620.607-286.234c-5.231,2.279-2.983,16.558-2.983,16.558s24.829,15.568,24.638,17.554-6.371,11.3-16.463,16.5c-.7-1.582-6.48-.941-10.072-.54l.971,1.051c.617.212,2.894,1.124,2.894,1.124s-5.43.271-6.676,1.213c-2.739,2.072,7.83,4.161,13.8.982,4.46-2.373,14.972-5.012,22.98-17.157C658.9-262.9,620.607-286.234,620.607-286.234Z" fill="#ffcbac"/>
      <path id="Trazado_100910" data-name="Trazado 100910" d="M616.892-287.811c12.751,2.9,30.748,21.219,33.406,27.719,1.876,4.59.7,6.806-4.256,9.777s-7.818,1.365-7.818,1.365-5.36-8.584-11.462-12.753-9.894-5.013-9.894-5.013-2.479-6.7-1.717-12.921S616.892-287.811,616.892-287.811Z" fill="#fac244"/>
      <path id="Trazado_100911" data-name="Trazado 100911" d="M612.609-264.12c-1.141-1.564-1.219-3.3-1.12-5.976a29.961,29.961,0,0,1,1.825-10.419c2.657,5.758,6.755,14.9,9.1,21.421A15.2,15.2,0,0,1,612.609-264.12Z" fill="#339ce9"/>
      <path id="Trazado_100912" data-name="Trazado 100912" d="M560.275-266.6c.96,5.767,1.729,6.23,4.583,6.53,4.529.477,10.726-5.244,12.586-8.581s1.615-4.8,1.615-4.8Z" fill="#fac244"/>
      <path id="Trazado_100913" data-name="Trazado 100913" d="M579.821-275.184c-3.379,9.153-14.625,13.086-16.917,12.013s-3.1-5.557-2.814-5.739S579.821-275.184,579.821-275.184Z" fill="#eaac86"/>
      <path id="Trazado_100914" data-name="Trazado 100914" d="M577.491-279.474a3.064,3.064,0,0,0-2.925-.107l-6.437,2.477Z" fill="#fac244"/>
      <path id="Trazado_100915" data-name="Trazado 100915" d="M562.9-274.674c-4.495,3.444-3.433,9.359,0,9.311s25.361-11.962,27.268-14.206,12.776-1.353,13.729-3.318-9.522-3.62-11.536-2.7a24.872,24.872,0,0,0-4.718,3.345S567.29-278.035,562.9-274.674Z" fill="#ffcbac"/>
      <path id="Trazado_100916" data-name="Trazado 100916" d="M584.316-307.3c2.2,7.824,15.047,3.43,15.047,3.43a18.84,18.84,0,0,0,5.777,8.184c4.359,3.545,6.318-1.956,6.318-1.956l-12.106-14.3s-10.268.367-10.88.611A44.544,44.544,0,0,0,584.316-307.3Z" fill="#45445b"/>
      <path id="Trazado_100917" data-name="Trazado 100917" d="M598.748-302.957c-.557,1.807-.068,3.562,1.094,3.92s2.554-.816,3.111-2.623.068-3.561-1.094-3.919S599.3-304.763,598.748-302.957Z" fill="#ffcbac"/>
    </g>
    <path id="Trazado_100918" data-name="Trazado 100918" d="M418.394-289.143l20.193-11.647,7.446-1.3s-.579,3.272,10.3,4.034,9.434-7.485,9.434-7.485l13.961-2.441,27.647,9.994s-1.968,16.17-3.158,15.947-19.465-4.892-19.465-4.892l15.658,62.1-53.379,7.417-6.755-63.854L422.3-271.039Z" fill="#92c6e9"/>
    <path id="Trazado_100919" data-name="Trazado 100919" d="M498.307-266.747s12.1,47.109,12.662,47.109,15.5-4.157,15.5-4.157l-11.528-35.3s-9.827-1.66-10.961-7.653l-1.133-4.67-5.481.87Z" fill="#92c6e9"/>
    <path id="Trazado_100920" data-name="Trazado 100920" d="M550.129-282.344l.247-.242,4.109-4.017L545-296.477l8.034-3.775-26.813-9.777,9.97,26.62,4.162-8.809Z" fill="none" stroke="#595959" stroke-linecap="round" stroke-linejoin="round" stroke-width="2"/>
    <line id="Línea_166" data-name="Línea 166" x1="7.873" y2="8.131" transform="translate(513.991 -306.995)" fill="none" stroke="#2287cb" stroke-linecap="round" stroke-linejoin="round" stroke-width="1.366"/>
    <line id="Línea_167" data-name="Línea 167" x1="10.648" transform="translate(509.086 -310.867)" fill="none" stroke="#2287cb" stroke-linecap="round" stroke-linejoin="round" stroke-width="1.366"/>
    <line id="Línea_168" data-name="Línea 168" x1="8.26" y1="7.937" transform="translate(513.991 -322.87)" fill="none" stroke="#2287cb" stroke-linecap="round" stroke-linejoin="round" stroke-width="1.366"/>
    <path id="Trazado_100921" data-name="Trazado 100921" d="M525.8-316.675v-10.842" fill="none" stroke="#2287cb" stroke-linecap="round" stroke-linejoin="round" stroke-width="1.366"/>
    <line id="Línea_169" data-name="Línea 169" y1="7.486" x2="7.357" transform="translate(530.253 -322.419)" fill="none" stroke="#2287cb" stroke-linecap="round" stroke-linejoin="round" stroke-width="1.366"/>
  </g>
</svg>
