<svg xmlns="http://www.w3.org/2000/svg" width="295" height="158" viewBox="0 0 295 158">
  <g id="Grupo_57442" data-name="Grupo 57442" transform="translate(-1020 -456)">
    <ellipse id="Elipse_4477" data-name="Elipse 4477" cx="147.5" cy="7" rx="147.5" ry="7" transform="translate(1020 600)" fill="#8f2b58" opacity="0.27"/>
    <g id="Grupo_57441" data-name="Grupo 57441" transform="translate(760.611 1933.594)">
      <g id="Grupo_57437" data-name="Grupo 57437" transform="translate(306.389 -1477.594)">
        <g id="Grupo_57416" data-name="Grupo 57416">
          <path id="Trazado_120082" data-name="Trazado 120082" d="M516.471-1366.457l7.958,94.617s.834,5.736-3.432,5.746c-7.015.017-34.914,0-34.914,0s5.279-1.193,5.215-3.88c-.075-3.167-9.3-97.378-9.3-97.378Z" transform="translate(-401.408 1417.944)" fill="#848484"/>
          <path id="Trazado_120083" data-name="Trazado 120083" d="M481.084-1269.835c1.38,0,28.027.088,34.858,0,2.977-.037,3.5-2.647,3.523-4.336a8.454,8.454,0,0,0-.09-1.409l-.206-2.459-.528-6.268-.466-5.538-.6-7.116-.5-6.006-5.654-67.231-34.474-.9s3.886,39.427,6.634,68.126c.307,3.2.6,6.264.869,9.126q.132,1.371.253,2.677c.255,2.715.488,5.209.691,7.411.107,1.161.206,2.239.295,3.227.351,3.87.556,6.342.559,6.812a3.99,3.99,0,0,1-.067.766C485.611-1269.933,481.6-1269.835,481.084-1269.835Z" transform="translate(-398.674 1419.968)" fill="#999"/>
          <path id="Trazado_120084" data-name="Trazado 120084" d="M505.174-1477.594l-19.383,77.858-2.654,10.663-9.028,36.264H306.389l33.275-124.785Z" transform="translate(-306.389 1477.594)" fill="#999"/>
          <path id="Trazado_120085" data-name="Trazado 120085" d="M702.925-1477.594l2.686.9-30.18,126.6-3.572-2.708Z" transform="translate(-504.14 1477.594)" fill="#c4c3c3"/>
          <path id="Trazado_120086" data-name="Trazado 120086" d="M477.681-1202.971H310.993l-4.6-2.708H474.11Z" transform="translate(-306.389 1330.465)" fill="#5f5f5e"/>
          <rect id="Rectángulo_6565" data-name="Rectángulo 6565" width="36.09" height="1.715" transform="translate(76.665 150.171)" fill="#999"/>
          <path id="Trazado_120087" data-name="Trazado 120087" d="M321.766-1375.8l27.215-100.142H512.695v-1.65H346.916l-27.124,101.569Z" transform="translate(-313.641 1477.594)" fill="#f1913b"/>
          <path id="Trazado_120088" data-name="Trazado 120088" d="M493.438-1199.78l.186,1.311,33.941,6.857-.466-5.538-.222-2.631Z" transform="translate(-407.598 1327.273)" fill="#848484" opacity="0.1"/>
          <path id="Trazado_120089" data-name="Trazado 120089" d="M485.966-1163.052c1.38,0,28.027.088,34.858,0,2.977-.037,3.5-2.647,3.523-4.336l-33.781-6.356c.351,3.87.556,6.342.559,6.812a3.992,3.992,0,0,1-.067.766C490.493-1163.151,486.484-1163.052,485.966-1163.052Z" transform="translate(-403.555 1313.185)" fill="#fff" opacity="0.4"/>
          <path id="Trazado_120090" data-name="Trazado 120090" d="M511.314-1273.7l73.677,25.262,9.028-36.264Z" transform="translate(-417.271 1373.223)" fill="#fff" opacity="0.4"/>
          <path id="Trazado_120091" data-name="Trazado 120091" d="M512.744-1477.594H347.234l-26.854,100.288H488.63Z" transform="translate(-313.959 1477.594)" fill="#5389c8"/>
        </g>
        <path id="Trazado_120092" data-name="Trazado 120092" d="M479.337-1236.687a5.672,5.672,0,0,1,5.319-4.453,3.564,3.564,0,0,1,3.588,4.453,5.672,5.672,0,0,1-5.319,4.453A3.564,3.564,0,0,1,479.337-1236.687Z" transform="translate(-399.923 1349.652)" fill="#ffede3"/>
        <path id="Trazado_120093" data-name="Trazado 120093" d="M337.387-1375.318H492.356l17.55-69.913,1.345-5.361,1.148-4.573.919-3.661,1.773-7.062H362.356l-.107.389-1.839,6.674-1.009,3.661-1.262,4.573-1.478,5.361Z" transform="translate(-323.162 1471.26)" fill="#e2effb"/>
        <path id="Trazado_120094" data-name="Trazado 120094" d="M337.387-1374.8H492.356l17.55-69.913,1.345-5.361,1.148-4.573.919-3.661,1.773-7.062H362.356l-.107.389-1.839,6.673-1.009,3.661-1.262,4.573-1.478,5.361Z" transform="translate(-323.162 1470.978)" fill="#e2effb"/>
        <path id="Trazado_120095" data-name="Trazado 120095" d="M387.557-1458.826H540.464l1.773-7.062H389.561l-.166.389Z" transform="translate(-350.308 1471.26)" fill="#9ec1e8"/>
        <g id="Grupo_57417" data-name="Grupo 57417" transform="translate(175.709 7.011)">
          <path id="Trazado_120096" data-name="Trazado 120096" d="M712.145-1459.775a1.013,1.013,0,0,0-1.006-1.34,1.831,1.831,0,0,0-1.675,1.34,1.013,1.013,0,0,0,1.006,1.341A1.831,1.831,0,0,0,712.145-1459.775Z" transform="translate(-700.173 1461.667)" fill="#e2effb"/>
          <ellipse id="Elipse_4476" data-name="Elipse 4476" cx="1.518" cy="1.184" rx="1.518" ry="1.184" transform="translate(4.256 2.01) rotate(-41.449)" fill="#e2effb"/>
          <path id="Trazado_120097" data-name="Trazado 120097" d="M691.989-1459.775a1.013,1.013,0,0,0-1.006-1.34,1.831,1.831,0,0,0-1.675,1.34,1.013,1.013,0,0,0,1.006,1.341A1.831,1.831,0,0,0,691.989-1459.775Z" transform="translate(-689.267 1461.667)" fill="#e2effb"/>
        </g>
        <g id="Grupo_57419" data-name="Grupo 57419" transform="translate(117.548 16.942)">
          <path id="Trazado_120098" data-name="Trazado 120098" d="M569.88-1336.28H585.2c.147-1.2.277-2.464.393-3.784.206-2.368.363-4.916.479-7.567q.042-.918.075-1.849c.029-.79.055-1.59.078-2.394.037-1.364.067-2.745.088-4.134v0c.027-1.771.04-3.553.044-5.329h0q0-.665,0-1.328h0c0-.417,0-.831,0-1.245-.013-3.823-.071-7.572-.152-11.059-.176-7.713-.462-14.141-.614-17.231h0c-.061-1.268-.1-1.974-.1-1.974h0c-.035.006-.267.048-.633.136-.268.066-.609.155-1,.274h0c-.35.105-.736.237-1.141.39h0a13.366,13.366,0,0,0-2.133,1.031l-.032.016a6.153,6.153,0,0,0-2.649,2.895c-.4,1.056-1.351,6.732-2.5,14.271-.032.215-.064.431-.1.65-.6,4-1.259,8.5-1.916,13.081-.7,4.86-1.391,9.824-2.031,14.425C570.811-1343.066,570.3-1339.39,569.88-1336.28Z" transform="translate(-566.508 1415.52)" fill="#0d397b"/>
          <path id="Trazado_120099" data-name="Trazado 120099" d="M579.232-1286.467h17.836c.342-1.471.663-2.891.947-4.222a46.092,46.092,0,0,0,1.271-8.292,2.419,2.419,0,0,0-.79-1.805,3.9,3.9,0,0,0-1.278-.755,15.2,15.2,0,0,0-5.93-.521c-.769.048-1.549.123-2.318.217a67.559,67.559,0,0,0-8.174,1.563s-.263,1.064-.574,2.924c-.234,1.4-.494,3.24-.688,5.42-.112,1.266-.2,2.645-.254,4.115C579.265-1287.381,579.249-1286.928,579.232-1286.467Z" transform="translate(-571.568 1365.707)" fill="#132b50"/>
          <path id="Trazado_120100" data-name="Trazado 120100" d="M597.181-1297.873l.178,1.289.864,6.257.147,1.068.535,3.879h18.588c.144-2.564.278-5.062.3-7.24,0-.241,0-.478,0-.71,0-3.279-.289-5.711-1.229-6.325-1.066-.7-4.6-.5-8.364-.044q-.563.068-1.131.146c-2.194.3-4.389.659-6.154.973-.916.163-1.716.313-2.338.431C597.706-1297.981,597.181-1297.873,597.181-1297.873Z" transform="translate(-581.28 1364.62)" fill="#b93f36"/>
          <path id="Trazado_120101" data-name="Trazado 120101" d="M608.143-1392.089s-10.212-6.6-17.536-3.226a13.718,13.718,0,0,0-3.452,3.09c-2.647,2.917-7.82,49.26-7.82,49.26s14.685,4.973,28.808-1.688Z" transform="translate(-571.624 1416.652)" fill="#fff"/>
          <path id="Trazado_120102" data-name="Trazado 120102" d="M581.776-1394.546s-10.338,4.237-11.738,7.492-5.951,23.245-5.951,25.59,7.924.524,9.2-3.256c1.059-3.139,4.632-12.784,6.516-18.884Z" transform="translate(-563.373 1415.716)" fill="#0d397b"/>
          <g id="Grupo_57418" data-name="Grupo 57418" transform="translate(16.284)">
            <path id="Trazado_120103" data-name="Trazado 120103" d="M605.339-1398.4a11.627,11.627,0,0,0,8-1.629,23.027,23.027,0,0,1-1.7-6.021c-.01-.071-.017-.14-.023-.206a6.133,6.133,0,0,1-.028-1.38h-5.835s-1.6.73-1.6,1.234q0,.4-.007.774c-.012.671-.039,1.257-.073,1.76a16.022,16.022,0,0,1-.3,2.409S603.06-1398.849,605.339-1398.4Z" transform="translate(-601.074 1422.8)" fill="#f79f6a"/>
            <path id="Trazado_120104" data-name="Trazado 120104" d="M604.549-1402.6a8.063,8.063,0,0,0,7.562-2.181c.082-.089.124-.141.124-.141-.047-.023-.1-.044-.147-.065-1.646-.666-5.379-.137-7.465.628C604.61-1403.691,604.584-1403.106,604.549-1402.6Z" transform="translate(-601.55 1421.532)" fill="#dc7b46"/>
            <path id="Trazado_120105" data-name="Trazado 120105" d="M610.921-1422.351c-.79,4.251-6.275,4.111-8.646,3.844-.667-.074-1.087-.16-1.087-.16-.752-.2-1.172-1.385-1.367-2.937-.387-3.071.1-7.58.621-8.733.781-1.735,2.251-3.612,7.775-2.258S611.934-1427.8,610.921-1422.351Z" transform="translate(-598.917 1436.554)" fill="#f79f6a"/>
            <path id="Trazado_120106" data-name="Trazado 120106" d="M599.334-1436.831a12.632,12.632,0,0,1,3.809-3.109c3.124-1.69,7.121.053,7.138.06,4.512,1.984,5.691,5.436,3.3,10.813-2.53,5.687-4.938,5.047-4.938,5.047s.511-.318.465-2.09c0-.1-.007-.185-.011-.258a1.194,1.194,0,0,1,.376-.97c.561-.5.834-2.013.364-2.434-.566-.508-1.362.109-1.616.584a.693.693,0,0,1-.99.219c-1.4-.888-.492-2.664-1.834-3.75s-4.065-.174-6.078-1.04C596.683-1434.74,598.765-1436.043,599.334-1436.831Z" transform="translate(-598.015 1440.677)" fill="#132b50"/>
          </g>
          <path id="Trazado_120107" data-name="Trazado 120107" d="M599.31-1336.456h22.234c-.159-4.61-.363-10.116-.578-15.689-.055-1.445-.112-2.9-.168-4.336-.026-.61-.048-1.216-.072-1.822-.491-12.378-.979-23.555-1.082-24.157-.234-1.362-.454-2.522-.693-3.528-.7-2.932-1.566-4.54-3.46-5.923-.184-.14-1.7-.9-3.032-1.568-1.09-.541-2.059-1.013-2.089-1.026v0h0a2.143,2.143,0,0,0-.72.869,14.526,14.526,0,0,0-.8,1.769,95.473,95.473,0,0,0-2.876,9.59.034.034,0,0,0,0,.01v.005h0c-.491,1.927-.844,3.426-.944,3.858-.171.727-.4,2.132-.661,4.036v.006c-.359,2.6-.787,6.12-1.242,10.12h0q-.07.618-.14,1.246-.08.719-.163,1.454h0c-.017.158-.035.315-.051.473h0c-.175,1.584-.351,3.216-.526,4.879v.005c-.15,1.37-2.227,2.362-2.371,3.758-.011.1-.022.307-.035.593-.027.59-.059,1.526-.1,2.609-.016.482-.033.994-.052,1.516-.081,2.321-.182,4.863-.3,6.086-.006.057-.011.131-.015.22-.013.244-.024.6-.034,1.055C599.322-1339.389,599.313-1338.018,599.31-1336.456Z" transform="translate(-582.432 1415.696)" fill="#0d397b"/>
          <path id="Trazado_120108" data-name="Trazado 120108" d="M615.59-1357.383c.007.029.354,12.516-9.039,14.033s-3.152,1.918-3.152,1.918,17.674-.751,17.966-1.218S615.59-1357.383,615.59-1357.383Z" transform="translate(-583.544 1395.608)" fill="#132b50"/>
          <path id="Trazado_120109" data-name="Trazado 120109" d="M615.066-1318.1s.176.125.514.343a.161.161,0,0,1,.018.01,44.094,44.094,0,0,0,11.879,5.081q.975.263,2.014.5c-.055-1.445-.112-2.9-.168-4.335a18.221,18.221,0,0,0,2.328-.322q-.037-.286-.075-.571c-.787-.323-1.57-.635-2.326-.93-.615-.241-1.21-.469-1.773-.682-2.544-.967-4.43-1.621-4.43-1.621l-7.53,2.385Z" transform="translate(-590.957 1375.723)" fill="#132b50"/>
          <path id="Trazado_120110" data-name="Trazado 120110" d="M610.723-1358.286s.967.241,2.507.552a.045.045,0,0,1,.017,0,61.686,61.686,0,0,0,11.88,1.328c.629-.007,1.247-.032,1.846-.078a18.245,18.245,0,0,0,2.328-.322,7.245,7.245,0,0,0,3.719-1.756c6.344-6.463-3.462-29.656-5.524-31.913-2.407-2.635-6.8-3.559-9.227-3.876l-.293-.038c-.853-.1-1.4-.123-1.431-.124h0s.19.611.508,1.649c.124.4.268.867.425,1.386,1.49,4.88,4.365,14.471,5.633,19.879a13.723,13.723,0,0,1,.6,3.822c-.495,1.847-5.621,2.8-8.869,3.217-1.355.175-2.383.258-2.613.275a.375.375,0,0,0-.048,0l-.188.771-.449,1.847-.442,1.815Z" transform="translate(-588.607 1415.696)" fill="#0d397b"/>
          <path id="Trazado_120111" data-name="Trazado 120111" d="M566.953-1324.452l21.789-.918-4.421-27.155-21.789.918Z" transform="translate(-562.532 1392.979)" fill="#ad2564"/>
          <path id="Trazado_120112" data-name="Trazado 120112" d="M608.6-1328.681s-4.241-.3-4.454.693c-.5,2.3,3.647,4.2,4.988,4.067S609.578-1328.835,608.6-1328.681Z" transform="translate(-585.027 1380.1)" fill="#f79f6a"/>
          <path id="Trazado_120113" data-name="Trazado 120113" d="M564.413-1339.317s4.058-1.269,4.494-.356c1.016,2.127-2.577,4.926-3.912,5.111S563.428-1339.241,564.413-1339.317Z" transform="translate(-563.222 1386.204)" fill="#f79f6a"/>
          <path id="Trazado_120114" data-name="Trazado 120114" d="M617.779-1397.481a7.923,7.923,0,0,1,2.679,2.134s-6.67,11.58-6.641,11.472S616.073-1396,617.779-1397.481Z" transform="translate(-590.282 1417.304)" fill="#132b50"/>
          <path id="Trazado_120115" data-name="Trazado 120115" d="M601.092-1397.125a5.088,5.088,0,0,0-1.968,2.014l-.793,10.11s1.693-7.42,2.555-10.773A5.68,5.68,0,0,0,601.092-1397.125Z" transform="translate(-581.902 1417.111)" fill="#132b50"/>
          <path id="Trazado_120116" data-name="Trazado 120116" d="M584-1352.654a.989.989,0,0,0-1.164-.666c-.992.088-6.564.361-6.564.361s-1.075-.018-.975.671Z" transform="translate(-569.438 1393.413)" fill="#b93f36"/>
          <path id="Trazado_120117" data-name="Trazado 120117" d="M604.7-1408.344a2.326,2.326,0,0,1-1.89.455c-.692-.121-1.079-1.021-1.079-1.021A5.227,5.227,0,0,1,604.7-1408.344Z" transform="translate(-583.741 1423.506)" fill="#fff"/>
        </g>
        <g id="Grupo_57436" data-name="Grupo 57436" transform="translate(22.243 20.573)">
          <g id="Grupo_57423" data-name="Grupo 57423" transform="translate(13.015)">
            <path id="Trazado_120118" data-name="Trazado 120118" d="M383.217-1412.783l16.095.059,5.219-19.982-16.095-.059Z" transform="translate(-383.217 1432.765)" fill="#fff"/>
            <g id="Grupo_57422" data-name="Grupo 57422" transform="translate(3.149 2.33)">
              <path id="Trazado_120119" data-name="Trazado 120119" d="M403.289-1427.392l6.749.025.077-.3-6.749-.025Z" transform="translate(-397.226 1427.688)" fill="#9abee6"/>
              <path id="Trazado_120120" data-name="Trazado 120120" d="M400.941-1425.6l8.473.031.077-.3-8.473-.031Z" transform="translate(-395.956 1426.719)" fill="#9abee6"/>
              <g id="Grupo_57420" data-name="Grupo 57420" transform="translate(1.637 4.888)">
                <path id="Trazado_120121" data-name="Trazado 120121" d="M395.864-1416.741l11.005.041.077-.3-11.006-.041Z" transform="translate(-394.846 1417.037)" fill="#9abee6"/>
                <path id="Trazado_120122" data-name="Trazado 120122" d="M395.31-1414.618l11.005.041.077-.3-11.006-.041Z" transform="translate(-394.546 1415.888)" fill="#9abee6"/>
                <path id="Trazado_120123" data-name="Trazado 120123" d="M394.755-1412.5l11.006.041.077-.3-11.006-.041Z" transform="translate(-394.246 1414.739)" fill="#9abee6"/>
                <path id="Trazado_120124" data-name="Trazado 120124" d="M394.2-1410.372l11.006.041.077-.3-11.005-.04Z" transform="translate(-393.946 1413.591)" fill="#9abee6"/>
                <path id="Trazado_120125" data-name="Trazado 120125" d="M393.646-1408.249l11.006.041.077-.3-11.006-.041Z" transform="translate(-393.646 1412.442)" fill="#9abee6"/>
              </g>
              <g id="Grupo_57421" data-name="Grupo 57421" transform="translate(0 11.156)">
                <path id="Trazado_120126" data-name="Trazado 120126" d="M392.3-1403.083l11.005.041.077-.3-11.005-.041Z" transform="translate(-391.279 1403.379)" fill="#9abee6"/>
                <path id="Trazado_120127" data-name="Trazado 120127" d="M391.742-1400.96l11.006.041.077-.3-11.006-.041Z" transform="translate(-390.979 1402.23)" fill="#9abee6"/>
                <path id="Trazado_120128" data-name="Trazado 120128" d="M391.187-1398.837l11.006.041.077-.3-11.006-.041Z" transform="translate(-390.679 1401.081)" fill="#9abee6"/>
                <path id="Trazado_120129" data-name="Trazado 120129" d="M390.633-1396.714l11.006.041.077-.3-11.006-.041Z" transform="translate(-390.379 1399.933)" fill="#9abee6"/>
                <path id="Trazado_120130" data-name="Trazado 120130" d="M390.079-1394.591l11.006.041.077-.3-11.006-.041Z" transform="translate(-390.079 1398.784)" fill="#9abee6"/>
              </g>
            </g>
          </g>
          <g id="Grupo_57427" data-name="Grupo 57427" transform="translate(6.529 24.829)">
            <path id="Trazado_120131" data-name="Trazado 120131" d="M369.085-1358.678l16.095.059L390.4-1378.6l-16.095-.059Z" transform="translate(-369.085 1378.66)" fill="#fff"/>
            <g id="Grupo_57426" data-name="Grupo 57426" transform="translate(3.149 2.33)">
              <path id="Trazado_120132" data-name="Trazado 120132" d="M389.156-1373.287l6.749.025.077-.3-6.749-.025Z" transform="translate(-383.094 1373.583)" fill="#9abee6"/>
              <path id="Trazado_120133" data-name="Trazado 120133" d="M386.809-1371.5l8.473.031.077-.3-8.473-.031Z" transform="translate(-381.824 1372.615)" fill="#9abee6"/>
              <g id="Grupo_57424" data-name="Grupo 57424" transform="translate(1.637 4.888)">
                <path id="Trazado_120134" data-name="Trazado 120134" d="M381.732-1362.636l11.006.041.077-.3-11.006-.041Z" transform="translate(-380.714 1362.932)" fill="#9abee6"/>
                <path id="Trazado_120135" data-name="Trazado 120135" d="M381.177-1360.513l11.006.041.077-.3-11.006-.041Z" transform="translate(-380.414 1361.783)" fill="#9abee6"/>
                <path id="Trazado_120136" data-name="Trazado 120136" d="M380.623-1358.391l11.006.041.077-.3-11.006-.041Z" transform="translate(-380.114 1360.635)" fill="#9abee6"/>
                <path id="Trazado_120137" data-name="Trazado 120137" d="M380.068-1356.268l11.005.041.077-.3-11.005-.041Z" transform="translate(-379.814 1359.486)" fill="#9abee6"/>
                <path id="Trazado_120138" data-name="Trazado 120138" d="M379.514-1354.144l11.006.041.077-.3-11.005-.04Z" transform="translate(-379.514 1358.337)" fill="#9abee6"/>
              </g>
              <g id="Grupo_57425" data-name="Grupo 57425" transform="translate(0 11.156)">
                <path id="Trazado_120139" data-name="Trazado 120139" d="M378.164-1348.978l11.005.041.077-.3-11.006-.041Z" transform="translate(-377.146 1349.274)" fill="#9abee6"/>
                <path id="Trazado_120140" data-name="Trazado 120140" d="M377.61-1346.855l11.005.041.077-.3-11.006-.041Z" transform="translate(-376.846 1348.125)" fill="#9abee6"/>
                <path id="Trazado_120141" data-name="Trazado 120141" d="M377.055-1344.732l11.005.041.077-.3-11.006-.041Z" transform="translate(-376.546 1346.977)" fill="#9abee6"/>
                <path id="Trazado_120142" data-name="Trazado 120142" d="M376.5-1342.609l11.006.041.077-.3-11.006-.041Z" transform="translate(-376.246 1345.828)" fill="#9abee6"/>
                <path id="Trazado_120143" data-name="Trazado 120143" d="M375.946-1340.487l11.005.041.077-.3-11.005-.041Z" transform="translate(-375.946 1344.679)" fill="#9abee6"/>
              </g>
            </g>
          </g>
          <g id="Grupo_57431" data-name="Grupo 57431" transform="translate(0 49.826)">
            <path id="Trazado_120144" data-name="Trazado 120144" d="M354.857-1304.21l16.1.059,5.219-19.982-16.1-.059Z" transform="translate(-354.857 1324.192)" fill="#fff"/>
            <g id="Grupo_57430" data-name="Grupo 57430" transform="translate(3.149 2.33)">
              <path id="Trazado_120145" data-name="Trazado 120145" d="M374.929-1318.819l6.749.025.077-.3-6.749-.025Z" transform="translate(-368.867 1319.115)" fill="#9abee6"/>
              <path id="Trazado_120146" data-name="Trazado 120146" d="M372.581-1317.029l8.473.031.077-.3-8.473-.031Z" transform="translate(-367.596 1318.146)" fill="#9abee6"/>
              <g id="Grupo_57428" data-name="Grupo 57428" transform="translate(1.637 4.888)">
                <path id="Trazado_120147" data-name="Trazado 120147" d="M367.5-1308.168l11.005.041.077-.3-11.006-.041Z" transform="translate(-366.487 1308.464)" fill="#9abee6"/>
                <path id="Trazado_120148" data-name="Trazado 120148" d="M366.95-1306.045l11.006.04.077-.3-11.005-.041Z" transform="translate(-366.187 1307.315)" fill="#9abee6"/>
                <path id="Trazado_120149" data-name="Trazado 120149" d="M366.4-1303.922l11.006.041.077-.3-11.005-.041Z" transform="translate(-365.886 1306.166)" fill="#9abee6"/>
                <path id="Trazado_120150" data-name="Trazado 120150" d="M365.841-1301.8l11.006.041.077-.3-11.006-.041Z" transform="translate(-365.586 1305.018)" fill="#9abee6"/>
                <path id="Trazado_120151" data-name="Trazado 120151" d="M365.286-1299.676l11.006.041.077-.3-11.006-.041Z" transform="translate(-365.286 1303.869)" fill="#9abee6"/>
              </g>
              <g id="Grupo_57429" data-name="Grupo 57429" transform="translate(0 11.156)">
                <path id="Trazado_120152" data-name="Trazado 120152" d="M363.937-1294.51l11.006.04.077-.3-11.006-.041Z" transform="translate(-362.919 1294.806)" fill="#9abee6"/>
                <path id="Trazado_120153" data-name="Trazado 120153" d="M363.382-1292.387l11.005.041.077-.3-11.006-.041Z" transform="translate(-362.619 1293.657)" fill="#9abee6"/>
                <path id="Trazado_120154" data-name="Trazado 120154" d="M362.828-1290.264l11.005.041.077-.3-11.005-.041Z" transform="translate(-362.319 1292.508)" fill="#9abee6"/>
                <path id="Trazado_120155" data-name="Trazado 120155" d="M362.273-1288.141l11.006.041.077-.3-11.006-.041Z" transform="translate(-362.019 1291.36)" fill="#9abee6"/>
                <path id="Trazado_120156" data-name="Trazado 120156" d="M361.719-1286.018l11.005.041.077-.3-11.006-.041Z" transform="translate(-361.719 1290.211)" fill="#9abee6"/>
              </g>
            </g>
          </g>
          <g id="Grupo_57435" data-name="Grupo 57435" transform="translate(21.163 0.089)">
            <g id="Grupo_57434" data-name="Grupo 57434">
              <path id="Trazado_120157" data-name="Trazado 120157" d="M400.973-1362.684l56.293.208,16.2-62.025-7.334-7.9-46.906-.173Z" transform="translate(-400.973 1432.571)" fill="#fff"/>
              <path id="Trazado_120158" data-name="Trazado 120158" d="M474.54-1410.755l19.839.073.227-.869-19.839-.073Z" transform="translate(-440.779 1421.237)" fill="#9abee6"/>
              <path id="Trazado_120159" data-name="Trazado 120159" d="M467.638-1405.493l24.908.092.227-.869-24.908-.092Z" transform="translate(-437.044 1418.39)" fill="#9abee6"/>
              <g id="Grupo_57432" data-name="Grupo 57432" transform="translate(20.752 23.982)">
                <path id="Trazado_120160" data-name="Trazado 120160" d="M452.714-1379.444l32.353.119.227-.869-32.353-.119Z" transform="translate(-449.721 1380.313)" fill="#9abee6"/>
                <path id="Trazado_120161" data-name="Trazado 120161" d="M451.084-1373.2l32.353.119.227-.869-32.353-.119Z" transform="translate(-448.839 1376.936)" fill="#9abee6"/>
                <path id="Trazado_120162" data-name="Trazado 120162" d="M449.453-1366.962l32.353.12.227-.869-32.353-.119Z" transform="translate(-447.957 1373.559)" fill="#9abee6"/>
                <path id="Trazado_120163" data-name="Trazado 120163" d="M447.823-1360.721l32.353.119.227-.869-32.353-.119Z" transform="translate(-447.075 1370.182)" fill="#9abee6"/>
                <path id="Trazado_120164" data-name="Trazado 120164" d="M446.193-1354.48l32.353.119.227-.869-32.353-.12Z" transform="translate(-446.193 1366.805)" fill="#9abee6"/>
              </g>
              <g id="Grupo_57433" data-name="Grupo 57433" transform="translate(15.939 42.408)">
                <path id="Trazado_120165" data-name="Trazado 120165" d="M442.226-1339.293l32.353.12.227-.869-32.353-.12Z" transform="translate(-439.234 1340.162)" fill="#9abee6"/>
                <path id="Trazado_120166" data-name="Trazado 120166" d="M440.6-1333.052l32.353.12.227-.869-32.353-.119Z" transform="translate(-438.352 1336.785)" fill="#9abee6"/>
                <path id="Trazado_120167" data-name="Trazado 120167" d="M438.966-1326.811l32.353.119.227-.869-32.353-.119Z" transform="translate(-437.47 1333.408)" fill="#9abee6"/>
                <path id="Trazado_120168" data-name="Trazado 120168" d="M437.336-1320.57l32.353.119.227-.869-32.353-.12Z" transform="translate(-436.587 1330.031)" fill="#9abee6"/>
                <path id="Trazado_120169" data-name="Trazado 120169" d="M435.705-1314.328l32.353.119.227-.869-32.353-.119Z" transform="translate(-435.705 1326.654)" fill="#9abee6"/>
              </g>
            </g>
            <path id="Trazado_120170" data-name="Trazado 120170" d="M547.873-1424.3l-9.387-.035,2.054-7.862Z" transform="translate(-475.379 1432.367)" fill="#9abee6"/>
          </g>
        </g>
      </g>
      <g id="Grupo_57440" data-name="Grupo 57440" transform="translate(343.118 -1454.691)">
        <g id="Grupo_57439" data-name="Grupo 57439" transform="translate(0)">
          <g id="Grupo_57438" data-name="Grupo 57438">
            <path id="Trazado_120171" data-name="Trazado 120171" d="M387.889-1408.864h7.232a1.367,1.367,0,0,0,1.446-1.447,1.366,1.366,0,0,0-1.446-1.446H391l9.9-10.892v3.66a1.367,1.367,0,0,0,1.447,1.446,1.367,1.367,0,0,0,1.447-1.446v-7.233a1.35,1.35,0,0,0-1.144-1.421,1.56,1.56,0,0,0-.612-.025h-6.923a1.366,1.366,0,0,0-1.447,1.446,1.366,1.366,0,0,0,1.447,1.446h3.84l-9.626,10.589v-3.356a1.366,1.366,0,0,0-1.446-1.446,1.366,1.366,0,0,0-1.446,1.446v6.913a1.543,1.543,0,0,0,.022.6A1.35,1.35,0,0,0,387.889-1408.864Z" transform="translate(-386.423 1427.688)" fill="#040506"/>
            <path id="Trazado_120172" data-name="Trazado 120172" d="M417.927-1393.475a3.357,3.357,0,0,0-1.958.653v-.653a3.231,3.231,0,0,0-3.263-3.263,3.354,3.354,0,0,0-1.958.653v-7.832a3.231,3.231,0,0,0-3.263-3.263,3.232,3.232,0,0,0-3.263,3.263,3.356,3.356,0,0,0-1.958-.652,3.231,3.231,0,0,0-3.263,3.263v12.2a6.4,6.4,0,0,0-7.309-2.806,2.994,2.994,0,0,0-.914.457,1.887,1.887,0,0,0-.914,1.762c-.065.391,0,.457.914,1.5a43.53,43.53,0,0,1,5.025,6.787,49.014,49.014,0,0,0,3.85,5.156v1.7a6.545,6.545,0,0,0,6.526,6.526h6.526a7.044,7.044,0,0,0,6.4-5.09,3.93,3.93,0,0,1,.653-1.631,8.347,8.347,0,0,0,1.435-5.025v-10.442A3.232,3.232,0,0,0,417.927-1393.475Zm-5.155,24.147h-6.526a5.237,5.237,0,0,1-5.221-5.221v-.591c.128.092.257.181.392.264.391.326.718.522,1.109.849a.6.6,0,0,0,.849-.131.635.635,0,0,0-.065-.914,7.2,7.2,0,0,0-1.175-.914c-.452-.323-.9-.646-1.357-1.032a35.868,35.868,0,0,1-3.8-5.037,45.823,45.823,0,0,0-5.221-6.983,8.778,8.778,0,0,0-.587-.718c0-.2,0-.326.457-.587a6.062,6.062,0,0,1,.653-.327,5.224,5.224,0,0,1,5.743,2.35l1.009,1.513a.688.688,0,0,0,.035.119l.653,1.305c.13.261.783.392.849.261a.687.687,0,0,0,.261-.849l-.46-.921a.489.489,0,0,0,0-.058v-14.357a1.923,1.923,0,0,1,1.958-1.958,1.923,1.923,0,0,1,1.958,1.958v7.831a.839.839,0,0,0,.006.1.846.846,0,0,0-.006.1v7.635a.617.617,0,0,0,.653.653.617.617,0,0,0,.653-.653v-7.635a.762.762,0,0,0-.006-.1.755.755,0,0,0,.006-.1v-10.442a1.923,1.923,0,0,1,1.958-1.958,1.923,1.923,0,0,1,1.958,1.958v17.621a.616.616,0,0,0,.653.652.617.617,0,0,0,.653-.652v-7.179a1.923,1.923,0,0,1,1.958-1.958,1.923,1.923,0,0,1,1.958,1.958v7.832a.617.617,0,0,0,.653.653.617.617,0,0,0,.653-.653v-4.568a1.923,1.923,0,0,1,1.958-1.958,1.923,1.923,0,0,1,1.958,1.958v10.442a7.683,7.683,0,0,1-.735,3.414.533.533,0,0,0-.114.111c-.326.457-.914.652-2.219.979l-.457.13a.671.671,0,0,0-.457.783.786.786,0,0,0,.653.457h.2l.326-.065c.328-.094.633-.18.917-.269a7.847,7.847,0,0,0-.2.791A5.568,5.568,0,0,1,412.772-1369.328Zm0,0h-6.526a5.237,5.237,0,0,1-5.221-5.221v-.591c.128.092.257.181.392.264.391.326.718.522,1.109.849a.6.6,0,0,0,.849-.131.635.635,0,0,0-.065-.914,7.2,7.2,0,0,0-1.175-.914c-.452-.323-.9-.646-1.357-1.032a35.868,35.868,0,0,1-3.8-5.037,45.823,45.823,0,0,0-5.221-6.983,8.778,8.778,0,0,0-.587-.718c0-.2,0-.326.457-.587a6.062,6.062,0,0,1,.653-.327,5.224,5.224,0,0,1,5.743,2.35l1.009,1.513a.688.688,0,0,0,.035.119l.653,1.305c.13.261.783.392.849.261a.687.687,0,0,0,.261-.849l-.46-.921a.489.489,0,0,0,0-.058v-14.357a1.923,1.923,0,0,1,1.958-1.958,1.923,1.923,0,0,1,1.958,1.958v7.831a.839.839,0,0,0,.006.1.846.846,0,0,0-.006.1v7.635a.617.617,0,0,0,.653.653.617.617,0,0,0,.653-.653v-7.635a.762.762,0,0,0-.006-.1.755.755,0,0,0,.006-.1v-10.442a1.923,1.923,0,0,1,1.958-1.958,1.923,1.923,0,0,1,1.958,1.958v17.621a.616.616,0,0,0,.653.652.617.617,0,0,0,.653-.652v-7.179a1.923,1.923,0,0,1,1.958-1.958,1.923,1.923,0,0,1,1.958,1.958v7.832a.617.617,0,0,0,.653.653.617.617,0,0,0,.653-.653v-4.568a1.923,1.923,0,0,1,1.958-1.958,1.923,1.923,0,0,1,1.958,1.958v10.442a7.683,7.683,0,0,1-.735,3.414.533.533,0,0,0-.114.111c-.326.457-.914.652-2.219.979l-.457.13a.671.671,0,0,0-.457.783.786.786,0,0,0,.653.457h.2l.326-.065c.328-.094.633-.18.917-.269a7.847,7.847,0,0,0-.2.791A5.568,5.568,0,0,1,412.772-1369.328Z" transform="translate(-388.276 1416.591)" fill="#040506"/>
          </g>
        </g>
      </g>
      <path id="Trazado_120173" data-name="Trazado 120173" d="M414.333-1367.789h-6.526a5.237,5.237,0,0,1-5.221-5.221v-.591c.128.092.257.18.392.265.392.326.718.522,1.109.849a.6.6,0,0,0,.849-.131.635.635,0,0,0-.065-.914,7.188,7.188,0,0,0-1.175-.914c-.452-.323-.9-.646-1.357-1.033a35.85,35.85,0,0,1-3.8-5.037,45.841,45.841,0,0,0-5.221-6.983,8.881,8.881,0,0,0-.587-.718c0-.2,0-.326.457-.587a6.1,6.1,0,0,1,.653-.327,5.224,5.224,0,0,1,5.743,2.35l1.009,1.513a.693.693,0,0,0,.035.119l.653,1.3c.13.261.783.392.849.261a.688.688,0,0,0,.261-.849l-.46-.921a.489.489,0,0,0,0-.058v-14.357a1.923,1.923,0,0,1,1.958-1.958,1.923,1.923,0,0,1,1.958,1.958v7.831a.844.844,0,0,0,.006.1.854.854,0,0,0-.006.1v7.635a.617.617,0,0,0,.653.653.617.617,0,0,0,.653-.653v-7.635a.757.757,0,0,0-.006-.1.748.748,0,0,0,.006-.1v-10.442a1.923,1.923,0,0,1,1.958-1.958,1.923,1.923,0,0,1,1.958,1.958v17.621a.616.616,0,0,0,.653.653.617.617,0,0,0,.653-.653v-7.179a1.923,1.923,0,0,1,1.958-1.958,1.923,1.923,0,0,1,1.958,1.958v7.832a.617.617,0,0,0,.653.653.617.617,0,0,0,.653-.653v-4.569a1.923,1.923,0,0,1,1.958-1.958,1.923,1.923,0,0,1,1.958,1.958v10.442a7.682,7.682,0,0,1-.735,3.414.543.543,0,0,0-.114.111c-.326.457-.914.653-2.219.979l-.457.13a.671.671,0,0,0-.457.783.786.786,0,0,0,.653.457h.2l.326-.065c.328-.094.633-.18.917-.269a7.844,7.844,0,0,0-.2.791A5.568,5.568,0,0,1,414.333-1367.789Z" transform="translate(-46.718 -39.639)" fill="#fff"/>
    </g>
  </g>
</svg>
