<svg xmlns="http://www.w3.org/2000/svg" width="190" height="137.925" viewBox="0 0 190 137.925">
  <g id="Grupo_57755" data-name="Grupo 57755" transform="translate(-1125 -2709.075)">
    <g id="Grupo_57300" data-name="Grupo 57300">
      <ellipse id="Elipse_4461" data-name="Elipse 4461" cx="95" cy="8" rx="95" ry="8" transform="translate(1125 2831)" fill="#afafaf"/>
      <g id="Grupo_53924" data-name="Grupo 53924" transform="translate(251.317 3157.291)">
        <g id="Grupo_53921" data-name="Grupo 53921" transform="translate(884.79 -448.216)">
          <g id="Grupo_53916" data-name="Grupo 53916" transform="translate(0)">
            <path id="Trazado_100752" data-name="Trazado 100752" d="M1154.177-414.611c-.188-2.652-1.478-3.937-2.972-5.421a11.428,11.428,0,0,1-4.01-7.679c-.931-8.645-6.007-11.1-6.06-11.122l.334-.722c.229.1,5.535,2.67,6.516,11.757a10.606,10.606,0,0,0,3.778,7.2c1.541,1.532,2.994,2.979,3.209,5.926Z" transform="translate(-1016.01 444.021)" fill="#4da5aa"/>
            <g id="Grupo_53902" data-name="Grupo 53902" transform="translate(111.73 3.321)">
              <path id="Trazado_100753" data-name="Trazado 100753" d="M1133.152-415.749a1.985,1.985,0,0,1-1.983,1.987h-14.022a1.986,1.986,0,0,1-1.989-1.984v-24.041a1.986,1.986,0,0,1,1.984-1.987h14.026a1.985,1.985,0,0,1,1.983,1.986h0Z" transform="translate(-1115.159 441.775)" fill="#8ac8cb"/>
              <g id="Grupo_53901" data-name="Grupo 53901" transform="translate(0 1.006)">
                <rect id="Rectángulo_5357" data-name="Rectángulo 5357" width="17.993" height="0.796" transform="translate(0 12.603)" fill="#4da5aa"/>
                <rect id="Rectángulo_5358" data-name="Rectángulo 5358" width="17.993" height="0.794" transform="translate(0 18.005)" fill="#4da5aa"/>
                <rect id="Rectángulo_5359" data-name="Rectángulo 5359" width="17.993" height="0.796" transform="translate(0 14.403)" fill="#4da5aa"/>
                <rect id="Rectángulo_5360" data-name="Rectángulo 5360" width="17.993" height="0.796" transform="translate(0 16.204)" fill="#4da5aa"/>
                <rect id="Rectángulo_5361" data-name="Rectángulo 5361" width="17.993" height="0.795" transform="translate(0 19.806)" fill="#4da5aa"/>
                <path id="Trazado_100754" data-name="Trazado 100754" d="M1132.9-390.151a1.9,1.9,0,0,0,.254-.792H1115.2a1.87,1.87,0,0,0,.248.792Z" transform="translate(-1115.18 416.15)" fill="#4da5aa"/>
                <rect id="Rectángulo_5362" data-name="Rectángulo 5362" width="17.993" height="0.793" transform="translate(0 21.607)" fill="#4da5aa"/>
                <rect id="Rectángulo_5363" data-name="Rectángulo 5363" width="17.993" height="0.792" transform="translate(0 23.408)" fill="#4da5aa"/>
                <rect id="Rectángulo_5364" data-name="Rectángulo 5364" width="17.993" height="0.795" transform="translate(0 1.8)" fill="#4da5aa"/>
                <rect id="Rectángulo_5365" data-name="Rectángulo 5365" width="17.993" height="0.796" transform="translate(0 10.803)" fill="#4da5aa"/>
                <rect id="Rectángulo_5366" data-name="Rectángulo 5366" width="17.993" height="0.795" transform="translate(0 3.601)" fill="#4da5aa"/>
                <path id="Trazado_100755" data-name="Trazado 100755" d="M1115.45-439.825a1.894,1.894,0,0,0-.248.795h17.955a1.915,1.915,0,0,0-.254-.795Z" transform="translate(-1115.18 439.825)" fill="#4da5aa"/>
                <rect id="Rectángulo_5367" data-name="Rectángulo 5367" width="17.993" height="0.796" transform="translate(0 5.401)" fill="#4da5aa"/>
                <rect id="Rectángulo_5368" data-name="Rectángulo 5368" width="17.993" height="0.796" transform="translate(0 9.003)" fill="#4da5aa"/>
                <rect id="Rectángulo_5369" data-name="Rectángulo 5369" width="17.993" height="0.794" transform="translate(0 7.203)" fill="#4da5aa"/>
              </g>
            </g>
            <g id="Grupo_53903" data-name="Grupo 53903" transform="translate(116.475)">
              <rect id="Rectángulo_5370" data-name="Rectángulo 5370" width="8.507" height="2.592" transform="translate(0 0.73)" fill="#7a7979"/>
              <path id="Trazado_100756" data-name="Trazado 100756" d="M1132.868-447.486c0-.4-1.908-.73-4.253-.73s-4.253.326-4.253.73,1.9.726,4.253.726S1132.868-447.085,1132.868-447.486Z" transform="translate(-1124.362 448.216)" fill="#5e5e5e"/>
            </g>
            <rect id="Rectángulo_5371" data-name="Rectángulo 5371" width="8.507" height="2.409" transform="translate(116.475 31.335)" fill="#7a7979"/>
            <path id="Trazado_100757" data-name="Trazado 100757" d="M974.4-376.082v44.43a6.7,6.7,0,0,0,6.695,6.7h16.9a6.7,6.7,0,0,0,6.7-6.7h0v-6.588a6.7,6.7,0,0,1,6.694-6.7h18.243a6.7,6.7,0,0,1,6.7,6.7v34.4h53.343v-72.246a6.7,6.7,0,0,0-6.695-6.7H981.094a6.7,6.7,0,0,0-6.7,6.7Z" transform="translate(-935.255 416.525)" fill="#ffe7cf"/>
            <path id="Trazado_100758" data-name="Trazado 100758" d="M1087.315-214.287v-8.706a6.7,6.7,0,0,0-6.7-6.7H948.627a6.7,6.7,0,0,0-6.7,6.7v8.706Z" transform="translate(-919.531 342.378)" fill="#ffe7cf"/>
            <g id="Grupo_53904" data-name="Grupo 53904" transform="translate(81.375 40.99)">
              <path id="Trazado_100759" data-name="Trazado 100759" d="M1077.489-358.128a10.6,10.6,0,0,1-10.6,10.595,10.6,10.6,0,0,1-10.595-10.6,10.6,10.6,0,0,1,10.6-10.595A10.6,10.6,0,0,1,1077.489-358.128Z" transform="translate(-1056.295 368.728)" fill="#e4ba96"/>
              <path id="Trazado_100760" data-name="Trazado 100760" d="M1068.677-347.645a8.694,8.694,0,0,1-8.7-8.692,8.694,8.694,0,0,1,8.692-8.7,8.694,8.694,0,0,1,8.7,8.692v0A8.7,8.7,0,0,1,1068.677-347.645Zm0-16.545a7.852,7.852,0,0,0-7.851,7.852,7.851,7.851,0,0,0,7.852,7.851,7.851,7.851,0,0,0,7.851-7.85A7.861,7.861,0,0,0,1068.677-364.191Z" transform="translate(-1058.08 366.938)" fill="#f38746"/>
            </g>
            <path id="Trazado_100761" data-name="Trazado 100761" d="M1199.5-364.216h-1.569v28.77h1.569a3.371,3.371,0,0,0,3.373-3.371v-22.03A3.372,3.372,0,0,0,1199.5-364.216Z" transform="translate(-1043.516 407.533)" fill="#f38746"/>
            <path id="Trazado_100762" data-name="Trazado 100762" d="M1003.505-268.98v-1.627H988.279v1.627a1.686,1.686,0,0,0,1.685,1.686h11.861a1.683,1.683,0,0,0,1.681-1.685Z" transform="translate(-941.979 362.196)" fill="#323542"/>
            <path id="Trazado_100763" data-name="Trazado 100763" d="M1001.412-264.183v14.16c0,.886.375,1.6.843,1.6s.843-.715.843-1.6v-14.16Zm.843,14.928c-.224,0-.4-.342-.4-.767s.179-.768.4-.768.4.344.4.768S1002.478-249.255,1002.255-249.255Z" transform="translate(-948.339 359.084)" fill="#f48526"/>
            <path id="Trazado_100764" data-name="Trazado 100764" d="M1036.329-382.78h-3.27v46.256h.044v-1.715a6.674,6.674,0,0,1,3.226-5.7Z" transform="translate(-963.666 416.524)" fill="#f38746"/>
            <path id="Trazado_100765" data-name="Trazado 100765" d="M1087.642-305.361h53.9v-4.034h-60.037A6.69,6.69,0,0,1,1087.642-305.361Z" transform="translate(-987.13 380.982)" fill="#f38746"/>
            <path id="Trazado_100766" data-name="Trazado 100766" d="M1144.081-264.772H1110.09a3.371,3.371,0,0,1-3.372-3.37h0v-21.562a3.374,3.374,0,0,1,3.372-3.37h33.991a3.368,3.368,0,0,1,3.366,3.37v21.563a3.365,3.365,0,0,1-3.362,3.37Z" transform="translate(-999.341 373.078)" fill="#f38746"/>
            <g id="Grupo_53907" data-name="Grupo 53907" transform="translate(0 106.215)">
              <g id="Grupo_53905" data-name="Grupo 53905" transform="translate(0 3.344)">
                <path id="Trazado_100767" data-name="Trazado 100767" d="M906.892-213.428a9.853,9.853,0,0,0,13.935,0,9.854,9.854,0,0,0,0-13.935,9.854,9.854,0,0,0-13.934,0,9.853,9.853,0,0,0,0,13.935Zm8.082-9.036a1.576,1.576,0,0,1-2.229,0,1.576,1.576,0,0,1,0-2.229,1.576,1.576,0,0,1,2.228,0h0A1.577,1.577,0,0,1,914.974-222.464Zm-2.229,4.143a1.575,1.575,0,0,1,2.227,0,1.575,1.575,0,0,1,0,2.227,1.575,1.575,0,0,1-2.227,0,1.575,1.575,0,0,1,0-2.228l0,0Z" transform="translate(-901.163 233.09)" fill="#c0c2c5"/>
                <path id="Trazado_100768" data-name="Trazado 100768" d="M898.493-223.065a12.7,12.7,0,0,0,12.695,12.7,12.7,12.7,0,0,0,12.7-12.695,12.7,12.7,0,0,0-12.695-12.7h0A12.7,12.7,0,0,0,898.493-223.065Zm2.843,0a9.854,9.854,0,0,1,9.854-9.853,9.853,9.853,0,0,1,9.852,9.854,9.853,9.853,0,0,1-9.853,9.853,9.854,9.854,0,0,1-9.854-9.854Z" transform="translate(-898.493 235.76)" fill="#dedede"/>
              </g>
              <g id="Grupo_53906" data-name="Grupo 53906" transform="translate(14.791)">
                <path id="Trazado_100769" data-name="Trazado 100769" d="M933.415-224.857a11.151,11.151,0,0,0,11.151,11.151,11.151,11.151,0,0,0,11.151-11.151,11.151,11.151,0,0,0-11.151-11.151,11.151,11.151,0,0,0-11.151,11.151Zm11.917,2.55a1.783,1.783,0,0,1,1.783-1.782,1.782,1.782,0,0,1,1.782,1.783,1.782,1.782,0,0,1-1.782,1.782,1.783,1.783,0,0,1-1.783-1.782v0Zm0-5.1a1.783,1.783,0,0,1,1.783-1.783A1.783,1.783,0,0,1,948.9-227.4a1.782,1.782,0,0,1-1.782,1.783,1.783,1.783,0,0,1-1.783-1.783h0Zm-5.1,5.1a1.783,1.783,0,0,1,1.783-1.782,1.782,1.782,0,0,1,1.782,1.783,1.782,1.782,0,0,1-1.783,1.782,1.783,1.783,0,0,1-1.783-1.782v0Zm0-5.1a1.783,1.783,0,0,1,1.783-1.783A1.783,1.783,0,0,1,943.8-227.4a1.782,1.782,0,0,1-1.783,1.783,1.783,1.783,0,0,1-1.783-1.782h0Z" transform="translate(-930.198 239.224)" fill="#a25482"/>
                <path id="Trazado_100770" data-name="Trazado 100770" d="M927.176-227.877a14.367,14.367,0,0,0,14.367,14.368,14.367,14.367,0,0,0,14.368-14.367,14.367,14.367,0,0,0-14.367-14.368A14.369,14.369,0,0,0,927.176-227.877Zm3.217,0a11.152,11.152,0,0,1,11.151-11.15,11.151,11.151,0,0,1,11.15,11.151,11.151,11.151,0,0,1-11.151,11.15A11.151,11.151,0,0,1,930.393-227.877Z" transform="translate(-927.176 242.244)" fill="#991352"/>
              </g>
            </g>
            <g id="Grupo_53914" data-name="Grupo 53914" transform="translate(28.813 79.023)">
              <g id="Grupo_53910" data-name="Grupo 53910" transform="translate(0 7.901)">
                <g id="Grupo_53908" data-name="Grupo 53908" transform="translate(42.902 0.002)">
                  <path id="Trazado_100771" data-name="Trazado 100771" d="M1051.452-275.856l-13.89,22.415,12.467-23.237Z" transform="translate(-1037.562 278.21)" fill="#f48526"/>
                  <path id="Trazado_100772" data-name="Trazado 100772" d="M1059.61-278.678a1.944,1.944,0,0,1,2.655-.713,1.944,1.944,0,0,1,.713,2.655,1.944,1.944,0,0,1-2.655.713,1.942,1.942,0,0,1-.714-2.653Z" transform="translate(-1048.114 279.651)" fill="#a25482"/>
                </g>
                <g id="Grupo_53909" data-name="Grupo 53909">
                  <path id="Trazado_100773" data-name="Trazado 100773" d="M958.175-276.678l12.467,23.237-13.889-22.415Z" transform="translate(-955.522 278.212)" fill="#f48526"/>
                  <path id="Trazado_100774" data-name="Trazado 100774" d="M954.628-276.737a1.944,1.944,0,0,1,.71-2.655,1.943,1.943,0,0,1,2.655.71,1.943,1.943,0,0,1-.71,2.655l0,0a1.94,1.94,0,0,1-2.65-.71Z" transform="translate(-954.367 279.654)" fill="#a25482"/>
                </g>
              </g>
              <path id="Trazado_100775" data-name="Trazado 100775" d="M1010.7-292.724c0-1.243-.558-2.246-1.246-2.251s-1.246,1.008-1.248,2.251c0,0,0,.008,0,.012l.032.613,1.219,24.553,1.218-24.553.03-.613S1010.7-292.72,1010.7-292.724Zm-.564.554c-.116.474-.375.808-.682.81s-.567-.335-.682-.81a2.133,2.133,0,0,1-.064-.542c0-.027,0-.055.005-.082.023-.707.343-1.267.741-1.273s.718.567.74,1.273c0,.026.005.052,0,.082a2.149,2.149,0,0,1-.06.541Z" transform="translate(-980.44 294.975)" fill="#f48526"/>
              <g id="Grupo_53912" data-name="Grupo 53912" transform="translate(12.562 2.479)">
                <g id="Grupo_53911" data-name="Grupo 53911" transform="translate(24.134)">
                  <path id="Trazado_100776" data-name="Trazado 100776" d="M1033.142-286.4l-7.614,25.247,6.029-25.675Z" transform="translate(-1025.528 288.549)" fill="#f48526"/>
                  <path id="Trazado_100777" data-name="Trazado 100777" d="M1035.057-288.73a1.942,1.942,0,0,1,2.38-1.371,1.942,1.942,0,0,1,1.371,2.379,1.942,1.942,0,0,1-2.378,1.372,1.939,1.939,0,0,1-1.375-2.373Z" transform="translate(-1030.11 290.168)" fill="#991352"/>
                </g>
                <path id="Trazado_100778" data-name="Trazado 100778" d="M981.269-286.586c-.323-1.2-1.122-2.024-1.787-1.85s-.939,1.294-.624,2.5a.025.025,0,0,1,0,.013l.188.583,7.535,23.4L981.4-285.972l-.127-.6C981.272-286.578,981.269-286.58,981.269-286.586Zm-.4.683c.011.487-.155.877-.451.96s-.635-.178-.87-.608a2.348,2.348,0,0,1-.2-.506.414.414,0,0,1-.014-.08c-.163-.688,0-1.313.384-1.42s.843.361,1.044,1.036a.7.7,0,0,1,.027.077A2.4,2.4,0,0,1,980.868-285.9Z" transform="translate(-978.727 289.34)" fill="#f48526"/>
              </g>
              <g id="Grupo_53913" data-name="Grupo 53913" transform="translate(3.943 26.051)">
                <path id="Trazado_100779" data-name="Trazado 100779" d="M962.013-231.978c0-7.8,11.222-12.479,25.07-12.479s25.07,4.678,25.07,12.479-3.889,15.765-25.07,15.765S962.013-224.179,962.013-231.978Z" transform="translate(-962.013 244.457)" fill="#4da5aa"/>
                <path id="Trazado_100780" data-name="Trazado 100780" d="M1011.887-194.141V-197.3a1.588,1.588,0,0,0-1.586-1.589H971.964a1.59,1.59,0,0,0-1.59,1.589v3.155Z" transform="translate(-966.062 222.386)" fill="#213e41"/>
              </g>
            </g>
            <rect id="Rectángulo_5372" data-name="Rectángulo 5372" width="75.616" height="1.571" transform="translate(78.799 112.689)" fill="#f38746"/>
          </g>
          <g id="Grupo_53920" data-name="Grupo 53920" transform="translate(78.803 28.784)">
            <g id="Grupo_53917" data-name="Grupo 53917" transform="translate(6.943)">
              <path id="Trazado_100784" data-name="Trazado 100784" d="M1111.351-350.288l-1.024-1.065h0l-9.876-10.262-1.735,2.538,5.649,4.964a3.579,3.579,0,0,0-1.717.909c-1.688,1.623-1.449,4.62.533,6.682l2.049,2.128c1.983,2.059,4.967,2.414,6.657.788S1113.333-348.229,1111.351-350.288Zm-.762,5.336c-.928.892-2.766.555-4.012-.741l-2.05-2.127c-1.248-1.3-1.512-3.149-.585-4.042a2.509,2.509,0,0,1,2.867-.108l2.172,1.911h0l1.027,1.065C1111.252-347.7,1111.52-345.847,1110.589-344.951Z" transform="translate(-1081.211 377.489)" fill="#27484b"/>
              <path id="Trazado_100785" data-name="Trazado 100785" d="M1068.907-390.438a32.616,32.616,0,0,0-3.572-1.824c-.625-.285-.75-.107-.273.386l17.214,17.888,2.166-2.086S1073.264-387.439,1068.907-390.438Z" transform="translate(-1064.772 392.398)" fill="#6ab6bb"/>
            </g>
            <g id="Grupo_53919" data-name="Grupo 53919" transform="translate(0 10.709)">
              <g id="Grupo_53918" data-name="Grupo 53918" transform="translate(25.309)">
                <path id="Trazado_100786" data-name="Trazado 100786" d="M1119.98-363.167h0a4.631,4.631,0,0,1-3.477-4.315c.044-2.342,2.405-4.2,5.264-4.147a6.162,6.162,0,0,1,1.618.241,4.4,4.4,0,0,1,3.481,4.1,3.892,3.892,0,0,1-1.663,3.051,5.833,5.833,0,0,1-3.6,1.1A6.268,6.268,0,0,1,1119.98-363.167Zm2.888-6.425a4.4,4.4,0,0,0-1.135-.171c-1.8-.036-3.335,1.027-3.361,2.314a2.589,2.589,0,0,0,2.132,2.278h0a4.6,4.6,0,0,0,1.139.17,3.991,3.991,0,0,0,2.444-.729,2.068,2.068,0,0,0,.913-1.59,2.591,2.591,0,0,0-2.133-2.273Z" transform="translate(-1108.192 371.63)" fill="#356c71"/>
                <path id="Trazado_100787" data-name="Trazado 100787" d="M1100.387-357.775l.056-3.006,12.531.973-.068,1.908Z" transform="translate(-1100.387 366.376)" fill="#356c71"/>
              </g>
              <path id="Trazado_100788" data-name="Trazado 100788" d="M1055.52-359.861a32.465,32.465,0,0,1-3.764-1.382c-.634-.263-.589-.477.1-.464l24.819.475-.058,3.007S1060.683-358.7,1055.52-359.861Z" transform="translate(-1051.308 366.825)" fill="#83c5cb"/>
            </g>
          </g>
          <g id="Grupo_53834" data-name="Grupo 53834" transform="translate(112.706 36.765)">
            <path id="Trazado_100649" data-name="Trazado 100649" d="M1143.848-349.086c-2.967-.543-6.176-5.324-6.176-5.324l.619-1.08a36.356,36.356,0,0,0,5.963,2.662c2.039.506,5.976-.571,5.976-.571S1146.814-348.542,1143.848-349.086Z" transform="translate(-1127.039 366.541)" fill="#0076be"/>
            <path id="Trazado_100650" data-name="Trazado 100650" d="M1121.223-327.548a3.574,3.574,0,0,0-2.206,0c-.545.142-2.158-.545-1.945,0a4.033,4.033,0,0,0,2.087,1.425c.689.217,2.727-.6,2.727-.6S1122.289-327.24,1121.223-327.548Z" transform="translate(-1117.052 353.112)" fill="#ab5141"/>
            <path id="Trazado_100651" data-name="Trazado 100651" d="M1152.243-236.146a5.184,5.184,0,0,1-3.673,2.462,1.262,1.262,0,0,0-1.131,1.013h7.088c.461-.583.615-3.064.615-3.064S1152.957-237.7,1152.243-236.146Z" transform="translate(-1131.769 309.031)" fill="#1c1e21"/>
            <path id="Trazado_100652" data-name="Trazado 100652" d="M1176.783-236.732a5.2,5.2,0,0,1-3.629,2.527,1.342,1.342,0,0,0-.965.619.333.333,0,0,0,.12.455.33.33,0,0,0,.182.045,19.279,19.279,0,0,0,3.363-.024c.774-.118,3.61-.11,3.692-.118.607-.055.139-3.146.139-3.146S1177.466-238.3,1176.783-236.732Z" transform="translate(-1143.734 309.322)" fill="#1c1e21"/>
            <path id="Trazado_100653" data-name="Trazado 100653" d="M1166.176-310.657s.491,14.955,2.9,20.421,2.743,18.358,2.743,18.358l-3.519.166s-.394-4.935-5.5-15.766a126.516,126.516,0,0,1-6.891-17.069Z" transform="translate(-1135.873 344.828)" fill="#7f7f7f"/>
            <path id="Trazado_100654" data-name="Trazado 100654" d="M1161.979-308.838s-3.961,14.43-3.275,20.365-1.706,17.8-1.706,17.8l-4-.133s.567-5.035-1.1-16.892a155.616,155.616,0,0,1-1.529-21.515Z" transform="translate(-1133.185 344.13)" fill="#aaa9a9"/>
            <path id="Trazado_100655" data-name="Trazado 100655" d="M1160.813-361.289c.01-.126.081-.992.084-1.008l-.95.473-2.548,1.269-.261,1.477c-.01.055-.019.111-.029.165-.164.933-.344,1.964-.382,2.213l2.728.574,1.887-1.4A8.164,8.164,0,0,1,1160.813-361.289Z" transform="translate(-1136.267 369.838)" fill="#ab5141"/>
            <path id="Trazado_100656" data-name="Trazado 100656" d="M1149.672-331.111v-.061a.006.006,0,0,0,0-.007v-.058c.077-1.464.341-6.931.361-7.1.023-.241.047-.48.071-.717.082-.83.159-1.643.225-2.409.1-1.213.178-2.307.187-3.151q0-.343.022-.686a22.781,22.781,0,0,1,.418-3.236c.224-1.14.5-2.173.739-2.98a3.3,3.3,0,0,1,1.931-2.114,2.869,2.869,0,0,1,.322-.111c1.552-.451,3.7-1.008,4.287-.839,1.58.464,2.325,2.489,3.155,6.033.47,2,1.984,16,1.938,18.538-.052,2.888-13.842.851-13.67-.872A2.3,2.3,0,0,1,1149.672-331.111Z" transform="translate(-1132.843 366.115)" fill="#429dd5"/>
            <path id="Trazado_100657" data-name="Trazado 100657" d="M1160.3-361.385l-2.548,1.269-.261,1.477c-.01.055-.019.111-.029.164.87-.34,2.955-1.264,3.514-2.337C1161.211-361.249,1160.868-361.391,1160.3-361.385Z" transform="translate(-1136.626 369.397)" fill="#8f382c"/>
            <path id="Trazado_100658" data-name="Trazado 100658" d="M1155.34-372.634c.516-.889,1.413-1.819,4.312-.782s1.734,2.789.886,5.665-5.446,1.444-5.446,1.444C1153.917-366.757,1154.824-371.744,1155.34-372.634Z" transform="translate(-1135.197 375.445)" fill="#ab5141"/>
            <path id="Trazado_100659" data-name="Trazado 100659" d="M1163.944-374.442c.59,1.042-2.478,6.544-4.612,6.365s-1.174-1.344-1.073-2.353-.525-.9-1.219-.756-.985-3.2-.985-3.2C1153.611-378.054,1162.254-377.447,1163.944-374.442Z" transform="translate(-1135.733 376.921)" fill="#1c1e21"/>
            <g id="Grupo_53833" data-name="Grupo 53833" transform="translate(7.219 8.529)">
              <path id="Trazado_100660" data-name="Trazado 100660" d="M1134.465-356.78a6.4,6.4,0,0,1-1.735-1.053c-.611-.648.166-.628-.029-1s-1.832-.985-1.633-1.406a3.5,3.5,0,0,1,2.493.206,8.726,8.726,0,0,1,1.522,2.178Z" transform="translate(-1131.052 360.382)" fill="#ab5141"/>
              <path id="Trazado_100661" data-name="Trazado 100661" d="M1133.744-355.739c-.654-.11-.85-.521-1.543-.774-.818-.3-1.083-.9-.707-.881.16.009.542.182.932.224.531.058,1.075.121,1.086.121S1134.536-355.606,1133.744-355.739Z" transform="translate(-1131.185 358.935)" fill="#ab5141"/>
            </g>
            <path id="Trazado_100662" data-name="Trazado 100662" d="M1155.354-353.8l5.637-1.606s-.236-.767-.632-.9a25.856,25.856,0,0,0-4.107.972C1155.49-355.008,1155.354-353.8,1155.354-353.8Z" transform="translate(-1135.603 366.94)" fill="#0076be"/>
            <path id="Trazado_100663" data-name="Trazado 100663" d="M1121.13-328.408c0-.214-.429-.819-.429-1.067s.5.268,1.067.391a3.591,3.591,0,0,1,1.222.676S1121.13-328.194,1121.13-328.408Z" transform="translate(-1118.82 353.974)" fill="#ab5141"/>
            <path id="Trazado_100664" data-name="Trazado 100664" d="M1151.147-337.362c0-.228.008-.457.022-.686l4.941-1.592s-2.217,4.318-5.148,5.43C1151.065-335.424,1151.138-336.517,1151.147-337.362Z" transform="translate(-1133.475 358.865)" fill="#0076be"/>
            <path id="Trazado_100665" data-name="Trazado 100665" d="M1125.026-337.712a1.083,1.083,0,0,0,1.118.65c1.684-.19,6.247-.793,8.5-1.945,1.281-.653,8.392-5.5,11.792-7.833a1.082,1.082,0,0,0,.287-1.5,1.086,1.086,0,0,0-.564-.422l-4.623-1.51a1.084,1.084,0,0,0-1.091.25c-1.668,1.61-7.247,6.975-7.809,7.275-.531.286-5.3,2.584-7.137,3.47a1.084,1.084,0,0,0-.58,1.248l.006.024A2.292,2.292,0,0,0,1125.026-337.712Z" transform="translate(-1120.845 364.043)" fill="#429dd5"/>
          </g>
        </g>
        <g id="Grupo_53923" data-name="Grupo 53923" transform="translate(957.924 -336.107)">
          <path id="Trazado_100789" data-name="Trazado 100789" d="M1058.739-229.583a15.209,15.209,0,0,0-11.992,0,1.569,1.569,0,0,0-.837,1.094l-2.619,16.536h18.9l-2.618-16.536A1.565,1.565,0,0,0,1058.739-229.583Z" transform="translate(-1041.756 230.815)" fill="#b5b4b4"/>
          <path id="Rectángulo_5373" data-name="Rectángulo 5373" d="M1041.067-194.238h20.466a.752.752,0,0,1,.752.752h0v1.605a.752.752,0,0,1-.753.753h-20.466a.752.752,0,0,1-.752-.752h0v-1.605A.753.753,0,0,1,1041.067-194.238Z" transform="translate(-1040.314 213.1)" fill="#323542"/>
          <g id="Grupo_53922" data-name="Grupo 53922" transform="translate(2.522 3.389)">
            <path id="Trazado_100790" data-name="Trazado 100790" d="M1064.383-213.5a.483.483,0,0,0-.434-.528.483.483,0,0,0-.528.434.483.483,0,0,0,.434.528.432.432,0,0,0,.058,0,.453.453,0,0,0,.47-.436Z" transform="translate(-1054.026 219.294)" fill="#717171"/>
            <path id="Trazado_100791" data-name="Trazado 100791" d="M1062.331-210.356a.426.426,0,0,0,.349-.491.427.427,0,0,0-.491-.349.427.427,0,0,0-.355.421A.464.464,0,0,0,1062.331-210.356Z" transform="translate(-1053.258 217.927)" fill="#717171"/>
            <path id="Trazado_100792" data-name="Trazado 100792" d="M1067.569-213.537a.455.455,0,0,0-.5-.389.46.46,0,0,0-.456.447.484.484,0,0,0,.565.386A.483.483,0,0,0,1067.569-213.537Z" transform="translate(-1055.572 219.248)" fill="#717171"/>
            <path id="Trazado_100793" data-name="Trazado 100793" d="M1065.62-210.439a.425.425,0,0,0,.334-.5.426.426,0,0,0-.5-.334.426.426,0,0,0-.342.433.458.458,0,0,0,.508.4Z" transform="translate(-1054.846 217.966)" fill="#717171"/>
            <path id="Trazado_100794" data-name="Trazado 100794" d="M1068.9-210.638a.426.426,0,0,0,.318-.512.426.426,0,0,0-.511-.318.426.426,0,0,0-.328.447A.458.458,0,0,0,1068.9-210.638Z" transform="translate(-1056.429 218.061)" fill="#717171"/>
            <path id="Trazado_100795" data-name="Trazado 100795" d="M1064.95-215.552a.47.47,0,0,0,.438.5.47.47,0,0,0,.5-.437.47.47,0,0,0-.437-.5.414.414,0,0,0-.05,0A.45.45,0,0,0,1064.95-215.552Z" transform="translate(-1054.767 220.246)" fill="#717171"/>
            <path id="Trazado_100796" data-name="Trazado 100796" d="M1061.842-215.487a.47.47,0,0,0,.419.516.47.47,0,0,0,.516-.419.47.47,0,0,0-.419-.516.476.476,0,0,0-.055,0A.445.445,0,0,0,1061.842-215.487Z" transform="translate(-1053.261 220.206)" fill="#717171"/>
            <path id="Trazado_100797" data-name="Trazado 100797" d="M1068.558-215.346a.444.444,0,0,0,.433-.456h0a.451.451,0,0,0-.5-.381.422.422,0,0,0-.43.414.422.422,0,0,0,.414.431.392.392,0,0,0,.085-.007Z" transform="translate(-1056.273 220.341)" fill="#717171"/>
            <path id="Trazado_100798" data-name="Trazado 100798" d="M1063.8-218.5a.422.422,0,0,0-.447.4.422.422,0,0,0,.4.447.4.4,0,0,0,.074,0,.433.433,0,0,0,.442-.423v-.011A.438.438,0,0,0,1063.8-218.5Z" transform="translate(-1053.992 221.462)" fill="#717171"/>
            <path id="Trazado_100799" data-name="Trazado 100799" d="M1066.544-223.339a.421.421,0,0,0-.394.447.421.421,0,0,0,.446.394h0a.421.421,0,0,0,.4-.446A.422.422,0,0,0,1066.544-223.339Z" transform="translate(-1055.348 223.805)" fill="#717171"/>
            <path id="Trazado_100800" data-name="Trazado 100800" d="M1064.79-220.262a.446.446,0,0,0,.486.4.446.446,0,0,0,.4-.439.446.446,0,0,0-.494-.392A.446.446,0,0,0,1064.79-220.262Z" transform="translate(-1054.69 222.525)" fill="#717171"/>
            <path id="Trazado_100801" data-name="Trazado 100801" d="M1066.8-218.631a.445.445,0,0,0-.431.446.457.457,0,0,0,.447.467.457.457,0,0,0,.467-.447.457.457,0,0,0-.447-.467Z" transform="translate(-1055.455 221.525)" fill="#717171"/>
            <path id="Trazado_100802" data-name="Trazado 100802" d="M1063.714-223.212a.421.421,0,0,0-.4.442.421.421,0,0,0,.442.4.42.42,0,0,0,.4-.435A.427.427,0,0,0,1063.714-223.212Z" transform="translate(-1053.975 223.744)" fill="#717171"/>
            <path id="Trazado_100803" data-name="Trazado 100803" d="M1061.85-220.2a.446.446,0,0,0,.42.47.446.446,0,0,0,.47-.42.446.446,0,0,0-.42-.469h-.03A.434.434,0,0,0,1061.85-220.2Z" transform="translate(-1053.266 222.49)" fill="#717171"/>
            <path id="Trazado_100804" data-name="Trazado 100804" d="M1071.1-221.166a.421.421,0,0,0-.344.486.421.421,0,0,0,.486.344.421.421,0,0,0,.348-.466A.435.435,0,0,0,1071.1-221.166Z" transform="translate(-1057.575 222.755)" fill="#717171"/>
            <path id="Trazado_100805" data-name="Trazado 100805" d="M1070.748-213.8a.485.485,0,0,0-.584-.358.485.485,0,0,0-.371.45.484.484,0,0,0,.578.367A.483.483,0,0,0,1070.748-213.8Z" transform="translate(-1057.112 219.366)" fill="#717171"/>
            <path id="Trazado_100806" data-name="Trazado 100806" d="M1069.386-218.411a.438.438,0,0,0,.49.378h0a.432.432,0,0,0,.409-.455v-.009a.455.455,0,0,0-.525-.371.455.455,0,0,0-.377.457Z" transform="translate(-1056.916 221.643)" fill="#717171"/>
            <path id="Trazado_100807" data-name="Trazado 100807" d="M1069.381-223.562a.421.421,0,0,0-.373.464.421.421,0,0,0,.464.373.421.421,0,0,0,.373-.461A.428.428,0,0,0,1069.381-223.562Z" transform="translate(-1056.732 223.914)" fill="#717171"/>
            <path id="Trazado_100808" data-name="Trazado 100808" d="M1067.735-220.429a.443.443,0,0,0,.453.433.443.443,0,0,0,.432-.453.443.443,0,0,0-.453-.432h-.026A.431.431,0,0,0,1067.735-220.429Z" transform="translate(-1056.116 222.615)" fill="#717171"/>
            <path id="Trazado_100809" data-name="Trazado 100809" d="M1074.246-216.4a.471.471,0,0,0,.488.453.47.47,0,0,0,.453-.488.471.471,0,0,0-.488-.453.459.459,0,0,0-.053,0A.444.444,0,0,0,1074.246-216.4Z" transform="translate(-1059.269 220.681)" fill="#717171"/>
            <path id="Trazado_100810" data-name="Trazado 100810" d="M1071.642-211.32a.457.457,0,0,0,.536.361.425.425,0,0,0,.3-.523.426.426,0,0,0-.524-.3A.425.425,0,0,0,1071.642-211.32Z" transform="translate(-1058.007 218.214)" fill="#717171"/>
            <path id="Trazado_100811" data-name="Trazado 100811" d="M1060.725-212.916a.425.425,0,0,0,.368-.474.425.425,0,0,0-.475-.368.425.425,0,0,0-.371.415A.456.456,0,0,0,1060.725-212.916Z" transform="translate(-1052.49 219.167)" fill="#717171"/>
            <path id="Trazado_100812" data-name="Trazado 100812" d="M1057.856-218.551a.421.421,0,0,0-.408.434.422.422,0,0,0,.433.409.421.421,0,0,0,.409-.406A.441.441,0,0,0,1057.856-218.551Z" transform="translate(-1051.134 221.486)" fill="#717171"/>
            <path id="Trazado_100813" data-name="Trazado 100813" d="M1071.158-216.01a.47.47,0,0,0,.471.468.469.469,0,0,0,.468-.471.469.469,0,0,0-.471-.469.437.437,0,0,0-.052,0A.444.444,0,0,0,1071.158-216.01Z" transform="translate(-1057.774 220.484)" fill="#717171"/>
            <path id="Trazado_100814" data-name="Trazado 100814" d="M1072.958-214.057a.457.457,0,0,0,.533.357.451.451,0,0,0,.42-.481v0a.484.484,0,0,0-.6-.338A.485.485,0,0,0,1072.958-214.057Z" transform="translate(-1058.646 219.542)" fill="#717171"/>
            <path id="Trazado_100815" data-name="Trazado 100815" d="M1072.848-219.212a.421.421,0,0,0-.326.5.422.422,0,0,0,.5.326.422.422,0,0,0,.33-.471.436.436,0,0,0-.5-.355Z" transform="translate(-1058.43 221.81)" fill="#717171"/>
            <path id="Trazado_100816" data-name="Trazado 100816" d="M1047.682-220.95a.421.421,0,0,0,.5-.317.421.421,0,0,0-.317-.5l-.049-.008a.446.446,0,0,0-.282.049l-.1.649A.468.468,0,0,0,1047.682-220.95Z" transform="translate(-1046.285 223.053)" fill="#717171"/>
            <path id="Trazado_100817" data-name="Trazado 100817" d="M1060.86-218.472a.422.422,0,0,0-.391.449.421.421,0,0,0,.449.391.421.421,0,0,0,.392-.42A.441.441,0,0,0,1060.86-218.472Z" transform="translate(-1052.597 221.448)" fill="#717171"/>
            <path id="Trazado_100818" data-name="Trazado 100818" d="M1046.917-216.3a.423.423,0,0,0,.523-.291.423.423,0,0,0-.291-.523.459.459,0,0,0-.091-.015.487.487,0,0,0-.254.029l-.11.7A.5.5,0,0,0,1046.917-216.3Z" transform="translate(-1045.926 220.8)" fill="#717171"/>
            <path id="Trazado_100819" data-name="Trazado 100819" d="M1075.788-218.787l-.124-.79a.4.4,0,0,0-.265.507A.4.4,0,0,0,1075.788-218.787Z" transform="translate(-1059.82 221.983)" fill="#717171"/>
            <path id="Trazado_100820" data-name="Trazado 100820" d="M1059.191-215.1a.422.422,0,0,0,.385-.457.423.423,0,0,0-.458-.385.423.423,0,0,0-.386.406.445.445,0,0,0,.452.436Z" transform="translate(-1051.756 220.222)" fill="#717171"/>
            <path id="Trazado_100821" data-name="Trazado 100821" d="M1054.336-213.2a.424.424,0,0,0,.4-.446.424.424,0,0,0-.446-.4.425.425,0,0,0-.4.389.452.452,0,0,0,.445.459Z" transform="translate(-1049.411 219.306)" fill="#717171"/>
            <path id="Trazado_100822" data-name="Trazado 100822" d="M1057.525-213a.424.424,0,0,0,.389-.457.424.424,0,0,0-.458-.388.424.424,0,0,0-.389.4.45.45,0,0,0,.458.443Z" transform="translate(-1050.949 219.21)" fill="#717171"/>
            <path id="Trazado_100823" data-name="Trazado 100823" d="M1055.76-210.528a.426.426,0,0,0,.382-.466.426.426,0,0,0-.466-.382.426.426,0,0,0-.383.4.459.459,0,0,0,.465.453Z" transform="translate(-1050.09 218.012)" fill="#717171"/>
            <path id="Trazado_100824" data-name="Trazado 100824" d="M1056.208-216.071a.423.423,0,0,0-.4.442.422.422,0,0,0,.442.4.422.422,0,0,0,.4-.4A.447.447,0,0,0,1056.208-216.071Z" transform="translate(-1050.339 220.285)" fill="#717171"/>
            <path id="Trazado_100825" data-name="Trazado 100825" d="M1059.045-210.385a.426.426,0,0,0,.365-.48.426.426,0,0,0-.48-.365.427.427,0,0,0-.368.408A.46.46,0,0,0,1059.045-210.385Z" transform="translate(-1051.674 217.942)" fill="#717171"/>
            <path id="Trazado_100826" data-name="Trazado 100826" d="M1052.483-210.8a.425.425,0,0,0,.4-.451.426.426,0,0,0-.451-.4.427.427,0,0,0-.4.383.458.458,0,0,0,.448.468Z" transform="translate(-1048.511 218.143)" fill="#717171"/>
            <path id="Trazado_100827" data-name="Trazado 100827" d="M1053.036-216.324a.451.451,0,0,0-.505.373.472.472,0,0,0,.472.471.472.472,0,0,0,.462-.381A.45.45,0,0,0,1053.036-216.324Z" transform="translate(-1048.753 220.41)" fill="#717171"/>
            <path id="Trazado_100828" data-name="Trazado 100828" d="M1054.794-218.739a.421.421,0,0,0-.481.351.421.421,0,0,0,.351.482.373.373,0,0,0,.068.005.421.421,0,0,0,.482-.351.421.421,0,0,0-.35-.482A.428.428,0,0,0,1054.794-218.739Z" transform="translate(-1049.613 221.58)" fill="#717171"/>
            <path id="Trazado_100829" data-name="Trazado 100829" d="M1051.349-214.337a.425.425,0,0,0-.416.433.425.425,0,0,0,.433.416.425.425,0,0,0,.413-.379A.456.456,0,0,0,1051.349-214.337Z" transform="translate(-1047.979 219.445)" fill="#717171"/>
            <path id="Trazado_100830" data-name="Trazado 100830" d="M1048.57-206.5a.429.429,0,0,0,.4-.461.43.43,0,0,0-.461-.4.43.43,0,0,0-.393.37A.475.475,0,0,0,1048.57-206.5Z" transform="translate(-1046.612 216.066)" fill="#717171"/>
            <path id="Trazado_100831" data-name="Trazado 100831" d="M1075.877-211.88a.5.5,0,0,0-.629-.322.5.5,0,0,0-.346.468.5.5,0,0,0,.623.329A.5.5,0,0,0,1075.877-211.88Z" transform="translate(-1059.587 218.423)" fill="#717171"/>
            <path id="Trazado_100832" data-name="Trazado 100832" d="M1072.691-206.27a.429.429,0,0,0,.274-.541.429.429,0,0,0-.542-.273.429.429,0,0,0-.292.454A.475.475,0,0,0,1072.691-206.27Z" transform="translate(-1058.244 215.943)" fill="#717171"/>
            <path id="Trazado_100833" data-name="Trazado 100833" d="M1074.508-209.685a.516.516,0,0,0-.49-.539.515.515,0,0,0-.539.49.515.515,0,0,0,.49.539.485.485,0,0,0,.095,0A.472.472,0,0,0,1074.508-209.685Z" transform="translate(-1058.898 217.454)" fill="#717171"/>
            <path id="Trazado_100834" data-name="Trazado 100834" d="M1069.25-205.952a.429.429,0,0,0,.479-.373.429.429,0,0,0-.373-.479.432.432,0,0,0-.172.013.431.431,0,0,0-.484.369.431.431,0,0,0,.369.484A.425.425,0,0,0,1069.25-205.952Z" transform="translate(-1056.581 215.799)" fill="#717171"/>
            <path id="Trazado_100835" data-name="Trazado 100835" d="M1071.186-209.281a.511.511,0,0,0-.471-.548.511.511,0,0,0-.548.471.511.511,0,0,0,.471.548.517.517,0,0,0,.09,0A.468.468,0,0,0,1071.186-209.281Z" transform="translate(-1057.293 217.262)" fill="#717171"/>
            <path id="Trazado_100836" data-name="Trazado 100836" d="M1067.85-209a.512.512,0,0,0-.45-.566.512.512,0,0,0-.566.451.512.512,0,0,0,.45.566.5.5,0,0,0,.088,0A.468.468,0,0,0,1067.85-209Z" transform="translate(-1055.678 217.135)" fill="#717171"/>
            <path id="Trazado_100837" data-name="Trazado 100837" d="M1062.358-205.64a.43.43,0,0,0,.325-.514.43.43,0,0,0-.514-.325.431.431,0,0,0-.336.421A.476.476,0,0,0,1062.358-205.64Z" transform="translate(-1053.258 215.645)" fill="#717171"/>
            <path id="Trazado_100838" data-name="Trazado 100838" d="M1064.513-208.667a.468.468,0,0,0-.516-.405.428.428,0,0,0-.487.358.428.428,0,0,0,.358.487.431.431,0,0,0,.152,0A.467.467,0,0,0,1064.513-208.667Z" transform="translate(-1054.068 216.898)" fill="#717171"/>
            <path id="Trazado_100839" data-name="Trazado 100839" d="M1065.806-205.737a.429.429,0,0,0,.489-.359.429.429,0,0,0-.359-.489.44.44,0,0,0-.168.008.43.43,0,0,0-.494.355.43.43,0,0,0,.355.494A.423.423,0,0,0,1065.806-205.737Z" transform="translate(-1054.921 215.693)" fill="#717171"/>
            <path id="Trazado_100840" data-name="Trazado 100840" d="M1060.653-208.371a.464.464,0,0,0,.506-.418.512.512,0,0,0-.409-.6.512.512,0,0,0-.6.409.512.512,0,0,0,.41.6A.494.494,0,0,0,1060.653-208.371Z" transform="translate(-1052.44 217.052)" fill="#717171"/>
            <path id="Trazado_100841" data-name="Trazado 100841" d="M1076.167-207.562a.43.43,0,0,0-.252.553.43.43,0,0,0,.553.252.429.429,0,0,0,.274-.469A.477.477,0,0,0,1076.167-207.562Z" transform="translate(-1060.065 216.171)" fill="#717171"/>
            <path id="Trazado_100842" data-name="Trazado 100842" d="M1049.054-223.735a.431.431,0,0,0,.35.5.431.431,0,0,0,.5-.35.431.431,0,0,0-.35-.5l-.01,0a.426.426,0,0,0-.489.351Z" transform="translate(-1047.065 224.17)" fill="#717171"/>
            <path id="Trazado_100843" data-name="Trazado 100843" d="M1045.969-207.33a.474.474,0,0,0-.439-.5.6.6,0,0,0-.2,0l-.124.769a.678.678,0,0,0,.182.062A.477.477,0,0,0,1045.969-207.33Z" transform="translate(-1045.204 216.297)" fill="#717171"/>
            <path id="Trazado_100844" data-name="Trazado 100844" d="M1077.14-210.249a.436.436,0,0,0-.284.445.43.43,0,0,0,.406.334Z" transform="translate(-1060.533 217.465)" fill="#717171"/>
            <path id="Trazado_100845" data-name="Trazado 100845" d="M1072.208-223.886a.421.421,0,0,0-.349.482.421.421,0,0,0,.482.349.421.421,0,0,0,.35-.473A.429.429,0,0,0,1072.208-223.886Z" transform="translate(-1058.111 224.072)" fill="#717171"/>
            <path id="Trazado_100846" data-name="Trazado 100846" d="M1073.592-221.07a.444.444,0,0,0,.483.4.444.444,0,0,0,.4-.483.444.444,0,0,0-.483-.4l-.025,0A.433.433,0,0,0,1073.592-221.07Z" transform="translate(-1058.952 222.941)" fill="#717171"/>
            <path id="Trazado_100847" data-name="Trazado 100847" d="M1060.431-222.771a.43.43,0,0,0,.44.419.429.429,0,0,0,.418-.412.428.428,0,0,0-.44-.418A.429.429,0,0,0,1060.431-222.771Z" transform="translate(-1052.579 223.729)" fill="#717171"/>
            <path id="Trazado_100848" data-name="Trazado 100848" d="M1074.652-223.789a.415.415,0,0,0,.4.343l-.127-.8A.413.413,0,0,0,1074.652-223.789Z" transform="translate(-1059.464 224.243)" fill="#717171"/>
            <path id="Trazado_100849" data-name="Trazado 100849" d="M1076.4-214.915a.434.434,0,0,0-.279.449.427.427,0,0,0,.406.336Z" transform="translate(-1060.177 219.725)" fill="#717171"/>
            <path id="Trazado_100850" data-name="Trazado 100850" d="M1053.557-221.008a.422.422,0,0,0-.44.4.422.422,0,0,0,.4.44.422.422,0,0,0,.438-.384A.433.433,0,0,0,1053.557-221.008Z" transform="translate(-1049.036 222.677)" fill="#717171"/>
            <path id="Trazado_100851" data-name="Trazado 100851" d="M1050.643-221.342a.421.421,0,0,0-.453.386.421.421,0,0,0,.386.453.421.421,0,0,0,.451-.366A.433.433,0,0,0,1050.643-221.342Z" transform="translate(-1047.618 222.839)" fill="#717171"/>
            <path id="Trazado_100852" data-name="Trazado 100852" d="M1052.376-223.706a.421.421,0,0,0-.459.378.421.421,0,0,0,.379.459.42.42,0,0,0,.458-.374A.427.427,0,0,0,1052.376-223.706Z" transform="translate(-1048.454 223.984)" fill="#717171"/>
            <path id="Trazado_100853" data-name="Trazado 100853" d="M1051.3-218.664a.456.456,0,0,0,.358.536.455.455,0,0,0,.536-.358.456.456,0,0,0-.358-.536l-.036-.006A.438.438,0,0,0,1051.3-218.664Z" transform="translate(-1048.15 221.72)" fill="#717171"/>
            <path id="Trazado_100854" data-name="Trazado 100854" d="M1049.433-216.318a.471.471,0,0,0,.344.57.471.471,0,0,0,.57-.344.471.471,0,0,0-.344-.57l-.051-.01A.445.445,0,0,0,1049.433-216.318Z" transform="translate(-1047.245 220.58)" fill="#717171"/>
            <path id="Trazado_100855" data-name="Trazado 100855" d="M1056.477-220.777a.42.42,0,0,0-.424.417.421.421,0,0,0,.417.424.42.42,0,0,0,.423-.4A.432.432,0,0,0,1056.477-220.777Z" transform="translate(-1050.458 222.564)" fill="#717171"/>
            <path id="Trazado_100856" data-name="Trazado 100856" d="M1058.023-223.265a.43.43,0,0,0-.448.4.431.431,0,0,0,.4.458.43.43,0,0,0,.458-.4.43.43,0,0,0-.4-.458Z" transform="translate(-1051.195 223.77)" fill="#717171"/>
            <path id="Trazado_100857" data-name="Trazado 100857" d="M1048.88-219.417a.421.421,0,0,0-.449.393.422.422,0,0,0,.393.449.422.422,0,0,0,.445-.36A.442.442,0,0,0,1048.88-219.417Z" transform="translate(-1046.766 221.906)" fill="#717171"/>
            <path id="Trazado_100858" data-name="Trazado 100858" d="M1055.207-223.437a.421.421,0,0,0-.445.4.421.421,0,0,0,.395.445.42.42,0,0,0,.444-.389A.426.426,0,0,0,1055.207-223.437Z" transform="translate(-1049.833 223.853)" fill="#717171"/>
            <path id="Trazado_100859" data-name="Trazado 100859" d="M1059.4-220.65a.421.421,0,0,0-.41.431.421.421,0,0,0,.431.41.421.421,0,0,0,.41-.413.43.43,0,0,0-.431-.429Z" transform="translate(-1051.882 222.503)" fill="#717171"/>
            <path id="Trazado_100860" data-name="Trazado 100860" d="M1057.3-208.3a.427.427,0,0,0,.367-.48.427.427,0,0,0-.48-.367.427.427,0,0,0-.37.4A.464.464,0,0,0,1057.3-208.3Z" transform="translate(-1050.827 216.931)" fill="#717171"/>
            <path id="Trazado_100861" data-name="Trazado 100861" d="M1055.448-205.83a.429.429,0,0,0,.362-.488.429.429,0,0,0-.488-.362.43.43,0,0,0-.366.4A.475.475,0,0,0,1055.448-205.83Z" transform="translate(-1049.928 215.739)" fill="#717171"/>
            <path id="Trazado_100862" data-name="Trazado 100862" d="M1053.943-208.5a.428.428,0,0,0,.383-.469.428.428,0,0,0-.47-.382.428.428,0,0,0-.383.387.464.464,0,0,0,.464.464Z" transform="translate(-1049.209 217.034)" fill="#717171"/>
            <path id="Trazado_100863" data-name="Trazado 100863" d="M1058.9-205.677a.429.429,0,0,0,.514-.323.429.429,0,0,0-.323-.514.428.428,0,0,0-.172,0,.429.429,0,0,0-.516.321.429.429,0,0,0,.32.516A.424.424,0,0,0,1058.9-205.677Z" transform="translate(-1051.591 215.664)" fill="#717171"/>
            <path id="Trazado_100864" data-name="Trazado 100864" d="M1047.565-214.412a.483.483,0,0,0,.468.5.482.482,0,0,0,.479-.354.484.484,0,0,0-.478-.49A.484.484,0,0,0,1047.565-214.412Z" transform="translate(-1046.347 219.65)" fill="#717171"/>
            <path id="Trazado_100865" data-name="Trazado 100865" d="M1052.009-206.105a.429.429,0,0,0,.38-.474.43.43,0,0,0-.474-.38.43.43,0,0,0-.38.383A.481.481,0,0,0,1052.009-206.105Z" transform="translate(-1048.27 215.873)" fill="#717171"/>
            <path id="Trazado_100866" data-name="Trazado 100866" d="M1046.714-211.984a.464.464,0,0,0-.42-.495.533.533,0,0,0-.226.012l-.113.738a.525.525,0,0,0,.2.079A.464.464,0,0,0,1046.714-211.984Z" transform="translate(-1045.568 218.549)" fill="#717171"/>
            <path id="Trazado_100867" data-name="Trazado 100867" d="M1050.59-208.832a.427.427,0,0,0,.4-.455.427.427,0,0,0-.455-.4.427.427,0,0,0-.4.375A.468.468,0,0,0,1050.59-208.832Z" transform="translate(-1047.593 217.193)" fill="#717171"/>
            <path id="Trazado_100868" data-name="Trazado 100868" d="M1047.252-209.276a.427.427,0,0,0,.413-.441.427.427,0,0,0-.441-.414.428.428,0,0,0-.409.361.465.465,0,0,0,.434.493Z" transform="translate(-1045.984 217.408)" fill="#717171"/>
            <path id="Trazado_100869" data-name="Trazado 100869" d="M1049.757-211.657a.5.5,0,0,0-.34-.616.5.5,0,0,0-.615.34.5.5,0,0,0,.34.616.476.476,0,0,0,.071.015.458.458,0,0,0,.544-.353Z" transform="translate(-1046.937 218.455)" fill="#717171"/>
          </g>
        </g>
      </g>
    </g>
  </g>
</svg>
