<svg xmlns="http://www.w3.org/2000/svg" xmlns:xlink="http://www.w3.org/1999/xlink" width="505" height="226" viewBox="0 0 505 226">
  <defs>
    <linearGradient id="linear-gradient" x1="0.5" x2="0.5" y2="1" gradientUnits="objectBoundingBox">
      <stop offset="0" stop-color="#f2d6e3"/>
      <stop offset="1" stop-color="#fff"/>
    </linearGradient>
  </defs>
  <g id="Grupo_57756" data-name="Grupo 57756" transform="translate(-285 -691)">
    <rect id="Rectángulo_5387" data-name="Rectángulo 5387" width="505" height="226" transform="translate(285 691)" fill="url(#linear-gradient)"/>
    <path id="Trazado_120838" data-name="Trazado 120838" d="M116.909,21H113.5V15.063h-5.049V21h-3.428V6.781h3.428v5.645H113.5V6.781h3.408Zm7.969,0a3.716,3.716,0,0,1-.312-.947,3.06,3.06,0,0,1-2.539,1.143,3.749,3.749,0,0,1-2.539-.9,2.875,2.875,0,0,1-1.045-2.271,2.955,2.955,0,0,1,1.27-2.6,6.468,6.468,0,0,1,3.691-.879h1.016v-.559q0-1.462-1.26-1.462a1.03,1.03,0,0,0-1.172,1.158H118.7a2.95,2.95,0,0,1,1.3-2.487,5.479,5.479,0,0,1,3.325-.956,4.8,4.8,0,0,1,3.193.986,3.429,3.429,0,0,1,1.2,2.705v4.678a4.79,4.79,0,0,0,.449,2.227V21Zm-2.061-2.148a1.836,1.836,0,0,0,1.021-.264,1.653,1.653,0,0,0,.581-.6V16.3h-.957q-1.719,0-1.719,1.543a.942.942,0,0,0,.3.728A1.1,1.1,0,0,0,122.817,18.852Zm13.115-5.439-1.084-.078a1.947,1.947,0,0,0-1.992.977V21h-3.291V10.434h3.086l.107,1.357a2.548,2.548,0,0,1,2.314-1.553,3.209,3.209,0,0,1,.918.117Zm.771,2.227a6.455,6.455,0,0,1,1.084-3.955,3.568,3.568,0,0,1,3.027-1.445,3.035,3.035,0,0,1,2.383,1.113V6h3.3V21H143.54l-.166-1.133A3.116,3.116,0,0,1,140.8,21.2a3.562,3.562,0,0,1-2.988-1.445A6.659,6.659,0,0,1,136.7,15.639Zm3.291.205q0,2.813,1.641,2.813a1.62,1.62,0,0,0,1.563-.918V13.715a1.576,1.576,0,0,0-1.543-.937q-1.523,0-1.65,2.461Zm17.5.82,1.064-6.23h3.154L159.224,21H156.44l-1.748-6.27L152.935,21h-2.783l-2.49-10.566h3.154l1.045,6.377,1.68-6.377h2.295ZM168.843,21a3.716,3.716,0,0,1-.312-.947,3.06,3.06,0,0,1-2.539,1.143,3.749,3.749,0,0,1-2.539-.9,2.875,2.875,0,0,1-1.045-2.271,2.955,2.955,0,0,1,1.27-2.6,6.468,6.468,0,0,1,3.691-.879h1.016v-.559q0-1.462-1.26-1.462a1.03,1.03,0,0,0-1.172,1.158h-3.291a2.95,2.95,0,0,1,1.3-2.487,5.479,5.479,0,0,1,3.325-.956,4.8,4.8,0,0,1,3.193.986,3.429,3.429,0,0,1,1.2,2.705v4.678a4.79,4.79,0,0,0,.449,2.227V21Zm-2.061-2.148a1.836,1.836,0,0,0,1.021-.264,1.653,1.653,0,0,0,.581-.6V16.3h-.957q-1.719,0-1.719,1.543a.942.942,0,0,0,.3.728A1.1,1.1,0,0,0,166.782,18.852ZM179.9,13.412l-1.084-.078a1.947,1.947,0,0,0-1.992.977V21H173.53V10.434h3.086l.107,1.357a2.548,2.548,0,0,1,2.314-1.553,3.209,3.209,0,0,1,.918.117Zm6.3,7.783a5.432,5.432,0,0,1-3.936-1.45,5.008,5.008,0,0,1-1.5-3.774V15.7a6.489,6.489,0,0,1,.6-2.861,4.395,4.395,0,0,1,1.753-1.919,5.292,5.292,0,0,1,2.734-.679,4.574,4.574,0,0,1,3.516,1.382,5.43,5.43,0,0,1,1.289,3.853v1.279h-6.543a2.372,2.372,0,0,0,.771,1.4,2.3,2.3,0,0,0,1.543.508,2.958,2.958,0,0,0,2.441-1.094l1.5,1.777a4.2,4.2,0,0,1-1.743,1.353A5.891,5.891,0,0,1,186.2,21.2Zm-.371-8.418q-1.445,0-1.719,1.914h3.32v-.254a1.63,1.63,0,0,0-.4-1.226A1.593,1.593,0,0,0,185.825,12.777Z" transform="translate(390 853)" fill="#12263f"/>
    <g id="Grupo_53932" data-name="Grupo 53932" transform="translate(1262.969 577.812)">
      <path id="Trazado_100923" data-name="Trazado 100923" d="M-703.742,158.055a2.78,2.78,0,0,1,1.488,2.85c-.081,2.014-.021,4.033-.021,6.156.67,0,1.254-.009,1.837,0a2.119,2.119,0,0,1,2.348,2.327c.02,2.191.005,4.383.005,6.687,2,0,3.908,0,5.817,0,1.811.006,2.558.743,2.564,2.528.006,1.912,0,3.825,0,5.853,2.17,0,4.253,0,6.337,0,1.947,0,2.676.718,2.678,2.632q0,3.719-.007,7.437c-.008,1.724-.775,2.492-2.5,2.5-2.125.01-4.25,0-6.443,0v8.382h6.274c1.942,0,2.659.708,2.668,2.637,0,.481,0,.961,0,1.5h4.82v-1.083q0-8.694,0-17.388a2.161,2.161,0,0,1,1.835-2.408,2.1,2.1,0,0,1,2.344,2.208c.027,2.688.009,5.377.009,8.065q0,6.128,0,12.256c0,1.864-.737,2.591-2.611,2.6-2.089.005-4.178,0-6.4,0,0,.684.014,1.3,0,1.915a2.111,2.111,0,0,1-2.3,2.27c-2.193.021-4.386.005-6.641.005v8.377h6.087c2.212,0,2.858.651,2.861,2.873,0,.409,0,.818,0,1.323,2.224,0,4.345-.015,6.466.012a3.674,3.674,0,0,1,1.416.261,2.027,2.027,0,0,1,1.073,2.283,2.081,2.081,0,0,1-2.053,1.627c-1.885.032-3.771.009-5.656.009h-1.246c0,.6,0,1.108,0,1.62-.012,1.8-.753,2.562-2.534,2.569-2.122.008-4.243,0-6.476,0,0,1.964,0,3.839,0,5.713,0,1.939-.723,2.663-2.646,2.667-1.876,0-3.753,0-5.735,0,0,2.11,0,4.125,0,6.14,0,2.22-.648,2.867-2.864,2.871h-1.326c0,1.907,0,3.713,0,5.519,0,.419.014.839,0,1.257a2.121,2.121,0,0,1-2.134,2.227,2.094,2.094,0,0,1-2.048-2.2c-.028-1.885-.008-3.771-.009-5.656v-1.145h-1.2c-2.417,0-3-.6-3-3.05v-5.961h-8.376v2.6c0,1.362.015,2.724,0,4.085a2.127,2.127,0,0,1-2.355,2.325c-.557.011-1.114,0-1.831,0,0,.859,0,1.68,0,2.5,0,1.467.027,2.934-.013,4.4a2.079,2.079,0,0,1-2.039,2.1,2.077,2.077,0,0,1-2.125-2.121c-.037-1.92-.012-3.841-.013-5.761,0-.34,0-.68,0-1.121-.648,0-1.2.006-1.745,0a2.149,2.149,0,0,1-2.446-2.439c-.007-2.155,0-4.311,0-6.518h-8.38v3.717c0,.978.015,1.956,0,2.933a2.118,2.118,0,0,1-2.271,2.3c-.59.016-1.18,0-1.916,0V259.9c0,.943,0,1.886,0,2.828-.007,1.623-.779,2.591-2.072,2.606s-2.112-.961-2.117-2.56c-.006-2.093,0-4.186,0-6.438h-1.137c-2.493,0-3.053-.567-3.054-3.1q0-2.776-.007-5.552a3.472,3.472,0,0,0-.059-.367h-4.528c-3.519,0-3.788-.27-3.788-3.821v-4.56H-764.6c-1.013,0-2.025.014-3.038,0a2.128,2.128,0,0,1-2.328-2.35c-.01-.557,0-1.115,0-1.837h-2.909c-1.083,0-2.169-.063-3.246.016a2.711,2.711,0,0,1-2.85-1.483v-1.257a2.7,2.7,0,0,1,2.849-1.482c1.006.079,2.024.016,3.036.016h3.126c0-.72-.009-1.277,0-1.834a2.126,2.126,0,0,1,2.324-2.353c1.012-.017,2.025,0,3.037,0h3.589v-8.382c-1.934,0-3.812,0-5.689,0-2.763,0-3.252-.474-3.263-3.194,0-.3,0-.606,0-1-2.129,0-4.147-.059-6.161.021a2.776,2.776,0,0,1-2.85-1.488V211.07a2.687,2.687,0,0,1,2.848-1.482c.971.077,1.953.015,2.931.015h3.232c0-.718-.009-1.275,0-1.832a2.127,2.127,0,0,1,2.322-2.355c.942-.017,1.885,0,2.827,0h3.8v-8.376c-2.177,0-4.3.006-6.419,0-1.773-.007-2.522-.772-2.534-2.569,0-.512,0-1.025,0-1.626-2.128,0-4.147-.059-6.16.021a2.777,2.777,0,0,1-2.85-1.488v-1.257a2.467,2.467,0,0,1,2.214-1.472c.592.018,1.185,0,1.778,0h5.02c0-.742-.013-1.332,0-1.922a2.115,2.115,0,0,1,2.3-2.265c.767-.016,1.534,0,2.3,0h4.4c0-1.989,0-3.833,0-5.677,0-2.011.694-2.7,2.7-2.7,1.869,0,3.739,0,5.677,0,0-2.323-.015-4.514.005-6.705a2.106,2.106,0,0,1,2.263-2.3c.615-.017,1.231,0,1.918,0,0-2.139.06-4.157-.021-6.17a2.76,2.76,0,0,1,1.493-2.842h1.257a2.706,2.706,0,0,1,1.482,2.85c-.079,1.006-.016,2.024-.016,3.036v3.125c.72,0,1.278-.009,1.835,0a2.135,2.135,0,0,1,2.358,2.323c.016.977,0,1.955,0,2.932,0,1.24,0,2.479,0,3.7h8.382c0-2.177-.006-4.3,0-6.42.007-1.781.763-2.521,2.567-2.533.512,0,1.024,0,1.623,0,0-2.131.06-4.15-.021-6.164a2.762,2.762,0,0,1,1.488-2.847h1.257a2.706,2.706,0,0,1,1.482,2.85c-.079,1.006-.016,2.024-.016,3.036v3.125h1.416c2.1,0,2.783.679,2.777,2.739q0,1.466,0,2.932c0,1.1,0,2.2,0,3.283h8.382c0-2.211-.009-4.367,0-6.523a2.154,2.154,0,0,1,2.458-2.43c.548-.006,1.1,0,1.729,0,0-2.129.06-4.149-.022-6.162A2.772,2.772,0,0,1-705,158.055Zm-2.725,13.255c0,2.24.014,4.431,0,6.621a2.089,2.089,0,0,1-2.241,2.327q-6.128.031-12.257,0a2.088,2.088,0,0,1-2.255-2.313c-.021-1.92-.006-3.841-.014-5.762,0-.3-.04-.6-.059-.865h-4.118c0,2.15.006,4.239,0,6.327-.007,1.871-.743,2.62-2.593,2.623q-5.762.01-11.523,0c-1.924,0-2.646-.729-2.65-2.663,0-2.085,0-4.169,0-6.278h-4.185c0,2.123,0,4.177,0,6.233,0,2.012-.7,2.711-2.7,2.715-1.872,0-3.744,0-5.578,0a1.812,1.812,0,0,0-.091.322q-.008,2.514-.008,5.028c0,2.448-.582,3.032-3.018,3.032h-5.919v4.18h3.321c1.117,0,2.235-.013,3.352.011a2.079,2.079,0,0,1,2.248,2.213q.036,6.128.006,12.257a2.117,2.117,0,0,1-2.29,2.289c-.593.017-1.187,0-1.781,0h-4.882v4.18h1.071c1.886,0,3.772-.014,5.657.014a2.052,2.052,0,0,1,2.216,2.134q.041,6.233,0,12.466a2.049,2.049,0,0,1-2.2,2.147c-1.955.029-3.911.009-5.866.016-.3,0-.6.035-.861.052v4.132c2.08,0,4.1,0,6.117,0,2.164,0,2.826.657,2.828,2.8,0,1.837,0,3.674,0,5.582,2.127,0,4.113-.017,6.1.005a2.11,2.11,0,0,1,2.28,2.291c.017.733,0,1.467,0,2.2v4.456h4.191c0-2.243-.013-4.434,0-6.625a2.083,2.083,0,0,1,2.246-2.32q6.128-.03,12.257,0a2.086,2.086,0,0,1,2.25,2.317c.021,1.92.006,3.841.014,5.762,0,.3.04.595.059.86h4.12c0-2.152-.008-4.241,0-6.33.009-1.881.728-2.613,2.593-2.618q5.762-.013,11.523,0c1.924,0,2.644.728,2.648,2.664,0,2.084,0,4.169,0,6.277h4.185c0-2.123,0-4.178,0-6.233,0-2.016.694-2.71,2.7-2.713,1.872,0,3.744,0,5.678,0,0-1.938,0-3.748,0-5.558,0-2.162.657-2.822,2.8-2.823q3.071,0,6.134,0v-4.186c-2.276,0-4.473.017-6.67-.006a2.053,2.053,0,0,1-2.247-2.1q-.045-6.285,0-12.571a2.037,2.037,0,0,1,2.062-2.074c.487-.03.978-.014,1.466-.014,1.8,0,3.6,0,5.377,0V209.6h-3.334c-1.117,0-2.235.018-3.352-.007a2.039,2.039,0,0,1-2.214-2.025q-.056-6.337,0-12.675a2.027,2.027,0,0,1,2.086-2.046c.8-.036,1.606-.011,2.409-.012h4.432v-4.189c-2.11,0-4.163,0-6.216,0-2.019,0-2.726-.7-2.729-2.689,0-1.872,0-3.745,0-5.693h-4.73c-3.309,0-3.652-.343-3.652-3.653v-5.3Z" transform="translate(0 0)" fill="#8f2b58"/>
      <path id="Trazado_100924" data-name="Trazado 100924" d="M-648.978,287.983v46.026h46V287.985h-1.109c-4.4,0-8.8,0-13.2-.01a2.137,2.137,0,0,1-2.393-2.276,2.159,2.159,0,0,1,2.441-1.914q7.491-.008,14.982,0c.384,0,.768-.005,1.152,0a2.128,2.128,0,0,1,2.37,2.407q.013,8.905.008,17.811,0,15.715-.005,31.43c0,2.162-.662,2.832-2.8,2.832q-24.516,0-49.031,0c-1.932,0-2.652-.718-2.652-2.652q0-24.568,0-49.136c0-2,.7-2.691,2.724-2.693,5.2,0,10.407-.016,15.61.011a3.557,3.557,0,0,1,1.684.4,1.856,1.856,0,0,1,.866,2.173,2.052,2.052,0,0,1-2.074,1.6c-2.724.026-5.448.013-8.172.014Z" transform="translate(-99.351 -99.331)" fill="#8f2b58"/>
      <path id="Trazado_100925" data-name="Trazado 100925" d="M-600.162,357.8c0-.244,0-.489,0-.733a2.207,2.207,0,0,0-1.82-2.33,1.247,1.247,0,0,0-.76.2c-.826.45-1.621.961-2.454,1.4a2.057,2.057,0,0,1-2.966-.828q-2.078-3.51-4.078-7.065a2.063,2.063,0,0,1,.769-2.981,9.621,9.621,0,0,1,1.629-.938A1.919,1.919,0,0,0-608.5,342.3a1.446,1.446,0,0,0-.877-1.445,18.147,18.147,0,0,1-2.083-1.2,2.06,2.06,0,0,1-.791-2.978q2-3.555,4.085-7.061a2.074,2.074,0,0,1,3.05-.8,7.536,7.536,0,0,1,1.531.9c1.1.98,2.084.57,3.037-.176a1.147,1.147,0,0,0,.36-.769c.045-.94,0-1.884.028-2.826a2.079,2.079,0,0,1,2.223-2.236q4.083-.037,8.166,0a2.073,2.073,0,0,1,2.172,2.18,11.571,11.571,0,0,1-.008,1.883,1.955,1.955,0,0,0,1.321,2.347,1.3,1.3,0,0,0,1.417,0c.727-.478,1.491-.9,2.259-1.315a2.056,2.056,0,0,1,2.986.749q2.114,3.549,4.131,7.156a2.063,2.063,0,0,1-.833,2.965,10.785,10.785,0,0,1-1.628.941,1.878,1.878,0,0,0-1.305,2.15,1.5,1.5,0,0,0,.929,1.518,16.515,16.515,0,0,1,2.081,1.2,2.052,2.052,0,0,1,.765,2.908q-2.018,3.6-4.135,7.153a2.06,2.06,0,0,1-2.979.78,11.868,11.868,0,0,1-1.62-.955,1.965,1.965,0,0,0-2.612-.056,1.408,1.408,0,0,0-.769,1.4,24.5,24.5,0,0,1,0,2.616,2.034,2.034,0,0,1-2.065,2.068q-4.187.057-8.376,0a2.058,2.058,0,0,1-2.113-2.132C-600.179,358.779-600.161,358.289-600.162,357.8Zm20.016-9.714-2.066-1.217a2.364,2.364,0,0,1-1.365-2.764,17.509,17.509,0,0,0,0-3.113,2.364,2.364,0,0,1,1.371-2.76c.676-.4,1.354-.79,2.073-1.209l-2.083-3.6c-.834.478-1.586.911-2.34,1.34a2.3,2.3,0,0,1-2.638-.165,28.647,28.647,0,0,0-3.144-1.835,2.27,2.27,0,0,1-1.445-2.206c.009-.861,0-1.723,0-2.6h-4.192c0,.9-.01,1.735,0,2.568a2.274,2.274,0,0,1-1.419,2.225,29.4,29.4,0,0,0-3.148,1.829,2.359,2.359,0,0,1-2.733.144c-.72-.419-1.444-.83-2.26-1.3l-2.07,3.589c.777.464,1.447.9,2.149,1.275a2.4,2.4,0,0,1,1.291,2.61,19.33,19.33,0,0,0,0,3.32,2.4,2.4,0,0,1-1.3,2.607c-.72.389-1.407.837-2.149,1.282l2.076,3.585c.8-.462,1.531-.866,2.244-1.3a2.374,2.374,0,0,1,2.818.171,25.46,25.46,0,0,0,3.054,1.781,2.27,2.27,0,0,1,1.444,2.207c-.008.861,0,1.723,0,2.6h4.192c0-.868.023-1.667-.006-2.464a2.367,2.367,0,0,1,1.61-2.42,15.35,15.35,0,0,0,2.792-1.611,2.468,2.468,0,0,1,3.084-.169c.664.413,1.366.765,2.092,1.168Z" transform="translate(-131.448 -130.854)" fill="#8f2b58"/>
      <path id="Trazado_100926" data-name="Trazado 100926" d="M-531.342,288.021a2.112,2.112,0,0,1-2.073-2.155,2.109,2.109,0,0,1,2.1-2.021,2.111,2.111,0,0,1,2.074,2.049A2.112,2.112,0,0,1-531.342,288.021Z" transform="translate(-193.998 -99.38)" fill="#8f2b58"/>
      <path id="Trazado_100927" data-name="Trazado 100927" d="M-540.828,389.921a6.305,6.305,0,0,1-6.347,6.275,6.293,6.293,0,0,1-6.219-6.294,6.294,6.294,0,0,1,6.346-6.272A6.29,6.29,0,0,1-540.828,389.921Zm-4.2,0a2.122,2.122,0,0,0-2.053-2.1,2.11,2.11,0,0,0-2.117,2.024A2.121,2.121,0,0,0-547.09,392,2.1,2.1,0,0,0-545.028,389.921Z" transform="translate(-178.214 -178.213)" fill="#8f2b58"/>
    </g>
  </g>
</svg>
