<svg xmlns="http://www.w3.org/2000/svg" width="395.584" height="228.371" viewBox="0 0 395.584 228.371">
  <g id="Grupo_57415" data-name="Grupo 57415" transform="translate(-919.416 -1860)">
    <path id="Trazado_120081" data-name="Trazado 120081" d="M-428.634,434.336a199.275,199.275,0,0,0,2.355-30.58c0-109.237-88.554-197.791-197.792-197.791s-197.792,88.554-197.792,197.791a199.275,199.275,0,0,0,2.355,30.58Z" transform="translate(1741.279 1654.035)" fill="#d6ebfb"/>
    <g id="Grupo_57414" data-name="Grupo 57414" transform="translate(-740.159 1157.714)">
      <g id="Grupo_57408" data-name="Grupo 57408" transform="translate(1865.175 854.488)">
        <g id="Grupo_57399" data-name="Grupo 57399" transform="translate(0 29.792)">
          <g id="Grupo_57398" data-name="Grupo 57398">
            <path id="Rectángulo_6561" data-name="Rectángulo 6561" d="M0,0H71.715A12.912,12.912,0,0,1,84.628,12.912v0A13.205,13.205,0,0,1,71.423,26.117H0a0,0,0,0,1,0,0V0A0,0,0,0,1,0,0Z" transform="translate(3.926 0)" fill="#fcecdb"/>
            <path id="Trazado_120042" data-name="Trazado 120042" d="M2016.847,1549.483v3.929a11.44,11.44,0,0,1-11.443,11.442H1866.835a1.659,1.659,0,0,1-1.66-1.658v-.589a1.659,1.659,0,0,1,1.66-1.658h84.47a10.669,10.669,0,0,0,2.424-6.775v-4.995a10.4,10.4,0,0,0-2.3-6.536h-84.593a1.66,1.66,0,0,1-1.66-1.66v-.587a1.659,1.659,0,0,1,1.66-1.66H2006.1a10.738,10.738,0,0,1,10.746,10.746Z" transform="translate(-1865.175 -1538.737)" fill="#699dee"/>
            <path id="Trazado_120043" data-name="Trazado 120043" d="M2016.433,1546.522h-63.046a10.421,10.421,0,0,0-1.959-3.878h-84.593a1.66,1.66,0,0,1-1.66-1.66v-.587a1.659,1.659,0,0,1,1.66-1.66H2006.1A10.748,10.748,0,0,1,2016.433,1546.522Z" transform="translate(-1865.175 -1538.737)" fill="#548ee2"/>
          </g>
          <path id="Trazado_120044" data-name="Trazado 120044" d="M1885.8,1607.334l10.26.439-10.26.265Z" transform="translate(-1881.873 -1594.275)" fill="#f4d2b8"/>
          <path id="Trazado_120045" data-name="Trazado 120045" d="M1885.8,1628.859l24.409.439-24.409.265Z" transform="translate(-1881.873 -1611.703)" fill="#f4d2b8"/>
        </g>
        <g id="Grupo_57403" data-name="Grupo 57403" transform="translate(11.085 55.855)">
          <g id="Grupo_57401" data-name="Grupo 57401" transform="translate(0 0)">
            <g id="Grupo_57400" data-name="Grupo 57400">
              <path id="Rectángulo_6562" data-name="Rectángulo 6562" d="M0,0H78.72A10.477,10.477,0,0,1,89.2,10.477v0a9.838,9.838,0,0,1-9.838,9.838H0a0,0,0,0,1,0,0V0A0,0,0,0,1,0,0Z" transform="translate(89.197 20.315) rotate(-180)" fill="#2b478b"/>
              <path id="Rectángulo_6563" data-name="Rectángulo 6563" d="M0,0H89.549A10.271,10.271,0,0,1,99.82,10.271v0A10.044,10.044,0,0,1,89.777,20.315H0a0,0,0,0,1,0,0V0A0,0,0,0,1,0,0Z" transform="translate(174.269 20.315) rotate(180)" fill="#fcecdb"/>
              <path id="Trazado_120046" data-name="Trazado 120046" d="M2276.584,1769.43H2385.5a1.52,1.52,0,0,0,1.52-1.519h0a1.519,1.519,0,0,0-1.52-1.519H2276.584a1.519,1.519,0,0,0-1.519,1.519h0A1.519,1.519,0,0,0,2276.584,1769.43Z" transform="translate(-2208.118 -1749.115)" fill="#2b478b"/>
              <path id="Trazado_120047" data-name="Trazado 120047" d="M2276.584,1678.679H2385.5a1.52,1.52,0,0,0,1.52-1.519h0a1.519,1.519,0,0,0-1.52-1.519H2276.584a1.519,1.519,0,0,0-1.519,1.519h0A1.519,1.519,0,0,0,2276.584,1678.679Z" transform="translate(-2208.118 -1675.641)" fill="#2b478b"/>
            </g>
            <path id="Trazado_120048" data-name="Trazado 120048" d="M2787.339,1729l-12.1.342,12.1.206Z" transform="translate(-2613.07 -1718.838)" fill="#f4d2b8"/>
            <path id="Trazado_120049" data-name="Trazado 120049" d="M2716.361,1704.438l-28.792.342,28.792.206Z" transform="translate(-2542.093 -1698.956)" fill="#f4d2b8"/>
          </g>
          <g id="Grupo_57402" data-name="Grupo 57402" transform="translate(145.773 5.756)">
            <path id="Trazado_120050" data-name="Trazado 120050" d="M2689.125,1705.874a4.738,4.738,0,0,1,1.642,2.308,3.286,3.286,0,0,1,.128.8c.068,1.906,0,6.22,0,6.22l3.643-2.157,3.633,2.157v-5.847a4.642,4.642,0,0,0-.89-2.885,1.379,1.379,0,0,0-1.007-.6Z" transform="translate(-2689.125 -1705.874)" fill="#699dee"/>
            <path id="Trazado_120051" data-name="Trazado 120051" d="M2689.125,1705.874a4.738,4.738,0,0,1,1.642,2.308l7.3.085s-.286-2.054-1.793-2.393Z" transform="translate(-2689.125 -1705.874)" fill="#568cdb"/>
          </g>
        </g>
        <g id="Grupo_57407" data-name="Grupo 57407" transform="translate(7.73 0)">
          <g id="Grupo_57405" data-name="Grupo 57405">
            <g id="Grupo_57404" data-name="Grupo 57404">
              <path id="Rectángulo_6564" data-name="Rectángulo 6564" d="M0,0H77.265A15.091,15.091,0,0,1,92.355,15.091v0A14.756,14.756,0,0,1,77.6,29.847H0a0,0,0,0,1,0,0V0A0,0,0,0,1,0,0Z" transform="translate(159.3 29.847) rotate(180)" fill="#fcecdb"/>
              <path id="Trazado_120052" data-name="Trazado 120052" d="M1974.617,1393.827v6.423a7.425,7.425,0,0,0,3.77,6.4,7.5,7.5,0,0,0,3.718.981h87.344a1.854,1.854,0,0,1,1.853,1.854v.758a1.854,1.854,0,0,1-1.853,1.854H1918.561a12.778,12.778,0,0,1-12.779-12.779v-5.068a11.992,11.992,0,0,1,12-12h151.669a1.853,1.853,0,0,1,1.853,1.852v.758a1.854,1.854,0,0,1-1.853,1.853h-87.611a7.237,7.237,0,0,0-5.313,2.318A7.1,7.1,0,0,0,1974.617,1393.827Z" transform="translate(-1905.781 -1382.247)" fill="#0ac4bf"/>
            </g>
            <path id="Trazado_120053" data-name="Trazado 120053" d="M2694.937,1460.637l-11.2.5,11.2.3Z" transform="translate(-2535.638 -1445.713)" fill="#f4d2b8"/>
            <path id="Trazado_120054" data-name="Trazado 120054" d="M2629.267,1424.556l-26.638.5,26.638.3Z" transform="translate(-2469.968 -1416.501)" fill="#f4d2b8"/>
          </g>
          <g id="Grupo_57406" data-name="Grupo 57406" transform="translate(132.936 8.457)">
            <path id="Trazado_120055" data-name="Trazado 120055" d="M2604.069,1426.668a5.593,5.593,0,0,1,2.34,2.5,2.8,2.8,0,0,1,.182.87c.1,2.067,0,6.745,0,6.745l5.191-2.339,5.177,2.339v-6.34a4.269,4.269,0,0,0-1.269-3.129,2.146,2.146,0,0,0-1.434-.648Z" transform="translate(-2604.069 -1426.668)" fill="#f99746"/>
            <path id="Trazado_120056" data-name="Trazado 120056" d="M2604.069,1426.668a5.593,5.593,0,0,1,2.34,2.5l10.4.093a3.319,3.319,0,0,0-2.555-2.595Z" transform="translate(-2604.069 -1426.668)" fill="#ed7d2b"/>
          </g>
        </g>
      </g>
      <g id="Grupo_57413" data-name="Grupo 57413" transform="translate(1882.368 730.392)">
        <g id="Grupo_57412" data-name="Grupo 57412" transform="translate(0)">
          <path id="Trazado_120057" data-name="Trazado 120057" d="M2326.448,1318.532c4.6,8.012,10.394,11.105,10.394,11.105h24.089S2322.936,1312.42,2326.448,1318.532Z" transform="translate(-2255.642 -1205.503)" fill="#233862"/>
          <g id="Grupo_57409" data-name="Grupo 57409">
            <path id="Trazado_120058" data-name="Trazado 120058" d="M2339.182,1564.784a2.227,2.227,0,0,1,.4,2.382.019.019,0,0,1-.006.012c-.575,1.588-2.473,3.361-4.677,5.131-.282.227-.533.434-.751.626-.057.05-.115.1-.168.151s-.087.08-.13.117c-2.056,1.9-1.282,2.33-4.976,6.176-4.212,4.382-7.112,4.461-7.937,4.062-.7-.34.72-2.664,2.291-5.277.076-.126.151-.253.229-.381.21-.347.417-.7.625-1.049,1.841-3.144,1.368-4.619.932-9.3-.355-3.8-5.915-21.242-5.915-21.242l8.071-1.39s2.431,13.887,5.109,16.026c1.432,1.14,3.035,1.154,4.412,2,.1.059.193.119.286.181A10.586,10.586,0,0,1,2339.182,1564.784Z" transform="translate(-2249.875 -1389.761)" fill="#ffb27d"/>
            <path id="Trazado_120059" data-name="Trazado 120059" d="M2346.224,1641.44a2.226,2.226,0,0,1,.4,2.382.019.019,0,0,1-.006.011c-.7,1.586-2.554,3.351-4.685,5.115-.279.231-.524.443-.743.642-.057.05-.115.1-.169.151s-.087.08-.13.117c-2.056,1.9-1.283,2.33-4.976,6.176-4.212,4.382-7.112,4.461-7.936,4.062-.7-.34.72-2.664,2.291-5.277a17.946,17.946,0,0,0,7.508-5.532c2.536-3.236,4.228-7.394,5.955-9.8.1.059.192.119.286.181A10.588,10.588,0,0,1,2346.224,1641.44Z" transform="translate(-2256.916 -1466.417)" fill="#233862"/>
            <path id="Trazado_120060" data-name="Trazado 120060" d="M1979.713,1549.3c-.5,2.491-4.05,2.076-8.018,1.106s-3.025.183-8.672-.442-7.358-2.731-7.53-3.57c-.154-.745,2.636-1.008,5.629-1.353.377-.042.754-.089,1.133-.135,3.379-.424,5.854-2.6,8.923-4.4,2.907-1.7,7.246-8.607,7.246-8.607l7.745.613s-4.064,6.172-5.636,8.856a9.356,9.356,0,0,0-.76,5.277A9.936,9.936,0,0,1,1979.713,1549.3Z" transform="translate(-1955.488 -1379.314)" fill="#ffb27d"/>
            <path id="Trazado_120061" data-name="Trazado 120061" d="M1971.7,1606.273c-3.968-.97-3.025.183-8.672-.442s-7.358-2.731-7.53-3.57c-.154-.745,2.636-1.008,5.629-1.353l.028.057a15.917,15.917,0,0,0,8.087,2.514c3.831.093,7.889-1,10.535-.961a9.933,9.933,0,0,1-.059,2.649C1979.215,1607.658,1975.664,1607.243,1971.7,1606.273Z" transform="translate(-1955.488 -1435.185)" fill="#233862"/>
            <path id="Trazado_120062" data-name="Trazado 120062" d="M2238.63,1310.371l7.24,19.481,9.452,25.436a15.313,15.313,0,0,0,5.021-.459,21.763,21.763,0,0,0,4.856-2.364s-2.625-27.311-7.521-42.988c-1.254-4.024-2.66-7.279-4.212-9.112C2245.876,1291.4,2238.63,1310.371,2238.63,1310.371Z" transform="translate(-2184.727 -1189.908)" fill="#233862"/>
            <path id="Trazado_120063" data-name="Trazado 120063" d="M2095.232,1184.111c4.743-1.53,18.27.435,31.858,3.094l2.845-4.693,29.351-2.292s9.685,21.478,4.383,35.164a4.963,4.963,0,0,1-4.968,3.344s-.428,0-.429,0-17.469-.01-23.141-.01c-14.6,0-30.891-10.034-33-10.455-3.45-.69-4.83,6.21-8.281,13.456s-32.432,32.087-32.432,32.087-4.454.044-6.295-.646a6.2,6.2,0,0,1-2.7-1.706S2084.536,1187.562,2095.232,1184.111Z" transform="translate(-2033.969 -1094.586)" fill="#2b478b"/>
            <path id="Trazado_120064" data-name="Trazado 120064" d="M2421.328,777.9c10.452,5.755,31.655,17.685,31.765,17.608,0,0,7.793,2.936,12.214,0,7.369-4.894,11.321-18.065-2.155-29.4-6.721-5.653-11.5-7.029-12.222-16.055-.394-4.9-7.088-21.058-18.209-19.563-.93.125-6.651.392-10.411,2.366C2412.729,737.887,2405.66,775.672,2421.328,777.9Z" transform="translate(-2325.189 -730.392)" fill="#233862"/>
            <path id="Trazado_120065" data-name="Trazado 120065" d="M2500.842,884.318c-.046.03,5.143,1.8,8.612.265,3.264-1.443,5.736-6.812,5.688-6.815-1.485-.069-3.115-1.367-4.37-9.884l-.632.227-10.63,3.825s.77,3.411,1.268,6.658C2501.2,881.321,2501.422,883.933,2500.842,884.318Z" transform="translate(-2395.942 -841.709)" fill="#ffb27d"/>
            <path id="Trazado_120066" data-name="Trazado 120066" d="M2499.509,872.9s.77,3.411,1.268,6.658c6.105-1.1,8.5-7.182,9.362-10.483Z" transform="translate(-2395.942 -842.674)" fill="#ed975d"/>
            <path id="Trazado_120067" data-name="Trazado 120067" d="M2459.439,798.153s14.543-1.952,13.189-10.99-.391-15.377-9.734-14.513-10.626,4.583-10.908,7.71S2455.621,798.428,2459.439,798.153Z" transform="translate(-2357.454 -764.541)" fill="#ffb27d"/>
            <path id="Trazado_120068" data-name="Trazado 120068" d="M2454.831,772.007s9.31,8.023,15.643,8.67,8.73-1.386,8.73-1.386a24.729,24.729,0,0,1-5.979-8.1,4.453,4.453,0,0,0-3.671-2.625C2465.032,768.175,2456.46,768,2454.831,772.007Z" transform="translate(-2359.77 -761.143)" fill="#233862"/>
            <path id="Trazado_120069" data-name="Trazado 120069" d="M2453.422,776.285s-3.115,3.011-4.1,5.245c-.947,2.156-1.23,7.311-.477,9.358,0,0-4.853-9.436-2.106-14.02C2449.657,772.007,2453.422,776.285,2453.422,776.285Z" transform="translate(-2352.54 -766.14)" fill="#233862"/>
            <path id="Trazado_120070" data-name="Trazado 120070" d="M2442.168,946.32c.44,29.44.121,23.288,3.341,26.081.776.673,2.958,1.074,5.829,1.263,9.027.6,24.9-.888,25.5-2.556,2.082-5.773.612-7.566,2.35-16.4.181-.94.4-1.957.668-3.065,1.448-6.07,2.858-8.135-2.281-17.886-4.66-8.833-9.5-16-9.937-15.744-12.295,7.3-13.286,1.164-13.286,1.164S2441.953,931.96,2442.168,946.32Z" transform="translate(-2349.515 -882.287)" fill="#bf3976"/>
            <path id="Trazado_120071" data-name="Trazado 120071" d="M2276.658,1378.842l9.451,25.436a15.308,15.308,0,0,0,5.021-.459,21.761,21.761,0,0,0,4.856-2.364s-2.625-27.311-7.521-42.988Z" transform="translate(-2215.516 -1238.899)" fill="#2b478b"/>
            <path id="Trazado_120072" data-name="Trazado 120072" d="M2402.553,924.142s-12.651,2.145-14.137,7.592-10.228,37.469-10.228,37.469,6.431,1.156,9.4-1.815,10.338-27.565,10.338-27.565Z" transform="translate(-2297.717 -887.257)" fill="#bf3976"/>
            <path id="Trazado_120073" data-name="Trazado 120073" d="M2490.346,1077.61c9.027.6,24.9-.888,25.5-2.556,2.082-5.773.612-7.566,2.349-16.4l-4.354-12.26s.72,13.653-3.307,17.244-16.485,6.932-18.442,9.933A10.976,10.976,0,0,0,2490.346,1077.61Z" transform="translate(-2388.524 -986.233)" fill="#8f2b58"/>
            <path id="Trazado_120074" data-name="Trazado 120074" d="M2477.615,1174.358s-8.906-1.983-10.343-1.193-4.949,3.669-5.388,4.67,3.2-.76,4.382-1.078c.767-.206,2.785.5,3.783.828,4.2,1.4,6.779.68,6.779.68Z" transform="translate(-2365.45 -1088.722)" fill="#ffb27d"/>
            <path id="Trazado_120075" data-name="Trazado 120075" d="M2544.521,918s11.958.737,16.1,6.511c5.828,8.128,17.388,42.766,10.762,47.385-7.461,5.2-33.957,1.361-33.957,1.361s-.882-4.122.345-6.115,21.163-5.214,22.083-6.134-11.5-17.942-11.5-20.7S2544.521,918,2544.521,918Z" transform="translate(-2426.391 -882.287)" fill="#bf3976"/>
            <path id="Trazado_120076" data-name="Trazado 120076" d="M2473.26,1186.977a17.242,17.242,0,0,1-2.478,2.694,1.825,1.825,0,0,1-1.007.216l1.258-2.263Z" transform="translate(-2371.868 -1100.055)" fill="#ffb27d"/>
            <path id="Trazado_120077" data-name="Trazado 120077" d="M2467.272,1173.956l-5.425,2.635a.967.967,0,0,0,.9.347,12.932,12.932,0,0,0,2.353-.647Z" transform="translate(-2365.45 -1089.513)" fill="#ffb27d"/>
          </g>
          <g id="Grupo_57411" data-name="Grupo 57411" transform="translate(43.087 61.2)">
            <g id="Grupo_57410" data-name="Grupo 57410">
              <path id="Trazado_120078" data-name="Trazado 120078" d="M2237.644,1083.967h-42.917l-12.91-32.1h42.85Z" transform="translate(-2181.818 -1051.863)" fill="#afafaf"/>
              <path id="Trazado_120079" data-name="Trazado 120079" d="M2246.99,1213.929h56.671v1.251h-56.168Z" transform="translate(-2234.583 -1183.076)" fill="#afafaf"/>
            </g>
            <path id="Trazado_120080" data-name="Trazado 120080" d="M2306.187,1127.491a1.487,1.487,0,0,1,1.457-2.043,2.929,2.929,0,0,1,2.63,2.043,1.487,1.487,0,0,1-1.458,2.043A2.928,2.928,0,0,1,2306.187,1127.491Z" transform="translate(-2282.443 -1111.439)" fill="#fff"/>
          </g>
        </g>
      </g>
    </g>
  </g>
</svg>
