<svg xmlns="http://www.w3.org/2000/svg" width="295.673" height="156" viewBox="0 0 295.673 156">
  <g id="Grupo_57321" data-name="Grupo 57321" transform="translate(-285 -910)">
    <g id="Grupo_57319" data-name="Grupo 57319" transform="translate(549.153 2037.334)">
      <rect id="Rectángulo_6468" data-name="Rectángulo 6468" width="36.024" height="29.842" rx="4.82" transform="translate(-222.153 -1126.887)" fill="#a9a8a8"/>
      <g id="Grupo_57316" data-name="Grupo 57316">
        <path id="Trazado_102594" data-name="Trazado 102594" d="M-205.3-1110.8l-5.038,5.724s-.457-17.745,0-17.516,12.594,11.906,12.594,11.906Z" fill="#2c2c2c"/>
        <rect id="Rectángulo_6469" data-name="Rectángulo 6469" width="3.257" height="12.458" transform="translate(-207.325 -1111.624) rotate(-25.73)" fill="#2c2c2c"/>
      </g>
      <path id="Trazado_102595" data-name="Trazado 102595" d="M-183.387-1111.966h6.411l-3.3,3.3Z" fill="#cccccb"/>
      <g id="Grupo_57317" data-name="Grupo 57317" transform="translate(14.352)">
        <path id="Trazado_102596" data-name="Trazado 102596" d="M-169.571-1111.966v49.1l1.606,21.107,54.833-8.718L-56-1045.661s-3.212-14.684,20.648-15.143,41.8-.688,41.8-.688L16.5-1095.677s-8.719-10.553-5.507-16.289H-169.571Z" transform="translate(0 -13)" fill="#fff" stroke="#a9a8a8" stroke-miterlimit="10" stroke-width="1.214"/>
        <line id="Línea_248" data-name="Línea 248" y1="61.945" transform="translate(-113.361 -1124.966)" fill="none" stroke="#a9a8a8" stroke-miterlimit="10" stroke-width="1.249"/>
        <line id="Línea_249" data-name="Línea 249" y1="66.304" transform="translate(-58.299 -1124.966)" fill="none" stroke="#a9a8a8" stroke-miterlimit="10" stroke-width="1.292"/>
        <line id="Línea_250" data-name="Línea 250" y1="50.933" transform="translate(-13.732 -1124.966)" fill="none" stroke="#a9a8a8" stroke-miterlimit="10" stroke-width="1.133"/>
      </g>
      <g id="Grupo_57318" data-name="Grupo 57318">
        <path id="Trazado_102597" data-name="Trazado 102597" d="M-172.882-1033.565c1.728-.415,2.731-3.612,2.177-5.957-.709-3-1.909-4.079-4.99-5.208Z" fill="#4b2229"/>
        <path id="Trazado_102598" data-name="Trazado 102598" d="M-65.592-980.37l-.4,9.036h33.051s-.9-7.337-1.5-9.768Z" fill="#414122"/>
        <path id="Trazado_102599" data-name="Trazado 102599" d="M-28.812-1016.6a7.17,7.17,0,0,1,4.679-2.19c2.969-.2,3.315-.043,4.546-.382s1.97-1,1.1-4.062a4.6,4.6,0,0,1-3.91-.313c-1.955-1.158-4.164-3.263-3.693-12.43.25-4.868,9.485-9.436,14.119-5.816a10.842,10.842,0,0,1,3.548,12.309c-1.3,2.824-1.955,3.212-2.245,4.719s-.056,3.683.958,4.477,8.2.322,10.149,2.868c2.736,3.091,11.852,15.614,14.023,19.038,1.045,1.648,2.168,3.093,1.918,3.913-.5,1.836-14.272,23.134-14.272,23.134H-.143L-.7-978.708l7.345-14.633-7.5-11.009-25.989,2.651-.128-3.977a46.735,46.735,0,0,1-5.905-.309Z" fill="#f7b890"/>
        <path id="Trazado_102600" data-name="Trazado 102600" d="M-10.756-1023.628a1.149,1.149,0,0,1-.063.319,2.1,2.1,0,0,1-1.355,1.363,6.275,6.275,0,0,1-1.906.25,6.812,6.812,0,0,1-4.383-1.538,4.61,4.61,0,0,1-4.281-.529,2.344,2.344,0,0,0,2.567-3.016c-.331-1.182,9.421,3.148,9.421,3.148Z" fill="#f2ae86"/>
        <path id="Trazado_102601" data-name="Trazado 102601" d="M9.093-993.174c-.167-.556-2.115-3.895-2.115-3.895,3.114-1.613,4.718-5.358,4.719-5.36h0l-2.881-1.984-8.764,1.39,6.594,9.682L-.7-978.708l.175,2.31C1.921-980.473,9.232-992.711,9.093-993.174Z" fill="#f2ae86"/>
        <path id="Trazado_102602" data-name="Trazado 102602" d="M-18.578-1019.681c2.132.69,6.927,1.046,8.87-.606,0,0,2.518.17,3.973.294,2.226.19,4.729.169,7.066,2.587s10.586,14.634,10.586,14.634a11.651,11.651,0,0,1-8.732,5.158l-3.147-4.453s-.6,8.476-.265,15.82c.228,5.016.96,14.913.96,14.913H-29.188s-.779-25.457.891-30.909l2.851-16.333a26.193,26.193,0,0,1,3.022-.3A14.915,14.915,0,0,0-18.578-1019.681Z" fill="#3ea57c"/>
        <path id="Trazado_102603" data-name="Trazado 102603" d="M-7.545-1041.806a3.894,3.894,0,0,0-1.353.069,3.86,3.86,0,0,0,.165-.727,3.864,3.864,0,0,0-3.354-4.316,3.849,3.849,0,0,0-2.9.826,1.462,1.462,0,0,0-.929-.5,1.473,1.473,0,0,0-1.3.5,4.523,4.523,0,0,0-3.367-2.251,4.532,4.532,0,0,0-5.06,3.932,4.5,4.5,0,0,0,.22,2.052,3.214,3.214,0,0,0-.435-.088,3.237,3.237,0,0,0-3.614,2.809,3.237,3.237,0,0,0,2.809,3.614,3.27,3.27,0,0,0,.6.017c.657,2.861,2.687,3.776,3.318,3.7s.372-2.448,2.211-2.521c2.617-.1,2.782,3.617,1.948,5.119s-1.553.99-1.948,1.113c-.612.389.635,2.724,2.707,4.027a9.047,9.047,0,0,0,6.72.938,3.88,3.88,0,0,0,1.619-1.272c.036.007.072.015.109.02a2.28,2.28,0,0,0,2.545-1.978,2.269,2.269,0,0,0-.338-1.5,3.236,3.236,0,0,0,2.272-2.693,3.213,3.213,0,0,0-.386-1.976,1.469,1.469,0,0,0,.643-1.039,1.471,1.471,0,0,0-.507-1.3,3.908,3.908,0,0,0,1.017-2.178A3.933,3.933,0,0,0-7.545-1041.806Z" fill="#cc423b"/>
        <path id="Trazado_102604" data-name="Trazado 102604" d="M-7.925-1026.21c-.969.018-1.183-1.055-1.562-.676a7.029,7.029,0,0,1-1.969,1.263,10.512,10.512,0,0,1-5.294.043c-2.6-1.269-2.633-2.291-2.633-2.291,1.684-.792,1.352-2.271,1.243-3.559a4.215,4.215,0,0,1-.445,1.854c-.835,1.5-1.553.99-1.948,1.113-.612.389.635,2.724,2.707,4.027a9.047,9.047,0,0,0,6.72.938,3.88,3.88,0,0,0,1.619-1.272c.036.007.072.015.109.02a2.28,2.28,0,0,0,2.545-1.978,2.288,2.288,0,0,0,0-.51A1.028,1.028,0,0,1-7.925-1026.21Z" fill="#b13632"/>
        <path id="Trazado_102605" data-name="Trazado 102605" d="M-93.534-1029.456a1.583,1.583,0,0,0-2.516.4c-.74,1.135.838,5.23,3.108,3.947Z" fill="#f7b890"/>
        <path id="Trazado_102606" data-name="Trazado 102606" d="M-76.092-1029.456a1.583,1.583,0,0,1,2.516.4c.74,1.135-.839,5.23-3.108,3.947Z" fill="#f7b890"/>
        <ellipse id="Elipse_4471" data-name="Elipse 4471" cx="9.541" cy="10.363" rx="9.541" ry="10.363" transform="translate(-94.354 -1038.456)" fill="#473584"/>
        <path id="Trazado_102607" data-name="Trazado 102607" d="M-75.273-1028.093a11.04,11.04,0,0,0-.988-4.592,7.335,7.335,0,0,1-1.48,6.216c-1.123,1.459-6.691,2.215-11.291.612a6.015,6.015,0,0,1-3.629-8.127,10.943,10.943,0,0,0-1.693,5.891c0,5.724,4.272,10.363,9.541,10.363S-75.273-1022.369-75.273-1028.093Z" fill="#382e6b"/>
        <ellipse id="Elipse_4472" data-name="Elipse 4472" cx="4.605" cy="6.095" rx="4.605" ry="6.095" transform="translate(-88.164 -1037.241) rotate(-64.249)" fill="#473584"/>
        <path id="Trazado_102608" data-name="Trazado 102608" d="M-169.955-971.334a65.127,65.127,0,0,1,2.491-12.729h29.444a65.2,65.2,0,0,1,2.492,12.729Z" fill="#2b3e4a"/>
        <path id="Trazado_102609" data-name="Trazado 102609" d="M-103.911-983.245H-133.85l-.668,11.912h31.274Z" fill="#2366af"/>
        <path id="Trazado_102610" data-name="Trazado 102610" d="M-126.656-1037.476a1.582,1.582,0,0,0-2.516.394c-.74,1.135.839,5.23,3.108,3.947Z" fill="#f7b890"/>
        <path id="Trazado_102611" data-name="Trazado 102611" d="M-109.889-1037.488a1.583,1.583,0,0,1,2.512.422c.727,1.143-.9,5.221-3.152,3.913Z" fill="#f7b890"/>
        <rect id="Rectángulo_6470" data-name="Rectángulo 6470" width="8.012" height="6.788" transform="translate(-122.886 -1027.894)" fill="#f7b890"/>
        <path id="Trazado_102612" data-name="Trazado 102612" d="M-122.886-1027.031v1.356s.843,1.175,4.006,1.175,4.006-.871,4.006-.871v-2.523h-8.012Z" fill="#f2ae86"/>
        <path id="Trazado_102613" data-name="Trazado 102613" d="M-58.126-1036.051a1.583,1.583,0,0,0-2.516.394c-.741,1.135.838,5.23,3.108,3.947Z" fill="#b4654e"/>
        <path id="Trazado_102614" data-name="Trazado 102614" d="M-168.534-1018.04a14.844,14.844,0,0,0-5.892-2.016c-2.969-.195-3.315-.042-4.546-.382s-1.97-1-1.1-4.062a6.131,6.131,0,0,0,4.379-.407c3.068-1.787,2.92-7.705,2.92-12.579s-9.181-9.192-13.815-5.572a10.841,10.841,0,0,0-3.548,12.309c1.3,2.823,1.955,3.211,2.245,4.719s.056,3.683-.958,4.476-6.194-.506-8.672,2.389c-2.52,2.945-11.078,17.45-12.671,20.274s-2.534,3.765-1.158,6.806,9.05,13.177,9.05,13.177l3.331-4.337-5.358-11.809,7.819-10.861,24.793,2.949.128-3.612a66.165,66.165,0,0,0,9.974-2.466Z" fill="#db9160"/>
        <path id="Trazado_102615" data-name="Trazado 102615" d="M-163.387-1011.348c-.793.264-5.687-3.828-6.043-2.919a4.868,4.868,0,0,0,1.329,4.689,22.573,22.573,0,0,1-5.187.848c-1.658-.322-3.859-3.367-4.005-7.161l-3.452,8.677.942,3.286,8.086.962.128-3.612a66.165,66.165,0,0,0,9.974-2.466Z" fill="#cf8456"/>
        <path id="Trazado_102616" data-name="Trazado 102616" d="M-187.781-1024.894a1.234,1.234,0,0,0,.063.32,2.1,2.1,0,0,0,1.355,1.362,6.28,6.28,0,0,0,1.906.25,6.808,6.808,0,0,0,4.383-1.538,6.05,6.05,0,0,0,4.379-.407c-1.461-.325-3.373-1.408-3.453-2.633s-8.633,2.643-8.633,2.643Z" fill="#c57a4c"/>
        <path id="Trazado_102617" data-name="Trazado 102617" d="M-196.4-1010.722s-10.209,13.946-10.683,14.731,7.739,11.928,7.739,11.928l-4.987-10.991,7.819-10.861,4.069.484.8-2.478Z" fill="#cf8456"/>
        <path id="Trazado_102618" data-name="Trazado 102618" d="M-193.084-1021.106c-1.977,3.824-3.932,9.544-3.426,15.191s2.476,10.861,1.673,13.9-8.7,12.179-12.244,20.679H-172.4s.724-8.37.8-18.29-.176-15.011-.176-15.011-3.6.5-4.8-4.452c-1.361-5.641-.741-9.557.779-11.012l-2.788-.278c-.884,1.08-2.046,3.5-3.694,5.336-1.892,2.109-7.567,1.92-8.624-.055-.772-1.443-.084-4.879.556-6.154A8.248,8.248,0,0,0-193.084-1021.106Z" fill="#e44c56"/>
        <path id="Trazado_102619" data-name="Trazado 102619" d="M-171.626-998.743c-2.233.467-12.223,2.547-12.636,2.424-.391-.116-8.3-.8-10.8-1.01a21.747,21.747,0,0,1,.41,3.531l0,.008s12.18,3.32,15.5,3.519,4.913-.929,7.558-3.519C-171.592-995.686-171.607-997.34-171.626-998.743Z" fill="#c73e4c"/>
        <path id="Trazado_102620" data-name="Trazado 102620" d="M-161.615-1009.044c-2.127.494-3.844,1.178-9.974,2.466-3.512,3.379-7.475,7.1-8.159,7.367-1.271.493-14.636.217-15.75-.387l-.457-2.374s-1.233.785-1.011,3.735,1.491,3.172,1.491,3.172,14.2,3,17.325,2.135S-161.3-1005.3-161.3-1005.3Z" fill="#f7b890"/>
        <path id="Trazado_102621" data-name="Trazado 102621" d="M-161.552-1008.291l-2.684-.055s-4.1,4.825-6.316,6.98-6.476,6.874-8.6,7.214-14.637-.571-14.643-.572c3.853.761,13.177,2.478,15.641,1.794,3.13-.868,16.847-12.372,16.847-12.372Z" fill="#f2ae86"/>
        <path id="Trazado_102622" data-name="Trazado 102622" d="M-41.314-1036.063a1.583,1.583,0,0,1,2.512.422c.728,1.143-.9,5.221-3.151,3.913Z" fill="#b4654e"/>
        <rect id="Rectángulo_6471" data-name="Rectángulo 6471" width="8.012" height="6.788" transform="translate(-53.852 -1026.469)" fill="#b4654e"/>
        <path id="Trazado_102623" data-name="Trazado 102623" d="M-53.852-1026.469v1.969a10.563,10.563,0,0,0,4.453.724,5.756,5.756,0,0,0,3.559-1.092v-1.6Z" fill="#a65c48"/>
        <path id="Trazado_102624" data-name="Trazado 102624" d="M-164.236-1008.346a92.783,92.783,0,0,0,.581,9.6c.663,4.2-2.89,9.031-4.19,14.672,0,0,5.281,2.971,15.1,2.971s15.1-2.971,15.1-2.971c-1.3-5.641-4.853-10.477-4.19-14.672.466-2.947.795-7.3.888-9.569Z" fill="#ffd049"/>
        <path id="Trazado_102625" data-name="Trazado 102625" d="M-141.832-996.556a7.642,7.642,0,0,1,0-2.189c.3-1.886.54-4.345.7-6.469-.283-1.481-.5-2.606-.5-2.606l-.55-.5-22.058-.03c.016.382.029.828.043,1.313h0a7.023,7.023,0,0,1,4.22,5.271c.542,2.76,2.168,7.091,8.5,7.853A14.818,14.818,0,0,0-141.832-996.556Z" fill="#e99939"/>
        <path id="Trazado_102626" data-name="Trazado 102626" d="M-102.356-978.291s-3.783,2-16.525,2-16.526-2-16.526-2,.04-.925.124-2.541c.143-2.854.421-7.875.824-13.778.007-.1.014-.207.024-.31.03-.471.063-.945.1-1.426.01-.16.023-.32.033-.48.287-3.98.822-7.525.872-11.444.033-.237.066-.471.1-.7s.066-.464.1-.694c.1-.7.2-1.379.3-2.05.054-.347.111-.694.164-1.035.878-5.535,1.8-9.835,2.257-10.075.834-.448,7.621-.948,7.621-.948s1.116,1.352,4.007,1.352,4.006-1.352,4.006-1.352,6.79.5,7.625.948,2.443,11.7,3.278,21.99S-102.356-978.291-102.356-978.291Z" fill="#d5edf6"/>
        <path id="Trazado_102627" data-name="Trazado 102627" d="M-106.463-1012.877c-1.726.626-.738,7.58-.738,7.58l2.8-.255c-.262-2.613-.559-5.173-.865-7.489A4.266,4.266,0,0,0-106.463-1012.877Z" fill="#78bcea" opacity="0.37"/>
        <path id="Trazado_102628" data-name="Trazado 102628" d="M-103.912-996.185s-11.708,4.917-14.161,5.935-10.52-2.1-12.112-2.657c-.575-.2-2.731-.921-5.1,12.075.143-2.854.421-7.875.824-13.778.007-.1.014-.207.024-.31.03-.471.063-.945.1-1.426.01-.16.023-.32.033-.48.287-3.98.822-7.525.872-11.444.033-.237.066-.471.1-.7s.066-.464.1-.694c.1-.7.2-1.379.3-2.05.057-.347.111-.694.164-1.035,1.746.624,2.26,1.606,2.521,3.325.38,2.514.31,10.306.31,10.306l11.788,4.911Z" fill="#78bcea" opacity="0.37"/>
        <path id="Trazado_102629" data-name="Trazado 102629" d="M-136.19-1009.044s15,9.421,16.3,9.824,14.825-1.219,15.895-1.9l-.179-2.07s2.016.547,2,3.506-1.739,3.5-1.739,3.5-13.951,3.989-17.133,3.341-19.335-9.987-19.335-9.987Z" fill="#f7b890"/>
        <path id="Trazado_102630" data-name="Trazado 102630" d="M-104.174-1003.19l.179,2.07c-1.07.681-14.594,2.3-15.895,1.9a35.9,35.9,0,0,1-3.571-1.987l-1.936-.126a29.213,29.213,0,0,0,9.105,5.014c4.613,1.421,4.814.615,6.819-.336a44.476,44.476,0,0,0,7.138-4.373A2.928,2.928,0,0,0-104.174-1003.19Z" fill="#eaa47a"/>
        <path id="Trazado_102631" data-name="Trazado 102631" d="M-120.511-994.788c-1.338-.65-15.272-8.523-18.206-10.509l-1.664,2.467s16.152,9.339,19.335,9.987,17.133-3.341,17.133-3.341S-119-994.056-120.511-994.788Z" fill="#f2ae86"/>
        <path id="Trazado_102632" data-name="Trazado 102632" d="M-151.027-1045.779c-2.771,0-6.725.24-7.926,4.744-2.26.018-4.607,1.345-4.273,4.573.428,4.133-.129,5.111-1.852,6.553a6.088,6.088,0,0,0-2.29,6.133c.325,1.911-.492,4.064-1.615,6.871a6.058,6.058,0,0,0,3.3,8c3.509,1.333,5.545,2.1,6.6,5.123s3.736,7.462,11.073,7.126c8.763-.4,13.186-9.321,11.667-14.214-1.263-4.071-1.4-5.685-.558-8.839.784-2.926.387-5.88-3.3-8.186-2.773-1.733-2.534-5.979-2.893-8.638C-143.7-1040.975-145.863-1045.779-151.027-1045.779Z" fill="#9b532b"/>
        <path id="Trazado_102633" data-name="Trazado 102633" d="M-167.845-1019.024l-.689.984c2.5,1.465,10.018,7.488,12.331,8.245s13.783,1.671,20.1,1.975a7.965,7.965,0,0,0-.247-3.049,21.56,21.56,0,0,1-1.062-4.672l-13.74-.743Z" fill="#824827"/>
        <path id="Trazado_102634" data-name="Trazado 102634" d="M-75.862-1024.057c-2.732.264-9.913.6-14.66-.242s-10.386-2.028-13.551-.94a27.727,27.727,0,0,0-4.792,2.063l1.6.336s21.437,7.344,22.454,7.443,9.238-.692,9.238-.692Z" fill="#b4654e"/>
        <path id="Trazado_102635" data-name="Trazado 102635" d="M-84.813-1015.4c.919.089,7.719-.548,9.022-.672l-2.639-5.139c-2.525.846-5.6,2.227-6.84,2.184s-14.669-4.61-17.473-4.753a26.862,26.862,0,0,0-6.122.6l1.6.336S-85.83-1015.5-84.813-1015.4Z" fill="#a65c48"/>
        <path id="Trazado_102636" data-name="Trazado 102636" d="M-35.92-1022.552c-3.664-.137-7.71-1.6-9.92-.779,0,0-.541,1.224-3.768,1.391a7.882,7.882,0,0,1-4.244-.923s-3.647-1.06-6.532-1.756c-2.608-.629-4.031-.5-7.094-.249-3,.245-10.53.969-10.53.969s-1.924,7.272,1.937,10.861c0,0,3.9.539,5.987,1,2.723.6,3.427,1.352,3.427,2.118,0,1.79,0,20.305.58,29.319,0,0,4.648,2.637,17.516,2.381s15.083-2.215,15.083-2.215-1.966-26.418-1.98-27.817a1.768,1.768,0,0,1,.22-.979" fill="#ffe595"/>
        <path id="Trazado_102637" data-name="Trazado 102637" d="M-63.425-990.248c1.944-1.551,25.955,6.6,27.218,5.438a15.715,15.715,0,0,0,2.157-3.371c-.083-1.118-.169-2.3-.258-3.513-2.008.353-4.815.955-4.815.955l1.074-8.63s-22.363-.022-23.9-1.539-1.861-9.856-2.055-11.769-3.986-3.142-8.01-3.956l-2.1-3.9L-78.3-1017.5a7.759,7.759,0,0,0,2.226,4.462s3.9.539,5.987,1c2.723.6,3.427,1.352,3.427,2.118,0,1.79,0,20.305.58,29.319C-66.077-980.6-65.369-988.7-63.425-990.248Z" fill="#face86"/>
        <path id="Trazado_102638" data-name="Trazado 102638" d="M-69.742-1024.672l-8.688,3.464h0a15.04,15.04,0,0,0,.122,3.647c1.712.119,3.895.256,3.895.256l4.007-3.9.664-3.471Z" fill="#face86"/>
        <path id="Trazado_102639" data-name="Trazado 102639" d="M-145-1020.675l-8.571,1.945s-8.9-2.752-12.67-3.258-8.182,1.932-8.182,1.932a21.062,21.062,0,0,1,5.892,2.016c1.928,1.265,11.7,6.623,14.888,6.768s11.44,0,11.44,0Z" fill="#f7b890"/>
        <path id="Trazado_102640" data-name="Trazado 102640" d="M-153.646-1011.272c3.186.144,11.44,0,11.44,0l-2.8-9.4a11.786,11.786,0,0,0-3.556,6.95,25.42,25.42,0,0,1-5.106.3c-2.1-.188-13.288-5.574-15.771-5.994s-4.99-.64-4.99-.64a21.062,21.062,0,0,1,5.892,2.016C-166.606-1016.775-156.832-1011.417-153.646-1011.272Z" fill="#f2ae86"/>
        <path id="Trazado_102641" data-name="Trazado 102641" d="M-99.8-1005.638s-.016,3.126,2.744,7.88c1.433,2.47.985,4.724,0,9.047s-4.131,17.377-4.131,17.377h34.53s-1.924-8.987-5.845-15.456c-3.338-5.506-6.317-8.331-5.844-10.589.967-4.621,4.261-15.08,2.771-16.329l-24.225,1.4Z" fill="#8eb341"/>
        <path id="Trazado_102642" data-name="Trazado 102642" d="M-97.056-1004.539a8.7,8.7,0,0,0,1.472-2.675s10.811.511,12.469.506c1.252,0,5.805-3.431,7.914-5.249.029-.873-.074-1.5-.374-1.751l-24.225,1.4v6.673a10.58,10.58,0,0,0,.414,2.448A3.921,3.921,0,0,0-97.056-1004.539Z" fill="#789e39"/>
        <path id="Trazado_102643" data-name="Trazado 102643" d="M-26.856-1002.152s-5.659,10.078-9.009,14.486a1.883,1.883,0,0,1-1.771.884c-2.272-.045-23.979-6.347-26.521-7.505-2.811-1.28-3.877-2.334-4.29-5.563s1.8-6.678,1.8-6.678l.025,4.341s4.916,2.113,7.351,2.781,16.956,3.394,16.956,3.394l6.176-9.9Z" fill="#f7b890"/>
        <path id="Trazado_102644" data-name="Trazado 102644" d="M-29.652-1003.285l-6.491-2.631-3.145,5.043a10.5,10.5,0,0,0,2.239,4.236,11.062,11.062,0,0,0,2.55,2.243,38.311,38.311,0,0,1-3.126,4.5c-.659.494-21.383-5.226-21.383-5.226l13.625-1.472c-4.161-.791-12.052-2.309-13.892-2.814-2.435-.668-7.351-2.781-7.351-2.781l-.025-4.341s-2.208,3.45-1.8,6.678,1.479,4.283,4.29,5.563c2.542,1.158,24.249,7.46,26.521,7.505a1.883,1.883,0,0,0,1.771-.884c2.611-3.436,6.625-10.316,8.268-13.183Z" fill="#f2ae86"/>
        <path id="Trazado_102645" data-name="Trazado 102645" d="M-75.575-1013.708c1.635-.25,3.366,2.3,5.972,4.505,2.352,1.991,8.4,6.25,9.281,6.292l21.826.769-3.079,4.937c-2.968.55-19.495,1.416-20.663,1.082-2.217-.633-14.3-8.479-14.3-8.479A34.327,34.327,0,0,0-75.575-1013.708Z" fill="#fdd1b5"/>
        <path id="Trazado_102646" data-name="Trazado 102646" d="M-24.43-1005.777c-1.613,4.073-6.036,10.99-6.036,10.99-6.29-1.034-9.178-6.69-9.178-6.69s1.152-2.24,2.865-5.224l0-.007c.454-.8.952-1.646,1.479-2.521.377-.607,1.362-.864,3.272-.8a35.988,35.988,0,0,0,6.046-.481,15.938,15.938,0,0,0,.527-3.809,20.615,20.615,0,0,1-6.206,1.275,8.914,8.914,0,0,0-1.349.157c.224-.34.448-.678.675-1.011,2.587-3.826,4.914-4.945,6.887-4.674C-23.229-1015.905-23.339-1008.534-24.43-1005.777Z" fill="#3ea57c"/>
        <path id="Trazado_102647" data-name="Trazado 102647" d="M-97.056-1012.636c-1.878-.319-5.129,1.226-7.736,3.433-2.351,1.991-8.983,6.264-9.86,6.306-1.2.057-13.819-1.351-13.819-1.351s3.725,4.432,8.478,5.955c3.756,1.2,6.106,1.7,8.388,1.363s12.811-7.679,12.811-7.679C-97.056-1005.684-95.936-1010.817-97.056-1012.636Z" fill="#fdd1b5"/>
        <path id="Trazado_102648" data-name="Trazado 102648" d="M-99.362-1007.82c.479.711-6.423,5.221-8.451,6.733s-3.849,2.49-6.09,2.344a32.859,32.859,0,0,1-14.318-5.223h0c.906,1,4.2,4.381,8.228,5.673,3.756,1.2,6.106,1.7,8.388,1.363s12.811-7.679,12.811-7.679c1.738-1.075,2.858-6.208,1.738-8.027-1.878-.319-5.129,1.226-7.736,3.433C-104.792-1009.2-99.842-1008.531-99.362-1007.82Z" fill="#fcc6a5"/>
        <path id="Trazado_102649" data-name="Trazado 102649" d="M-93.395-1019.375l8.372,2.943s10.549-5.995,14.1-7.344c5.777-4.931,10.539-.843,10.539-.843s-2.288.119-8.114,4.938c-1.777,1.47-12.239,11.1-15.424,10.949s-13.134-1.542-13.134-1.542Z" fill="#f7b890"/>
        <path id="Trazado_102650" data-name="Trazado 102650" d="M-83.922-1008.732c3.185.153,13.647-9.479,15.424-10.949,5.826-4.819,8.114-4.938,8.114-4.938-2.035-1.155-5.25.354-8.692,3.171s-13.289,10.232-14.49,10.24-7.065-.814-7.065-.814c-.7-6.272-2.764-7.353-2.764-7.353l-3.661,9.1S-87.107-1008.885-83.922-1008.732Z" fill="#f2ae86"/>
        <path id="Trazado_102651" data-name="Trazado 102651" d="M-107.267-1022.84a16.973,16.973,0,0,1,6.278.975c4.226,1.321,7.594,2.49,7.594,2.49s3.082,3.795.715,10.643c0,0-3.562-.279-7.408-.717-3.479-.4-3.466-.715-4.7.246,0,0-1.847-.788-2.682-5.713C-108.344-1020.048-107.267-1022.84-107.267-1022.84Z" fill="#0097be"/>
        <path id="Trazado_102652" data-name="Trazado 102652" d="M-106.9-1012.513c.9,2.794,2.109,3.31,2.109,3.31,1.238-.961,1.225-.642,4.7-.246,3.846.438,7.408.717,7.408.717a16.645,16.645,0,0,0,.741-2.97c-4.53-.549-12.8-1.8-14.524-1.175A.93.93,0,0,0-106.9-1012.513Z" fill="#1e54a0" opacity="0.37"/>
        <path id="Trazado_102653" data-name="Trazado 102653" d="M-176.19-1033.625c.639.076,2.469-1.067,3.09-4.015,0,0,1.973-5-2.867-7.224s-9.644-1.764-12.884,1.168c-3.857,3.492-4.3,8.721-3.2,12.519.967,3.336,1.853,5.176,4.594,6.412a9.048,9.048,0,0,0,6.721-.937c2.072-1.3,3.319-3.638,2.707-4.028-.4-.123-1.113.39-1.948-1.113s-.67-5.177,1.948-5.119C-176.146-1035.92-176.829-1033.7-176.19-1033.625Z" fill="#4b2229"/>
        <path id="Trazado_102654" data-name="Trazado 102654" d="M-185.3-1044.906s-.749-7.279-7.833-8.4c-7.2-1.141-10.98,1.929-12.463,5.846-1.547,4.085,1.446,8.9-2.17,11.462s-7.345,3.673-7.623,7.623,2.5,4.773,2.838,6.949-1.6,4.457,1.117,7.24,10.512,3.183,14.685-2.912c3.575-5.222,2.281-10.5,2.392-16.118s.624-8.778,3.116-10.514c2.156-1.5,4.618.332,4.618.332Z" fill="#4b2229"/>
        <path id="Trazado_102655" data-name="Trazado 102655" d="M-122.906-1044.285a2.965,2.965,0,0,0-3.158.691c-1.48,1.43-1.924,4.884-.888,8.88s1.993,8.2,8.19,8.684c5.671.443,8.245-4.219,8.942-8.277.507-2.95.681-4.454.681-4.454a4.579,4.579,0,0,0,2.249-1.861c1.022-1.731-.542-1.305-2.17-1.5a6.656,6.656,0,0,0,2.588-2.587c1.057-2.4.061-2.906-1.962-2.462s-4.16-.122-7.071-.96S-122.807-1048.331-122.906-1044.285Z" fill="#1a1d58"/>
        <path id="Trazado_102656" data-name="Trazado 102656" d="M-123.858-1023.7s.764,2.252,4.978,2.252,4.977-2.251,4.977-2.252h-.008l-.963-.076s-1.113,1.349-4.006,1.349-4.006-1.349-4.006-1.349l-.968.076Z" fill="#0097be"/>
        <path id="Trazado_102657" data-name="Trazado 102657" d="M-130.509-1022.831a19.139,19.139,0,0,0-6.7.385c-4.331.921-7.794,1.771-7.794,1.771s-3.421,3.491-1.7,10.53c0,0,3.414.132,7.283.228,3.663.09,5.407.533,5.995,1.645,0,0,1.751-1.539,2.7-6.658S-130.509-1022.831-130.509-1022.831Z" fill="#0097be"/>
        <path id="Trazado_102658" data-name="Trazado 102658" d="M-136.494-1009.715c1.722.237,2.664.684,3.065,1.443a8.9,8.9,0,0,0,1.981-3.771c-.827-.689-2.211-1.089-4.608-1.379a98.159,98.159,0,0,0-11.131-.286c0,.238.017.484.034.735l.012.166c.02.257.046.518.081.787v.006c.034.261.078.531.128.8.012.068.025.137.038.207.055.28.114.565.186.858,0,0,3.414.132,7.283.228.789.019,1.483.056,2.1.111C-137.03-1009.78-136.751-1009.75-136.494-1009.715Z" fill="#1e54a0" opacity="0.37"/>
        <path id="Trazado_102659" data-name="Trazado 102659" d="M-45.092-1043.868a2.965,2.965,0,0,1,3.158.691c1.48,1.431,1.924,4.884.888,8.881s-2.415,9.156-8.631,9.156c-6.5,0-7.8-4.692-8.5-8.75-.507-2.95-.68-4.454-.68-4.454a4.581,4.581,0,0,1-2.25-1.86c-1.022-1.732.542-1.305,2.17-1.5a6.657,6.657,0,0,1-2.587-2.587c-1.058-2.4-.062-2.906,1.961-2.462s4.161-.121,7.072-.96S-45.19-1047.914-45.092-1043.868Z" fill="#311f23"/>
        <path id="Trazado_102660" data-name="Trazado 102660" d="M-27.792-1022.5c4.382-.172,16.746-3.032,18.42-2.251s3.2,2.648,1.064,5.376-15.1,7.659-18.381,7.673Z" fill="#b4654e"/>
        <path id="Trazado_102661" data-name="Trazado 102661" d="M-8.308-1019.375c1.5-1.912,1.194-3.4.3-4.388.319,1.106.691,2.387-2.969,4.171s-13.119,4.2-13.119,4.2c-1.194-5.249-3.7-7.111-3.7-7.111l1.1,10.8C-23.41-1011.716-10.444-1016.647-8.308-1019.375Z" fill="#a65c48"/>
        <path id="Trazado_102662" data-name="Trazado 102662" d="M-35.256-1009.289c.379-.609,1.322-.8,3.231-.744a36.173,36.173,0,0,0,6.046-.482s2.022-6.751-1.813-11.985c0,0-4.464.085-8.128-.052C-35.92-1022.552-41.153-1014.215-35.256-1009.289Z" fill="#ffe595"/>
        <path id="Trazado_102663" data-name="Trazado 102663" d="M-31.658-1013.048a8.914,8.914,0,0,0-1.349.157c-3.512.715-2.787,3.552-3.769,6.183.454-.8.952-1.646,1.479-2.521.377-.607,1.362-.864,3.272-.8a35.988,35.988,0,0,0,6.046-.481,15.938,15.938,0,0,0,.527-3.809A20.615,20.615,0,0,1-31.658-1013.048Z" fill="#face86"/>
        <path id="Trazado_102664" data-name="Trazado 102664" d="M-61.953-998.161c-.866-.443-11.974-6.832-12.161-7.136s-.446-.9-.382-3.747a9,9,0,0,0-1.079-4.664,34.327,34.327,0,0,1-.963,9.106s12.083,7.846,14.3,8.479c1.168.334,17.695-.532,20.663-1.082l.923-1.479C-44.9-998.491-61.2-997.777-61.953-998.161Z" fill="#fcc6a5"/>
        <path id="Trazado_102665" data-name="Trazado 102665" d="M-77.15-1034.265c-.009,0-4.017,1.741-8.028-2.24,0,0,.915,3.23,5.457,3.768,1.7.2,3.279-.335,3.162-.554A10.382,10.382,0,0,0-77.15-1034.265Z" fill="#382e6b"/>
        <path id="Trazado_102666" data-name="Trazado 102666" d="M-36.264-997.466a12.2,12.2,0,0,0,5.8,2.679s4.423-6.917,6.036-10.99a11.944,11.944,0,0,0,.631-2.955c-5.221,10.948-12.465,11.266-12.465,11.266Z" fill="#358963"/>
        <path id="Trazado_102667" data-name="Trazado 102667" d="M.477-1007.751a43.6,43.6,0,0,1-.439,5.684l3.146,4.453a13.093,13.093,0,0,0,3.794-1.02Z" fill="#358963"/>
      </g>
      <g id="Grupo_57320" data-name="Grupo 57320" transform="translate(210 46.854)">
        <path id="Trazado_102594-2" data-name="Trazado 102594" d="M-206.929-1114.472l-3.47,3.943s-.315-12.223,0-12.065,8.675,8.2,8.675,8.2Z" fill="#2c2c2c"/>
        <rect id="Rectángulo_6469-2" data-name="Rectángulo 6469" width="2.243" height="8.581" transform="translate(-208.325 -1115.039) rotate(-25.73)" fill="#2c2c2c"/>
      </g>
    </g>
    <rect id="Rectángulo_6472" data-name="Rectángulo 6472" width="295" height="156" transform="translate(285 910)" fill="none"/>
  </g>
</svg>
