<svg xmlns="http://www.w3.org/2000/svg" xmlns:xlink="http://www.w3.org/1999/xlink" width="505" height="226" viewBox="0 0 505 226">
  <defs>
    <linearGradient id="linear-gradient" x1="0.5" x2="0.5" y2="1" gradientUnits="objectBoundingBox">
      <stop offset="0" stop-color="#f2d6e3"/>
      <stop offset="1" stop-color="#fff"/>
    </linearGradient>
  </defs>
  <g id="Grupo_57757" data-name="Grupo 57757" transform="translate(-810 -691)">
    <rect id="Rectángulo_5392" data-name="Rectángulo 5392" width="505" height="226" transform="translate(810 691)" fill="url(#linear-gradient)"/>
    <path id="Trazado_120839" data-name="Trazado 120839" d="M118.608,17.221a1.408,1.408,0,0,0-.532-1.172,6.615,6.615,0,0,0-1.87-.869,17.941,17.941,0,0,1-2.187-.869q-2.764-1.357-2.764-3.73a3.345,3.345,0,0,1,.688-2.085,4.453,4.453,0,0,1,1.948-1.406,7.582,7.582,0,0,1,2.832-.5,6.632,6.632,0,0,1,2.749.547,4.352,4.352,0,0,1,1.89,1.558,4.068,4.068,0,0,1,.674,2.31h-3.418a1.719,1.719,0,0,0-.532-1.348,2.075,2.075,0,0,0-1.44-.479,2.339,2.339,0,0,0-1.45.405,1.193,1.193,0,0,0,.054,2.021,7.389,7.389,0,0,0,2.061.918,12.623,12.623,0,0,1,2.422,1.021,4.07,4.07,0,0,1,2.3,3.662,3.472,3.472,0,0,1-1.406,2.93,6.255,6.255,0,0,1-3.857,1.064,7.653,7.653,0,0,1-3.13-.62,4.719,4.719,0,0,1-2.109-1.7,4.427,4.427,0,0,1-.708-2.485h3.438a2.181,2.181,0,0,0,.591,1.685,2.793,2.793,0,0,0,1.919.542,2.206,2.206,0,0,0,1.343-.366A1.209,1.209,0,0,0,118.608,17.221Zm4.619-1.6a6.236,6.236,0,0,1,.615-2.817,4.4,4.4,0,0,1,1.768-1.9,5.323,5.323,0,0,1,2.705-.664,4.858,4.858,0,0,1,3.74,1.47,5.64,5.64,0,0,1,1.367,4v.117a5.472,5.472,0,0,1-1.372,3.921,4.871,4.871,0,0,1-3.716,1.45,4.927,4.927,0,0,1-3.623-1.353,5.29,5.29,0,0,1-1.475-3.667Zm3.291.205a3.932,3.932,0,0,0,.459,2.148,1.529,1.529,0,0,0,1.357.684q1.758,0,1.8-2.705v-.332q0-2.842-1.816-2.842-1.65,0-1.787,2.451ZM135.6,21V12.719h-1.533V10.434H135.6v-.84a3.651,3.651,0,0,1,1.064-2.8,4.206,4.206,0,0,1,2.988-1A6.544,6.544,0,0,1,141.2,6l.01,2.422a3.007,3.007,0,0,0-.811-.088q-1.494,0-1.494,1.289v.811h2.061v2.285H138.9V21Zm15.645-4.336,1.064-6.23h3.154L152.974,21H150.19l-1.748-6.27L146.685,21H143.9l-2.49-10.566h3.154l1.045,6.377,1.68-6.377h2.295ZM162.593,21a3.716,3.716,0,0,1-.312-.947,3.06,3.06,0,0,1-2.539,1.143,3.749,3.749,0,0,1-2.539-.9,2.875,2.875,0,0,1-1.045-2.271,2.955,2.955,0,0,1,1.27-2.6,6.468,6.468,0,0,1,3.691-.879h1.016v-.559q0-1.462-1.26-1.462a1.03,1.03,0,0,0-1.172,1.158h-3.291a2.95,2.95,0,0,1,1.3-2.487,5.479,5.479,0,0,1,3.325-.956,4.8,4.8,0,0,1,3.193.986,3.429,3.429,0,0,1,1.2,2.705v4.678a4.79,4.79,0,0,0,.449,2.227V21Zm-2.061-2.148a1.836,1.836,0,0,0,1.021-.264,1.653,1.653,0,0,0,.581-.6V16.3h-.957q-1.719,0-1.719,1.543a.942.942,0,0,0,.3.728A1.1,1.1,0,0,0,160.532,18.852Zm13.115-5.439-1.084-.078a1.947,1.947,0,0,0-1.992.977V21H167.28V10.434h3.086l.107,1.357a2.548,2.548,0,0,1,2.314-1.553,3.209,3.209,0,0,1,.918.117Zm6.3,7.783a5.432,5.432,0,0,1-3.936-1.45,5.008,5.008,0,0,1-1.5-3.774V15.7a6.489,6.489,0,0,1,.6-2.861,4.395,4.395,0,0,1,1.753-1.919,5.292,5.292,0,0,1,2.734-.679,4.574,4.574,0,0,1,3.516,1.382,5.43,5.43,0,0,1,1.289,3.853v1.279h-6.543a2.372,2.372,0,0,0,.771,1.4,2.3,2.3,0,0,0,1.543.508,2.958,2.958,0,0,0,2.441-1.094l1.5,1.777a4.2,4.2,0,0,1-1.743,1.353A5.891,5.891,0,0,1,179.946,21.2Zm-.371-8.418q-1.445,0-1.719,1.914h3.32v-.254a1.63,1.63,0,0,0-.4-1.226A1.593,1.593,0,0,0,179.575,12.777Z" transform="translate(915 853)" fill="#12263f"/>
    <g id="surface1" transform="translate(1008.854 735.854)">
      <path id="Trazado_100922" data-name="Trazado 100922" d="M102.453,17.6H80.47a1.572,1.572,0,1,0,0,3.143h21.984a1.7,1.7,0,0,1,1.7,1.7V82.965a1.7,1.7,0,0,1-1.7,1.7H4.839a1.7,1.7,0,0,1-1.7-1.7V22.442a1.7,1.7,0,0,1,1.7-1.7H39.37v3.143H7.858a1.571,1.571,0,0,0-1.572,1.572V66.989a1.572,1.572,0,0,0,3.143,0V27.033H39.37v8.431l-6.729,3.215a1.583,1.583,0,0,0-.894,1.419V65.729a1.572,1.572,0,0,0,.894,1.419l20.327,9.712a1.593,1.593,0,0,0,1.355,0L65.752,71.4A1.572,1.572,0,1,0,64.4,68.563l-9.178,4.385V50.8L72.4,42.59V64.738l-2.335,1.115a1.572,1.572,0,1,0,1.355,2.836l3.229-1.542a1.572,1.572,0,0,0,.894-1.419V40.1a1.581,1.581,0,0,0-.894-1.419l-6.729-3.215V27.033h29.94V78.374H9.43v-4.68a1.572,1.572,0,1,0-3.143,0v6.251a1.571,1.571,0,0,0,1.572,1.572H99.435a1.571,1.571,0,0,0,1.572-1.572V25.461a1.571,1.571,0,0,0-1.572-1.572H67.923V20.746h5.841a1.572,1.572,0,0,0,0-3.143H67.923V14.459H82.015a1.571,1.571,0,0,0,1.572-1.572V9.16a4.715,4.715,0,1,0-3.143,0v2.156H66.351a1.571,1.571,0,0,0-1.572,1.572V17.6H55.218V9.16a4.715,4.715,0,1,0-3.143,0V17.6H42.514V12.888a1.571,1.571,0,0,0-1.572-1.572H26.849V9.16a4.715,4.715,0,1,0-3.143,0v3.728a1.571,1.571,0,0,0,1.572,1.572H39.37V17.6H4.839A4.845,4.845,0,0,0,0,22.442V82.965A4.845,4.845,0,0,0,4.839,87.8H38.914a14.979,14.979,0,0,1-5.622,10.059H26.614a4.715,4.715,0,1,0,0,9.43H80.679a4.715,4.715,0,0,0,0-9.43H74.005A15.127,15.127,0,0,1,68.381,87.8h34.073a4.845,4.845,0,0,0,4.84-4.84V22.442A4.845,4.845,0,0,0,102.453,17.6ZM82.015,3.143a1.572,1.572,0,1,1-1.572,1.572A1.573,1.573,0,0,1,82.015,3.143Zm-28.369,0a1.572,1.572,0,1,1-1.572,1.572A1.573,1.573,0,0,1,53.646,3.143Zm-28.369,0a1.572,1.572,0,1,1-1.572,1.572A1.573,1.573,0,0,1,25.278,3.143ZM42.514,27.033h9.561v2.362l-9.561,4.568ZM70.328,40.1,53.646,48.066,36.965,40.1l16.681-7.97ZM34.891,42.59,52.075,50.8V72.948L34.891,64.738Zm29.888-8.627-9.561-4.568V27.033h9.561Zm0-13.217v3.143H55.218V20.746Zm-12.7,0v3.143H42.514V20.746Zm30.176,81.832a1.573,1.573,0,0,1-1.572,1.572H26.614a1.572,1.572,0,1,1,0-3.143H80.679A1.573,1.573,0,0,1,82.251,102.578ZM69.5,97.863H37.8A17.725,17.725,0,0,0,42.074,87.8H65.219A17.725,17.725,0,0,0,69.5,97.863Z" fill="#8f2b58"/>
    </g>
  </g>
</svg>
