<svg xmlns="http://www.w3.org/2000/svg" width="85" height="193" viewBox="0 0 85 193">
  <g id="Grupo_57649" data-name="Grupo 57649" transform="translate(-285 -699)">
    <ellipse id="Elipse_4484" data-name="Elipse 4484" cx="42.5" cy="7" rx="42.5" ry="7" transform="translate(285 878)" fill="#e8e8e8"/>
    <g id="Grupo_57648" data-name="Grupo 57648" transform="translate(-1370.038 -399.866)">
      <path id="Trazado_120730" data-name="Trazado 120730" d="M1672.081,1236s-15.209,21.5-14.627,24.641l5.7,1.443s8.9-17.1,11-15.709-1.276,4.575,2.474,11.533c.995,1.846,1.182,16.874,1.182,16.874l16.359-7.467S1683.867,1226.383,1672.081,1236Z" transform="translate(-1.002 -95.547)" fill="#eddad3"/>
      <path id="Trazado_120731" data-name="Trazado 120731" d="M1893.816,1378.628s2.229.991,3.286.541a9.871,9.871,0,0,1,3.207-.538c.689,0,2.846-.771,2.81.072s-3.5,1.431-4.213,1.694,2.122,1.821,2.385,2.514-2.933,5.236-4.735,3.942-2.779-3.879-3.146-4.043a13.1,13.1,0,0,1-1.353-.89Z" transform="translate(-166.234 -196.798)" fill="#eea886"/>
      <path id="Trazado_120732" data-name="Trazado 120732" d="M1911.872,1392.511s5.226,4.334,5.308,4.919-.193.858-.7.474-5.183-4.039-5.183-4.039,5.237,6.185,5.413,6.644c.1.269-.4.828-.691.647s-5.862-6-5.862-6,4.878,5.784,4.905,6.217a.567.567,0,0,1-.958.384c-.393-.4-5.249-5.507-5.249-5.507s3.264,4.441,3.063,4.832c-.123.24-.535.741-1.339-.433s-3.012-3.733-3.012-3.733Z" transform="translate(-177.157 -206.8)" fill="#eea886"/>
      <path id="Trazado_120733" data-name="Trazado 120733" d="M1770.013,1670.231s-.2,7.1.811,7.528,4.851-2.042,6.544-4.484-2.121-8.125-2.747-11.261c-.262-1.312-3.245-3.674-4.7-3a7.108,7.108,0,0,0-2.516,2.411S1771.107,1663.962,1770.013,1670.231Z" transform="translate(-78.449 -394.403)" fill="#3d6091"/>
      <g id="Grupo_57646" data-name="Grupo 57646" transform="translate(1688.958 1264.613)">
        <path id="Trazado_120734" data-name="Trazado 120734" d="M1767.407,1661.712a39.2,39.2,0,0,1,1.907,4.3c.647,1.88.768,7.087,1.176,7.449s3.624-1.261,4.053-3.208-.875-5.839-2.116-7.885a12.713,12.713,0,0,0-2.5-3.07A3.23,3.23,0,0,0,1767.407,1661.712Z" transform="translate(-1767.407 -1659.301)" fill="#de9673"/>
      </g>
      <path id="Trazado_120735" data-name="Trazado 120735" d="M1791.8,1669.437l3.456,5.043-.654.448-2.671-3.9Z" transform="translate(-95.627 -401.825)" fill="#3d6091"/>
      <path id="Trazado_120736" data-name="Trazado 120736" d="M1725.44,1513.164s1.969,10.454,1.969,12.953a23.008,23.008,0,0,0,2.272,9.62c1.591,3.03,8.572,23.731,9.177,26.143s1.125,4.689,1.125,4.689,3.485-1.591,3.485-3.863-3.03-21.059-3.56-24.771-4.924-22.726-4.924-22.726Z" transform="translate(-48.894 -291.77)" fill="#de9673"/>
      <path id="Trazado_120737" data-name="Trazado 120737" d="M1761.214,1509.776s-.682,8.712-.606,10.984,1.136,7.424,1.136,8.787,0,29.616-1.13,33.024,3.175,1.064,3.175,1.064,7.5-18.583,7.5-26.335-.909-11.616-.379-16.54,3.863-11.439,3.863-11.439Z" transform="translate(-73.532 -289.064)" fill="#eea886"/>
      <path id="Trazado_120738" data-name="Trazado 120738" d="M1746.809,1120.42s-6.97,7.02-4.6,16.06,6.188,9.091,10.391,5.2,6.679-7.979,7.234-12.525S1753.172,1114.158,1746.809,1120.42Z" transform="translate(-60.359 -13.808)" fill="#eea886"/>
      <path id="Trazado_120739" data-name="Trazado 120739" d="M1754.316,1196.8a41.208,41.208,0,0,0,1.757-5.027c.128-.469.246-.948.347-1.425a9.2,9.2,0,0,0,.118-4.457c-1.111-3.282,6.969-1.01,6.969-1.01s-1.566,8.686,0,11.615S1754.316,1196.8,1754.316,1196.8Z" transform="translate(-69.23 -60.035)" fill="#eea886"/>
      <path id="Trazado_120740" data-name="Trazado 120740" d="M1739.826,1369.081s5.019,7.387,6.079,13.978-.933,16.4-1.758,20c-.723,3.154-1.8,12.957-1.879,14.018,0,0-15.756,4.09-26.058.833,0,0-1.6-16.183-2.2-22.168s3.6-26.2,3.6-26.2Z" transform="translate(-40.8 -190.299)" fill="#3f446e"/>
      <path id="Trazado_120741" data-name="Trazado 120741" d="M1762.2,1267.626l-2.827,3.2s-16.893-13.711-17.651-15.529-6.48-12.053-6.708-13.113c0,0-1.1,2.834-2.006,5.593-.379,1.148-.87,3.235-1.093,4.147a26.814,26.814,0,0,0,.32,12.272s-13.686,5.1-22.221.455c0,0,2.1-14.366.741-19.164s-7.584-17.856-7.584-17.856a10.5,10.5,0,0,1,5.631-5.1c3.939-1.364,8.434-2.382,8.434-2.382h9.337s6.146,1.6,7.521,2.035c2.459.776,4.75,3.9,5.2,6.7s6.894,21.945,7.651,22.475S1762.2,1267.626,1762.2,1267.626Z" transform="translate(-33.211 -85.41)" fill="#eddad3"/>
      <path id="Trazado_120742" data-name="Trazado 120742" d="M1715.666,1334.56a68.695,68.695,0,0,0,7,0c.943-.235,7.232-2.963,7.609-5.656s-14.612,2.414-14.612,2.414Z" transform="translate(-42.01 -161.452)" fill="#eea886"/>
      <path id="Trazado_120743" data-name="Trazado 120743" d="M1739.044,1696.973s-4.684,5.463-4.157,6.445,5.123,1.483,8.011.637,3.506-7.75,5.01-10.619c.63-1.2-.215-4.961-1.791-5.354a7.2,7.2,0,0,0-3.517.3S1743.9,1692.733,1739.044,1696.973Z" transform="translate(-55.517 -414.872)" fill="#5d89c4"/>
      <g id="Grupo_57647" data-name="Grupo 57647" transform="translate(1682.023 1272.836)">
        <path id="Trazado_120744" data-name="Trazado 120744" d="M1749.016,1687.775a39.681,39.681,0,0,1-1.24,4.6c-.688,1.894-3.909,6.071-3.818,6.616s3.657,1.315,5.235.055,3.03-5.155,3.356-7.558a17.852,17.852,0,0,0,.153-3.953S1750.536,1686.418,1749.016,1687.775Z" transform="translate(-1743.957 -1687.104)" fill="#eea886"/>
      </g>
      <path id="Trazado_120745" data-name="Trazado 120745" d="M1775.936,1706.474l-.491,6.174-.8-.064.38-4.772Z" transform="translate(-83.545 -427.91)" fill="#5d89c4"/>
      <path id="Trazado_120746" data-name="Trazado 120746" d="M1675.437,1327.349a18.677,18.677,0,0,0,0,3.787s-15.168-1.515-16.582-3.636a9.145,9.145,0,0,1-1.364-4.7Z" transform="translate(-1.04 -157.708)" fill="#eddad3"/>
      <path id="Trazado_120747" data-name="Trazado 120747" d="M1749.165,1124.6s3.333,6.06,5.4,8.232,1.828,3.9,1.828,3.9,8.072-9.956,2.314-15.966-13.182-3.586-15.354,1.667-1.376,11.668-1.376,11.668S1742.044,1127.931,1749.165,1124.6Z" transform="translate(-60.442 -12.935)" fill="#163342"/>
      <path id="Trazado_120748" data-name="Trazado 120748" d="M1773.98,1105.317s-.806-4.436,6.152-6.2,10.083,6.252,9.226,11.142-6.806,17.292-3.579,18.906,4.487-1.865,4.487-1.865-1.008,6.1-5.495,4.688-3.882-11.325-3.206-15.276S1773.98,1105.317,1773.98,1105.317Z" transform="translate(-83.058 0)" fill="#163342"/>
      <path id="Trazado_120749" data-name="Trazado 120749" d="M1750.73,1213.914a10.788,10.788,0,0,0,.572-2.3s8.786-.545,11.042-.208c0,0,.178,2.487.157,3.048S1752.312,1216.717,1750.73,1213.914Z" transform="translate(-66.704 -79.18)" fill="#eddad3"/>
      <path id="Trazado_120750" data-name="Trazado 120750" d="M1766.578,1193.976a8.494,8.494,0,0,1-6.319,4.741c.127-.469.246-.948.347-1.425C1760.606,1197.292,1763.09,1197.793,1766.578,1193.976Z" transform="translate(-73.415 -66.981)" fill="#a77860"/>
      <path id="Trazado_120751" data-name="Trazado 120751" d="M1805.252,1274.83s-1.1,2.834-2.007,5.593a48.583,48.583,0,0,1,.321-13.916A29.106,29.106,0,0,0,1805.252,1274.83Z" transform="translate(-103.447 -118.061)" fill="#cfbeb8"/>
      <path id="Trazado_120752" data-name="Trazado 120752" d="M1777.713,1116.881s4.938.948,7.4,4.971c0,0-.5-3.643-2.957-4.692A6.3,6.3,0,0,0,1777.713,1116.881Z" transform="translate(-85.707 -12.495)" fill="#eddad3"/>
      <path id="Trazado_120753" data-name="Trazado 120753" d="M1687.73,1313.039a3.482,3.482,0,0,0-3.052-3.525c-3.146-.476-23.9-4.663-26.872-2.188s-1.355,73.688-1.355,73.688l25.94,4.766s-.875-72.125,1.3-72.463A24.268,24.268,0,0,1,1687.73,1313.039Z" transform="translate(0 -146.261)" fill="#bf3976"/>
    </g>
  </g>
</svg>
