<svg xmlns="http://www.w3.org/2000/svg" width="400" height="189.855" viewBox="0 0 400 189.855">
  <g id="Grupo_57642" data-name="Grupo 57642" transform="translate(-285 -5965.813)">
    <path id="Trazado_120728" data-name="Trazado 120728" d="M-494.953,395.821A165.661,165.661,0,0,0-493,370.4,164.433,164.433,0,0,0-657.429,205.965,164.434,164.434,0,0,0-821.863,370.4a165.669,165.669,0,0,0,1.958,25.423Z" transform="translate(1160.996 5759.848)" fill="#f2d6e3"/>
    <g id="Grupo_57457" data-name="Grupo 57457" transform="translate(50.597 5743.096)">
      <path id="Rectángulo_6566" data-name="Rectángulo 6566" d="M8.1,0h15.6a8.1,8.1,0,0,1,8.1,8.1v0a8.1,8.1,0,0,1-8.1,8.1H8.1A8.1,8.1,0,0,1,0,8.1v0A8.1,8.1,0,0,1,8.1,0Z" transform="translate(394.245 237.546)" fill="#5184ce"/>
      <path id="Trazado_120174" data-name="Trazado 120174" d="M1148.02,1780.812l-24.581,11.33v2.51h87.541v-2.51l-24.8-11.33Z" transform="translate(-757.011 -1383.52)" fill="#466eb6"/>
      <rect id="Rectángulo_6567" data-name="Rectángulo 6567" width="38.172" height="48.583" transform="translate(391.009 348.73)" fill="#466eb6"/>
      <path id="Trazado_120175" data-name="Trazado 120175" d="M806.522,741.671V632.117a9.425,9.425,0,0,0-9.425-9.425H584.681a9.425,9.425,0,0,0-9.425,9.425V741.671Z" transform="translate(-280.918 -377.701)" fill="#466eb6"/>
      <rect id="Rectángulo_6568" data-name="Rectángulo 6568" width="87.541" height="2.51" transform="translate(366.428 408.622)" fill="#184655" opacity="0.3" style="mix-blend-mode: multiply;isolation: isolate"/>
      <rect id="Rectángulo_6569" data-name="Rectángulo 6569" width="38.157" height="5.701" transform="translate(391.009 391.591)" fill="#184655" opacity="0.3" style="mix-blend-mode: multiply;isolation: isolate"/>
      <path id="Trazado_120176" data-name="Trazado 120176" d="M575.256,1527.43v17.556c0,3.652,2.414,6.612,5.391,6.612H801.13c2.977,0,5.391-2.96,5.391-6.612V1527.43Z" transform="translate(-280.918 -1163.459)" fill="#5184ce"/>
      <path id="Trazado_120177" data-name="Trazado 120177" d="M1445.289,584.626a2.147,2.147,0,1,1-2.147-2.147A2.147,2.147,0,0,1,1445.289,584.626Z" transform="translate(-1042.549 -342.776)" fill="#184655"/>
      <path id="Trazado_120178" data-name="Trazado 120178" d="M836.86,768.333v-104.5a5.052,5.052,0,0,0-5.139-4.96H621.56a5.052,5.052,0,0,0-5.139,4.96v104.5Z" transform="translate(-316.669 -409.12)" fill="#cce6ff"/>
      <rect id="Rectángulo_6570" data-name="Rectángulo 6570" width="132.494" height="92.451" transform="translate(309.432 258.185)" fill="#e9ffff"/>
      <rect id="Rectángulo_6571" data-name="Rectángulo 6571" width="132.494" height="10.824" transform="translate(309.432 258.185)" fill="#5184ce"/>
      <rect id="Rectángulo_6572" data-name="Rectángulo 6572" width="9.044" height="70.002" transform="translate(489.078 281.315)" fill="#9bc1f9" opacity="0.6"/>
      <rect id="Rectángulo_6573" data-name="Rectángulo 6573" width="9.044" height="48.65" transform="translate(476.448 302.668)" fill="#9bc1f9" opacity="0.6"/>
      <rect id="Rectángulo_6574" data-name="Rectángulo 6574" width="9.044" height="54.836" transform="translate(501.89 296.482)" fill="#9bc1f9" opacity="0.6"/>
      <rect id="Rectángulo_6575" data-name="Rectángulo 6575" width="9.044" height="56.992" transform="translate(463.818 294.325)" fill="#9bc1f9" opacity="0.6"/>
      <rect id="Rectángulo_6576" data-name="Rectángulo 6576" width="9.044" height="40.094" transform="translate(451.187 311.223)" fill="#9bc1f9" opacity="0.6"/>
      <g id="Grupo_57443" data-name="Grupo 57443" transform="translate(451.187 297.449)">
        <rect id="Rectángulo_6577" data-name="Rectángulo 6577" width="9.044" height="53.869" transform="translate(37.891 0)" fill="#9bc1f9" opacity="0.3" style="mix-blend-mode: multiply;isolation: isolate"/>
        <rect id="Rectángulo_6578" data-name="Rectángulo 6578" width="9.044" height="37.437" transform="translate(25.26 16.431)" fill="#9bc1f9" opacity="0.3" style="mix-blend-mode: multiply;isolation: isolate"/>
        <rect id="Rectángulo_6579" data-name="Rectángulo 6579" width="9.044" height="42.198" transform="translate(50.703 11.671)" fill="#9bc1f9" opacity="0.3" style="mix-blend-mode: multiply;isolation: isolate"/>
        <rect id="Rectángulo_6580" data-name="Rectángulo 6580" width="9.044" height="43.857" transform="translate(12.63 10.012)" fill="#9bc1f9" opacity="0.3" style="mix-blend-mode: multiply;isolation: isolate"/>
        <rect id="Rectángulo_6581" data-name="Rectángulo 6581" width="9.044" height="30.854" transform="translate(0 23.015)" fill="#9bc1f9" opacity="0.3" style="mix-blend-mode: multiply;isolation: isolate"/>
      </g>
      <rect id="Rectángulo_6582" data-name="Rectángulo 6582" width="122.292" height="15.696" transform="translate(314.004 273.467)" fill="#9bc1f9" opacity="0.6"/>
      <rect id="Rectángulo_6583" data-name="Rectángulo 6583" width="78.712" height="4.023" transform="translate(357.584 293.621)" fill="#9bc1f9" opacity="0.6"/>
      <rect id="Rectángulo_6584" data-name="Rectángulo 6584" width="38.722" height="46.427" transform="translate(314.004 293.621)" fill="#5184ce"/>
      <rect id="Rectángulo_6585" data-name="Rectángulo 6585" width="78.712" height="4.023" transform="translate(357.584 302.102)" fill="#9bc1f9" opacity="0.6"/>
      <rect id="Rectángulo_6586" data-name="Rectángulo 6586" width="78.712" height="4.023" transform="translate(357.584 327.544)" fill="#9bc1f9" opacity="0.6"/>
      <rect id="Rectángulo_6587" data-name="Rectángulo 6587" width="78.712" height="4.023" transform="translate(357.584 336.025)" fill="#9bc1f9" opacity="0.6"/>
      <g id="Grupo_57456" data-name="Grupo 57456" transform="translate(234.403 244.517)">
        <path id="Trazado_120222" data-name="Trazado 120222" d="M1155.151,1801.972s-.816,5.7-2.221,7.532a14.538,14.538,0,0,0-1.9,2.512c-.88,1.735-.394,4.318.255,5.741.333.73-.023.728.735.963a4.653,4.653,0,0,0,5.593-2.64,13.467,13.467,0,0,0,1.1-4.853c.24-5.17,1.839-7.8,1.839-7.8Z" transform="translate(-1145.438 -1651.988)" fill="#f7a491"/>
        <path id="Trazado_120223" data-name="Trazado 120223" d="M1289.913,1814.741s.5,6.421.1,8.508c-.219,1.118-1.439,3.418-.879,4.469a2.814,2.814,0,0,0,1.2,1.315l14.5.235c.79.013.268-.5-.369-.969a29.229,29.229,0,0,0-5.214-2.9c-.218-.105-1.009-.611-1.294-.786a10.072,10.072,0,0,1-2.075-1.844c-1.042-1.166-1.133-6.821-1.133-6.821Z" transform="translate(-1255.631 -1662.152)" fill="#f7a491"/>
        <path id="Trazado_120224" data-name="Trazado 120224" d="M1295.053,1390.007s1.827,10.426.627,17.261-6.955,70.191-6.955,70.191l-6.4.363s-1.341-26.465-1.1-30.145a57.379,57.379,0,0,1,2.138-9.84l-.637-21.367,8.071-28.071Z" transform="translate(-1249.435 -1322.773)" fill="#8f2b58"/>
        <path id="Trazado_120225" data-name="Trazado 120225" d="M1187.081,1376.3s-5.037,7.623-6.236,13.932.88,25.7-1.427,33.968c-1.249,4.476-5.982,11.387-6.7,17.171s-3.542,20.933-3.542,20.933l6.393,1.275,14.858-37.835,11.655-34.2,2.986-17.612Z" transform="translate(-1160.261 -1311.263)" fill="#8f2b58"/>
        <path id="Trazado_120226" data-name="Trazado 120226" d="M1156.128,1854.063a7.131,7.131,0,0,1-7.009-2.945c-.885,1.738-1.317,4.332-.666,5.76.574,1.258,2.25,1.222,3.571,1.271a3.446,3.446,0,0,0,3.168-1.95A11.746,11.746,0,0,0,1156.128,1854.063Z" transform="translate(-1143.515 -1691.11)" fill="#f7cc7f"/>
        <path id="Trazado_120227" data-name="Trazado 120227" d="M1297.827,1861.848a13.051,13.051,0,0,1-8.257-.326c-.409,1.166-.951,2.629-.664,3.472.352,1.033.853,1.266,1.3,1.278,3.5.092,12.833.218,15.505.254a.44.44,0,0,0,.339-.722C1305.384,1865.008,1298.113,1862.024,1297.827,1861.848Z" transform="translate(-1255.505 -1699.391)" fill="#f7cc7f"/>
        <path id="Trazado_120228" data-name="Trazado 120228" d="M1335.148,1271.5c.267-.568-2.551-1.342-2.641-1.954s3.686-.267,3.875-.777c.349-.939-4.113-.632-3.98-1.074s4.719-.986,4.315-1.81-4.7,1.059-4.765.521,4.149-1.393,4.2-2.552c.025-.62-7.023,2.375-7.761,1.96s1.166-3.142.6-3.635-3.044,5.21-3.491,5.377-10.117,3.09-13.406,3.575c-.278-1.114-2.75-7.241-2.989-8.292-1.93,1.093-4.391-.223-6.367.751.995,3.508,3.229,15.063,4.121,15.583,2.718,1.585,17.018-5.969,19.381-7.306s3.574-.7,5.115-1.04S1334.881,1272.067,1335.148,1271.5Z" transform="translate(-1266.572 -1222.274)" fill="#f38b80"/>
        <path id="Trazado_120229" data-name="Trazado 120229" d="M1168.6,1081.856c.719-3.27,1.423-6.56-.473-10.152a9.22,9.22,0,0,0-7.258-4.944c-8.7-1.032-6.84,7.089-19,8.847-3.778.546-7.288,1.072-10.442,2.951-5.7,3.393-7.846,8.835-4.068,17.7,9.25,21.711,31.381,2.845,34.757-1C1165.467,1091.453,1168.136,1083.961,1168.6,1081.856Z" transform="translate(-1125.469 -1066.67)" fill="#0e2e35"/>
        <path id="Trazado_120230" data-name="Trazado 120230" d="M1240.069,1191.718s-4.393.5-7.02,3.357,4.247,25.831,4.725,29.469-4.568,13.705-4.568,13.705,17.152,3.409,21.612.464c0,0,.392-28.114-.086-30.713s-4.459-13.165-5.415-14.2S1240.069,1191.718,1240.069,1191.718Z" transform="translate(-1210.63 -1166.211)" fill="#f7cc7f"/>
        <path id="Trazado_120231" data-name="Trazado 120231" d="M1271.125,1147.722s-.034.2-.1.527c-.3,1.594-1.436,6.88-2.207,8.333-.931,1.756,3.187,7.358,7.15,6.674,1.18-.2-1-5.147-.893-5.67.2-1,.472-2.37.75-3.772.157-.791.316-1.593.465-2.346.424-2.142.77-3.894.77-3.894Z" transform="translate(-1239.476 -1131.071)" fill="#f7a491"/>
        <path id="Trazado_120232" data-name="Trazado 120232" d="M1279.457,1148.249c.062-.332.1-.527.1-.527l5.939-.148s-.346,1.752-.77,3.894c-.148.749-.306,1.547-.462,2.333a5.566,5.566,0,0,1-2.836-1.419,7.473,7.473,0,0,1-2.148-3.188C1279.35,1148.819,1279.411,1148.5,1279.457,1148.249Z" transform="translate(-1247.904 -1131.071)" fill="#f47458" opacity="0.5"/>
        <path id="Trazado_120233" data-name="Trazado 120233" d="M1274.209,1079.083a7.008,7.008,0,0,0-4.177,2.6c-1.755,2.265-3.646,9.269.713,13.078s8.666-.5,9.3-5.073S1280.56,1078.919,1274.209,1079.083Z" transform="translate(-1238.987 -1076.549)" fill="#f7a491"/>
        <path id="Trazado_120234" data-name="Trazado 120234" d="M1323.9,1116.366c-.275,1.1-1,1.846-1.613,1.662s-.892-1.226-.617-2.328,1-1.846,1.613-1.662S1324.171,1115.264,1323.9,1116.366Z" transform="translate(-1281.563 -1104.354)" fill="#f7a491"/>
        <path id="Trazado_120235" data-name="Trazado 120235" d="M1266.868,1078.738s-5.692,6.535-8.367,6.843-3.027,3.847-3.027,3.847.957-8.156,3.606-9.728S1266.868,1078.738,1266.868,1078.738Z" transform="translate(-1228.956 -1076.183)" fill="#0e2e35"/>
        <path id="Trazado_120236" data-name="Trazado 120236" d="M1263.68,1113.187c.218,1.182-.22,2.268-.977,2.423s-1.548-.678-1.766-1.861.22-2.267.978-2.423S1263.462,1112,1263.68,1113.187Z" transform="translate(-1233.26 -1102.202)" fill="#f7a491"/>
        <path id="Trazado_120237" data-name="Trazado 120237" d="M1255.673,1283.079l18.393,2.691a1.011,1.011,0,0,1,.855,1.148l-3.59,24.538a1.011,1.011,0,0,1-1.147.855l-18.393-2.691a1.012,1.012,0,0,1-.855-1.148l3.59-24.539A1.011,1.011,0,0,1,1255.673,1283.079Z" transform="translate(-1225.335 -1238.928)" fill="#184655"/>
        <path id="Trazado_120238" data-name="Trazado 120238" d="M1309.482,1283.677a.206.206,0,0,0-.173-.233l-7.672-1.122a.2.2,0,0,0-.232.173l-.117.8,8.078,1.182Z" transform="translate(-1265.424 -1238.332)" fill="#13375b"/>
        <path id="Trazado_120239" data-name="Trazado 120239" d="M1317.037,1280.277a1.223,1.223,0,1,0,1.034,1.387A1.223,1.223,0,0,0,1317.037,1280.277Zm-.29,1.986a.784.784,0,1,1,.89-.662A.784.784,0,0,1,1316.747,1282.263Z" transform="translate(-1276.847 -1236.696)" fill="#13375b"/>
        <path id="Trazado_120240" data-name="Trazado 120240" d="M1309.343,1287.268a.205.205,0,0,1,.1.205l-.117.8-8.078-1.182a1.011,1.011,0,0,0,.854,1.147l6.077.889a1.011,1.011,0,0,0,1.146-.854l.117-.8A.205.205,0,0,0,1309.343,1287.268Z" transform="translate(-1265.382 -1242.129)" fill="#355389"/>
        <path id="Trazado_120241" data-name="Trazado 120241" d="M1297.265,1142.1l-4.139-.022a1.81,1.81,0,0,0,1.907,1.635C1297.252,1143.792,1297.265,1142.1,1297.265,1142.1Z" transform="translate(-1258.928 -1126.699)" fill="#fff"/>
        <path id="Trazado_120242" data-name="Trazado 120242" d="M1210.821,1313.885l6.665.681s-.109,5.656.006,6.306c0,0,11.4,3.159,16.16,4.016,0,0,2.169-1.229,3.046-1.62a21.283,21.283,0,0,1,3.757-.885c.522-.068.344.5-.1.7a4.334,4.334,0,0,0-1.935,1.414,3.615,3.615,0,0,0,1.439-.118c.5-.222,1.183-.691,1.194-.935s.124-.83.287-.8c.042.008.1.2.153.4s.109.388.156.581c.084.347.18.854.218,1.081a15.707,15.707,0,0,1-.278,2.461c-.081.929-.346,1.342-.837,1.579a12.134,12.134,0,0,1-2.865.578,19.233,19.233,0,0,1-5.259-.52c-.909-.1-15.421-1.541-15.421-1.541s-5.769-.83-6.152-1.823S1210.821,1313.885,1210.821,1313.885Z" transform="translate(-1193.387 -1263.459)" fill="#f7a491"/>
        <path id="Trazado_120243" data-name="Trazado 120243" d="M1215.027,1203.725s-2.1,1-3.952,5.305c-1.757,4.094-2.273,24.524-2.273,24.524l6.971-1.162,3.542-9.526a17.471,17.471,0,0,0-1.806-17.374C1216.528,1204.15,1215.624,1203.339,1215.027,1203.725Z" transform="translate(-1191.803 -1175.692)" fill="#f7cc7f"/>
      </g>
      <rect id="Rectángulo_6603" data-name="Rectángulo 6603" width="19.077" height="19.077" transform="translate(452.54 258.176)" fill="#9bc1f9" opacity="0.6"/>
      <rect id="Rectángulo_6604" data-name="Rectángulo 6604" width="37.216" height="2.592" transform="translate(474.992 258.176)" fill="#9bc1f9" opacity="0.6"/>
      <rect id="Rectángulo_6605" data-name="Rectángulo 6605" width="25.116" height="2.592" transform="translate(474.992 263.671)" fill="#9bc1f9" opacity="0.6"/>
      <rect id="Rectángulo_6606" data-name="Rectángulo 6606" width="33.43" height="2.592" transform="translate(474.992 269.166)" fill="#9bc1f9" opacity="0.6"/>
      <rect id="Rectángulo_6607" data-name="Rectángulo 6607" width="400" height="1.841" transform="translate(234.402 410.731)" fill="#0e2e35"/>
    </g>
  </g>
</svg>
