<svg xmlns="http://www.w3.org/2000/svg" xmlns:xlink="http://www.w3.org/1999/xlink" width="354" height="195.018" viewBox="0 0 354 195.018">
  <defs>
    <clipPath id="clip-path">
      <path id="Trazado_102446" data-name="Trazado 102446" d="M1616.385-778.372H1438.527v-93.434l34.551-35.07,154.395,2.121Z" transform="translate(-1438.527 906.877)" fill="none"/>
    </clipPath>
  </defs>
  <g id="Grupo_57127" data-name="Grupo 57127" transform="translate(-1325.465 929.057)">
    <g id="Grupo_57124" data-name="Grupo 57124" transform="translate(1325.465 -929.058)">
      <path id="Trazado_102340" data-name="Trazado 102340" d="M1435.333-923.924s81.574,11.992,73.981,33.506,40.594-7.642,59.824.115c13.69,5.523,8.218,22.333,14.841,29.107,15.186,15.532,30.718-4.026,50.046,7.709s11.291,121.474,3.421,121.458l-298.056-.544-3.567.115s-21.859-31.523-2.071-49.93,6.2-26.824,3.8-33.939c-2.761-8.168-12.649-31.489,15.518-41.7,20.415-7.4,20.962-33.271,20.133-37.966C1373.2-895.993,1365.3-933.118,1435.333-923.924Z" transform="translate(-1325.465 925.388)" fill="#e7f4f7"/>
      <path id="Trazado_102341" data-name="Trazado 102341" d="M1795.749-722.215l2.075-5.014a7.082,7.082,0,0,1,9.2-3.933h0c8.747,3.819,12.55,14.447,8.494,23.739l-2.965,6.794a8.529,8.529,0,0,0,.9,8.559,7.532,7.532,0,0,1,.748,7.539l-1.563,3.582a14.242,14.242,0,0,1-8.892,7.933,8.64,8.64,0,0,0-5.369,4.852l-2.214,5.071c-2.447,5.607-8.71,8.284-13.987,5.98l-3.011-1.315c-5.278-2.3-7.572-8.716-5.125-14.323h0c3.958-6.7,3.643-11.707,2.24-15.1a20.3,20.3,0,0,1,.193-15.841l.313-.716a20.157,20.157,0,0,1,12.315-11.145C1791.494-716.316,1793.985-718.175,1795.749-722.215Z" transform="translate(-1500.884 849.481)" fill="#4eae92"/>
      <path id="Trazado_102342" data-name="Trazado 102342" d="M1604.234-637.3c6.8-5.083,4.754-36.5,29.073-41.04,26.845-5.009,40.889,19.074,40.889,19.074s47.621-30.014,65.1-27.308c16.019,2.48,0,21.084,0,21.084s18.043-10.3,39.922-10.3c21.294,0-14.877,36.536-16.828,38.491Z" transform="translate(-1434.718 831.86)" fill="#8cc8b8"/>
      <g id="Grupo_57102" data-name="Grupo 57102" transform="translate(306.292 132.906)">
        <g id="Grupo_57100" data-name="Grupo 57100" transform="translate(0 3.947)">
          <path id="Trazado_102343" data-name="Trazado 102343" d="M1849.918-691.811a151.1,151.1,0,0,0-20.114,48.15l-.642-.172a152.056,152.056,0,0,1,20.036-47.744c2.173-3.4,4.521-7.426,8.59-8.751.079-.026.108.094.033.122C1854.105-698.806,1851.952-694.987,1849.918-691.811Z" transform="translate(-1829.162 700.332)" fill="#357e69"/>
        </g>
        <g id="Grupo_57101" data-name="Grupo 57101" transform="translate(2.901 22.36)">
          <path id="Trazado_102344" data-name="Trazado 102344" d="M1833.932-631.188a188.8,188.8,0,0,1,38.328-38.835c.151-.114.354.149.2.266a188.6,188.6,0,0,0-37.735,38.782Z" transform="translate(-1833.932 670.051)" fill="#357e69"/>
        </g>
        <path id="Trazado_102345" data-name="Trazado 102345" d="M1864.248-703.154a6.663,6.663,0,0,1,1.436,2.494,5.136,5.136,0,0,1,.046,2.545,5.547,5.547,0,0,0,1.423-2.463,5.437,5.437,0,0,0-.434-4.178c-.989-1.524-2.716-1.679-3.051-.94C1863.311-704.96,1863.762-703.961,1864.248-703.154Z" transform="translate(-1842.635 706.549)" fill="#357e69"/>
        <path id="Trazado_102346" data-name="Trazado 102346" d="M1865.159-681.791a6.658,6.658,0,0,0-2.466-1.484,5.138,5.138,0,0,0-2.544-.1,5.549,5.549,0,0,1,2.491-1.375,5.438,5.438,0,0,1,4.168.517c1.5,1.019,1.625,2.748.879,3.069C1866.947-680.819,1865.956-681.29,1865.159-681.791Z" transform="translate(-1841.306 698.245)" fill="#357e69"/>
        <path id="Trazado_102347" data-name="Trazado 102347" d="M1859.6-672.378a6.667,6.667,0,0,0-2.466-1.484,5.13,5.13,0,0,0-2.544-.1,5.546,5.546,0,0,1,2.491-1.375,5.436,5.436,0,0,1,4.168.517c1.5,1.018,1.625,2.748.879,3.068C1861.384-671.406,1860.394-671.877,1859.6-672.378Z" transform="translate(-1839.126 694.556)" fill="#357e69"/>
        <path id="Trazado_102348" data-name="Trazado 102348" d="M1879.436-650.545a6.66,6.66,0,0,0-2.466-1.484,5.136,5.136,0,0,0-2.544-.1,5.541,5.541,0,0,1,2.491-1.375,5.438,5.438,0,0,1,4.168.516c1.5,1.018,1.625,2.749.879,3.069C1881.223-649.574,1880.233-650.044,1879.436-650.545Z" transform="translate(-1846.901 685.999)" fill="#357e69"/>
        <path id="Trazado_102349" data-name="Trazado 102349" d="M1889.572-659.475a6.656,6.656,0,0,0-2.467-1.484,5.145,5.145,0,0,0-2.544-.1,5.549,5.549,0,0,1,2.491-1.375,5.436,5.436,0,0,1,4.168.517c1.505,1.019,1.625,2.748.88,3.069C1891.359-658.5,1890.369-658.974,1889.572-659.475Z" transform="translate(-1850.874 689.499)" fill="#357e69"/>
        <path id="Trazado_102350" data-name="Trazado 102350" d="M1856.261-692.522a6.672,6.672,0,0,1,1.811,2.238,5.143,5.143,0,0,1,.446,2.506,5.537,5.537,0,0,0,1.017-2.657,5.438,5.438,0,0,0-1.087-4.057c-1.217-1.349-2.946-1.23-3.161-.447C1855.051-694.157,1855.654-693.242,1856.261-692.522Z" transform="translate(-1839.38 702.393)" fill="#357e69"/>
        <path id="Trazado_102351" data-name="Trazado 102351" d="M1847.721-682.215a5.811,5.811,0,0,1,2.617,1.719,4.444,4.444,0,0,1,.882,2.606,7.357,7.357,0,0,0,.994-3.4c.1-1.794-.961-3.706-1.9-4.06-1.739-.983-3.964-.106-4.146.86C1845.956-683.521,1846.849-682.758,1847.721-682.215Z" transform="translate(-1835.814 698.578)" fill="#357e69"/>
        <path id="Trazado_102352" data-name="Trazado 102352" d="M1838.9-666.147a5.8,5.8,0,0,1,2.868,1.255,4.439,4.439,0,0,1,1.309,2.42,7.362,7.362,0,0,0,.407-3.521c-.2-1.786-1.571-3.492-2.557-3.683-1.879-.677-3.925.562-3.942,1.544C1836.941-667.137,1837.949-666.536,1838.9-666.147Z" transform="translate(-1832.227 692.341)" fill="#357e69"/>
        <path id="Trazado_102353" data-name="Trazado 102353" d="M1864.847-654.328a4.737,4.737,0,0,1,2.03,1.547,3.626,3.626,0,0,1,.571,2.17,6.013,6.013,0,0,0,1-2.711c.186-1.454-.572-3.07-1.315-3.411-1.358-.9-3.218-.312-3.422.463C1863.486-655.49,1864.169-654.819,1864.847-654.328Z" transform="translate(-1842.686 687.37)" fill="#357e69"/>
        <path id="Trazado_102354" data-name="Trazado 102354" d="M1877-698.69a3.963,3.963,0,0,0-1.394-.986,3.051,3.051,0,0,0-1.5-.168,3.29,3.29,0,0,1,1.534-.7,3.226,3.226,0,0,1,2.443.488c.846.668.842,1.7.386,1.854S1877.452-698.36,1877-698.69Z" transform="translate(-1846.776 704.387)" fill="#357e69"/>
        <path id="Trazado_102355" data-name="Trazado 102355" d="M1875.229-705.3a3.935,3.935,0,0,1-.07,1.706,3.053,3.053,0,0,1-.783,1.291,3.285,3.285,0,0,0,1.494-.785,3.227,3.227,0,0,0,1.1-2.233c-.013-1.078-.831-1.7-1.233-1.438S1875.241-705.863,1875.229-705.3Z" transform="translate(-1846.881 706.823)" fill="#357e69"/>
        <path id="Trazado_102356" data-name="Trazado 102356" d="M1898.235-667.779a3.94,3.94,0,0,0-1.394-.986,3.041,3.041,0,0,0-1.5-.168,3.291,3.291,0,0,1,1.534-.7,3.227,3.227,0,0,1,2.443.488c.845.668.841,1.7.385,1.854S1898.684-667.448,1898.235-667.779Z" transform="translate(-1855.098 692.272)" fill="#357e69"/>
        <path id="Trazado_102357" data-name="Trazado 102357" d="M1895.984-674.488a3.942,3.942,0,0,1,.07,1.706,3.044,3.044,0,0,1-.674,1.351,3.3,3.3,0,0,0,1.425-.9,3.229,3.229,0,0,0,.918-2.316c-.1-1.073-.967-1.628-1.346-1.332S1895.951-675.045,1895.984-674.488Z" transform="translate(-1855.113 694.767)" fill="#357e69"/>
      </g>
      <g id="Grupo_57104" data-name="Grupo 57104" transform="translate(311.553 174.952)">
        <g id="Grupo_57103" data-name="Grupo 57103" transform="translate(0 5.386)">
          <path id="Trazado_102358" data-name="Trazado 102358" d="M1871.847-628.743c-9.565,1.048-18.474,5.271-27.051,9.388-5.783,2.777-5.492,3.568-6.67,3.981a.237.237,0,0,1-.289-.324,6.486,6.486,0,0,1,2.468-2.021,32.03,32.03,0,0,1,2.988-1.627c2.182-1.06,4.423-2.014,6.648-2.981a96.477,96.477,0,0,1,13.909-5.069,48.84,48.84,0,0,1,7.99-1.425.039.039,0,0,1,.006.078Z" transform="translate(-1837.813 628.821)" fill="#357e69"/>
        </g>
        <path id="Trazado_102359" data-name="Trazado 102359" d="M1879.121-635.18a6.161,6.161,0,0,1,.219,2.657,4.758,4.758,0,0,1-.966,2.151,5.133,5.133,0,0,0,2.165-1.5,5.039,5.039,0,0,0,1.284-3.673c-.227-1.668-1.614-2.479-2.187-1.992C1879.049-637.063,1879.033-636.048,1879.121-635.18Z" transform="translate(-1853.709 637.679)" fill="#357e69"/>
        <path id="Trazado_102360" data-name="Trazado 102360" d="M1865.263-630.218a6.172,6.172,0,0,1,.219,2.657,4.765,4.765,0,0,1-.966,2.151,5.137,5.137,0,0,0,2.165-1.5,5.036,5.036,0,0,0,1.284-3.673c-.227-1.668-1.613-2.479-2.186-1.991S1865.175-631.086,1865.263-630.218Z" transform="translate(-1848.278 635.734)" fill="#357e69"/>
        <path id="Trazado_102361" data-name="Trazado 102361" d="M1851.182-623.941a6.168,6.168,0,0,1,.219,2.657,4.758,4.758,0,0,1-.966,2.152,5.141,5.141,0,0,0,2.165-1.5,5.032,5.032,0,0,0,1.284-3.672c-.227-1.668-1.613-2.479-2.186-1.991S1851.094-624.809,1851.182-623.941Z" transform="translate(-1842.759 633.274)" fill="#357e69"/>
        <path id="Trazado_102362" data-name="Trazado 102362" d="M1881.656-622.781a5.709,5.709,0,0,0-1.323-2.081,4.393,4.393,0,0,0-1.912-1.046,4.748,4.748,0,0,1,2.435-.1,4.657,4.657,0,0,1,3,1.99c.763,1.356.194,2.727-.5,2.688C1882.653-621.353,1882.075-622.092,1881.656-622.781Z" transform="translate(-1853.728 633.152)" fill="#357e69"/>
        <path id="Trazado_102363" data-name="Trazado 102363" d="M1867.241-617.679a5.7,5.7,0,0,0-1.322-2.08,4.4,4.4,0,0,0-1.912-1.047,4.744,4.744,0,0,1,2.434-.1,4.655,4.655,0,0,1,3,1.99c.764,1.356.194,2.727-.5,2.688C1868.239-616.251,1867.66-616.99,1867.241-617.679Z" transform="translate(-1848.078 631.153)" fill="#357e69"/>
        <path id="Trazado_102364" data-name="Trazado 102364" d="M1893.144-627.114a3.664,3.664,0,0,0-1.1-1.132,2.827,2.827,0,0,0-1.34-.4,3.056,3.056,0,0,1,1.515-.384,2.988,2.988,0,0,1,2.144.853c.658.75.482,1.687.041,1.754S1893.5-626.737,1893.144-627.114Z" transform="translate(-1858.54 634.292)" fill="#357e69"/>
        <path id="Trazado_102365" data-name="Trazado 102365" d="M1892.231-633.469a3.65,3.65,0,0,1-.35,1.542,2.818,2.818,0,0,1-.93,1.045,3.04,3.04,0,0,0,1.493-.465,2.988,2.988,0,0,0,1.381-1.849c.169-.984-.472-1.69-.883-1.516S1892.335-633.975,1892.231-633.469Z" transform="translate(-1858.638 636.526)" fill="#357e69"/>
      </g>
      <g id="Grupo_57105" data-name="Grupo 57105" transform="translate(254.131 27.088)">
        <path id="Trazado_102366" data-name="Trazado 102366" d="M1823.974-853.958s-5.237,10.024-8.63,14.2-6.626,8.166-9.771,20.07-2.772,13.136-3.622,16.209-6,15.436-6.145,17.743-9.9,14.99-12.539,21.024-7.211,14.612-7.207,19.1l1.049-.21a48.2,48.2,0,0,1,9.094-20.568c7.72-10.178,6.794-12.221,15.227-17.222s14.463-19.7,14.463-19.7,9.124-15.829,9.169-24.3S1827.7-843.584,1823.974-853.958Z" transform="translate(-1756.19 870.306)" fill="#245542"/>
        <path id="Trazado_102367" data-name="Trazado 102367" d="M1811.593-880.842s-.617,6.728-3,10.623-4.376,6.232-4.991,10.545-2.55,15.415-8.892,20.561-7.948,21.448-12.816,26.156-5.652,8.231-5.231,16.753,2.719,20.42-4.758,35.416l-1.319-3.892s5.433-12.373,4.649-19.821-4.25-18.817-2.5-24.1-3.689-6.6.03-14.534,2.5-10.812,7.363-17.585c0,0,.479-.3,1.964-6.168s11.581-16.235,16.167-19.717S1809.488-875.7,1811.593-880.842Z" transform="translate(-1754.046 880.842)" fill="#245542"/>
        <path id="Trazado_102368" data-name="Trazado 102368" d="M1792.907-827.446s-5.725,8.749-6.1,14.548.018,10.553-3.052,18.364,1.964,13.1.217,17.414-2.13,9.5-2.285,13.441-6.9,16.67-8.157,23.225-.08,6.636-.08,6.636,1.452-8.665,3-11.475,6.3-12.53,7.493-16.324,4.008-6.124,6.662-12.516,6.236-11.707,6.455-20.958S1801.493-813.9,1792.907-827.446Z" transform="translate(-1754.972 859.915)" fill="#357e69"/>
        <path id="Trazado_102369" data-name="Trazado 102369" d="M1779.521-710.054s3.039-11.318,13.453-11.934,16.393,1.742,24.134-6.246,12.667-21.039,15.12-23.2c0,0-3.58-2.078-9.982,3.324s-10.915,9.517-14.623,12.664-6.47.831-10.317,2.834c-3.224,1.679-7.542,6.784-9.467,9.476a12.563,12.563,0,0,1-2.18,2.356c-.751.626-1.647,1.394-2.226,1.964-1.157,1.139-4.716,8.766-4.716,8.766Z" transform="translate(-1757.232 830.28)" fill="#357e69"/>
        <path id="Trazado_102370" data-name="Trazado 102370" d="M1762.126-726.728s4.362-13.808,2.266-20.781-9.491-12.43-8.965-16.716,6.032-15.663,2.467-24.524c0,0-1.916,7.644-3.5,9.286s-12.247,8.043-10.886,17.284,11.271,11.889,13.6,14.708,5.661,2.984,5.591,4.776.248,8.336-1.185,14.7Z" transform="translate(-1743.384 844.75)" fill="#357e69"/>
        <path id="Trazado_102371" data-name="Trazado 102371" d="M1778.182-751.056l5.879-14.509s3.617-11.726,5.867-21.543,2.979-40.338,2.979-40.338-5.725,8.749-6.1,14.548.018,10.553-3.052,18.364,1.964,13.1.217,17.414-2.13,9.5-2.285,13.441-6.9,16.67-8.157,23.225c-.692,3.59-.649,5.236-.469,5.993C1772.537-740.277,1778.182-751.056,1778.182-751.056Z" transform="translate(-1754.973 859.915)" fill="#2d6e58"/>
        <path id="Trazado_102372" data-name="Trazado 102372" d="M1806.145-728.68c-4.62.681-8.695.161-14.33,3.926a45.487,45.487,0,0,0-9.049,7.919s-2.663,4.237-3.789,6.486c-.164.344-.259.549-.259.549h.8s3.039-11.318,13.453-11.934,16.393,1.742,24.134-6.246,12.667-21.038,15.12-23.2a117.233,117.233,0,0,0-13.171,10.77C1813.976-735.3,1810.766-729.361,1806.145-728.68Z" transform="translate(-1757.232 830.027)" fill="#2d6e58"/>
        <path id="Trazado_102373" data-name="Trazado 102373" d="M1754.39-779.464c-1.589,1.641-12.247,8.043-10.886,17.284s11.271,11.889,13.6,14.708,5.661,2.984,5.591,4.776.248,8.336-1.185,14.7l.269.551a82.052,82.052,0,0,0,2.005-9.147c.638-4.688-.026-6.676-1.345-10.568s-10.328-12.14-12.477-16.345,5.1-10.682,6.8-13.9,1.132-11.35,1.132-11.35S1755.979-781.1,1754.39-779.464Z" transform="translate(-1743.384 844.75)" fill="#2d6e58"/>
      </g>
      <g id="Grupo_57106" data-name="Grupo 57106" transform="translate(15.285 76.249)">
        <path id="Trazado_102374" data-name="Trazado 102374" d="M1372.961-740.7a13.2,13.2,0,0,0-1.138-4.661c-.9-1.735-2.488-2.987-3.872-4.365a24.223,24.223,0,0,1-5.775-9.2c-.924-2.671-1.385-5.516-2.659-8.038-.778-1.54-1.838-2.917-2.721-4.4-2.088-3.5-3.225-7.641-6.056-10.572a12.708,12.708,0,0,0,2.87,10.052,16.912,16.912,0,0,1,2.037,2.477c.964,1.689.877,3.751.99,5.694a25,25,0,0,0,2.99,10.465c1.858,3.411,4.539,6.449,5.532,10.2.744,2.815.523,5.973,2.11,8.412a2.152,2.152,0,0,1,.411.842,1.842,1.842,0,0,1-.032.529c-.035.227-.071.453-.106.68-.361,2.3-.734,5.236,1.246,6.959,1.372,1.2,3.138,1.222,4.123-.365s.9-3.937.831-5.736C1373.619-734.721,1373.3-737.725,1372.961-740.7Z" transform="translate(-1350.601 792.92)" fill="#357e69"/>
        <path id="Trazado_102375" data-name="Trazado 102375" d="M1386.119-749.632c-.771-2.667-1.966-5.207-2.565-7.917a37.3,37.3,0,0,1-.587-8.041q0-4.427-.007-8.853a33.366,33.366,0,0,0-.307-5.5c-.654-3.9-2.679-7.5-3.023-11.441-.148-1.7.024-3.424-.163-5.123a8.059,8.059,0,0,0-.806-2.823,1.257,1.257,0,0,0-2.256.064,11.469,11.469,0,0,0-1.21,6.721,27.546,27.546,0,0,0,1.275,3.967c1.974,5.87.926,12.369,2.453,18.372a27.31,27.31,0,0,1,1.239,5.456c.195,4.471-3.145,8.555-2.839,13.02.251,3.66,2.883,6.69,3.987,10.188.619,1.958.751,4.049,1.413,5.992.515,1.51,1.712,3.344,3.571,2.886,1.765-.435,1.231-1.876,1.153-3.252C1387.181-740.566,1387.432-745.084,1386.119-749.632Z" transform="translate(-1360.193 799.996)" fill="#2d6e58"/>
        <path id="Trazado_102376" data-name="Trazado 102376" d="M1395.055-745.473a21.262,21.262,0,0,1-.118-4.153,24.24,24.24,0,0,1,.955-3.379,30.37,30.37,0,0,0,.921-6.51q.409-5.975.817-11.951a155.964,155.964,0,0,1,2.006-18.5c.322-1.693.682-3.528-.078-5.073-.161-.326-.476-.671-.822-.563-.246.077-.367.348-.457.592-2.53,6.878-3.487,14.282-6.312,21.044a27.042,27.042,0,0,0-1.814,4.934,27.977,27.977,0,0,0-.136,6.308,29.778,29.778,0,0,1-1.051,8.975,37.034,37.034,0,0,0-1.261,4.571,24.042,24.042,0,0,0,.138,5.9,90.528,90.528,0,0,1,.364,11.365c-.069,2.229,1.813,2.171,3.059.8.871-.958.864-2.009,1.162-3.2C1393.41-738.225,1395.293-741.23,1395.055-745.473Z" transform="translate(-1365.089 798.282)" fill="#357e69"/>
        <path id="Trazado_102377" data-name="Trazado 102377" d="M1373.278-711.443c-1.664-2.673-4.978-4.193-6.041-7.158-.27-.754-.376-1.565-.707-2.3-.734-1.621-2.4-2.537-4.044-3.284a.347.347,0,0,0-.49.312h0a1.185,1.185,0,0,0,.514,1,6.656,6.656,0,0,1,2.652,3.618c.507,1.737.287,3.642.917,5.338.529,1.425,1.617,2.589,2.129,4.019a22.65,22.65,0,0,1,.638,4.108,4.338,4.338,0,0,0,2.089,3.408C1375.492-700.275,1374.353-709.716,1373.278-711.443Z" transform="translate(-1355.067 770.295)" fill="#2d6e58"/>
        <path id="Trazado_102378" data-name="Trazado 102378" d="M1406.391-716.182a11.3,11.3,0,0,1-.379,3.838,11.641,11.641,0,0,1-1.383,2.054c-1.678,2.373-2.286,5.735-4.863,7.07a.876.876,0,0,1-.548.132.84.84,0,0,1-.544-.551c-.632-1.472.077-3.131.5-4.677a1.145,1.145,0,0,0,.006-.821c-.142-.274-.465-.393-.686-.607a2,2,0,0,1-.311-1.746A39.409,39.409,0,0,1,1399.1-716a7.891,7.891,0,0,1,.966-2.415,10.707,10.707,0,0,1,2.036-2.015,24.129,24.129,0,0,0,7.045-10.4,6.829,6.829,0,0,1,1.179-2.463,1.966,1.966,0,0,1,2.462-.5c.533.375-1.651,3.889-1.906,4.309a13.9,13.9,0,0,0-1.149,3.588C1408.725-722.624,1406.584-719.693,1406.391-716.182Z" transform="translate(-1369.226 774.152)" fill="#357e69"/>
        <path id="Trazado_102379" data-name="Trazado 102379" d="M1400.965-722.175a15.885,15.885,0,0,0,1.115-3.794c.175-1.459-.057-2.952.192-4.4.321-1.862,1.407-3.5,1.944-5.311a35.09,35.09,0,0,0,.716-4.027c.667-3.844,2.474-7.6,1.956-11.469-.113-.841-.493-1.822-1.328-1.965a1.612,1.612,0,0,0-1.641,1.3,7.038,7.038,0,0,0,0,2.292,9.464,9.464,0,0,1-1.695,6.07c-1.188,1.68-2.91,2.945-3.979,4.7-1.311,2.157-1.489,4.789-2.158,7.225-1.33,4.842-4.665,9.065-5.273,14.05-.242,1.984.223,4.395,2.054,5.187C1398.168-710.019,1399.766-719.073,1400.965-722.175Z" transform="translate(-1366.34 781.64)" fill="#2d6e58"/>
        <path id="Trazado_102380" data-name="Trazado 102380" d="M1383.661-692.1h-12.15a1.288,1.288,0,0,0-1.251,1.587l4.429,18.678a1.287,1.287,0,0,0,1.251.991h14.6a1.287,1.287,0,0,0,1.252-.991l4.429-18.678a1.288,1.288,0,0,0-1.251-1.587Z" transform="translate(-1358.292 757.711)" fill="#e54637"/>
      </g>
      <g id="Grupo_57107" data-name="Grupo 57107" transform="translate(0.576 162.755)">
        <path id="Trazado_102381" data-name="Trazado 102381" d="M1410.917-635.122h2.759a2.7,2.7,0,0,0-1.63-.545h-69.11a6.484,6.484,0,0,0-6.547,6.418v4.077a6.484,6.484,0,0,0,6.547,6.418l68.337-.023Z" transform="translate(-1330.322 649.088)" fill="#8cc8b8"/>
        <path id="Trazado_102382" data-name="Trazado 102382" d="M1390.394-635.642a6.2,6.2,0,0,0-6.261,6.138v4.607a6.2,6.2,0,0,0,6.261,6.138h43.023v-1.031h-.178L1422.3-620.8l-2.211-8.5s4.267-4.7,4.545-4.82,8.6-.488,8.6-.488l.178,0v-1.025Z" transform="translate(-1349.034 649.078)" fill="#4eae92"/>
        <path id="Trazado_102383" data-name="Trazado 102383" d="M1431.523-626.567c0-4.97,2.62-7.38,2.62-7.38h-41.971a5.7,5.7,0,0,0-5.751,5.638v3.546a5.7,5.7,0,0,0,5.751,5.638h41.971S1431.523-620.308,1431.523-626.567Z" transform="translate(-1349.93 648.413)" fill="#fdd8a1"/>
        <path id="Trazado_102384" data-name="Trazado 102384" d="M1386.421-628.31v3.546a5.542,5.542,0,0,0,.167,1.352,12.3,12.3,0,0,1,9.293-7.717c12.058-2.455,38.261-2.819,38.261-2.819h-41.971A5.7,5.7,0,0,0,1386.421-628.31Z" transform="translate(-1349.93 648.413)" fill="#d1ebf6" style="mix-blend-mode: multiply;isolation: isolate"/>
        <path id="Trazado_102385" data-name="Trazado 102385" d="M1330.864-657.3H1328.1a3.181,3.181,0,0,1,1.631-.433h69.137c3.617,0,6.549,2.28,6.549,5.093v3.235c0,2.813-2.932,5.093-6.549,5.093l-68.364-.018Z" transform="translate(-1327.076 657.737)" fill="#113744"/>
        <path id="Trazado_102386" data-name="Trazado 102386" d="M1369.452-657.717c3.459,0,6.263,2.181,6.263,4.87v3.656c0,2.69-2.8,4.87-6.263,4.87h-43.04v-.817h.178l10.941-.806,2.212-6.746s-4.268-3.728-4.547-3.824-8.606-.388-8.606-.388h-.178v-.814Z" transform="translate(-1326.412 657.729)" fill="#042a48"/>
        <path id="Trazado_102387" data-name="Trazado 102387" d="M1329.313-650.516a7.433,7.433,0,0,0-2.621-5.856h41.988c3.177,0,5.753,2,5.753,4.474v2.814c0,2.471-2.576,4.474-5.753,4.474h-41.988S1329.313-645.549,1329.313-650.516Z" transform="translate(-1326.522 657.202)" fill="#fdd8a1"/>
        <path id="Trazado_102388" data-name="Trazado 102388" d="M1374.433-651.9v2.814a3.522,3.522,0,0,1-.168,1.073c-1.416-2.694-4.13-5.289-9.3-6.123-12.063-1.948-38.277-2.237-38.277-2.237h41.988C1371.857-656.372,1374.433-654.369,1374.433-651.9Z" transform="translate(-1326.522 657.202)" fill="#d1ebf6" style="mix-blend-mode: multiply;isolation: isolate"/>
      </g>
      <path id="Trazado_102389" data-name="Trazado 102389" d="M1565.775-629.116l-22.965,10.585v2.345H1624.6v-2.345l-23.172-10.585Z" transform="translate(-1410.645 809.275)" fill="#113744"/>
      <rect id="Rectángulo_6398" data-name="Rectángulo 6398" width="35.663" height="45.389" transform="translate(155.13 134.789)" fill="#113744"/>
      <path id="Trazado_102390" data-name="Trazado 102390" d="M1648.114-760.9v-106.12a5.037,5.037,0,0,0-5.037-5.037H1437.089a5.037,5.037,0,0,0-5.037,5.037V-760.9Z" transform="translate(-1367.238 904.485)" fill="#ee8276"/>
      <rect id="Rectángulo_6399" data-name="Rectángulo 6399" width="81.785" height="2.345" transform="translate(132.165 190.744)" fill="#113744" opacity="0.3" style="mix-blend-mode: multiply;isolation: isolate"/>
      <rect id="Rectángulo_6400" data-name="Rectángulo 6400" width="35.648" height="5.326" transform="translate(155.13 174.833)" fill="#113744" opacity="0.3" style="mix-blend-mode: multiply;isolation: isolate"/>
      <rect id="Rectángulo_6401" data-name="Rectángulo 6401" width="207.261" height="9.495" transform="translate(68.751 36.832)" fill="#e54637"/>
      <rect id="Rectángulo_6402" data-name="Rectángulo 6402" width="207.253" height="93.435" transform="translate(68.751 46.325)" fill="#d7e3f6"/>
      <path id="Trazado_102391" data-name="Trazado 102391" d="M1432.052-689.255v16.4c0,3.412,2.255,6.178,5.037,6.178h205.988c2.781,0,5.037-2.766,5.037-6.178v-16.4Z" transform="translate(-1367.238 832.844)" fill="#e54637"/>
      <path id="Trazado_102392" data-name="Trazado 102392" d="M1446.768-857.9a1.65,1.65,0,0,1-1.65,1.65,1.65,1.65,0,0,1-1.65-1.65,1.65,1.65,0,0,1,1.65-1.65A1.65,1.65,0,0,1,1446.768-857.9Z" transform="translate(-1371.712 899.584)" fill="#fff"/>
      <path id="Trazado_102393" data-name="Trazado 102393" d="M1456.362-857.9a1.65,1.65,0,0,1-1.65,1.65,1.65,1.65,0,0,1-1.65-1.65,1.65,1.65,0,0,1,1.65-1.65A1.65,1.65,0,0,1,1456.362-857.9Z" transform="translate(-1375.472 899.584)" fill="#fff"/>
      <path id="Trazado_102394" data-name="Trazado 102394" d="M1465.956-857.9a1.65,1.65,0,0,1-1.65,1.65,1.65,1.65,0,0,1-1.65-1.65,1.65,1.65,0,0,1,1.65-1.65A1.65,1.65,0,0,1,1465.956-857.9Z" transform="translate(-1379.232 899.584)" fill="#fff"/>
      <g id="Grupo_57113" data-name="Grupo 57113" transform="translate(42.507 147.346)">
        <path id="Trazado_102401" data-name="Trazado 102401" d="M1414.274-667.05l.237,0,13.194-.145a2.481,2.481,0,0,1,2.5,2.617l-1.732,31.469a2.477,2.477,0,0,1-1.771,2.242c-2.3.679-6.817.966-11.962,1.023s-9.548-.133-11.866-.761a2.478,2.478,0,0,1-1.821-2.2l-2.423-31.423a2.481,2.481,0,0,1,2.446-2.672Z" transform="translate(-1396.645 676.853)" fill="#fabf68"/>
        <path id="Trazado_102402" data-name="Trazado 102402" d="M1396.533-675.143a2.522,2.522,0,0,1,2.185-2.128l14.21-.156.237,0,14.21-.156a2.522,2.522,0,0,1,2.231,2.08l1.2,4.2a1.86,1.86,0,0,1-1.768,2.369l-15.774.173-.237,0-15.774.174a1.86,1.86,0,0,1-1.821-2.33Z" transform="translate(-1395.367 680.925)" fill="#042a48"/>
        <path id="Trazado_102403" data-name="Trazado 102403" d="M1400.87-681.709a1.065,1.065,0,0,1,1.053-1.076l13.125-.144.236,0,13.125-.144a1.064,1.064,0,0,1,1.076,1.053l.035,3.192-14.317-.742-14.3,1.056Z" transform="translate(-1397.524 683.076)" fill="#042a48"/>
        <path id="Trazado_102404" data-name="Trazado 102404" d="M1430.565-653.841l-1.044,14.307a.579.579,0,0,1-.418.516,60.16,60.16,0,0,1-14.841,2.1,60.114,60.114,0,0,1-14.884-1.776.579.579,0,0,1-.43-.507l-1.357-14.281a.578.578,0,0,1,.688-.625c7.028,1.4,24.589,1.208,31.585-.347A.578.578,0,0,1,1430.565-653.841Z" transform="translate(-1396.238 671.863)" fill="#4eae92"/>
        <path id="Trazado_102405" data-name="Trazado 102405" d="M1417.516-644.128a5.689,5.689,0,0,0,4.572,6.621,5.69,5.69,0,0,0,6.622-4.572,5.69,5.69,0,0,0-4.573-6.622A5.69,5.69,0,0,0,1417.516-644.128Z" transform="translate(-1404.011 669.641)" fill="#f0f9fd"/>
      </g>
      <g id="Grupo_57114" data-name="Grupo 57114" transform="translate(272.636 163.088)">
        <path id="Trazado_102406" data-name="Trazado 102406" d="M1800.865-657.189s-2.012,2.426-1.335,7.42l1.178.025a13.554,13.554,0,0,1,2.421-6.527Z" transform="translate(-1783.838 657.189)" fill="#113744"/>
        <path id="Trazado_102407" data-name="Trazado 102407" d="M1793.392-647.482a8.651,8.651,0,0,1-6.875-.145c-2.558-1-12.222-.6-12.687,10.593s9.245,14.246,12.031,14.1a22.663,22.663,0,0,0,2.91-.414,6.221,6.221,0,0,1,.674-.031,6.165,6.165,0,0,1,.671.059,22.712,22.712,0,0,0,2.891.536c2.777.262,12.607-2.382,12.614-13.582S1795.99-648.377,1793.392-647.482Z" transform="translate(-1773.814 653.582)" fill="#a84232"/>
        <path id="Trazado_102408" data-name="Trazado 102408" d="M1798.778-646.951a15.6,15.6,0,0,1,.415,3.718c-.006,11.2-9.836,13.844-12.613,13.582a22.686,22.686,0,0,1-2.89-.536,6.175,6.175,0,0,0-.672-.059,6.257,6.257,0,0,0-.674.03,22.529,22.529,0,0,1-2.91.414,10.383,10.383,0,0,1-4.228-1,12.885,12.885,0,0,0,11.2,8.276,22.678,22.678,0,0,0,2.91-.414,6.233,6.233,0,0,1,.674-.031,6.162,6.162,0,0,1,.671.059,22.7,22.7,0,0,0,2.891.536c2.777.262,12.607-2.382,12.613-13.582C1806.171-643.075,1802.282-646,1798.778-646.951Z" transform="translate(-1774.359 653.177)" fill="#c2142d" opacity="0.3" style="mix-blend-mode: multiply;isolation: isolate"/>
        <path id="Trazado_102409" data-name="Trazado 102409" d="M1802.173-650.651s4.04,1.5,7.243-3.254C1809.416-653.9,1803.5-655.29,1802.173-650.651Z" transform="translate(-1784.929 655.978)" fill="#245542"/>
      </g>
      <path id="Trazado_102410" data-name="Trazado 102410" d="M1681.336-606.048H1334.009a1.061,1.061,0,0,1-1.061-1.062h0a1.061,1.061,0,0,1,1.061-1.061h347.327a1.061,1.061,0,0,1,1.061,1.061h0A1.061,1.061,0,0,1,1681.336-606.048Z" transform="translate(-1328.397 801.066)" fill="#e54637"/>
      <g id="Grupo_57115" data-name="Grupo 57115" transform="translate(227.77 161.781)">
        <rect id="Rectángulo_6403" data-name="Rectángulo 6403" width="35.19" height="1.951" transform="translate(3.773 26.139)" fill="#d1ebf6"/>
        <path id="Trazado_102411" data-name="Trazado 102411" d="M1707.48-642.067l-.533,2.454a1.737,1.737,0,0,0,1.338,2.069l31.427,6.632a1.736,1.736,0,0,0,2.071-1.406l.276-1.612a1.737,1.737,0,0,0-.882-1.819l-9.413-5.119a1.734,1.734,0,0,0-.643-.2l-21.559-2.33-.155-.021A1.737,1.737,0,0,0,1707.48-642.067Z" transform="translate(-1702.726 653.106)" fill="#d1ebf6"/>
        <path id="Trazado_102412" data-name="Trazado 102412" d="M1760.122-631.234s4.488,3.269,1.219,8.659l.2,1.391,5.757.39,5.269-1.073.975-8.781-12.635-3.757Z" transform="translate(-1723.582 649.567)" fill="#e85b46"/>
        <path id="Rectángulo_6404" data-name="Rectángulo 6404" d="M.862,0H49.68a.861.861,0,0,1,.861.861V3.423a.861.861,0,0,1-.861.861H.862A.862.862,0,0,1,0,3.423V.862A.862.862,0,0,1,.862,0Z" transform="translate(0 26.992)" fill="#fabf68"/>
        <path id="Trazado_102413" data-name="Trazado 102413" d="M1701.328-648.863l35.918,8.47a1.726,1.726,0,0,0,.871-.023,11.163,11.163,0,0,1,10.237,2.023,1.712,1.712,0,0,0,2.764-.823l.643-2.26a1.709,1.709,0,0,0-.738-1.917c-5.214-3.264-28.045-16.93-43.075-15.891a4.316,4.316,0,0,0-3.417,2.112l-3.916,6.636A1.128,1.128,0,0,0,1701.328-648.863Z" transform="translate(-1700.199 659.339)" fill="#fabf68"/>
        <path id="Trazado_102414" data-name="Trazado 102414" d="M1772.25-621.978a2.146,2.146,0,0,1-2.146,2.146,2.147,2.147,0,0,1-2.146-2.146,2.147,2.147,0,0,1,2.146-2.147A2.146,2.146,0,0,1,1772.25-621.978Z" transform="translate(-1726.653 645.538)" fill="#fabf68"/>
      </g>
      <g id="Grupo_57123" data-name="Grupo 57123" transform="translate(68.751 11.256)">
        <g id="Grupo_57122" data-name="Grupo 57122" clip-path="url(#clip-path)">
          <g id="Grupo_57121" data-name="Grupo 57121" transform="translate(-3.937 8.471)">
            <g id="Grupo_57119" data-name="Grupo 57119" transform="translate(0 7.329)">
              <path id="Trazado_102415" data-name="Trazado 102415" d="M1505.567-803.391c1.3-1.062,12.793,4.663,12.665,6.207s5.613,15.222,5.613,15.222l12.368-9.9.005,0c.109-.358,1.282-4.206,1.339-4.9.06-.722,2.15-1.985,3.12-1.8s-.83,1.408-.948,1.633c-.322.61.922.839.922.839s3.574-1.968,3.65-3.125.814-3.583,1.585-3.076c.4.262.4,1.983.271,2.8.23-.927.555-1.974.871-2.077.578-.19.865.548.76.911s-1.038,4.3-1.322,4.741-6.048,5.1-6.88,6.111c0,0-16,18.351-17.138,18.831-1,.422-4.562-5.9-7.929-10.1S1501.5-800.07,1505.567-803.391Z" transform="translate(-1460.478 850.57)" fill="#f1907e"/>
              <path id="Trazado_102416" data-name="Trazado 102416" d="M1445.566-585.287s-2.2,2.152-2.248,2.942-.195,9.253.7,10.043,3.533,1.35,2.686,2.239c-.64.671-5.569.528-8.835.347-.953-.053-2.149-7.685-2.526-8.807-.549-1.629-1.882-5.3-1.384-6.435A9.525,9.525,0,0,1,1437-587.71a15,15,0,0,0,3.371-3.6Z" transform="translate(-1432.758 767.403)" fill="#ec756b"/>
              <path id="Trazado_102417" data-name="Trazado 102417" d="M1488.831-573.239s-1.968,5.577-1.97,5.591c-.146.884-.722,3.066-.722,3.869,0,3.017,13.562-2.561,10.522-3.9a3.225,3.225,0,0,1-1.228-2.115,7.08,7.08,0,0,1,1.143-3.566Z" transform="translate(-1453.25 760.366)" fill="#f1907e"/>
              <g id="Grupo_57116" data-name="Grupo 57116" transform="translate(4.999 83.284)">
                <path id="Trazado_102418" data-name="Trazado 102418" d="M1511.063-743.932s.988,10,.988,10.147c0,16.171,3.2,47.76,2.587,50.8-1.483,7.416-17.435,45.246-17.435,45.246l-8.622-1.034,11.236-45.293-4.134-18.23-5.851-36.037Z" transform="translate(-1459.206 743.932)" fill="#1d4378"/>
                <path id="Trazado_102419" data-name="Trazado 102419" d="M1463.193-734.17l-1.636,9.475-4.426,39-16.857,38.113s2.371,5.546,5.869,6.325l26.829-39.13,16.665-50.07-.584-11.124Z" transform="translate(-1440.274 743.013)" fill="#3564a9"/>
              </g>
              <path id="Trazado_102420" data-name="Trazado 102420" d="M1523.147-799.942l-11.956,1.225s-.549-9.835-.549-14.527c0-5.692.484-13.022,1.168-12.865a10.354,10.354,0,0,1,6.053,3.633C1522.491-816.038,1523.147-799.942,1523.147-799.942Z" transform="translate(-1462.853 859.423)" fill="#f49343"/>
              <path id="Trazado_102421" data-name="Trazado 102421" d="M1502.417-814.491c.251,1.735,4.847,48.912,4.847,48.912-21.769,10.55-33.782,1.88-33.782,1.88s.713-33.129-.142-37.638c-.564-2.983-1.268-22.807.658-23.362a48.071,48.071,0,0,1,8.4-1.791c2.638-.275,12.884-.434,14.717.184A23.448,23.448,0,0,1,1502.417-814.491Z" transform="translate(-1447.997 859.667)" fill="#fabf68"/>
              <path id="Trazado_102422" data-name="Trazado 102422" d="M1436.406-585.477s5.067,14.315,7.05,15.006c.526.184,3.054.649,3.531,1.771a4.867,4.867,0,0,1,0,1.466h-10.561s-1.336-6.307-1.864-9.078c0,0-2.8-6.771-2.485-7.386S1436.406-585.477,1436.406-585.477Z" transform="translate(-1432.052 765.116)" fill="#113744"/>
              <path id="Trazado_102423" data-name="Trazado 102423" d="M1484.87-559.14l1.553-4.922s3.262,1.385,4.892,1.154a49.227,49.227,0,0,0,4.815-1.154c6.509,2.15,11.842,3.193,10.872,4.922H1484.87Z" transform="translate(-1452.752 756.723)" fill="#113744"/>
              <g id="Grupo_57117" data-name="Grupo 57117" transform="translate(60.522 67.303)">
                <path id="Trazado_102424" data-name="Trazado 102424" d="M1533.031-757.909a2.775,2.775,0,0,0,.329-.245c-.387-4.621-.317-9.1,1.128-10.615-.035-.072-.351-.746-.68-1.445-1.675,1.3-2.471,4.755-2.159,10.362a9.458,9.458,0,0,0,.221,1.161C1532.355-758.155,1532.8-757.81,1533.031-757.909Z" transform="translate(-1531.582 770.214)" fill="#f1907e"/>
              </g>
              <path id="Trazado_102425" data-name="Trazado 102425" d="M1437.917-757.971a1.328,1.328,0,0,1-.006-.3c.321-3.267,3.024-30.7,3.48-31.868.411-1.053,12.536-18.454,12.536-18.454l5.959,8.147-11.661,15.607c-.262.992-4.469,19.512-4.469,19.512s-.862,3.375-1.248,5.4c.176.487.349.947.5,1.325a12.229,12.229,0,0,0,1.256,2.026,13.907,13.907,0,0,1,1.489,2.643c.124.476.346,1.466.472,2.064s.3,1.293.328,1.618a3.143,3.143,0,0,0,.377.869.522.522,0,0,1-.614.753c-.424-.142-.753-.691-.957-1.035-.573-.968-.879-2.735-1.022-2.641s-.646,3.091-.725,3.43a37.019,37.019,0,0,1-1.023,4.457c-.34.636-.79.53-.91.131-.1-.343.375-5.214.375-5.214s.059-.621-.211-.427-.714,4.616-.9,5.263-.618.99-.983.47c-.444-.632.319-5.323.319-5.323s.086-.59-.165-.535-.565,3.824-.761,4.15a.5.5,0,0,1-.924-.1c-.276-.64.44-4.821.44-4.821s-.035-.333-.192-.223-.654,3.3-.977,3.6a.343.343,0,0,1-.5.008c-.595-.407.317-3.445.308-4.955s.689-3.208.481-5.006C1437.976-757.52,1437.94-757.8,1437.917-757.971Z" transform="translate(-1433.991 852.559)" fill="#f19080"/>
              <path id="Trazado_102426" data-name="Trazado 102426" d="M1449.259-803.357l10.357,6.978s5.838-8.716,8.971-11.819c3.925-3.887-1.43-15.8-3.959-15.121C1458.971-821.813,1449.259-803.357,1449.259-803.357Z" transform="translate(-1438.796 858.34)" fill="#fabf68"/>
              <path id="Trazado_102427" data-name="Trazado 102427" d="M1488.876-843.5l-1.549,10.246s5.657,12.2,9.034,11.141c2.834-.888,1.09-11.681,1.09-11.681s-1.545-5.8-1.081-8.7S1488.876-843.5,1488.876-843.5Z" transform="translate(-1453.715 866.475)" fill="#f1907e"/>
              <path id="Trazado_102428" data-name="Trazado 102428" d="M1497.286-842.49c.464-2.9-7.495-1.008-7.495-1.008l-.128.85a4.743,4.743,0,0,0,.863,1.428,10.465,10.465,0,0,0,6.958,3.16A15.888,15.888,0,0,1,1497.286-842.49Z" transform="translate(-1454.631 866.475)" fill="#e95d47"/>
              <g id="Grupo_57118" data-name="Grupo 57118" transform="translate(27.481)">
                <path id="Trazado_102429" data-name="Trazado 102429" d="M1487.33-869c-.225-.082-1.8,11.669,1.191,14.9s8.829,4.292,10.921,1.745c2.315-2.817,2.2-15.446-2.457-18.772S1487.33-869,1487.33-869Z" transform="translate(-1480.956 877.488)" fill="#f1907e"/>
                <path id="Trazado_102430" data-name="Trazado 102430" d="M1491.5-880.821a12.922,12.922,0,0,0-6.786,3.883c-1.634.194-3.855,1.1-6.148,4.91a9.549,9.549,0,0,0,2.545,12.421c3.282,2.547,3.237,5.488,3.237,5.488l.519-1.521a8.524,8.524,0,0,0,.411-3.583,7.027,7.027,0,0,0-.531-2.155c-.789-1.7,1.7-2.83,2.393-4.245.536-1.09.563-3.582,1.408-5.383l1.009-1.375s2.33-1.819,4.608-1.305S1496.12-881.765,1491.5-880.821Z" transform="translate(-1477.245 880.893)" fill="#113744"/>
                <path id="Trazado_102431" data-name="Trazado 102431" d="M1491.344-854c.024,1.434-.626,2.607-1.451,2.621s-1.512-1.136-1.536-2.57.625-2.608,1.45-2.622S1491.32-855.434,1491.344-854Z" transform="translate(-1481.6 871.361)" fill="#f1907e"/>
              </g>
              <path id="Trazado_102432" data-name="Trazado 102432" d="M1501.266-847.046l4.514-.235a1.981,1.981,0,0,1-2,1.886C1501.366-845.2,1501.266-847.046,1501.266-847.046Z" transform="translate(-1459.178 867.72)" fill="#fff"/>
            </g>
            <g id="Grupo_57120" data-name="Grupo 57120" transform="translate(59.586)">
              <path id="Trazado_102433" data-name="Trazado 102433" d="M1540.71-847.976s-12.362,1.784-10.472,13.714c1.761,11.123,12.362,8.864,15.084,8.306S1540.71-847.976,1540.71-847.976Z" transform="translate(-1530.041 875.322)" fill="#e85b46"/>
              <path id="Trazado_102434" data-name="Trazado 102434" d="M1545.563-818.272c1.267-.259.354-5.051-.983-10.1-4.551.892-9.62,1.887-13.924,2.737C1532.855-815.587,1542.92-817.731,1545.563-818.272Z" transform="translate(-1530.282 867.638)" fill="#a84232"/>
              <path id="Trazado_102435" data-name="Trazado 102435" d="M1559.281-811.041s2.715,9.694,2,17.226c-.667,7.024.333,8.195,2.944,7.972s8.945-1.784,9.056-4.293-1.056-15.386-5.445-22.3S1559.281-811.041,1559.281-811.041Z" transform="translate(-1541.5 862.47)" fill="#8cc8b8"/>
              <path id="Trazado_102436" data-name="Trazado 102436" d="M1563.5-815.02a29.506,29.506,0,0,0-4.219,4.043s2.715,9.694,2,17.226c-.667,7.024.333,8.195,2.944,7.972a22.055,22.055,0,0,0,3.885-.766C1569.152-803.809,1564.7-813.067,1563.5-815.02Z" transform="translate(-1541.5 862.406)" fill="#4dad92"/>
              <path id="Trazado_102437" data-name="Trazado 102437" d="M1589.187-886.618s-20.5,14.927-27.126,19.442l-3.875,5.77,2.75,16.808,6.625,3.261,32.377,6.4-.75-3.638-5.875-16.306-3-18.564-.875-11.414Z" transform="translate(-1541.071 890.466)" fill="#8cc8b8"/>
              <path id="Trazado_102438" data-name="Trazado 102438" d="M1594.328-837.567l-.786-4.867-32.764,7.979,1.174,7.173,6.625,3.261,32.377,6.4-.75-3.638Z" transform="translate(-1542.087 873.15)" fill="#4dad92"/>
              <path id="Trazado_102439" data-name="Trazado 102439" d="M1557.306-855.5s-2.708,14.257,5.5,25.839a1.435,1.435,0,0,1-.542,1.742l-6.111,1.561s-2.833,1-5.223-3.067-6.611-13.212-4.111-23.3a4.569,4.569,0,0,1,3.945-3.233l4.445-.836S1557.181-857.1,1557.306-855.5Z" transform="translate(-1536.317 878.786)" fill="#357e69"/>
              <path id="Trazado_102440" data-name="Trazado 102440" d="M1607.836-889.1s5.333-3.93,8.417-3.847,6.167,4.181,8.167,7.526,7.25,16.473,7.751,25.337.417,21.491-3.917,23-9.667-.334-9.667-.334-7-6.021-11.084-24.752S1607.836-889.1,1607.836-889.1Z" transform="translate(-1559.72 892.946)" fill="#245542"/>
              <path id="Trazado_102441" data-name="Trazado 102441" d="M1627.991-836.151s4.986-6.48,2.445-23.978c-4-27.548-14.084-31.714-14.084-31.714s-7.464,5.687-.333,32.31C1621.894-837.6,1627.991-836.151,1627.991-836.151Z" transform="translate(-1562.528 892.514)" fill="#357e69"/>
              <path id="Trazado_102442" data-name="Trazado 102442" d="M1614.082-857.188a101.285,101.285,0,0,0,2.387,11.2c.569,2.125,1.141,4.057,1.708,5.815,3.1-1.077,8.114-3.776,5.973-10.623C1622.166-857.137,1617-857.525,1614.082-857.188Z" transform="translate(-1562.978 878.965)" fill="#e85b46"/>
              <path id="Trazado_102443" data-name="Trazado 102443" d="M1617.581-841.628c.569,2.125,1.141,4.057,1.708,5.815,3.057-1.062,7.976-3.7,6.058-10.342l-8.427,1.948Q1617.227-842.951,1617.581-841.628Z" transform="translate(-1564.09 874.608)" fill="#a84232"/>
              <path id="Trazado_102444" data-name="Trazado 102444" d="M1563.451-819.343a31.585,31.585,0,0,1-4.92-11.156l-10.831,2.051a37.191,37.191,0,0,0,3.875,9.341c2.389,4.07,5.223,3.067,5.223,3.067l6.111-1.561A1.435,1.435,0,0,0,1563.451-819.343Z" transform="translate(-1536.962 868.472)" fill="#357e69" opacity="0.3" style="mix-blend-mode: multiply;isolation: isolate"/>
            </g>
            <path id="Trazado_102445" data-name="Trazado 102445" d="M1560.432-793.025c0-1.132.167-1.962.77-2.387a4.83,4.83,0,0,1,1.978-.807c.076.115.114,1.3-1.871,2.825C1560.356-792.86,1560.432-793.025,1560.432-793.025Z" transform="translate(-1482.365 855.044)" fill="#f1907e"/>
          </g>
        </g>
      </g>
    </g>
    <g id="Grupo_57126" data-name="Grupo 57126" transform="translate(1539.55 -874.799)">
      <g id="Grupo_57125" data-name="Grupo 57125" transform="translate(6.401)">
        <path id="Trazado_102447" data-name="Trazado 102447" d="M1709.383-710.75c0,1.327-4.774,2.4-10.663,2.4s-10.663-1.076-10.663-2.4c0-1.773,2.694-3.21,10.663-3.21C1705.881-713.96,1709.383-712.478,1709.383-710.75Z" transform="translate(-1688.056 788.268)" fill="#509eb6"/>
        <ellipse id="Elipse_4131" data-name="Elipse 4131" cx="9.866" cy="2.223" rx="9.866" ry="2.223" transform="translate(0.797 74.308)" fill="#89cee2"/>
        <rect id="Rectángulo_6405" data-name="Rectángulo 6405" width="1.437" height="17.959" rx="0.591" transform="translate(9.945 58.054)" fill="#347f96"/>
        <path id="Trazado_102448" data-name="Trazado 102448" d="M1696.208-828.285c.053,2.59-2.888,4.714-5.177,4.983s-2.212-.635.272,7.635,3.634,10.684-.272,17.015-1.973,25.054-1.973,28.421,19.223,2.424,19.751,1.213,3.178-20.635-1.152-28.96c-3.848-7.4-1.819-11.718-.135-17.241s3.7-7.222,1.263-7.947c-4.969-1.482-6.526-2.77-6.68-4.849C1701.956-830.059,1696.185-829.453,1696.208-828.285Z" transform="translate(-1688.261 833.494)" fill="#509eb6"/>
        <path id="Trazado_102449" data-name="Trazado 102449" d="M1706.907-827.99c0,.577-1.237,1.044-2.761,1.044s-2.761-.467-2.761-1.044,1.236-1.044,2.761-1.044S1706.907-828.566,1706.907-827.99Z" transform="translate(-1693.28 833.367)" fill="#89cee2"/>
        <rect id="Rectángulo_6406" data-name="Rectángulo 6406" width="1.437" height="5.567" rx="0.718" transform="translate(10.147)" fill="#347f96"/>
      </g>
      <path id="Trazado_102450" data-name="Trazado 102450" d="M1689.4-777.234c-2.065,6.2-1.976,21.731-1.976,21.731a40.044,40.044,0,0,0,9.608,1.257c5.119,0,7.283-.214,7.283-.214l.683-10.2s1.25,10.132,1.317,10.136a35.7,35.7,0,0,0,4.1-.438c0-5.657-.36-18.229-1.8-20.923s-11.225-6.147-11.225-6.147Z" transform="translate(-1681.406 814.947)" fill="#e75a56"/>
      <path id="Trazado_102451" data-name="Trazado 102451" d="M1692.415-771.937c3.835-.647,8.576-3.435,8.576-3.435a16,16,0,0,0,8.837,1.354,10.17,10.17,0,0,0-.756-2.768,74.075,74.075,0,0,0-7.093-7.543l-6.108,1.4-6.016,4.8a35.311,35.311,0,0,0-1.266,6.758C1689.276-771.45,1690.456-771.607,1692.415-771.937Z" transform="translate(-1681.864 815.846)" fill="#c93431" opacity="0.5"/>
      <path id="Trazado_102452" data-name="Trazado 102452" d="M1711.919-821.613c.445,4.681-3.8,11.757-4.727,13.523-.352.673-2.108,14.211.923,16.8,2.576,2.2,9.04.942,9.04.942s-3.315-9.025-3.18-12.662,3.18-16.837,3.18-16.837Z" transform="translate(-1688.831 830.458)" fill="#e75a56"/>
      <path id="Trazado_102453" data-name="Trazado 102453" d="M1693.126-821.214c.693,7.351,5.175,13.617,5.175,13.617s2.9,14.312-.471,16.13-9.631.808-9.631.808,4.378-9.362,3.367-13.807-2.694-15.49-2.694-15.49Z" transform="translate(-1681.711 830.302)" fill="#e75a56"/>
      <path id="Trazado_102454" data-name="Trazado 102454" d="M1694.354-821.31l.586,5.453,1.867,1.482-.933,2.694s3.842,2.775,4.6,5.739a75.827,75.827,0,0,1,1.324,8.135c-.016.194-.057-6.489,1.706-9.53a17.15,17.15,0,0,1,4.205-4.748l-.852-2.156,2.068-1.751-.609-5.5-1.949-.777a34.836,34.836,0,0,1-2.449,7.359,30.682,30.682,0,0,0-2.314,9.138,34.673,34.673,0,0,0-2.58-9,59.95,59.95,0,0,1-2.789-7.037Z" transform="translate(-1684.123 830.717)" fill="#c93431"/>
      <path id="Trazado_102455" data-name="Trazado 102455" d="M1694.721-782.982l-4.007,1.044s-2.525,2.424-1.885,2.626a5.638,5.638,0,0,0,4.063-1.414A9.731,9.731,0,0,0,1694.721-782.982Z" transform="translate(-1681.917 815.318)" fill="#c93431"/>
      <path id="Trazado_102456" data-name="Trazado 102456" d="M1713.921-782.982l4.007,1.044s2.525,2.424,1.886,2.626a5.638,5.638,0,0,1-4.063-1.414A9.752,9.752,0,0,1,1713.921-782.982Z" transform="translate(-1691.792 815.318)" fill="#c93431"/>
      <path id="Trazado_102457" data-name="Trazado 102457" d="M1684.691-819.146c-.921-.022-.741-.2-1.28,5.815s-4.176,20.474-5.029,24.784l-.853,4.311a12.054,12.054,0,0,0,3.053.4c.9-.134,3.592-9.6,4.108-12.747s1.791-8.922,2.119-9.9S1684.691-819.146,1684.691-819.146Z" transform="translate(-1677.529 829.494)" fill="#e75a56"/>
      <path id="Trazado_102458" data-name="Trazado 102458" d="M1722.292-818.777c.921-.023.741-.2,1.28,5.814s4.175,20.474,5.028,24.784l.853,4.311a12.048,12.048,0,0,1-3.053.4c-.9-.134-3.592-9.6-4.108-12.747s-2.138-9.064-2.466-10.038S1722.292-818.777,1722.292-818.777Z" transform="translate(-1694.095 829.349)" fill="#e75a56"/>
    </g>
    <g id="Grupo_53914" data-name="Grupo 53914" transform="translate(1486.942 -841.829)">
      <g id="Grupo_53910" data-name="Grupo 53910" transform="translate(0 6.225)">
        <g id="Grupo_53908" data-name="Grupo 53908" transform="translate(33.8 0.001)">
          <path id="Trazado_100771" data-name="Trazado 100771" d="M1657.541-769.068l-10.943,17.66,9.822-18.307Z" transform="translate(-1646.598 770.923)" fill="#f48526"/>
          <path id="Trazado_100772" data-name="Trazado 100772" d="M1661.36-770.935a1.531,1.531,0,0,1,2.091-.561,1.531,1.531,0,0,1,.561,2.091,1.531,1.531,0,0,1-2.091.561,1.53,1.53,0,0,1-.562-2.09Z" transform="translate(-1652.303 771.701)" fill="#a25482"/>
        </g>
        <g id="Grupo_53909" data-name="Grupo 53909">
          <path id="Trazado_100773" data-name="Trazado 100773" d="M1593.729-769.716l9.822,18.307-10.942-17.659Z" transform="translate(-1591.64 770.925)" fill="#f48526"/>
          <path id="Trazado_100774" data-name="Trazado 100774" d="M1591.22-769.406a1.531,1.531,0,0,1,.559-2.092,1.531,1.531,0,0,1,2.092.559,1.531,1.531,0,0,1-.559,2.092l0,0a1.528,1.528,0,0,1-2.087-.559Z" transform="translate(-1591.015 771.704)" fill="#a25482"/>
        </g>
      </g>
      <path id="Trazado_100775" data-name="Trazado 100775" d="M1628.95-780.167c0-.98-.44-1.77-.982-1.773s-.981.794-.983,1.773c0,0,0,.006,0,.01l.026.483.959,19.344.96-19.344.024-.483S1628.95-780.164,1628.95-780.167Zm-.445.437c-.091.374-.3.637-.538.638s-.447-.264-.537-.638a1.68,1.68,0,0,1-.05-.427.57.57,0,0,1,0-.064c.018-.558.271-1,.584-1s.566.447.583,1c0,.021,0,.041,0,.064a1.67,1.67,0,0,1-.047.426Z" transform="translate(-1605.111 781.94)" fill="#f48526"/>
      <g id="Grupo_53912" data-name="Grupo 53912" transform="translate(9.897 1.953)">
        <g id="Grupo_53911" data-name="Grupo 53911" transform="translate(19.014)">
          <path id="Trazado_100776" data-name="Trazado 100776" d="M1644.557-776.158l-6,19.891,4.75-20.228Z" transform="translate(-1638.558 777.853)" fill="#f48526"/>
          <path id="Trazado_100777" data-name="Trazado 100777" d="M1644.933-777.6a1.53,1.53,0,0,1,1.875-1.081,1.53,1.53,0,0,1,1.081,1.875,1.529,1.529,0,0,1-1.874,1.081,1.528,1.528,0,0,1-1.083-1.869Z" transform="translate(-1641.036 778.729)" fill="#991352"/>
        </g>
        <path id="Trazado_100778" data-name="Trazado 100778" d="M1609.292-776.111c-.255-.944-.884-1.594-1.408-1.458s-.74,1.02-.491,1.967a.018.018,0,0,1,0,.011l.148.459,5.936,18.437-4.082-18.932-.1-.473S1609.292-776.107,1609.292-776.111Zm-.316.538c.008.384-.122.69-.355.756s-.5-.141-.685-.479a1.849,1.849,0,0,1-.159-.4.281.281,0,0,1-.011-.063c-.129-.542,0-1.035.3-1.118s.664.285.823.816a.548.548,0,0,1,.022.061A1.9,1.9,0,0,1,1608.977-775.573Z" transform="translate(-1607.29 778.281)" fill="#f48526"/>
      </g>
      <g id="Grupo_53913" data-name="Grupo 53913" transform="translate(3.106 20.524)">
        <path id="Trazado_100779" data-name="Trazado 100779" d="M1596.123-738.356c0-6.144,8.841-9.832,19.751-9.832s19.751,3.686,19.751,9.832-3.064,12.421-19.751,12.421S1596.123-732.212,1596.123-738.356Z" transform="translate(-1596.123 748.188)" fill="#4da5aa"/>
        <path id="Trazado_100780" data-name="Trazado 100780" d="M1634.415-714v-2.487a1.251,1.251,0,0,0-1.25-1.252h-30.2a1.253,1.253,0,0,0-1.253,1.252V-714Z" transform="translate(-1598.312 736.256)" fill="#213e41"/>
      </g>
    </g>
  </g>
</svg>
