<svg xmlns="http://www.w3.org/2000/svg" width="295" height="249.581" viewBox="0 0 295 249.581">
  <g id="Grupo_57596" data-name="Grupo 57596" transform="translate(-285 -5388.419)">
    <ellipse id="Elipse_4482" data-name="Elipse 4482" cx="147.5" cy="19" rx="147.5" ry="19" transform="translate(285 5600)" fill="#e8e8e8"/>
    <g id="illustration" transform="translate(404.97 2099.459)">
      <g id="Grupo_57595" data-name="Grupo 57595" transform="translate(-139.969 3312.312)">
        <g id="Grupo_57592" data-name="Grupo 57592" transform="translate(23.77 7.647)">
          <path id="Trazado_120619" data-name="Trazado 120619" d="M1320.063,3907.792c-3.855-10.089-21.032-5.084-21.032-5.084s-10.056,19.35-13.47,20.131,5.367-18.222,5.367-18.222c-6.765.027-23.009,9.959-23.009,9.959s3.215,21.069-.286,20.985-1.895-18.8-1.895-18.8c-6.287,2.6-11.576,10.772-11.576,10.772-6.322,13.08,10.8,20.522,10.8,20.522a34.654,34.654,0,0,1-2.732,16.211h0a25.144,25.144,0,0,0-1.642,4.409l1.768-.178c.1-.488.209-.962.341-1.42a.011.011,0,0,1,0-.009l.006-.02c.094-.285.228-.691.4-1.187v0s0,0,0,0c.433-1.112.72-1.929.893-2.516a.029.029,0,0,0,0-.005c1.283-3.481,3.178-8.04,4.642-9.1a3.426,3.426,0,0,1-.46-.772l.46.772c3.679,6.178,18.915,5.734,27.168,3.156s4.34-4.585-.586-7.986-14.333-1.425-17.294-2.655.992-3.156,6.654-3.29,9.038,5.2,18.2,5.151,14.358-17.819,14.358-17.819c-6.071,2.576-17.656.251-18.306-1.866s16.011-3.578,18.539-4.488S1323.918,3917.881,1320.063,3907.792Z" transform="translate(-1040.898 -3819.594)" fill="#0ac4bf"/>
          <path id="Trazado_120620" data-name="Trazado 120620" d="M94.16,4178.126c-7.934-9.7,7.015-24.109,7.015-24.109s25.284,1.039,28.039-1.948-21.443-5.11-21.443-5.11c3.93-6.794,23.3-17.419,23.3-17.419s19.358,15.392,21.293,11.818S134.53,4128.6,134.53,4128.6c6.243-4.831,17.523-5.44,17.523-5.44,16.816,1.181,14.431,22.714,14.431,22.714a40.2,40.2,0,0,0,17.9,6.6h0a29.187,29.187,0,0,1,5.386.891l-1.2,1.677c-.548-.185-1.09-.345-1.627-.476a.014.014,0,0,0-.01,0l-.023-.005c-.341-.07-.828-.169-1.424-.284h-.005c-1.369-.2-2.357-.389-3.049-.552l-.006,0c-4.245-.716-9.928-1.438-11.843-.579a3.992,3.992,0,0,0-.512-.909l.512.909c4.1,7.268-5.139,22.352-12.5,29.174s-7.12,1.725-7.7-5.2,6.834-15.253,7.3-18.944-3.75-.822-7.151,4.8.023,12.1-5.314,21.3S119,4188.452,119,4188.452c6.1-4.625,10.44-17.631,8.683-19.507s-12.84,14.056-15.214,16.076S102.094,4187.827,94.16,4178.126Z" transform="translate(-91.838 -4000.834)" fill="#0ac4bf"/>
          <g id="Grupo_57576" data-name="Grupo 57576" transform="translate(64.132 134.734)">
            <path id="Rectángulo_6741" data-name="Rectángulo 6741" d="M0,0H74.706A19.431,19.431,0,0,1,94.136,19.431v0A19.871,19.871,0,0,1,74.265,39.3H0a0,0,0,0,1,0,0V0A0,0,0,0,1,0,0Z" transform="translate(4.367 0.001)" fill="#feffff"/>
            <path id="Trazado_120621" data-name="Trazado 120621" d="M611.969,4207.3v5.913a21.9,21.9,0,0,1-1.726,8.661c-2.205,5.118-6.307,8.557-11,8.557H445.1c-1.02,0-1.846-1.118-1.846-2.5v-.885c0-1.377.826-2.5,1.846-2.5h91.323a4.229,4.229,0,0,0,3.946-2.652l.011-.029a20.622,20.622,0,0,0,1.377-7.514v-7.516a20.932,20.932,0,0,0-.38-4l-.013-.064a7.207,7.207,0,0,0-7.086-5.771H445.1c-1.02,0-1.846-1.118-1.846-2.5v-.883c0-1.38.826-2.5,1.846-2.5H600.016c5.459,0,10.063,4.951,11.492,11.714A21.5,21.5,0,0,1,611.969,4207.3Z" transform="translate(-443.256 -4191.131)" fill="#bf3976"/>
            <path id="Trazado_120622" data-name="Trazado 120622" d="M467.187,4298.813l11.413.66-11.413.4Z" transform="translate(-462.82 -4279.162)" fill="#ffe7ab"/>
            <path id="Trazado_120623" data-name="Trazado 120623" d="M467.187,4332.6l27.152.661-27.152.4Z" transform="translate(-462.82 -4306.785)" fill="#ffe7ab"/>
          </g>
          <g id="Grupo_57577" data-name="Grupo 57577" transform="translate(75.184 70.012)">
            <path id="Rectángulo_6742" data-name="Rectángulo 6742" d="M0,0H61.549A16.375,16.375,0,0,1,77.925,16.375v0A16.746,16.746,0,0,1,61.178,33.122H0a0,0,0,0,1,0,0V0A0,0,0,0,1,0,0Z" transform="translate(3.615 0)" fill="#feffff"/>
            <path id="Trazado_120624" data-name="Trazado 120624" d="M643.473,3850.107v4.983a18.747,18.747,0,0,1-1.429,7.3c-1.826,4.313-5.221,7.212-9.108,7.212H505.343c-.844,0-1.528-.942-1.528-2.1v-.746c0-1.161.684-2.1,1.528-2.1h77.779a14.8,14.8,0,0,0,1.092-2.26,17.657,17.657,0,0,0,1.14-6.332v-6.334a17.936,17.936,0,0,0-.315-3.371,15.577,15.577,0,0,0-1.8-4.918H505.343c-.844,0-1.528-.942-1.528-2.1v-.744c0-1.163.684-2.1,1.528-2.1H633.578c4.519,0,8.33,4.172,9.513,9.872A18.427,18.427,0,0,1,643.473,3850.107Z" transform="translate(-503.815 -3836.48)" fill="#339ce9"/>
            <path id="Trazado_120625" data-name="Trazado 120625" d="M523.624,3927.229l9.447.557-9.447.335Z" transform="translate(-520.009 -3910.668)" fill="#ffe7ab"/>
            <path id="Trazado_120626" data-name="Trazado 120626" d="M523.624,3955.706l22.476.557-22.476.335Z" transform="translate(-520.009 -3933.947)" fill="#ffe7ab"/>
          </g>
          <g id="Grupo_57581" data-name="Grupo 57581" transform="translate(74.201 173.967)">
            <g id="Grupo_57579" data-name="Grupo 57579" transform="translate(0 0)">
              <g id="Grupo_57578" data-name="Grupo 57578">
                <path id="Rectángulo_6743" data-name="Rectángulo 6743" d="M0,0H91.076a13.287,13.287,0,0,1,13.287,13.287v0A12.476,12.476,0,0,1,91.886,25.763H0a0,0,0,0,1,0,0V0A0,0,0,0,1,0,0Z" transform="translate(104.363 25.763) rotate(180)" fill="#007a96"/>
                <path id="Rectángulo_6744" data-name="Rectángulo 6744" d="M0,0H103.767a13.026,13.026,0,0,1,13.026,13.026v0a12.737,12.737,0,0,1-12.737,12.737H0a0,0,0,0,1,0,0V0A0,0,0,0,1,0,0Z" transform="translate(203.899 25.763) rotate(-180)" fill="#feffff"/>
                <path id="Rectángulo_6745" data-name="Rectángulo 6745" d="M1.926,0H129.06a1.927,1.927,0,0,1,1.927,1.927v0a1.927,1.927,0,0,1-1.927,1.927H1.927A1.927,1.927,0,0,1,0,1.927v0A1.926,1.926,0,0,1,1.926,0Z" transform="translate(209.317 25.763) rotate(180)" fill="#007a96"/>
                <path id="Rectángulo_6746" data-name="Rectángulo 6746" d="M1.927,0H129.06a1.927,1.927,0,0,1,1.927,1.927v0a1.927,1.927,0,0,1-1.927,1.927H1.926A1.926,1.926,0,0,1,0,1.927v0A1.927,1.927,0,0,1,1.927,0Z" transform="translate(209.317 3.853) rotate(-180)" fill="#007a96"/>
              </g>
              <path id="Trazado_120627" data-name="Trazado 120627" d="M1552.28,4476.7l-14.16.433,14.16.262Z" transform="translate(-1348.381 -4463.814)" fill="#ffe7ab"/>
              <path id="Trazado_120628" data-name="Trazado 120628" d="M1464.807,4444.207l-33.687.433,33.687.261Z" transform="translate(-1260.908 -4437.254)" fill="#ffe7ab"/>
            </g>
            <g id="Grupo_57580" data-name="Grupo 57580" transform="translate(170.559 7.299)">
              <path id="Trazado_120629" data-name="Trazado 120629" d="M1433.02,4446.108a5.969,5.969,0,0,1,1.921,2.926,4.513,4.513,0,0,1,.15,1.018c.08,2.417,0,7.889,0,7.889l4.262-2.735,4.251,2.735v-7.415a6.229,6.229,0,0,0-1.042-3.659,1.6,1.6,0,0,0-1.177-.758Z" transform="translate(-1433.02 -4446.108)" fill="#f55"/>
              <path id="Trazado_120630" data-name="Trazado 120630" d="M1433.02,4446.108a5.969,5.969,0,0,1,1.921,2.926l8.541.108s-.335-2.605-2.1-3.035Z" transform="translate(-1433.02 -4446.108)" fill="#f42f2f"/>
            </g>
          </g>
          <g id="Grupo_57582" data-name="Grupo 57582" transform="translate(45.313 103.133)">
            <path id="Rectángulo_6747" data-name="Rectángulo 6747" d="M0,0H101.147a15.978,15.978,0,0,1,15.978,15.978v0A15.624,15.624,0,0,1,101.5,31.6H0a0,0,0,0,1,0,0V0A0,0,0,0,1,0,0Z" transform="translate(204.479 31.601) rotate(180)" fill="#feffff"/>
            <path id="Trazado_120631" data-name="Trazado 120631" d="M427.431,4030.236v6.8a6.656,6.656,0,0,0,.718,2.945,8.612,8.612,0,0,0,4.063,3.828,11.018,11.018,0,0,0,4.715,1.037H547.7a2.183,2.183,0,0,1,2.35,1.963v.8a2.183,2.183,0,0,1-2.35,1.963H356.341a17.306,17.306,0,0,1-13.274-5.765,12,12,0,0,1-2.932-7.766v-5.365a10.942,10.942,0,0,1,1.512-5.526c2.46-4.249,7.672-7.179,13.7-7.179H547.7a2.181,2.181,0,0,1,2.35,1.96v.8a2.183,2.183,0,0,1-2.35,1.962H436.587a10.091,10.091,0,0,0-6.737,2.454,7.638,7.638,0,0,0-1.734,2.248A6.463,6.463,0,0,0,427.431,4030.236Z" transform="translate(-340.134 -4017.975)" fill="#f42f2f"/>
            <path id="Trazado_120632" data-name="Trazado 120632" d="M1396.98,4104.552l-14.2.531,14.2.32Z" transform="translate(-1192.501 -4088.751)" fill="#ffe7ab"/>
            <path id="Trazado_120633" data-name="Trazado 120633" d="M1309.258,4064.7l-33.783.531,33.783.32Z" transform="translate(-1104.779 -4056.172)" fill="#ffe7ab"/>
          </g>
          <g id="Grupo_57594" data-name="Grupo 57594" transform="translate(45.313 38.411)">
            <path id="Rectángulo_6747-2" data-name="Rectángulo 6747" d="M0,0H101.147a15.978,15.978,0,0,1,15.978,15.978v0A15.624,15.624,0,0,1,101.5,31.6H0a0,0,0,0,1,0,0V0A0,0,0,0,1,0,0Z" transform="translate(204.479 31.601) rotate(180)" fill="#feffff"/>
            <path id="Trazado_120631-2" data-name="Trazado 120631" d="M427.431,4030.236v6.8a6.656,6.656,0,0,0,.718,2.945,8.612,8.612,0,0,0,4.063,3.828,11.018,11.018,0,0,0,4.715,1.037H547.7a2.183,2.183,0,0,1,2.35,1.963v.8a2.183,2.183,0,0,1-2.35,1.963H356.341a17.306,17.306,0,0,1-13.274-5.765,12,12,0,0,1-2.932-7.766v-5.365a10.942,10.942,0,0,1,1.512-5.526c2.46-4.249,7.672-7.179,13.7-7.179H547.7a2.181,2.181,0,0,1,2.35,1.96v.8a2.183,2.183,0,0,1-2.35,1.962H436.587a10.091,10.091,0,0,0-6.737,2.454,7.638,7.638,0,0,0-1.734,2.248A6.463,6.463,0,0,0,427.431,4030.236Z" transform="translate(-340.134 -4017.975)" fill="#8f2b58"/>
            <path id="Trazado_120632-2" data-name="Trazado 120632" d="M1396.98,4104.552l-14.2.531,14.2.32Z" transform="translate(-1192.501 -4088.751)" fill="#ffe7ab"/>
            <path id="Trazado_120633-2" data-name="Trazado 120633" d="M1309.258,4064.7l-33.783.531,33.783.32Z" transform="translate(-1104.779 -4056.172)" fill="#ffe7ab"/>
          </g>
          <g id="Grupo_57586" data-name="Grupo 57586" transform="translate(95.957 -31)">
            <path id="Trazado_120634" data-name="Trazado 120634" d="M735.345,3588.617s2.4,3.547,3.764,11c1.2,6.531,2.247,8.942,3.976,10.281s11.363,5.294,11.363,5.294l-.72,1.688s-14.121-1.923-15.707-4.283-7.633-16.3-7.164-19.516S735.345,3588.617,735.345,3588.617Z" transform="translate(-710.176 -3563.839)" fill="#e06817"/>
            <g id="Grupo_57583" data-name="Grupo 57583" transform="translate(58.988 92.918)">
              <path id="Trazado_120635" data-name="Trazado 120635" d="M941.634,3971.753c-.127,1.377,1.79,1.712,4.011,1.823s1.55.565,4.593,1.117,4.263-.282,4.483-.693c.2-.365-1.218-.935-2.726-1.58-.19-.08-.38-.163-.57-.246-1.7-.746-2.649-2.268-3.972-3.679-1.253-1.337-2.443-5.616-2.443-5.616l-4.135-.883s1.161,3.852,1.564,5.5a5.1,5.1,0,0,1-.423,2.871A5.4,5.4,0,0,0,941.634,3971.753Z" transform="translate(-940.874 -3961.995)" fill="#f47f31"/>
              <path id="Trazado_120636" data-name="Trazado 120636" d="M949.025,4011.058c2.221.111,1.55.565,4.593,1.117s4.263-.282,4.483-.693c.2-.365-1.218-.936-2.726-1.58l-.024.026a8.664,8.664,0,0,1-4.61.055c-2.013-.547-3.96-1.75-5.347-2.138a5.4,5.4,0,0,0-.38,1.391C944.887,4010.612,946.8,4010.947,949.025,4011.058Z" transform="translate(-944.254 -3999.477)" fill="#49101d"/>
            </g>
            <path id="Trazado_120637" data-name="Trazado 120637" d="M695.229,3732.874s27.48-2.068,32.654,1.2,13.471,41.3,13.471,41.3a3.374,3.374,0,0,1-1.656.534,13.88,13.88,0,0,1-3.406-.51s-11.924-17.017-12.764-21.3-.635-8.112-2.547-8.215-25.754,2.9-29.361-3.454a14.639,14.639,0,0,1-.625-12.643Z" transform="translate(-676.662 -3679.238)" fill="#00ce89"/>
            <g id="Grupo_57584" data-name="Grupo 57584" transform="translate(48.473 97.331)">
              <path id="Trazado_120638" data-name="Trazado 120638" d="M884.016,3995.939c-.127,1.377,1.79,1.712,4.011,1.823s1.55.566,4.593,1.116,4.263-.281,4.483-.692c.2-.365-1.219-.935-2.727-1.58q-.285-.121-.57-.247c-1.7-.746-2.649-2.268-3.972-3.679-1.253-1.336-2.443-5.616-2.443-5.616l-4.135-.883s1.161,3.852,1.564,5.5a5.1,5.1,0,0,1-.423,2.871A5.4,5.4,0,0,0,884.016,3995.939Z" transform="translate(-883.255 -3986.181)" fill="#f47f31"/>
              <path id="Trazado_120639" data-name="Trazado 120639" d="M891.406,4035.244c2.221.11,1.55.565,4.593,1.116s4.263-.281,4.483-.693c.2-.365-1.219-.935-2.727-1.58l-.023.026a8.667,8.667,0,0,1-4.609.055c-2.013-.546-3.96-1.75-5.347-2.138a5.4,5.4,0,0,0-.38,1.391C887.268,4034.8,889.185,4035.133,891.406,4035.244Z" transform="translate(-886.635 -4023.663)" fill="#49101d"/>
            </g>
            <path id="Trazado_120640" data-name="Trazado 120640" d="M655.083,3756.083s24.412,1.156,29.454,4.62,11.853,41.79,11.853,41.79a3.375,3.375,0,0,1-1.675.469,13.882,13.882,0,0,1-3.384-.643s-11.253-17.468-11.925-21.784-.319-8.13-2.226-8.307-25.848,1.894-29.2-4.6S655.083,3756.083,655.083,3756.083Z" transform="translate(-641.898 -3700.744)" fill="#55ffb2"/>
            <path id="Trazado_120641" data-name="Trazado 120641" d="M641.759,3455.769a6.332,6.332,0,0,0-3.156-1.486,1.6,1.6,0,0,1,.785-.153,5.315,5.315,0,0,0-1.959.008c-7.122-5.072-11.349,6.246-11.876,8.992a18.6,18.6,0,0,1-4.851,10.078c-8.607,8.731,3.689,18.835,3.689,18.835.052.052,6.172-13.045,12.316-15.149a15.7,15.7,0,0,0,3.174-5.023,14.835,14.835,0,0,1-2.347,4.678C643.039,3473.594,644.234,3458.158,641.759,3455.769Z" transform="translate(-617.644 -3452.847)" fill="#49101d"/>
            <path id="Trazado_120642" data-name="Trazado 120642" d="M684.106,3565.8a27.493,27.493,0,0,1,4.547,0,14.586,14.586,0,0,1,3.945.99c2.151.9,1.926,4.708-2.589,4S683.79,3566.928,684.106,3565.8Z" transform="translate(-671.947 -3545.107)" fill="#f47f31"/>
            <path id="Trazado_120643" data-name="Trazado 120643" d="M693.514,3543.531c.026.014.644,3.277-2.312,3.146-1.94-.086-6.126-2.434-5.756-4.1a20.542,20.542,0,0,0,1.937-7.516l.353.094,5.94,1.593s-.263,1.885-.386,3.669C693.186,3541.921,693.182,3543.348,693.514,3543.531Z" transform="translate(-673.054 -3520.061)" fill="#f47f31"/>
            <path id="Trazado_120644" data-name="Trazado 120644" d="M704.039,3537.176s-.263,1.885-.386,3.669c-3.362-.319-4.937-3.511-5.553-5.262Z" transform="translate(-683.416 -3520.484)" fill="#e06817"/>
            <path id="Trazado_120645" data-name="Trazado 120645" d="M691.188,3479.111a17.74,17.74,0,0,1-.837-5.567c.13-1.728,2.543-7.639,8.474-5.177a8.632,8.632,0,0,1,3.133,2.2c1.105,1.246,2.534,3.69-.994,8.483l-1.023,1.662Z" transform="translate(-677.064 -3465.05)" fill="#49101d"/>
            <path id="Trazado_120646" data-name="Trazado 120646" d="M701.636,3495.835s-7.769-1.857-6.539-6.677,1.057-8.306,6.069-7.325,5.5,3.066,5.483,4.775S703.688,3496.194,701.636,3495.835Z" transform="translate(-680.854 -3476.408)" fill="#f47f31"/>
            <path id="Trazado_120647" data-name="Trazado 120647" d="M696.074,3479.646s-3.568,5.11-7.033,5.112-4.652-1.23-4.652-1.23a9.5,9.5,0,0,0,4.406-4.666S695.166,3476.545,696.074,3479.646Z" transform="translate(-672.208 -3473.434)" fill="#49101d"/>
            <path id="Trazado_120648" data-name="Trazado 120648" d="M744.9,3485.924a7.052,7.052,0,0,1,1.329,2.994c.071,1.326-.4,3.9.355,4,0,0,2.581-3.433,1.346-6.067C746.616,3484.058,744.9,3485.924,744.9,3485.924Z" transform="translate(-721.674 -3479.389)" fill="#49101d"/>
            <path id="Trazado_120649" data-name="Trazado 120649" d="M666.43,3599.591c-.646.772-2.661,1.009-4.816,1.363a14.454,14.454,0,0,0-4.742,1.375c-2.876,1.688-12.272,7.395-15.025,7.135-1.068-.1-.868-2.139-.221-4.843,1.018-4.271,3.149-10.2,3.149-12.781a74.915,74.915,0,0,1,1.094-8.546c.051-.307.1-.616.154-.929,1.237-7.4,2.95-16.133,2.95-16.133s1.911,4.169,5.634,4.169,2.858-3.179,2.858-3.179,3.4.4,4.2,1.264a33.23,33.23,0,0,1,3.242,5.621s.083,1.3-3.128,1.915a42.111,42.111,0,0,1,.875,5.867c.069,1.733-1.183,7.159-1.543,10.534a6.227,6.227,0,0,0,.05,2.558,4.969,4.969,0,0,0,1.966,1.621C664.94,3597.656,667.2,3598.673,666.43,3599.591Z" transform="translate(-636.813 -3545.54)" fill="#339ce9"/>
            <path id="Trazado_120650" data-name="Trazado 120650" d="M663.125,3658.776c2.061,3.514-5.589,4.57-6.855,5.314-2.876,1.688-11.67,7.81-14.424,7.551-1.068-.1-.868-2.139-.221-4.843,1.018-4.271,3.149-10.2,3.149-12.781a74.9,74.9,0,0,1,1.094-8.546l3.315-3.183s3.552,9.18,6.938,10.685a28.484,28.484,0,0,0,4.99,1.624,6.228,6.228,0,0,0,.05,2.558A4.969,4.969,0,0,0,663.125,3658.776Z" transform="translate(-636.813 -3607.716)" fill="#2784c7"/>
            <path id="Trazado_120651" data-name="Trazado 120651" d="M650.052,3579.257s-2.834-1.721-5.575,1.544,1.948,26.6,6.008,27.8c4.51,1.332,18.043,1.264,18.043,1.264l-.565-1.642s-14.059-4.53-14.636-5.271S651.492,3579.634,650.052,3579.257Z" transform="translate(-638.911 -3555.817)" fill="#f47f31"/>
            <path id="Trazado_120652" data-name="Trazado 120652" d="M640.839,3566.228s-5.82.525-7.511,2.439-2.184,7.1-2.184,7.1,5.126,4.138,11.3,2.532Z" transform="translate(-628.68 -3545.536)" fill="#339ce9"/>
            <g id="Grupo_57585" data-name="Grupo 57585" transform="translate(30.643 40.548)">
              <path id="Trazado_120653" data-name="Trazado 120653" d="M852.376,3680.14l.555-5.105-7.22,9.513s3.023,1.506,3.2,1.218Z" transform="translate(-834.733 -3675.035)" fill="#163560"/>
              <path id="Trazado_120654" data-name="Trazado 120654" d="M793.153,3703.009l-6.669,10.184h11.2l6.272-10.184Z" transform="translate(-786.314 -3697.904)" fill="#007a96"/>
              <path id="Trazado_120655" data-name="Trazado 120655" d="M867.674,3680.36l.524-5.056-3.774,4.721Z" transform="translate(-850.031 -3675.255)" fill="#efdece"/>
              <path id="Trazado_120656" data-name="Trazado 120656" d="M786.067,3710.193l-.512-.366,6.628-9.849.211.553Z" transform="translate(-785.556 -3695.427)" fill="#efdece"/>
              <path id="Trazado_120657" data-name="Trazado 120657" d="M821.872,3699.979l10.552.3.463.257h-10.8Z" transform="translate(-815.244 -3695.427)" fill="#fcecdb"/>
            </g>
            <path id="Trazado_120658" data-name="Trazado 120658" d="M780.7,3737.47a3.809,3.809,0,0,0-.719-.006c.806-.375,1.617-.782,1.617-.782s-.361-.371-1.746.121a1.036,1.036,0,0,1-.467.052l1.942-.873c-.346-.311-1.276-.063-2,.2a1.594,1.594,0,0,1-1.53-.233l-.021-.017.1-.01c1.133-.167,1.422-.815,1.107-.741s-2.214.212-2.214.212a8.911,8.911,0,0,0-2.56.606l.952,1.756a14.029,14.029,0,0,0,3.447.288c.058-.018.126-.042.2-.071h0l2.486-.164S781.252,3737.544,780.7,3737.47Z" transform="translate(-745.636 -3683.653)" fill="#f47f31"/>
          </g>
          <g id="girl_2" data-name="girl 2" transform="translate(202.144 99.125)">
            <path id="Trazado_120659" data-name="Trazado 120659" d="M1323.7,4123.52s14.355,6.254,16.961,6.141,18.662-4.891,18.662-4.891l-.409,2.763s-12.391,7.126-16.723,7.531c-4.265.4-18.849-3.828-20.257-4.72S1319.607,4124.423,1323.7,4123.52Z" transform="translate(-1298.615 -4100.25)" fill="#e06817"/>
            <path id="Trazado_120660" data-name="Trazado 120660" d="M1222.427,3996.273s-5.3-1.006-7.933.92c-4.778,3.489-5.034,15.518-6.825,17.309s-6.107,1.027-6.491,10.3,1.718,10.047-.786,14.186,1.059,8.281,1.059,8.281-1.459-2.285-.834-3.934c0,0,.608,3.64,2.92,4.493s2.654,1.479,3.023,2.73c0,0,19.725-10.107,19.747-17.276s3.882-14.271,1.986-17.377a6.875,6.875,0,0,1,.948,2.807,3.7,3.7,0,0,0-.834-4.208c-1.972-2.029,2.313-6.227,1.678-11.09C1229.649,4000.075,1227.307,3996.418,1222.427,3996.273Z" transform="translate(-1199.5 -3996.01)" fill="#49101d"/>
            <path id="Trazado_120661" data-name="Trazado 120661" d="M1274,4093.5a13.819,13.819,0,0,1-4.826,2.054c-7.439,1.719-10.29-4.569-11.36-8.885a6.4,6.4,0,0,1,2.52-.774c.538-.063,1.1-.1,1.571-.128.835-.64,2.08-3.258,2.355-7.324l.35.094,5.863,1.6s-.268,1.864-.4,3.625a6.972,6.972,0,0,0,.143,3.018c.457.1.732.164.732.164a.013.013,0,0,0,0,.005A37.731,37.731,0,0,1,1274,4093.5Z" transform="translate(-1247.172 -4063.397)" fill="#f47f31"/>
            <path id="Trazado_120662" data-name="Trazado 120662" d="M1300.92,4080.565s-.27,1.862-.4,3.625c-3.322-.333-4.863-3.495-5.463-5.229Z" transform="translate(-1277.618 -4063.823)" fill="#e06817"/>
            <path id="Trazado_120663" data-name="Trazado 120663" d="M1298.8,4036.7s-7.884-.435-7.538-5.341-.438-8.265,4.611-8.2,5.893,2.011,6.176,3.677S1300.865,4036.687,1298.8,4036.7Z" transform="translate(-1274.511 -4018.208)" fill="#f47f31"/>
            <path id="Trazado_120664" data-name="Trazado 120664" d="M1290.979,4019.569c-1.111-1.563-2.054-1.305-2.6-.9a5.518,5.518,0,0,0-7.159.624,9.4,9.4,0,0,1-3.462,5.316s1.372.989,4.742.376a5.642,5.642,0,0,0,2.813-1.657,18.429,18.429,0,0,1-3.439,3.635c4.083-1.544,6.065-6.927,6.265-7.5a6.186,6.186,0,0,1,1.553,2.412c.3,1.277,1.61,3.274,2.365,3.24A8.158,8.158,0,0,0,1290.979,4019.569Z" transform="translate(-1263.475 -4013.68)" fill="#49101d"/>
            <path id="Trazado_120665" data-name="Trazado 120665" d="M1225.981,4138.636c-.712-3.64-3.033-18.181-.712-22.86.834-1.681,4.1-1.833,7.694-1.685,1.117.721,5.373,3.446,7.121,3.106l.1-.023c.823-.206,1.134-.784.448-1.283a15.685,15.685,0,0,1,3.985.244,29.533,29.533,0,0,1,4.61,1.975s-1.694,3.06-4.191,4.116c.425,3.8-.207,5.475-4.148,14.249a16.682,16.682,0,0,0,.449,14.095s-19.6,15.761-19.713,7.736C1221.541,4152.263,1226.891,4143.288,1225.981,4138.636Z" transform="translate(-1217.584 -4092.506)" fill="#68e1de"/>
            <path id="Trazado_120666" data-name="Trazado 120666" d="M1281.106,4214.928a3.643,3.643,0,0,0,2.622-1.6q.142-.212.3-.457c2.231-3.377,3.1-13.723,8.119-24.744,1.223-2.683,5.611-3.166,6.808-6.2,0,0,2.945-9.831-5.637-10.121s-22.985,27.354-23.213,30.254C1269.887,4204.873,1264.433,4216.81,1281.106,4214.928Z" transform="translate(-1256.383 -4139.727)" fill="#49101d"/>
            <path id="Trazado_120667" data-name="Trazado 120667" d="M1466.587,4378.454h-12.216a5.078,5.078,0,0,1,.345-3.274,2.354,2.354,0,0,0-.088-2.812,4.749,4.749,0,0,0,2.058.387,4.306,4.306,0,0,0,1.816-.639,43.917,43.917,0,0,0,3.48,3.656C1462.781,4376.346,1466.341,4376.142,1466.587,4378.454Z" transform="translate(-1407.753 -4303.479)" fill="#00ce89"/>
            <path id="Trazado_120668" data-name="Trazado 120668" d="M1252.169,4144.4s-1.59,14.464,8.721,17.5,13.238-13.309,4.913-14.484A80.191,80.191,0,0,1,1252.169,4144.4Z" transform="translate(-1242.485 -4117.323)" fill="#63c0bd"/>
            <path id="Trazado_120669" data-name="Trazado 120669" d="M1386.9,4172.914c.736,5.514,3.608,22.919,8.675,31.411,1.634,2.737-4.116,4.272-4.147,4.264a9.778,9.778,0,0,1-2.648-1.965c-4.114-3.708-12.464-14.205-12.464-22.622,0-4.1-.072-11.941,2.912-13.934C1381.07,4168.842,1386.612,4170.723,1386.9,4172.914Z" transform="translate(-1344.051 -4137.986)" fill="#49101d"/>
            <path id="Trazado_120670" data-name="Trazado 120670" d="M1232.092,4211.893s.453-.631,1.242-1.827a43.3,43.3,0,0,0,3.24-7.813c1.325-3.768,2.9-8.4,4.861-13.228.606-1.488,1.25-3,1.935-4.5,1.223-2.684,4.586-2.312,5.782-5.346,0,0,4.669-10.515-3.914-10.8s-24.891,28.128-25.828,30.88C1218.385,4202.268,1213.379,4214.779,1232.092,4211.893Z" transform="translate(-1214.654 -4136.917)" fill="#6b2532"/>
            <path id="Trazado_120671" data-name="Trazado 120671" d="M1417.451,4378.454h-12.215a5.078,5.078,0,0,1,.345-3.274,2.354,2.354,0,0,0-.088-2.812,4.748,4.748,0,0,0,2.057.387,4.3,4.3,0,0,0,1.816-.639,43.877,43.877,0,0,0,3.48,3.656C1413.645,4376.346,1417.2,4376.142,1417.451,4378.454Z" transform="translate(-1367.583 -4303.479)" fill="#55ffb2"/>
            <path id="Trazado_120672" data-name="Trazado 120672" d="M1314.658,4258.308c1.325-3.768,2.9-8.4,4.861-13.228-.513-3.655-1.62-6.852-3.48-8.14C1316.038,4236.94,1311.524,4250.925,1314.658,4258.308Z" transform="translate(-1292.737 -4192.972)" fill="#49101d" opacity="0.5"/>
            <path id="Trazado_120673" data-name="Trazado 120673" d="M1339.606,4173.5c.735,5.515,1.771,23.311,6.839,31.8,1.633,2.737-4.116,4.272-4.147,4.265a9.779,9.779,0,0,1-2.648-1.965c-4.114-3.707-12.464-14.205-12.464-22.622,0-4.1,4.816-11.612,7.8-13.6A3,3,0,0,1,1339.606,4173.5Z" transform="translate(-1303.883 -4138.966)" fill="#6b2532"/>
            <path id="Trazado_120674" data-name="Trazado 120674" d="M1327.973,4081.085a7.275,7.275,0,0,0-2.843-.125s.111.818,1.658.9A1.234,1.234,0,0,0,1327.973,4081.085Z" transform="translate(-1302.203 -4065.414)" fill="#fff"/>
            <g id="Grupo_57588" data-name="Grupo 57588" transform="translate(43.923 14.172)">
              <g id="Grupo_57587" data-name="Grupo 57587">
                <path id="Trazado_120675" data-name="Trazado 120675" d="M1504.656,4078.237l-2.533-4.569-5.479,15.288,3.232,3.47Z" transform="translate(-1486.34 -4073.668)" fill="#163560"/>
                <path id="Trazado_120676" data-name="Trazado 120676" d="M1445.27,4101.382l-5.093,14.549,13.537-3.037,4.779-14.188Z" transform="translate(-1440.177 -4094.137)" fill="#007a96"/>
                <path id="Trazado_120677" data-name="Trazado 120677" d="M1440.593,4125.538l-.237-.415,4.819-13.768.241.368Z" transform="translate(-1440.323 -4104.477)" fill="#efdece"/>
                <path id="Trazado_120678" data-name="Trazado 120678" d="M1466.761,4100.167l12.835-2.5.63.189L1467,4100.534Z" transform="translate(-1461.91 -4093.289)" fill="#fcecdb"/>
              </g>
              <path id="Trazado_120679" data-name="Trazado 120679" d="M1520.455,4079.232l-2.739-4.347-1.746,4.908,3.854-.75Z" transform="translate(-1502.138 -4074.663)" fill="#efdece"/>
            </g>
            <path id="Trazado_120680" data-name="Trazado 120680" d="M1286.846,4115.589c-.44-.085-1.385-.441-2.341-.7a1.96,1.96,0,0,0,.692-.773c.171-.539.284-.712-.284-.542s-2.558,1.083-2.558,1.083l.005,0a5.272,5.272,0,0,0-2.172,1.928s-14,4.92-15.68,5c-2.6.131-19.943-6.254-19.943-6.254-4.092.9-3.174,5.931-1.766,6.823s13.884,5.431,21.278,5.516c3.745.043,17.368-8.712,17.368-8.712a5.8,5.8,0,0,1,2.844-.5c1.251.228,4.151,0,4.777-1.024S1287.585,4115.732,1286.846,4115.589Z" transform="translate(-1233.921 -4092.065)" fill="#f47f31"/>
            <path id="Trazado_120681" data-name="Trazado 120681" d="M1250.7,4124.866a9.526,9.526,0,0,1-6.876,6.026s-8.795-2.709-4.416-8.7C1239.41,4122.191,1243.74,4118.974,1250.7,4124.866Z" transform="translate(-1231.127 -4098.447)" fill="#68e1de"/>
            <path id="Trazado_120682" data-name="Trazado 120682" d="M1526.573,4115.793h0a1.343,1.343,0,0,0-.047-.4s-1.254-1.984-1.665-2.065c-1.251-.247-1.251,1.4-.986,2.463a4.319,4.319,0,0,0,1.036,1.835h0l-.05,1.553A3.322,3.322,0,0,0,1526.573,4115.793Z" transform="translate(-1464.562 -4091.899)" fill="#f47f31"/>
          </g>
          <g id="Grupo_57589" data-name="Grupo 57589" transform="translate(137.011 147.199)">
            <path id="Trazado_120683" data-name="Trazado 120683" d="M858.949,4259.436a7.639,7.639,0,0,0-2.968,3.6,4.517,4.517,0,0,0-.231,1.252c-.123,2.974,0,9.7,0,9.7l-6.582-3.365-6.565,3.365v-9.122a6.585,6.585,0,0,1,1.609-4.5,2.59,2.59,0,0,1,1.818-.933Z" transform="translate(-842.602 -4259.436)" fill="#55ffb2"/>
            <path id="Trazado_120684" data-name="Trazado 120684" d="M859.791,4259.436a7.638,7.638,0,0,0-2.968,3.6l-13.191.133s.518-3.2,3.24-3.732Z" transform="translate(-843.444 -4259.436)" fill="#00ce89"/>
          </g>
          <g id="Grupo_57591" data-name="Grupo 57591" transform="translate(17.478 53.312)">
            <path id="Trazado_120685" data-name="Trazado 120685" d="M222.159,4012.661s1.4,6.067,5.474,6.067c3.493,0,8.285-7.9,8.285-7.9Z" transform="translate(-215.854 -3962.313)" fill="#bf3976"/>
            <path id="Trazado_120686" data-name="Trazado 120686" d="M336.691,4167.486l-2.339,1.241s-12.644-13.408-15.684-26.273a20.011,20.011,0,0,1-.529-6.712s-.184-.583-.505-1.613c-.014-.045-.029-.091-.043-.138-.141-.452-.31-.984-.5-1.586-.61-1.944-1.449-4.6-2.4-7.633-2.2-6.97-7.234-22.69-9.385-29.229l15.459-5.593s1.756,4,4.279,14.888c.389,1.421.778,2.991,1.142,4.7.412,1.939.8,4.059,1.117,6.349a97.472,97.472,0,0,1,.927,13.031c.009,1.947-.039,3.966-.154,6.051a26.688,26.688,0,0,0,.568,5.879C330.589,4151.438,336.691,4167.486,336.691,4167.486Z" transform="translate(-283.825 -4026.992)" fill="#007a96"/>
            <path id="Trazado_120687" data-name="Trazado 120687" d="M467.094,4518.233H454.6a5.2,5.2,0,0,1,.353-3.351,2.409,2.409,0,0,0-.09-2.876,4.857,4.857,0,0,0,2.105.4,4.4,4.4,0,0,0,1.859-.653,44.836,44.836,0,0,0,3.561,3.74C463.2,4516.077,466.842,4515.868,467.094,4518.233Z" transform="translate(-405.763 -4371.815)" fill="#49101d"/>
            <path id="Trazado_120688" data-name="Trazado 120688" d="M327.3,4115.888l-9.71,18.1c-.141-.452-.31-.984-.5-1.586-.61-1.944-1.449-4.6-2.4-7.633-2.2-6.97-7.234-22.69-9.385-29.229l15.459-5.593s1.756,4,4.279,14.888c.389,1.421.778,2.991,1.142,4.7C326.6,4111.478,326.98,4113.6,327.3,4115.888Z" transform="translate(-283.825 -4026.992)" fill="#004656"/>
            <path id="Trazado_120689" data-name="Trazado 120689" d="M302.132,4524.334a5.581,5.581,0,0,0-.05,3.913h6.8s.141-1.615-2.326-3.486C304.685,4523.343,302.132,4524.334,302.132,4524.334Z" transform="translate(-280.906 -4381.828)" fill="#49101d"/>
            <path id="Trazado_120690" data-name="Trazado 120690" d="M304.966,3749.286c0-.338.178-3.988,5.722-4.312,0,0-2.721.391-3.163,1.6,0,0,1.822-1.527,3.347-1.087s2.477,3.07,2.507,3.941-.743,3.7-1.7,3.964a2.925,2.925,0,0,1-1.163.03,13.1,13.1,0,0,1,.777,1.313c2.324,4.491.319,9.782-1.567,9.337-1.21-.286-1.945,1.811-1.945,1.811l-11.634-10S300.225,3746.9,304.966,3749.286Z" transform="translate(-276.341 -3744.974)" fill="#49101d"/>
            <path id="Trazado_120691" data-name="Trazado 120691" d="M304.389,3866.173a14.134,14.134,0,0,0,4.938,2.1c7.611,1.759,10.528-4.675,11.624-9.09a6.533,6.533,0,0,0-2.579-.792c-.55-.065-1.129-.108-1.608-.132-.855-.655-2.128-3.334-2.41-7.493l-.358.1-6,1.642s.275,1.907.409,3.709a7.135,7.135,0,0,1-.147,3.088c-.468.1-.749.167-.749.167a.019.019,0,0,1,0,.006A38.629,38.629,0,0,0,304.389,3866.173Z" transform="translate(-283.078 -3831.46)" fill="#f47f31"/>
            <path id="Trazado_120692" data-name="Trazado 120692" d="M324.16,3852.941s.276,1.906.409,3.709c3.4-.34,4.976-3.576,5.59-5.351Z" transform="translate(-299.24 -3831.896)" fill="#e06817"/>
            <path id="Trazado_120693" data-name="Trazado 120693" d="M300.342,3811.639s7.825-2.011,6.5-6.864-1.211-8.382-6.263-7.3-5.512,3.195-5.463,4.922S298.273,3812.037,300.342,3811.639Z" transform="translate(-275.492 -3787.732)" fill="#f47f31"/>
            <path id="Trazado_120694" data-name="Trazado 120694" d="M290.939,3795.763c.8-1.79,1.8-1.719,2.432-1.421a5.646,5.646,0,0,1,7.308-.8,9.611,9.611,0,0,0,4.535,4.643s-1.179,1.267-4.683,1.324a5.773,5.773,0,0,1-3.154-1.1,18.851,18.851,0,0,0,4.176,2.961c-4.406-.734-7.469-5.74-7.783-6.272a6.329,6.329,0,0,0-1.077,2.73c-.049,1.343.475,3.934-.29,4.051C292.4,3801.875,289.734,3798.448,290.939,3795.763Z" transform="translate(-271.827 -3783.862)" fill="#49101d"/>
            <path id="Trazado_120695" data-name="Trazado 120695" d="M267.992,3891.513s13.141-3.19,18.855,1.523l-2.856,39.824-25.7-6.208s.723-2.52,5.651-9.221S266.727,3900.9,267.992,3891.513Z" transform="translate(-245.392 -3863.908)" fill="#f47f31"/>
            <path id="Trazado_120696" data-name="Trazado 120696" d="M269.339,4083.9s-.015.135-.042.392c-.012.11-.027.244-.043.4-.11,1.032-.32,3.013-.59,5.588-.705,6.753-1.812,17.6-2.566,26.165-.59,6.694-.965,11.993-.762,12.844.609,2.56,0,33.166,0,33.166-2.184,1.047-5.5,0-5.5,0s-5.818-27.58-5-31.413a13.2,13.2,0,0,0-.545-7.106c-4.517-21.039-4.023-32.7-3.126-38.281a23.553,23.553,0,0,1,.773-3.408,7.136,7.136,0,0,1,.31-.838A21.26,21.26,0,0,1,269.339,4083.9Z" transform="translate(-239.078 -4019.38)" fill="#007a96"/>
            <path id="Trazado_120697" data-name="Trazado 120697" d="M277.448,3905.755c-.634,4.791-3.172,10.654-4.079,13.81,0,0,1.515,10.956.069,13.964a1.33,1.33,0,0,1-.617.691c-5.359,2.334-26.229.068-27.11-6.665-.32-2.446,7.949-11.051,8.431-12.094.2-.432.413-1.832-.556-4.733-1.374,4.237-8.959,3.019-8.959,3.019.89-1.523,3.108-12.062,5.585-16.819,1.862-3.576,6.833-4.094,6.833-4.094s2.069,3.282,7.073,2.816,5.919-3.529,5.919-3.529,4.438.59,5.806,1.693A22.845,22.845,0,0,1,277.448,3905.755Z" transform="translate(-234.222 -3865.268)" fill="#bf3976"/>
            <path id="Trazado_120698" data-name="Trazado 120698" d="M367.807,3980.635s1.515,10.957.069,13.965c-3.9-1.96-8.993-6.19-7.444-12.8,2.249-9.6,11.454-14.974,11.454-14.974C371.252,3971.616,368.714,3977.479,367.807,3980.635Z" transform="translate(-328.659 -3926.338)" fill="#8f2b58"/>
            <g id="Grupo_57590" data-name="Grupo 57590" transform="translate(0 37.295)">
              <path id="Trazado_120699" data-name="Trazado 120699" d="M246.506,3971.5l8.948,14.356H240.228l-8.526-14.045Z" transform="translate(-223.656 -3967.455)" fill="#007a96"/>
              <path id="Trazado_120700" data-name="Trazado 120700" d="M321.3,3983.11l.154-.5-8.468-13.586-.17.452Z" transform="translate(-289.968 -3965.43)" fill="#efdece"/>
              <path id="Trazado_120701" data-name="Trazado 120701" d="M246.676,3969.023l-14.343.409-.63.354,14.8-.311Z" transform="translate(-223.656 -3965.43)" fill="#fcecdb"/>
              <path id="Trazado_120702" data-name="Trazado 120702" d="M195.658,3953.692l-8.046-4.355,9.38,14.729,7.193,3.672Z" transform="translate(-187.611 -3949.337)" fill="#163560"/>
            </g>
            <path id="Trazado_120703" data-name="Trazado 120703" d="M364.131,4008.854c-.862.394-3.074,3-3.864,3.264-3.55,1.188-18.66-1.974-18.66-1.974l.468-2.646s14.83.394,16.461-.042c.307-.082,1.91-2.589,2.526-2.949Z" transform="translate(-313.503 -3957.143)" fill="#f47f31"/>
            <path id="Trazado_120704" data-name="Trazado 120704" d="M306.367,4015.634s-1.788-1.456-3-1.126-2.987,1.858-3.647,2.219-2.454,1.656-1.545,2.439,3.74.111,4.861-.489a5.8,5.8,0,0,1,2.86-.4Z" transform="translate(-277.794 -3965.279)" fill="#f47f31"/>
            <path id="Trazado_120705" data-name="Trazado 120705" d="M315.451,4013.355s-2.174-.259-2.767-.247-.432.142-.1.6,1.459.637,1.511.8S315.451,4013.355,315.451,4013.355Z" transform="translate(-289.533 -3964.174)" fill="#f47f31"/>
            <path id="Trazado_120706" data-name="Trazado 120706" d="M375.345,3892.122s6.446.765,8.22,3.529c2.244,3.495,7.539,17.413,7.369,20.921,0,0-3.872,6.589-17.148,5.535,0,0-1.381-4.879,1.411-6.49,0,0,6.819-1.213,7.6-1.9l-2.279-9.469Z" transform="translate(-339.53 -3865.268)" fill="#bf3976"/>
            <path id="Trazado_120707" data-name="Trazado 120707" d="M225.327,4000.037c-.2-.812-1.97-.3-2.567.162a2.436,2.436,0,0,0-.454.534c-.019-.136-.035-.266-.044-.367-.034-.382-.478-1.065-.588-.553s-.292,2.661-.292,2.661c-.022,1.732,1.091,2.446,1.806,1.883S225.527,4000.848,225.327,4000.037Z" transform="translate(-215.219 -3953.138)" fill="#f47f31"/>
          </g>
        </g>
      </g>
    </g>
  </g>
</svg>
