<svg xmlns="http://www.w3.org/2000/svg" xmlns:xlink="http://www.w3.org/1999/xlink" width="295" height="183" viewBox="0 0 295 183">
  <defs>
    <clipPath id="clip-path">
      <rect id="Rectángulo_6843" data-name="Rectángulo 6843" width="295" height="183" transform="translate(285 3567)" fill="#fff" stroke="#707070" stroke-width="1"/>
    </clipPath>
    <clipPath id="clip-path-2">
      <path id="Rectángulo_6832" data-name="Rectángulo 6832" d="M11.036,0H179.162A11.035,11.035,0,0,1,190.2,11.035V96.264A11.035,11.035,0,0,1,179.162,107.3H11.035A11.035,11.035,0,0,1,0,96.264V11.036A11.036,11.036,0,0,1,11.036,0Z" fill="none"/>
    </clipPath>
  </defs>
  <g id="Enmascarar_grupo_52" data-name="Enmascarar grupo 52" transform="translate(-285 -3567)" clip-path="url(#clip-path)">
    <g id="Grupo_57753" data-name="Grupo 57753" transform="translate(2122.58 3189.725)">
      <path id="Trazado_120794" data-name="Trazado 120794" d="M-1280.647,1005.623h-92.473a2.616,2.616,0,0,0-2.616,2.616,2.616,2.616,0,0,0,2.616,2.616h92.473a2.616,2.616,0,0,0,2.616-2.616A2.615,2.615,0,0,0-1280.647,1005.623Z" transform="translate(-343.772 -451.534)" opacity="0.15" style="mix-blend-mode: multiply;isolation: isolate"/>
      <g id="Grupo_57698" data-name="Grupo 57698" transform="translate(-1769.696 399.005)">
        <g id="Grupo_57696" data-name="Grupo 57696" transform="translate(0)">
          <g id="Grupo_57695" data-name="Grupo 57695">
            <g id="Grupo_57694" data-name="Grupo 57694">
              <g id="Grupo_57693" data-name="Grupo 57693">
                <g id="Grupo_57692" data-name="Grupo 57692" transform="translate(62.737 120.726)">
                  <path id="Trazado_120795" data-name="Trazado 120795" d="M-1323.5,901.474h1.1c8.711,0,16.45-7.253,19.231-18.023l3.157-12.222h20.341l1.891,10.07c2.225,11.845,10.363,20.176,19.71,20.176h1.889c1.741,0,3.152,1.841,3.152,4.113h-73.627C-1326.654,903.315-1325.243,901.474-1323.5,901.474Z" transform="translate(1326.654 -871.228)" fill="#fff"/>
                  <path id="Trazado_120796" data-name="Trazado 120796" d="M-1235.5,884.113c6.246-2.471,19.533-2.246,26.143-.324-.219-.812-.412-1.641-.572-2.491l-1.892-10.07h-20.34l-3.157,12.222C-1235.373,883.674-1235.436,883.893-1235.5,884.113Z" transform="translate(1258.802 -871.228)" fill="#ccc"/>
                  <path id="Trazado_120797" data-name="Trazado 120797" d="M-1255.031,1008.239h-69.618c-1.107,0-2-1.171-2-2.616h73.627A2.372,2.372,0,0,1-1255.031,1008.239Z" transform="translate(1326.654 -971.264)" fill="#f1f2f2"/>
                </g>
                <path id="Trazado_120798" data-name="Trazado 120798" d="M-1563.146,404.235h181.291a8.906,8.906,0,0,1,8.906,8.905V520.509c0,4.918.307,8.9-5.945,8.9h-187.836c-5.32,0-5.32-3.987-5.32-8.9V413.141A8.9,8.9,0,0,1-1563.146,404.235Z" transform="translate(1572.051 -402.898)" fill="#bcbec0"/>
                <path id="Rectángulo_6793" data-name="Rectángulo 6793" d="M21.478,0H177.624A21.478,21.478,0,0,1,199.1,21.478V103.7a21.477,21.477,0,0,1-21.477,21.477H21.477A21.477,21.477,0,0,1,0,103.7V21.478A21.478,21.478,0,0,1,21.478,0Z" transform="translate(0 0)" fill="#fff"/>
                <path id="Trazado_120799" data-name="Trazado 120799" d="M-1566.56,399.005h188.12a5.491,5.491,0,0,1,5.491,5.491V514.184h-199.1V404.5A5.491,5.491,0,0,1-1566.56,399.005Z" transform="translate(1572.051 -399.005)" fill="#1a1a1a"/>
                <path id="Rectángulo_6794" data-name="Rectángulo 6794" d="M11.036,0H179.162A11.035,11.035,0,0,1,190.2,11.035V96.264A11.035,11.035,0,0,1,179.162,107.3H11.035A11.035,11.035,0,0,1,0,96.264V11.036A11.036,11.036,0,0,1,11.036,0Z" transform="translate(4.453 4.453)" fill="#7bc5c6"/>
              </g>
            </g>
          </g>
        </g>
        <path id="Trazado_120800" data-name="Trazado 120800" d="M-1367.259,416.422h-184.554a2.821,2.821,0,0,0-2.821,2.821v6.436h190.2v-6.436A2.821,2.821,0,0,0-1367.259,416.422Z" transform="translate(1559.087 -411.969)" fill="#fff"/>
        <g id="Grupo_57697" data-name="Grupo 57697" transform="translate(174.077 7.205)">
          <circle id="Elipse_4508" data-name="Elipse 4508" cx="1.942" cy="1.942" r="1.942" fill="#ffc440"/>
          <circle id="Elipse_4509" data-name="Elipse 4509" cx="1.942" cy="1.942" r="1.942" transform="translate(5.917 0)" fill="#56c356"/>
          <circle id="Elipse_4510" data-name="Elipse 4510" cx="1.942" cy="1.942" r="1.942" transform="translate(11.835 0)" fill="#ff5168"/>
        </g>
      </g>
      <g id="Grupo_57736" data-name="Grupo 57736" transform="translate(-1765.244 403.458)">
        <g id="Grupo_57735" data-name="Grupo 57735" transform="translate(0 0)" clip-path="url(#clip-path-2)">
          <g id="Grupo_57734" data-name="Grupo 57734" transform="translate(0 12.854)">
            <g id="Grupo_57699" data-name="Grupo 57699" transform="translate(20.015 1.283)">
              <rect id="Rectángulo_6795" data-name="Rectángulo 6795" width="93.609" height="16.086" transform="translate(16.086 0) rotate(90)" fill="#0098fa"/>
              <rect id="Rectángulo_6796" data-name="Rectángulo 6796" width="16.086" height="3.609" transform="translate(0 69.456)" fill="#4d39ab"/>
              <rect id="Rectángulo_6797" data-name="Rectángulo 6797" width="16.086" height="3.609" transform="translate(0 76.396)" fill="#ffc440"/>
            </g>
            <g id="Grupo_57706" data-name="Grupo 57706" transform="translate(0 9.311)">
              <g id="Grupo_57702" data-name="Grupo 57702">
                <g id="Grupo_57701" data-name="Grupo 57701">
                  <g id="Grupo_57700" data-name="Grupo 57700">
                    <rect id="Rectángulo_6798" data-name="Rectángulo 6798" width="85.581" height="20.015" transform="translate(0 85.581) rotate(-90)" fill="#a2f23c"/>
                  </g>
                </g>
              </g>
              <g id="Grupo_57705" data-name="Grupo 57705" transform="translate(0 63.094)">
                <g id="Grupo_57704" data-name="Grupo 57704" transform="translate(0 0)">
                  <g id="Grupo_57703" data-name="Grupo 57703">
                    <rect id="Rectángulo_6799" data-name="Rectángulo 6799" width="22.487" height="20.015" transform="translate(0 22.487) rotate(-90)" fill="#74cf00"/>
                  </g>
                </g>
              </g>
              <rect id="Rectángulo_6800" data-name="Rectángulo 6800" width="8.606" height="5.82" transform="translate(12.918 58.93) rotate(90)" fill="#4d39ab"/>
            </g>
            <g id="Grupo_57707" data-name="Grupo 57707" transform="translate(88.666 3.202)">
              <rect id="Rectángulo_6801" data-name="Rectángulo 6801" width="91.69" height="11.379" transform="translate(11.379 0) rotate(90)" fill="#794fe4"/>
              <rect id="Rectángulo_6802" data-name="Rectángulo 6802" width="3.709" height="11.379" transform="translate(11.379 6.109) rotate(90)" fill="#4d39ab"/>
              <rect id="Rectángulo_6803" data-name="Rectángulo 6803" width="3.709" height="11.379" transform="translate(11.379 9.818) rotate(90)" fill="#ffc440"/>
              <path id="Trazado_120801" data-name="Trazado 120801" d="M-1193.025,769.152h0a3.818,3.818,0,0,0-3.818-3.818h-.173a3.818,3.818,0,0,0-3.818,3.818h0a3.818,3.818,0,0,0,3.818,3.818h.173A3.818,3.818,0,0,0-1193.025,769.152Z" transform="translate(1202.619 -692.189)" fill="#fff"/>
            </g>
            <g id="Grupo_57711" data-name="Grupo 57711" transform="translate(70.307)">
              <g id="Grupo_57710" data-name="Grupo 57710" transform="translate(0)">
                <g id="Grupo_57708" data-name="Grupo 57708" transform="translate(0)">
                  <rect id="Rectángulo_6804" data-name="Rectángulo 6804" width="96.742" height="18.358" transform="translate(0 96.742) rotate(-90)" fill="#ff6c4c"/>
                </g>
                <g id="Grupo_57709" data-name="Grupo 57709" transform="translate(0 38.951)">
                  <path id="Trazado_120802" data-name="Trazado 120802" d="M-1279.625,619.06v4.619c0,1.393,18.358,1.393,18.358,0V619.06C-1261.267,620.052-1279.625,620.052-1279.625,619.06Z" transform="translate(1279.625 -619.06)" fill="#ffb6a6"/>
                </g>
              </g>
              <rect id="Rectángulo_6805" data-name="Rectángulo 6805" width="1.119" height="4.876" transform="translate(0 90.017)" fill="#b34c35"/>
              <rect id="Rectángulo_6806" data-name="Rectángulo 6806" width="1.119" height="4.876" transform="translate(2.463 90.017)" fill="#b34c35"/>
              <rect id="Rectángulo_6807" data-name="Rectángulo 6807" width="1.119" height="4.876" transform="translate(4.925 90.017)" fill="#b34c35"/>
              <rect id="Rectángulo_6808" data-name="Rectángulo 6808" width="1.119" height="4.876" transform="translate(7.388 90.017)" fill="#b34c35"/>
              <rect id="Rectángulo_6809" data-name="Rectángulo 6809" width="1.119" height="4.876" transform="translate(9.851 90.017)" fill="#b34c35"/>
              <rect id="Rectángulo_6810" data-name="Rectángulo 6810" width="1.119" height="4.876" transform="translate(12.314 90.017)" fill="#b34c35"/>
              <rect id="Rectángulo_6811" data-name="Rectángulo 6811" width="1.119" height="4.876" transform="translate(14.776 90.017)" fill="#b34c35"/>
              <rect id="Rectángulo_6812" data-name="Rectángulo 6812" width="1.119" height="4.876" transform="translate(17.239 90.017)" fill="#b34c35"/>
              <rect id="Rectángulo_6813" data-name="Rectángulo 6813" width="25.148" height="4.986" transform="translate(12.012 6.362) rotate(90)" fill="#fff"/>
            </g>
            <g id="Grupo_57714" data-name="Grupo 57714" transform="translate(55.371 16.198)">
              <g id="Grupo_57713" data-name="Grupo 57713" transform="translate(0 0)">
                <g id="Grupo_57712" data-name="Grupo 57712">
                  <rect id="Rectángulo_6814" data-name="Rectángulo 6814" width="78.694" height="14.936" transform="translate(14.936 0) rotate(90)" fill="#4d39ab"/>
                  <rect id="Rectángulo_6815" data-name="Rectángulo 6815" width="6.085" height="56.155" transform="translate(4.472 5.77)" fill="#a15fdc"/>
                </g>
              </g>
              <rect id="Rectángulo_6816" data-name="Rectángulo 6816" width="0.721" height="14.936" transform="translate(14.982 66.433) rotate(90)" fill="#ffc440"/>
              <rect id="Rectángulo_6817" data-name="Rectángulo 6817" width="0.721" height="14.936" transform="translate(14.982 68.957) rotate(90)" fill="#ffc440"/>
              <rect id="Rectángulo_6818" data-name="Rectángulo 6818" width="0.721" height="14.936" transform="translate(14.982 71.843) rotate(90)" fill="#ffc440"/>
            </g>
            <g id="Grupo_57718" data-name="Grupo 57718" transform="translate(36.102 21.968)">
              <g id="Grupo_57717" data-name="Grupo 57717" transform="translate(0)">
                <g id="Grupo_57716" data-name="Grupo 57716" transform="translate(0)">
                  <g id="Grupo_57715" data-name="Grupo 57715">
                    <rect id="Rectángulo_6819" data-name="Rectángulo 6819" width="72.924" height="9.404" transform="translate(0 72.924) rotate(-90)" fill="#ff5168"/>
                  </g>
                </g>
              </g>
              <rect id="Rectángulo_6820" data-name="Rectángulo 6820" width="37.686" height="5.901" transform="translate(7.652 26.403) rotate(90)" fill="#fff"/>
              <ellipse id="Elipse_4511" data-name="Elipse 4511" cx="3.043" cy="2.975" rx="3.043" ry="2.975" transform="translate(1.613 10.536)" fill="#ffc440"/>
            </g>
            <g id="Grupo_57721" data-name="Grupo 57721" transform="translate(45.506 26.914)">
              <g id="Grupo_57720" data-name="Grupo 57720" transform="translate(0 0)">
                <g id="Grupo_57719" data-name="Grupo 57719">
                  <rect id="Rectángulo_6821" data-name="Rectángulo 6821" width="67.979" height="9.865" transform="translate(9.865 0) rotate(90)" fill="#472851"/>
                  <rect id="Rectángulo_6822" data-name="Rectángulo 6822" width="4.702" height="45.439" transform="translate(2.628 5.77)" fill="#69c1fa"/>
                </g>
              </g>
              <rect id="Rectángulo_6823" data-name="Rectángulo 6823" width="0.721" height="9.865" transform="translate(9.911 57.06) rotate(90)" fill="#ed687e"/>
              <rect id="Rectángulo_6824" data-name="Rectángulo 6824" width="0.721" height="9.865" transform="translate(9.911 59.584) rotate(90)" fill="#ed687e"/>
              <rect id="Rectángulo_6825" data-name="Rectángulo 6825" width="0.721" height="9.865" transform="translate(9.911 62.469) rotate(90)" fill="#ed687e"/>
            </g>
            <g id="Grupo_57725" data-name="Grupo 57725" transform="translate(164.708 25.503)">
              <g id="Grupo_57724" data-name="Grupo 57724" transform="translate(0)">
                <g id="Grupo_57723" data-name="Grupo 57723" transform="translate(0)">
                  <g id="Grupo_57722" data-name="Grupo 57722">
                    <rect id="Rectángulo_6826" data-name="Rectángulo 6826" width="69.389" height="15.246" transform="translate(0 69.389) rotate(-90)" fill="#ffc440"/>
                  </g>
                </g>
              </g>
              <path id="Trazado_120803" data-name="Trazado 120803" d="M-910.372,602.455v7.73c0,1.644,15.246,1.644,15.246,0v-7.73C-895.126,604.062-910.372,604.062-910.372,602.455Zm15.246,10.859c0,1.406-15.246,1.406-15.246,0v7.73c0,2.177,15.246,2.177,15.246,0Z" transform="translate(910.372 -593.252)" fill="#785738"/>
            </g>
            <g id="Grupo_57729" data-name="Grupo 57729" transform="translate(179.954 25.503)">
              <g id="Grupo_57728" data-name="Grupo 57728" transform="translate(0)">
                <g id="Grupo_57726" data-name="Grupo 57726" transform="translate(0)">
                  <rect id="Rectángulo_6827" data-name="Rectángulo 6827" width="69.389" height="10.54" transform="translate(0 69.389) rotate(-90)" fill="#a15fdc"/>
                </g>
                <g id="Grupo_57727" data-name="Grupo 57727" transform="translate(0 20.798)">
                  <rect id="Rectángulo_6828" data-name="Rectángulo 6828" width="1.104" height="10.54" transform="translate(0 1.104) rotate(-90)" fill="#4a3195"/>
                </g>
                <rect id="Rectángulo_6829" data-name="Rectángulo 6829" width="2.823" height="6.258" rx="1.412" transform="translate(6.494 14.448) rotate(-180)" fill="#fff"/>
              </g>
            </g>
            <g id="Grupo_57733" data-name="Grupo 57733" transform="translate(148.657)">
              <g id="Grupo_57732" data-name="Grupo 57732" transform="translate(0)">
                <g id="Grupo_57731" data-name="Grupo 57731" transform="translate(0)">
                  <g id="Grupo_57730" data-name="Grupo 57730">
                    <rect id="Rectángulo_6830" data-name="Rectángulo 6830" width="94.892" height="16.052" transform="translate(0 94.892) rotate(-90)" fill="#2c1f47"/>
                  </g>
                </g>
              </g>
              <rect id="Rectángulo_6831" data-name="Rectángulo 6831" width="64.323" height="10.072" transform="translate(13.062 15.488) rotate(90)" fill="#fff"/>
              <ellipse id="Elipse_4512" data-name="Elipse 4512" cx="3.737" cy="3.654" rx="3.737" ry="3.654" transform="translate(4.21 3.73)" fill="#ffc440"/>
            </g>
          </g>
          <path id="Trazado_120804" data-name="Trazado 120804" d="M-1468.649,471.721h-7.384v93.143Z" transform="translate(1496.128 -457.584)" opacity="0.15" style="mix-blend-mode: multiply;isolation: isolate"/>
          <path id="Trazado_120805" data-name="Trazado 120805" d="M-1554.322,588.7h.545l6.785-85.581h-7.329Z" transform="translate(1554.402 -480.956)" opacity="0.15" style="mix-blend-mode: multiply;isolation: isolate"/>
          <path id="Trazado_120806" data-name="Trazado 120806" d="M-1272.12,466.7h-7.506v94.675Z" transform="translate(1349.933 -453.847)" opacity="0.15" style="mix-blend-mode: multiply;isolation: isolate"/>
          <path id="Trazado_120807" data-name="Trazado 120807" d="M-1202.68,479.225h-5.136V556.4Z" transform="translate(1296.481 -463.169)" opacity="0.15" style="mix-blend-mode: multiply;isolation: isolate"/>
          <path id="Trazado_120808" data-name="Trazado 120808" d="M-965.979,466.7h-7.18V561Z" transform="translate(1121.815 -453.847)" opacity="0.15" style="mix-blend-mode: multiply;isolation: isolate"/>
          <path id="Trazado_120809" data-name="Trazado 120809" d="M-910.372,566.458v69.389h.193l8.37-69.389Z" transform="translate(1075.08 -528.1)" opacity="0.15" style="mix-blend-mode: multiply;isolation: isolate"/>
          <path id="Trazado_120810" data-name="Trazado 120810" d="M-845.454,566.458h-5.282v67.7Z" transform="translate(1030.691 -528.1)" opacity="0.15" style="mix-blend-mode: multiply;isolation: isolate"/>
          <path id="Trazado_120811" data-name="Trazado 120811" d="M-1413.422,625.547l4.23-72.885h-4.23Z" transform="translate(1449.524 -517.832)" opacity="0.15" style="mix-blend-mode: multiply;isolation: isolate"/>
          <path id="Trazado_120812" data-name="Trazado 120812" d="M-1376.552,639.6l3.607-67.5h-3.607Z" transform="translate(1422.079 -532.304)" opacity="0.15" style="mix-blend-mode: multiply;isolation: isolate"/>
          <path id="Trazado_120813" data-name="Trazado 120813" d="M-1330.864,530.059h-7.185v78.171Z" transform="translate(1393.42 -501.007)" opacity="0.15" style="mix-blend-mode: multiply;isolation: isolate"/>
        </g>
      </g>
      <g id="Grupo_57752" data-name="Grupo 57752" transform="translate(-1837.58 423.848)">
        <g id="Grupo_57747" data-name="Grupo 57747">
          <g id="Grupo_57746" data-name="Grupo 57746">
            <g id="Grupo_57745" data-name="Grupo 57745">
              <g id="Grupo_57738" data-name="Grupo 57738" transform="translate(0 53.415)">
                <path id="Trazado_120814" data-name="Trazado 120814" d="M-1292.323,760.621l9.319,8.712s-1.832,3.534-5.181,2.549-10.111-8.626-10.111-8.626l-2.684,2.254-6.357-.63.75-1.629,6.353-3.58A6.741,6.741,0,0,1-1292.323,760.621Z" transform="translate(1442.897 -745.078)" fill="#8c4719"/>
                <path id="Trazado_120815" data-name="Trazado 120815" d="M-1279.869,750.15s-2.094,3.877-4.692,3.083c-1.713-.523-6.218-5.416-9.089-8.688a4.835,4.835,0,0,0-5.975-1.041l-6.621,3.663-2.49.988-.48-4.494,14.818-7.328,7.877,5.2Z" transform="translate(1444.294 -728.352)" fill="#b35b20"/>
                <path id="Trazado_120816" data-name="Trazado 120816" d="M-1296.38,725.148l12.041,11.142a2.464,2.464,0,0,1-.789,4.124,2.437,2.437,0,0,1-1.785-.06c-2-.809-8.959-7.026-12.288-10.06-1.064-.97-4.331-2.354-5.535-1.562L-1316.5,735.6l-2.918-2.682,13.775-10.126Z" transform="translate(1451.891 -718.273)" fill="#de7935"/>
                <path id="Trazado_120817" data-name="Trazado 120817" d="M-1377.17,831.835s10.49,5.146,15.339,16.49A32.591,32.591,0,0,1-1377.17,831.835Z" transform="translate(1494.876 -799.439)" fill="#b3b3b3"/>
                <path id="Trazado_120818" data-name="Trazado 120818" d="M-1340.872,714.255s3.146,4.933.5,8.527-13.551,10.822-13.551,10.822-2.835,11.679-7.3,14.544-8.3,5.891-8.3,5.891L-1382,741.265l4.213-3.462s3.224-18.6,5.765-21.631,9.332-6.618,13.95-9.748a7.592,7.592,0,0,1,5.94-1.119l21.121,4.79s.646,3.231-2.241,4.1-19.578-2.177-19.578-2.177l-7.219,4.557a4.251,4.251,0,0,0-.817,6.518h0a4.25,4.25,0,0,0,5.4.641Z" transform="translate(1498.474 -705.116)" fill="#ffb583"/>
                <path id="Trazado_120819" data-name="Trazado 120819" d="M-1369.519,850.143-1382,837.369l3.822-3.141c1.191,2.628,4.429,8.143,12.171,13.294C-1368.111,849.033-1369.519,850.143-1369.519,850.143Z" transform="translate(1498.474 -801.22)" fill="#ffb583"/>
                <g id="Grupo_57737" data-name="Grupo 57737" transform="translate(0 32.396)">
                  <path id="Trazado_120820" data-name="Trazado 120820" d="M-1376.044,848.325c-12.214-6.979-15.339-16.49-15.339-16.49l-4.882,4.541s3.125,9.511,15.339,16.49Z" transform="translate(1509.089 -831.835)" fill="#fff"/>
                  <path id="Trazado_120821" data-name="Trazado 120821" d="M-1708.963,865.258c-31,24.636-61.186,54.823-109.082,111.067l-19.535-21.517c49.473-54.88,80.871-84.346,112.717-106.643C-1724.863,848.164-1721.511,857.919-1708.963,865.258Z" transform="translate(1837.58 -843.989)" fill="#472851"/>
                </g>
              </g>
              <g id="Grupo_57743" data-name="Grupo 57743" transform="translate(133.836)">
                <g id="Grupo_57739" data-name="Grupo 57739" transform="translate(0.023 5.139)">
                  <path id="Trazado_120822" data-name="Trazado 120822" d="M-1255.591,516.283l16.379,72.044-48.418,26.058-9.249-4.934a2.688,2.688,0,0,1-1.375-1.681l-15.733-69.2.7-1.177,9.254,4.937h0Z" transform="translate(1313.986 -516.283)" fill="#e64c6c"/>
                  <path id="Trazado_120823" data-name="Trazado 120823" d="M-1287.629,675.843l-9.249-4.934a2.688,2.688,0,0,1-1.375-1.682l-15.733-69.2.7-1.177,9.254,4.937.049.026Z" transform="translate(1313.986 -577.74)" fill="#ad4258"/>
                  <path id="Trazado_120824" data-name="Trazado 120824" d="M-1202.313,569.229l-28.856,15.515a2.469,2.469,0,0,0-1.238,2.722l4.663,20.511a2.469,2.469,0,0,0,3.577,1.627l28.856-15.515a2.469,2.469,0,0,0,1.238-2.722l-4.663-20.511A2.469,2.469,0,0,0-1202.313,569.229Z" transform="translate(1253.309 -555.473)" fill="#fff"/>
                </g>
                <g id="Grupo_57740" data-name="Grupo 57740" transform="translate(3.689 36.059)">
                  <path id="Trazado_120825" data-name="Trazado 120825" d="M-1299.647,637.224l9.08,39.94,6.528,3.482-9.08-39.94Z" transform="translate(1299.647 -637.224)" fill="#8c3647"/>
                  <path id="Trazado_120826" data-name="Trazado 120826" d="M-1250.15,839.88c-1.859-.992-3.045-.384-2.649,1.358a8.833,8.833,0,0,0,4.083,4.949c1.859.992,3.045.384,2.649-1.357A8.832,8.832,0,0,0-1250.15,839.88Z" transform="translate(1264.833 -787.716)" fill="#482952"/>
                </g>
                <g id="Grupo_57742" data-name="Grupo 57742">
                  <g id="Grupo_57741" data-name="Grupo 57741" transform="translate(0.62 1.066)">
                    <path id="Trazado_120827" data-name="Trazado 120827" d="M-1262.832,500.35l-48.818,26.571,7.488,3.995,48.818-26.571C-1257.149,505.314-1264.637,501.319-1262.832,500.35Z" transform="translate(1311.65 -500.35)" fill="#fff"/>
                    <path id="Trazado_120828" data-name="Trazado 120828" d="M-1257.1,506.25l-47.49,25.858.334.178,47.517-25.872Q-1256.92,506.334-1257.1,506.25Zm-1.223-.635-47.474,25.849.334.178L-1258,505.8Q-1258.162,505.707-1258.323,505.615Zm2.586,1.2-47.646,25.942.334.178,47.723-25.983C-1255.461,506.9-1255.6,506.858-1255.736,506.81Zm-3.676-1.9L-1307,530.82l.334.178,47.543-25.886Q-1259.275,505.01-1259.413,504.908Zm-.888-.815-47.91,26.083.334.178,47.79-26.019A2.836,2.836,0,0,1-1260.3,504.093Z" transform="translate(1309.089 -503.136)" fill="#e6e6e6"/>
                  </g>
                  <path id="Trazado_120829" data-name="Trazado 120829" d="M-1300.791,604.993l-2.979.188-6.757-3.605,1.2-1.135Z" transform="translate(1311.434 -573.786)" opacity="0.1" style="mix-blend-mode: multiply;isolation: isolate"/>
                  <path id="Trazado_120830" data-name="Trazado 120830" d="M-1263.86,496.943l-48.033,26.15c-.614.329-.463.944.336,1.37l3.949,2.107a3.09,3.09,0,0,0,2.561.175l48.033-26.15,1.43.763-48.033,26.15a6.133,6.133,0,0,1-5.09-.348l-3.949-2.107c-1.59-.848-1.889-2.067-.667-2.723l48.033-26.15Z" transform="translate(1314.075 -496.18)" fill="#ff6988"/>
                </g>
              </g>
              <path id="Trazado_120831" data-name="Trazado 120831" d="M-1258.533,763.624l-12.056,7.851,2.955,13,3.724-10.2c8.2-4.788,6.987-8.8,6.987-8.8Z" transform="translate(1415.543 -695.251)" opacity="0.25" style="mix-blend-mode: multiply;isolation: isolate"/>
              <g id="Grupo_57744" data-name="Grupo 57744" transform="translate(137.253 62.555)">
                <path id="Trazado_120832" data-name="Trazado 120832" d="M-1300.711,774.758c4.462-2.866,7.3-14.544,7.3-14.544s10.9-7.228,13.551-10.822-.5-8.527-.5-8.527l-14.6,9.476a4.25,4.25,0,0,1-5.4-.641Z" transform="translate(1300.711 -740.865)" fill="#ffb583"/>
              </g>
              <path id="Trazado_120833" data-name="Trazado 120833" d="M-1238.043,743.188h0l-4.585,2.976s.832,1.736,1.982,1.629S-1236.348,745.892-1238.043,743.188Z" transform="translate(1394.73 -680.039)" fill="#ffd3b5"/>
            </g>
          </g>
        </g>
        <path id="Trazado_120834" data-name="Trazado 120834" d="M-1117.289,566.458l-8.475,73.563,13.174-7.09,4.14-48.342-3.365-14.8Z" transform="translate(1307.743 -548.491)" opacity="0.15" style="mix-blend-mode: multiply;isolation: isolate"/>
        <g id="Grupo_57748" data-name="Grupo 57748" transform="translate(190.454 17.967)">
          <rect id="Rectángulo_6833" data-name="Rectángulo 6833" width="69.389" height="15.246" transform="translate(15.246 0) rotate(90)" fill="#ff6c4c"/>
          <rect id="Rectángulo_6834" data-name="Rectángulo 6834" width="15.246" height="1.134" transform="translate(0 68.255)" fill="#4d39ab"/>
          <rect id="Rectángulo_6835" data-name="Rectángulo 6835" width="15.246" height="1.134" transform="translate(0 68.255)" fill="#4d39ab"/>
          <rect id="Rectángulo_6836" data-name="Rectángulo 6836" width="15.246" height="1.134" transform="translate(0 68.255)" fill="#4d39ab"/>
          <path id="Trazado_120835" data-name="Trazado 120835" d="M-1092.614,770.374v17.257h15.246V770.374C-1077.368,772.771-1092.614,772.771-1092.614,770.374Z" transform="translate(1092.614 -718.242)" fill="#d13817"/>
          <ellipse id="Elipse_4513" data-name="Elipse 4513" cx="3.576" cy="3.497" rx="3.576" ry="3.497" transform="translate(4.047 57.728)" fill="#fff"/>
        </g>
        <g id="Grupo_57751" data-name="Grupo 57751" transform="translate(205.7 11.399)">
          <g id="Grupo_57750" data-name="Grupo 57750" transform="translate(0 0)">
            <g id="Grupo_57749" data-name="Grupo 57749" transform="translate(0 0)">
              <rect id="Rectángulo_6837" data-name="Rectángulo 6837" width="75.957" height="15.246" transform="translate(15.246 0) rotate(90)" fill="#4d39ab"/>
              <rect id="Rectángulo_6838" data-name="Rectángulo 6838" width="6.211" height="46.382" transform="translate(4.564 12.457)" fill="#a15fdc"/>
            </g>
          </g>
          <rect id="Rectángulo_6839" data-name="Rectángulo 6839" width="0.736" height="15.246" transform="translate(15.293 63.441) rotate(90)" fill="#ffc440"/>
          <rect id="Rectángulo_6840" data-name="Rectángulo 6840" width="0.736" height="15.246" transform="translate(15.293 66.018) rotate(90)" fill="#ffc440"/>
          <rect id="Rectángulo_6841" data-name="Rectángulo 6841" width="0.736" height="15.246" transform="translate(15.293 68.963) rotate(90)" fill="#ffc440"/>
          <path id="Trazado_120836" data-name="Trazado 120836" d="M-1032.938,616.724h1.071l5.055-75.957h-6.126Z" transform="translate(1032.948 -540.768)" opacity="0.15" style="mix-blend-mode: multiply;isolation: isolate"/>
        </g>
      </g>
      <path id="Trazado_120837" data-name="Trazado 120837" d="M-1797.177,976.6c-16.459,7.72-17.3-6.505-17.307-6.547l-.009.01q-2.014,2.15-4.07,4.363l-.136.146q-1.966,2.116-3.972,4.292l-.5.539q-.938,1.018-1.885,2.05l-.8.868-.985,1.076-1.037,1.134-1.092,1.2-1.425,1.562-.725.8-1.6,1.765-.4.443q-.932,1.028-1.874,2.069l-.564.623q-.992,1.1-1.993,2.208l-.027.03,19.535,21.517q10.1-11.864,19.207-22.239,2.029-2.312,4.014-4.557,2.978-3.367,5.863-6.589,1.924-2.148,3.807-4.234,4.711-5.214,9.191-10.055,1.794-1.939,3.554-3.821,2.641-2.824,5.211-5.527.857-.9,1.706-1.79,1.7-1.777,3.37-3.5c7.241-7.483,14.1-14.274,20.726-20.546q1.53-1.447,3.043-2.858c10.094-9.409,19.7-17.649,29.39-25.348a44.738,44.738,0,0,1-4.768-3.214C-1746.4,926.184-1784.212,970.517-1797.177,976.6Z" transform="translate(0 -374.743)" opacity="0.15" style="mix-blend-mode: multiply;isolation: isolate"/>
    </g>
  </g>
</svg>
