<svg xmlns="http://www.w3.org/2000/svg" width="152.441" height="112" viewBox="0 0 152.441 112">
  <g id="Grupo_57759" data-name="Grupo 57759" transform="translate(-285 -2033)">
    <g id="Grupo_53940" data-name="Grupo 53940" transform="translate(-50.189 197.395)">
      <path id="Trazado_100929" data-name="Trazado 100929" d="M487.63,1835.606H391.189a56,56,0,0,0,0,112H487.63Z" fill="#bf3976"/>
      <g id="Grupo_53939" data-name="Grupo 53939" transform="translate(0 -13.665)">
        <g id="Grupo_53937" data-name="Grupo 53937" transform="translate(381.488 1866.187)">
          <path id="Trazado_100930" data-name="Trazado 100930" d="M451.179,1936.69H390.465a8.962,8.962,0,0,1-7.762-13.444l30.357-52.579a8.87,8.87,0,0,1,7.761-4.481h0a8.87,8.87,0,0,1,7.76,4.481l30.357,52.579a8.962,8.962,0,0,1-7.761,13.444Zm-34.094-63.7-30.357,52.581a4.315,4.315,0,0,0,3.737,6.472h60.714a4.315,4.315,0,0,0,3.736-6.472l-30.357-52.581a4.316,4.316,0,0,0-7.473,0Z" transform="translate(-381.488 -1866.187)" fill="#fff"/>
        </g>
        <g id="Grupo_53938" data-name="Grupo 53938" transform="translate(415.225 1885.218)">
          <path id="Trazado_100931" data-name="Trazado 100931" d="M411.427,1879.91h0a5.612,5.612,0,0,1,5.572,6.278l-2.466,20.614a3.145,3.145,0,0,1-3.123,2.772h0a3.147,3.147,0,0,1-3.123-2.776l-2.432-20.619A5.612,5.612,0,0,1,411.427,1879.91Z" transform="translate(-405.816 -1879.91)" fill="#fff"/>
          <path id="Trazado_100932" data-name="Trazado 100932" d="M407.932,1910.657a4.545,4.545,0,1,1,3.18,1.3A4.323,4.323,0,0,1,407.932,1910.657Z" transform="translate(-405.499 -1870.978)" fill="#fff"/>
        </g>
      </g>
    </g>
  </g>
</svg>
